<svg width="76" height="74" viewBox="0 0 76 74" fill="none" xmlns="http://www.w3.org/2000/svg">
<g id="logo">
<path id="Vector" fill-rule="evenodd" clip-rule="evenodd" d="M15.4832 4.84363H71.9151C74.0356 4.84363 75.7555 6.42408 75.7555 8.3728V60.2311C75.7555 62.1798 74.0356 63.7603 71.9151 63.7603H47.0191V47.5926H64.6127V31.251H47.0191V15.0833H29.2363V31.251H11.6372V8.3728C11.6372 6.42408 13.3626 4.84363 15.4832 4.84363Z" fill="#1EE0CC"/>
<path id="Vector_2" fill-rule="evenodd" clip-rule="evenodd" d="M4.34042 15.0833H29.2363V31.2509H11.6372V47.5925H29.2308V63.7602H47.0136V47.5925H64.6071V70.4707C64.6071 72.4194 62.8873 73.9999 60.7667 73.9999H0.5V18.6124C0.5 16.6637 2.21984 15.0833 4.34042 15.0833Z" fill="#6B48FF"/>
<path id="left_x5F_line" d="M30.2883 0H22.4015V9.66685H30.2883V0Z" fill="white"/>
<path id="right_x5F_line" d="M64.9966 0H57.1099V9.66685H64.9966V0Z" fill="white"/>
</g>
</svg>
