<svg width="81" height="40" viewBox="0 0 81 40" fill="none" xmlns="http://www.w3.org/2000/svg">
<g id="MedicTime">
<path id="Vector" d="M37.0726 21.7712C37.8959 21.6132 38.7192 21.3642 39.5581 21.0194V18.994C38.6931 19.3388 37.8542 19.5973 37.0518 19.7697C36.2442 19.9469 35.3219 20.0331 34.2746 20.0331C32.5707 20.0331 31.2525 19.5638 30.3146 18.6301C29.3767 17.6964 28.8921 16.3365 28.8661 14.5505H40.3032V13.1188C40.3032 11.7398 40.0374 10.5332 39.5007 9.50372C38.9693 8.47425 38.1981 7.66983 37.1873 7.09524C36.1816 6.52065 34.9728 6.23336 33.5607 6.23336C32.081 6.23336 30.794 6.55896 29.6997 7.20537C28.6055 7.85178 27.7614 8.77591 27.1622 9.97297C26.563 11.17 26.266 12.5873 26.266 14.2297C26.266 15.5034 26.4536 16.6238 26.834 17.6006C26.7558 17.5432 26.6724 17.4857 26.5838 17.4426C25.9534 17.117 25.2187 16.959 24.3694 16.959C23.5669 16.959 22.8792 17.0979 22.2956 17.3756V1.43555H18.5179L11.416 18.3141H11.3118L4.31926 1.43555H0.510376V21.7329H0.515579V23.2077H5.90847V39.0184H11.8745V23.2029H17.2518V18.7211H13.5836L19.831 3.79614H19.9508C19.9196 4.19357 19.8883 4.66282 19.8623 5.20389C19.831 5.74496 19.8049 6.31955 19.7841 6.92286C19.7633 7.53097 19.7529 8.13429 19.7529 8.73282V19.3962C19.7529 20.6843 20.8887 21.7281 22.2904 21.7281C22.2904 21.7281 23.2387 21.7568 24.3642 21.7568C25.2083 21.7568 25.9482 21.594 26.5786 21.2636C27.2091 20.9332 27.5217 20.306 27.5217 19.3675C27.5217 19.1951 27.5113 19.0323 27.4905 18.8839C28.121 19.8415 28.9598 20.5837 29.9967 21.1104C31.1795 21.7089 32.5655 22.0058 34.16 22.0058C35.2802 22.0058 36.2494 21.9292 37.0726 21.7712ZM30.3302 9.33135C31.1274 8.52693 32.1956 8.12471 33.5347 8.12471C34.483 8.12471 35.2594 8.31624 35.8586 8.6993C36.463 9.08236 36.9111 9.61864 37.2081 10.3081C37.5051 10.9977 37.6562 11.7973 37.6666 12.7023H28.9077C29.0588 11.261 29.533 10.1406 30.3302 9.33135ZM2.8968 18.7211V8.90519C2.8968 8.23963 2.88637 7.58364 2.86553 6.94202C2.84469 6.30039 2.81864 5.70665 2.79259 5.156C2.76133 4.61014 2.72485 4.14569 2.68838 3.76742H2.80821L8.98268 18.7211H2.8968Z" fill="#0D3F67"/>
<path id="Vector_2" d="M49.6769 22.0059C50.5731 22.0059 51.3495 21.8957 52.0112 21.6803C52.673 21.4648 53.2409 21.1679 53.7203 20.7992C54.1997 20.4305 54.5957 20.0187 54.9083 19.5639H55.0125L55.3877 21.7281H57.4093V0.128418H54.9031V6.22384C54.9031 6.53987 54.9239 6.94687 54.9656 7.44484C55.0073 7.94282 55.0438 8.34024 55.0855 8.62275H54.9031C54.58 8.16787 54.184 7.76565 53.7099 7.40654C53.2357 7.05221 52.673 6.76492 52.0165 6.55423C51.3599 6.34355 50.594 6.23342 49.7186 6.23342C47.6448 6.23342 45.9827 6.90377 44.7321 8.23969C43.4816 9.57561 42.8616 11.5532 42.8616 14.1723C42.8616 16.7628 43.4712 18.7163 44.6957 20.0283C45.9201 21.3499 47.5823 22.0059 49.6769 22.0059ZM46.6079 9.78629C47.3739 8.69936 48.5254 8.1535 50.0677 8.1535C51.9122 8.1535 53.1836 8.67063 53.8818 9.70968C54.58 10.7439 54.9291 12.2331 54.9291 14.1675V14.5841C54.9291 16.4084 54.5592 17.7826 53.8245 18.7068C53.0898 19.6309 51.8341 20.0954 50.0625 20.0954C48.5098 20.0954 47.3583 19.5878 46.5975 18.5679C45.8368 17.548 45.4564 16.1068 45.4564 14.2346C45.4616 12.3528 45.842 10.8732 46.6079 9.78629Z" fill="#0D3F67"/>
<path id="Vector_3" d="M64.4435 6.51587H61.9373V21.7281H64.4435V6.51587Z" fill="#0D3F67"/>
<path id="Vector_4" d="M63.2243 3.84892C63.6359 3.84892 63.9903 3.72443 64.2873 3.47544C64.5843 3.22645 64.7354 2.84818 64.7354 2.33584C64.7354 1.81871 64.5843 1.43565 64.2873 1.19145C63.9903 0.947252 63.6359 0.822754 63.2243 0.822754C62.7918 0.822754 62.4323 0.947252 62.1457 1.19145C61.8592 1.43565 61.7133 1.81871 61.7133 2.33584C61.7133 2.84339 61.8592 3.22645 62.1457 3.47544C62.4323 3.72443 62.7918 3.84892 63.2243 3.84892Z" fill="#0D3F67"/>
<path id="Vector_5" d="M71.6653 21.1583C72.8012 21.7233 74.1195 22.0058 75.6097 22.0058C76.5476 22.0058 77.3552 21.9388 78.0326 21.7999C78.71 21.6611 79.33 21.46 79.8823 21.2014V19.1472C79.3092 19.3771 78.6683 19.5782 77.9649 19.7506C77.2614 19.9229 76.4694 20.0091 75.5941 20.0091C74.4946 20.0091 73.5828 19.7793 72.8533 19.3196C72.1239 18.8599 71.5768 18.1992 71.2068 17.3277C70.8369 16.4563 70.6545 15.4076 70.6545 14.1771C70.6545 12.889 70.8421 11.8069 71.2224 10.9306C71.5976 10.0496 72.1708 9.38403 72.9315 8.93394C73.6922 8.47906 74.6458 8.25401 75.7921 8.25401C76.3652 8.25401 76.9853 8.32583 77.6418 8.47427C78.3036 8.6227 78.8819 8.79029 79.3873 8.97225L80.1429 7.04259C79.6479 6.81275 79.0174 6.62122 78.2462 6.468C77.4751 6.31477 76.6779 6.23816 75.8494 6.23816C74.3488 6.23816 73.0097 6.52067 71.8321 7.08568C70.6545 7.65069 69.7322 8.51736 69.0601 9.69048C68.3879 10.8636 68.0544 12.3671 68.0544 14.2106C68.0544 15.9679 68.3723 17.4283 69.008 18.5822C69.6384 19.7362 70.5242 20.5981 71.6653 21.1583Z" fill="#0D3F67"/>
<path id="Vector_6" d="M27.3029 23.2891H21.3942V39.0184H27.3029V23.2891Z" fill="#0D3F67"/>
<path id="Vector_7" d="M53.616 23.0114C52.5479 23.0114 51.5891 23.2029 50.7294 23.5811C49.8749 23.9594 49.1714 24.5005 48.6295 25.2044H48.4472C47.9313 24.5196 47.2696 23.9834 46.4515 23.5955C45.6335 23.2077 44.5966 23.0114 43.3409 23.0114C42.4968 23.0114 41.7412 23.1071 41.0847 23.3034C40.423 23.4998 39.855 23.7631 39.3756 24.0935C38.8963 24.4287 38.5055 24.8069 38.2033 25.2331H38.0365L37.1768 23.2891H32.7218V39.0184H38.6305V32.1329C38.6305 31.0891 38.7035 30.2033 38.8546 29.4803C39.0057 28.7572 39.2714 28.2114 39.6466 27.8331C40.0217 27.4596 40.548 27.2729 41.2254 27.2729C41.6683 27.2729 42.0382 27.383 42.33 27.5985C42.6218 27.814 42.8406 28.1587 42.9865 28.628C43.1324 29.0972 43.2054 29.7101 43.2054 30.4666V39.0184H49.1245V31.6876C49.1245 30.2799 49.3069 29.193 49.6769 28.4269C50.0468 27.6607 50.7085 27.2729 51.6621 27.2729C52.3446 27.2729 52.8605 27.5075 53.2096 27.972C53.5587 28.4412 53.7306 29.2696 53.7306 30.4619V39.0136H59.6394V28.7812C59.6394 26.7653 59.1235 25.2953 58.0919 24.3808C57.0602 23.4662 55.57 23.0114 53.616 23.0114Z" fill="#0D3F67"/>
<path id="Vector_8" d="M80.7421 30.1985C80.7421 28.5993 80.4138 27.2633 79.7625 26.2004C79.106 25.1374 78.1785 24.3377 76.9697 23.8062C75.7608 23.2747 74.3279 23.0066 72.6658 23.0066C70.9828 23.0066 69.5082 23.2987 68.2421 23.8876C66.9707 24.4766 65.9859 25.3768 65.2825 26.593C64.579 27.8092 64.2247 29.3606 64.2247 31.2519C64.2247 33.1098 64.6155 34.6324 65.3971 35.8199C66.1787 37.0026 67.2468 37.8789 68.6068 38.4439C69.9667 39.0089 71.509 39.2914 73.2285 39.2914C74.7187 39.2914 75.9536 39.2004 76.928 39.0137C77.9024 38.8269 78.8038 38.5348 79.6322 38.1374V34.235C78.6839 34.642 77.7669 34.9437 76.8759 35.1352C75.9849 35.3315 75.0053 35.4273 73.9371 35.4273C72.7283 35.4273 71.8165 35.1639 71.1964 34.6372C70.5764 34.1105 70.2429 33.4354 70.1908 32.6118H80.7473V30.1985H80.7421ZM70.3054 29.2026C70.3836 28.3407 70.6597 27.7086 71.1287 27.3064C71.5976 26.9042 72.176 26.7031 72.8742 26.7031C73.4161 26.7031 73.8746 26.8132 74.2393 27.0383C74.6093 27.2586 74.8855 27.5602 75.0782 27.9385C75.271 28.3167 75.3701 28.7381 75.3805 29.2026H70.3054Z" fill="#0D3F67"/>
</g>
</svg>
