<svg width="329" height="270" viewBox="0 0 329 270" fill="none" xmlns="http://www.w3.org/2000/svg">
<g opacity="0.4">
<path d="M86.3869 38.1054C86.3869 38.1054 49.9335 71.9197 39.1339 110.283C28.3344 148.645 43.955 188.916 80.692 211.204C117.429 233.493 166.445 214.139 215.192 220.507C263.94 226.875 309.146 208.724 315.179 161.961C321.211 115.198 285.945 109.138 264.683 63.6514C243.422 18.1647 174.156 -36.8595 86.3869 38.1054Z" fill="#DAD2FF"/>
<path opacity="0.7" d="M86.3869 38.1054C86.3869 38.1054 49.9335 71.9197 39.1339 110.283C28.3344 148.645 43.955 188.916 80.692 211.204C117.429 233.493 166.445 214.139 215.192 220.507C263.94 226.875 309.146 208.724 315.179 161.961C321.211 115.198 285.945 109.138 264.683 63.6514C243.422 18.1647 174.156 -36.8595 86.3869 38.1054Z" fill="#1EE0CC"/>
</g>
<path d="M76.8548 27.3264C77.1227 26.1818 77.2572 25.01 77.2554 23.8344C77.2554 19.7181 75.6208 15.7704 72.7108 12.859C69.8009 9.9477 65.854 8.31112 61.7377 8.30912C60.369 8.3082 59.0063 8.49125 57.6863 8.85334C56.1114 6.05554 53.674 3.84204 50.7379 2.5432C47.8017 1.24436 44.5243 0.92983 41.3947 1.64655C38.2652 2.36326 35.4513 4.0728 33.373 6.52C31.2948 8.96721 30.0636 12.0209 29.8633 15.2252C29.1158 15.0821 28.3567 15.0087 27.5957 15.006C24.6044 15.004 21.7172 16.1044 19.4862 18.097C17.2551 20.0896 15.8367 22.8346 15.502 25.8072C13.8173 25.9836 12.2589 26.7822 11.1319 28.0468C10.0048 29.3115 9.39014 30.9511 9.4081 32.645C9.42606 34.3389 10.0754 35.9651 11.229 37.2056C12.3826 38.4461 13.9575 39.2115 15.6456 39.3521H72.5767C73.9674 39.3358 75.3198 38.8935 76.4515 38.085C77.5832 37.2764 78.4398 36.1404 78.906 34.83C79.3722 33.5195 79.4255 32.0977 79.0587 30.7561C78.692 29.4145 77.9228 28.2175 76.8548 27.3264Z" stroke="#263238" stroke-linecap="round" stroke-linejoin="round"/>
<path d="M35.4644 50.8638V66.5478" stroke="#263238" stroke-linecap="round" stroke-linejoin="round"/>
<path d="M35.4644 41.4534V47.727" stroke="#263238" stroke-linecap="round" stroke-linejoin="round"/>
<path d="M35.4644 35.5955V38.9515" stroke="#263238" stroke-linecap="round" stroke-linejoin="round"/>
<path d="M32.501 64.7111L35.4564 68.377L38.4193 64.7111" stroke="#263238" stroke-linecap="round" stroke-linejoin="round"/>
<path d="M45.5703 57.5833V73.2673" stroke="#263238" stroke-linecap="round" stroke-linejoin="round"/>
<path d="M45.5703 48.1729V54.4465" stroke="#263238" stroke-linecap="round" stroke-linejoin="round"/>
<path d="M45.5703 42.3151V45.6711" stroke="#263238" stroke-linecap="round" stroke-linejoin="round"/>
<path d="M42.6069 71.4306L45.5699 75.0965L48.5328 71.4306" stroke="#263238" stroke-linecap="round" stroke-linejoin="round"/>
<path d="M55.0107 44.4012V60.0852" stroke="#263238" stroke-linecap="round" stroke-linejoin="round"/>
<path d="M55.0107 34.9908V41.2644" stroke="#263238" stroke-linecap="round" stroke-linejoin="round"/>
<path d="M55.0107 29.1329V32.489" stroke="#263238" stroke-linecap="round" stroke-linejoin="round"/>
<path d="M52.0479 58.2485L55.0108 61.9144L57.9738 58.2485" stroke="#263238" stroke-linecap="round" stroke-linejoin="round"/>
<path d="M205.169 133.275C204.567 130.662 204.653 127.938 205.416 125.368C206.18 122.798 207.596 120.469 209.527 118.609C211.458 116.749 213.838 115.421 216.435 114.753C219.031 114.086 221.757 114.103 224.345 114.802C225.921 112.003 228.359 109.79 231.295 108.491C234.232 107.193 237.51 106.879 240.64 107.596C243.77 108.314 246.584 110.025 248.662 112.473C250.739 114.921 251.969 117.976 252.168 121.181C252.916 121.038 253.675 120.965 254.436 120.962C257.426 120.96 260.312 122.059 262.543 124.05C264.774 126.041 266.193 128.784 266.53 131.755C268.214 131.932 269.773 132.73 270.9 133.995C272.027 135.26 272.641 136.899 272.623 138.593C272.605 140.287 271.956 141.913 270.803 143.154C269.649 144.394 268.074 145.16 266.386 145.3H209.455C208.063 145.286 206.71 144.844 205.577 144.036C204.444 143.228 203.586 142.092 203.119 140.782C202.652 139.471 202.598 138.048 202.965 136.706C203.331 135.364 204.101 134.166 205.169 133.275Z" stroke="#263238" stroke-linecap="round" stroke-linejoin="round"/>
<path d="M244.148 151.068V135.384" stroke="#263238" stroke-linecap="round" stroke-linejoin="round"/>
<path d="M244.148 160.478V154.204" stroke="#263238" stroke-linecap="round" stroke-linejoin="round"/>
<path d="M244.148 166.336V162.987" stroke="#263238" stroke-linecap="round" stroke-linejoin="round"/>
<path d="M247.111 137.22L244.149 133.554L241.186 137.22" stroke="#263238" stroke-linecap="round" stroke-linejoin="round"/>
<path d="M234.042 144.348V128.672" stroke="#263238" stroke-linecap="round" stroke-linejoin="round"/>
<path d="M234.042 153.758V147.485" stroke="#263238" stroke-linecap="round" stroke-linejoin="round"/>
<path d="M234.042 159.624V156.268" stroke="#263238" stroke-linecap="round" stroke-linejoin="round"/>
<path d="M237.005 130.501L234.043 126.835L231.08 130.501" stroke="#263238" stroke-linecap="round" stroke-linejoin="round"/>
<path d="M224.594 157.53V141.846" stroke="#263238" stroke-linecap="round" stroke-linejoin="round"/>
<path d="M224.594 166.941V160.667" stroke="#263238" stroke-linecap="round" stroke-linejoin="round"/>
<path d="M224.594 172.798V169.442" stroke="#263238" stroke-linecap="round" stroke-linejoin="round"/>
<path d="M227.557 143.683L224.595 140.017L221.639 143.683" stroke="#263238" stroke-linecap="round" stroke-linejoin="round"/>
<path d="M0.490723 262.065H328.509" stroke="#263238" stroke-miterlimit="10"/>
<path d="M248.759 215.595C248.759 215.595 261.79 216.623 262.365 226.23C262.334 226.23 249.137 232.307 248.759 215.595Z" fill="#1EE0CC" stroke="#263238" stroke-linecap="round" stroke-linejoin="round"/>
<path d="M274.534 217.976C274.534 217.976 281.813 208.15 293.574 213.184C293.574 213.184 286.393 225.081 274.534 217.976Z" fill="#1EE0CC" stroke="#263238" stroke-linecap="round" stroke-linejoin="round"/>
<path d="M292.576 186.91C292.576 186.91 294.67 205.807 277.459 200.629C277.436 200.629 282.931 186.706 292.576 186.91Z" fill="#1EE0CC" stroke="#263238" stroke-linecap="round" stroke-linejoin="round"/>
<path d="M271.42 176.366C271.42 176.366 285.025 183.72 275.025 194.869C275.025 194.869 265.464 186.872 271.42 176.366Z" fill="#1EE0CC" stroke="#263238" stroke-linecap="round" stroke-linejoin="round"/>
<path d="M254.647 193.29C254.647 193.29 269.469 191.778 269.469 205.512C269.469 205.512 254.647 206.094 254.647 193.29Z" fill="#1EE0CC" stroke="#263238" stroke-linecap="round" stroke-linejoin="round"/>
<path d="M268.623 245.829C268.623 245.829 261.866 231.649 268.351 217.212C274.836 202.776 277.028 190.606 273.642 182.035" stroke="#263238" stroke-linecap="round" stroke-linejoin="round"/>
<path d="M259.5 196.971C259.5 196.971 268.381 200.5 271.405 209.654" stroke="#263238" stroke-linecap="round" stroke-linejoin="round"/>
<path d="M287.89 194.484C287.89 194.484 282.757 201.476 274.065 200.72" stroke="#263238" stroke-linecap="round" stroke-linejoin="round"/>
<path d="M287.89 215.194C287.89 215.194 273.672 219.291 268.026 217.953" stroke="#263238" stroke-linecap="round" stroke-linejoin="round"/>
<path d="M253.007 219.918C253.007 219.918 259.364 226.895 265.751 226.789" stroke="#263238" stroke-linecap="round" stroke-linejoin="round"/>
<path d="M252.289 234.582H282.123L279.001 261.846H255.418L252.289 234.582Z" fill="#263238"/>
<path d="M282.659 233.977H251.76C251.347 233.977 251.012 234.312 251.012 234.726V237.076C251.012 237.49 251.347 237.825 251.76 237.825H282.659C283.073 237.825 283.408 237.49 283.408 237.076V234.726C283.408 234.312 283.073 233.977 282.659 233.977Z" fill="#263238"/>
<path d="M254.647 237.825H272.614" stroke="white" stroke-linecap="round" stroke-linejoin="round"/>
<path d="M276.008 237.825H278.706" stroke="white" stroke-linecap="round" stroke-linejoin="round"/>
<path d="M322.561 6.06423V116.419C322.561 117.762 322.027 119.05 321.077 120C320.128 120.95 318.84 121.483 317.496 121.483H103.793C102.45 121.483 101.161 120.95 100.21 120.001C99.2589 119.051 98.7237 117.763 98.7217 116.419V6.06423C98.7237 4.72042 99.2589 3.43233 100.21 2.48282C101.161 1.53331 102.45 0.999999 103.793 1H317.496C318.84 1 320.128 1.53355 321.077 2.48328C322.027 3.43301 322.561 4.72112 322.561 6.06423Z" fill="white"/>
<mask id="mask0_3901_4879" style="mask-type:luminance" maskUnits="userSpaceOnUse" x="98" y="1" width="225" height="121">
<path d="M322.561 6.06423V116.419C322.561 117.762 322.027 119.05 321.077 120C320.128 120.95 318.84 121.483 317.496 121.483H103.793C102.45 121.483 101.161 120.95 100.21 120.001C99.2589 119.051 98.7237 117.763 98.7217 116.419V6.06423C98.7237 4.72042 99.2589 3.43233 100.21 2.48282C101.161 1.53331 102.45 0.999999 103.793 1H317.496C318.84 1 320.128 1.53355 321.077 2.48328C322.027 3.43301 322.561 4.72112 322.561 6.06423Z" fill="white"/>
</mask>
<g mask="url(#mask0_3901_4879)">
<path opacity="0.2" d="M322.56 11.9297V116.442C322.56 117.785 322.027 119.073 321.077 120.023C320.127 120.973 318.839 121.506 317.496 121.506H183.037V11.907L322.56 11.9297Z" fill="#6B48FF"/>
</g>
<path d="M322.561 6.06423V116.419C322.561 117.762 322.027 119.05 321.077 120C320.128 120.95 318.84 121.483 317.496 121.483H103.793C102.45 121.483 101.161 120.95 100.21 120.001C99.2589 119.051 98.7237 117.763 98.7217 116.419V6.06423C98.7237 4.72042 99.2589 3.43233 100.21 2.48282C101.161 1.53331 102.45 0.999999 103.793 1H317.496C318.84 1 320.128 1.53355 321.077 2.48328C322.027 3.43301 322.561 4.72112 322.561 6.06423Z" stroke="#263238" stroke-linecap="round" stroke-linejoin="round"/>
<path d="M303.838 56.5856H276.03C274.541 56.5856 273.112 57.1773 272.059 58.2305C271.006 59.2837 270.414 60.7122 270.414 62.2016C270.416 63.6898 271.009 65.1163 272.062 66.1679C273.115 67.2194 274.542 67.8101 276.03 67.8101H303.838C304.575 67.8111 305.305 67.6667 305.987 67.3853C306.668 67.1039 307.287 66.691 307.809 66.1701C308.33 65.6492 308.744 65.0306 309.026 64.3496C309.309 63.6687 309.454 62.9388 309.454 62.2016C309.455 61.4638 309.31 60.7331 309.029 60.0513C308.747 59.3695 308.333 58.75 307.811 58.2283C307.29 57.7066 306.67 57.293 305.988 57.0111C305.306 56.7292 304.576 56.5846 303.838 56.5856Z" fill="#6B48FF" stroke="#263238" stroke-linecap="round" stroke-linejoin="round"/>
<path d="M322.561 6.06424V16.4043H98.7065V6.06424C98.7085 4.72042 99.2438 3.43233 100.195 2.48282C101.146 1.53331 102.435 0.999999 103.778 1H317.496C318.84 1 320.128 1.53355 321.077 2.48328C322.027 3.43301 322.561 4.72112 322.561 6.06424Z" fill="#999999" stroke="#263238" stroke-linecap="round" stroke-linejoin="round"/>
<path d="M108.178 11.9297C110.106 11.9297 111.67 10.3662 111.67 8.43762C111.67 6.50901 110.106 4.94556 108.178 4.94556C106.249 4.94556 104.686 6.50901 104.686 8.43762C104.686 10.3662 106.249 11.9297 108.178 11.9297Z" fill="#6B48FF" stroke="#263238" stroke-linecap="round" stroke-linejoin="round"/>
<path d="M117.626 11.9297C119.554 11.9297 121.118 10.3662 121.118 8.43762C121.118 6.50901 119.554 4.94556 117.626 4.94556C115.697 4.94556 114.134 6.50901 114.134 8.43762C114.134 10.3662 115.697 11.9297 117.626 11.9297Z" fill="#757575" stroke="#263238" stroke-linecap="round" stroke-linejoin="round"/>
<path d="M127.074 11.9297C129.002 11.9297 130.566 10.3662 130.566 8.43762C130.566 6.50901 129.002 4.94556 127.074 4.94556C125.145 4.94556 123.582 6.50901 123.582 8.43762C123.582 10.3662 125.145 11.9297 127.074 11.9297Z" fill="white" stroke="#263238" stroke-linecap="round" stroke-linejoin="round"/>
<path d="M183.037 16.4043V121.604" stroke="#263238" stroke-linecap="round" stroke-linejoin="round"/>
<path d="M314.942 11.9297H266C265.075 11.9277 264.189 11.5589 263.536 10.9042C262.883 10.2495 262.516 9.36246 262.516 8.43762C262.518 7.51409 262.885 6.62895 263.538 5.97592C264.191 5.32288 265.077 4.95512 266 4.95313H314.942C315.867 4.95312 316.754 5.32 317.408 5.97325C318.063 6.6265 318.432 7.51278 318.434 8.43762C318.434 8.8962 318.343 9.35029 318.168 9.77397C317.993 10.1976 317.735 10.5826 317.411 10.9069C317.087 11.2311 316.702 11.4884 316.278 11.6639C315.854 11.8393 315.4 11.9297 314.942 11.9297Z" fill="white" stroke="#263238" stroke-linecap="round" stroke-linejoin="round"/>
<path d="M306.015 48.8079H200.105C199.193 48.8079 198.318 48.4455 197.673 47.8006C197.028 47.1556 196.666 46.2808 196.666 45.3687C196.666 44.9171 196.754 44.4699 196.927 44.0526C197.1 43.6354 197.353 43.2562 197.673 42.9369C197.992 42.6175 198.371 42.3642 198.789 42.1914C199.206 42.0185 199.653 41.9296 200.105 41.9296H306.015C306.467 41.9296 306.914 42.0185 307.331 42.1914C307.748 42.3642 308.128 42.6175 308.447 42.9369C308.766 43.2562 309.02 43.6354 309.192 44.0526C309.365 44.4699 309.454 44.9171 309.454 45.3687C309.454 46.2808 309.092 47.1556 308.447 47.8006C307.802 48.4455 306.927 48.8079 306.015 48.8079Z" fill="#BFBFBF" stroke="#263238" stroke-miterlimit="10"/>
<path d="M256.885 48.8079H200.105C199.193 48.8079 198.318 48.4455 197.673 47.8006C197.028 47.1556 196.666 46.2808 196.666 45.3687C196.666 44.9171 196.754 44.4699 196.927 44.0526C197.1 43.6354 197.353 43.2562 197.673 42.9369C197.992 42.6175 198.371 42.3642 198.789 42.1914C199.206 42.0185 199.653 41.9296 200.105 41.9296H256.885C257.336 41.9296 257.783 42.0185 258.201 42.1914C258.618 42.3642 258.997 42.6175 259.316 42.9369C259.636 43.2562 259.889 43.6354 260.062 44.0526C260.235 44.4699 260.324 44.9171 260.324 45.3687C260.324 46.2808 259.961 47.1556 259.316 47.8006C258.671 48.4455 257.797 48.8079 256.885 48.8079Z" fill="#6B48FF" stroke="#263238" stroke-linecap="round" stroke-linejoin="round"/>
<path d="M204.459 97.6512H199.795V102.315H204.459V97.6512Z" stroke="#263238" stroke-linecap="round" stroke-linejoin="round"/>
<path d="M201.216 99.6618L201.904 100.599L203.045 98.974" stroke="#263238" stroke-linecap="round" stroke-linejoin="round"/>
<path opacity="0.3" d="M244.904 98.6263H213.143C212.391 98.6263 211.782 99.2337 211.782 99.983C211.782 100.732 212.391 101.34 213.143 101.34H244.904C245.655 101.34 246.264 100.732 246.264 99.983C246.264 99.2337 245.655 98.6263 244.904 98.6263Z" fill="black"/>
<path d="M130.868 102.768L131.624 97.5908H132.538L131.556 103.932H130.044L129.062 97.5908H130.067L130.868 102.768Z" fill="#263238"/>
<path d="M134.028 100.266H135.396V101.174H134.028V103.033H135.751V103.932H133.03V97.5908H135.751V98.4978H134.028V100.266Z" fill="#263238"/>
<path d="M138.442 103.932C138.362 103.689 138.332 103.432 138.351 103.177V102.179C138.351 101.597 138.147 101.378 137.694 101.378H137.354V103.955H136.356V97.6135H137.868C138.903 97.6135 139.379 98.0972 139.379 99.0723V99.5711C139.415 99.8259 139.371 100.085 139.253 100.314C139.135 100.543 138.95 100.729 138.722 100.849C139.221 101.053 139.387 101.521 139.387 102.186V103.169C139.37 103.426 139.406 103.683 139.493 103.925L138.442 103.932ZM137.354 98.4978V100.448H137.739C138.117 100.448 138.344 100.282 138.344 99.7752V99.1479C138.344 98.6943 138.185 98.4978 137.83 98.4978H137.354Z" fill="#263238"/>
<path d="M140.967 102.972V103.932H139.999V102.972H140.967Z" fill="#263238"/>
<path d="M144.556 98.4373C144.239 98.4373 144.035 98.6112 144.035 99.0647V99.745H143.098V99.1252C143.098 98.1123 143.604 97.5303 144.609 97.5303C145.615 97.5303 146.121 98.1123 146.121 99.1252C146.1 99.607 145.98 100.079 145.768 100.512C145.556 100.946 145.257 101.33 144.889 101.642C144.299 102.277 144.133 102.572 144.133 102.912C144.129 102.957 144.129 103.003 144.133 103.048H146.023V103.948H143.098V103.192C143.111 102.804 143.206 102.424 143.377 102.077C143.547 101.729 143.79 101.421 144.088 101.174C144.384 100.932 144.625 100.629 144.795 100.286C144.964 99.9433 145.058 99.568 145.07 99.1856C145.07 98.581 144.874 98.4373 144.556 98.4373Z" fill="#263238"/>
<path d="M147.633 102.972V103.932H146.673V102.972H147.633Z" fill="#263238"/>
<path d="M148.291 99.11C148.291 98.7091 148.45 98.3246 148.734 98.0411C149.017 97.7576 149.402 97.5983 149.803 97.5983C150.204 97.5983 150.588 97.7576 150.872 98.0411C151.155 98.3246 151.314 98.7091 151.314 99.11V102.413C151.314 102.814 151.155 103.199 150.872 103.482C150.588 103.766 150.204 103.925 149.803 103.925C149.402 103.925 149.017 103.766 148.734 103.482C148.45 103.199 148.291 102.814 148.291 102.413V99.11ZM149.289 102.474C149.289 102.927 149.493 103.101 149.803 103.101C150.113 103.101 150.324 102.927 150.324 102.474V99.0496C150.324 98.5961 150.12 98.4222 149.803 98.4222C149.485 98.4222 149.289 98.5961 149.289 99.0496V102.474Z" fill="#263238"/>
<path d="M152.864 101.884V102.474C152.864 102.927 153.06 103.093 153.378 103.093C153.695 103.093 153.899 102.927 153.899 102.474V101.083C153.899 100.629 153.695 100.455 153.378 100.455C153.06 100.455 152.864 100.629 152.864 101.083V101.272H151.919L152.1 97.5908H154.731V98.4978H152.992L152.909 100.01C152.997 99.8614 153.124 99.7402 153.276 99.6589C153.428 99.5777 153.599 99.5394 153.771 99.5484C154.527 99.5484 154.882 100.062 154.882 101V102.413C154.914 102.623 154.898 102.837 154.834 103.039C154.771 103.242 154.662 103.427 154.517 103.581C154.371 103.735 154.192 103.853 153.993 103.927C153.794 104.001 153.581 104.029 153.37 104.008C152.387 104.008 151.858 103.426 151.858 102.413V101.884H152.864Z" fill="#263238"/>
<path d="M125.713 78.6339C123.343 76.3807 121.462 73.6637 120.188 70.6521" stroke="#263238" stroke-linecap="round" stroke-linejoin="round"/>
<path d="M147.489 38.241C151.258 39.1232 154.755 40.9106 157.678 43.4485C160.6 45.9864 162.86 49.1984 164.262 52.8064" stroke="#263238" stroke-linecap="round" stroke-linejoin="round"/>
<path d="M149.5 55.3536V48.5509L144.421 48.1125C144.124 47.0583 143.703 46.0433 143.166 45.0891L146.446 41.1964L141.654 36.4572L137.762 39.73C136.805 39.1974 135.791 38.7764 134.738 38.4753L134.3 33.4035H127.497L127.059 38.4753C126.005 38.7737 124.99 39.1948 124.035 39.73L120.135 36.4572L115.351 41.2493L118.623 45.142C118.089 46.0978 117.668 47.1124 117.369 48.1654L112.297 48.6038V55.4065L117.369 55.8449C117.668 56.8979 118.089 57.9125 118.623 58.8683L115.351 62.761L120.135 67.5531L124.035 64.2802C124.99 64.8155 126.005 65.2366 127.059 65.5349L127.497 70.6067H134.3L134.738 65.5349C135.791 65.2339 136.805 64.8129 137.762 64.2802L141.654 67.5531L146.446 62.761L143.166 58.8683C143.703 57.914 144.124 56.899 144.421 55.8449L149.5 55.3536ZM130.898 59.8887C129.342 59.8887 127.821 59.4272 126.527 58.5626C125.233 57.698 124.225 56.4691 123.629 55.0314C123.033 53.5936 122.878 52.0115 123.181 50.4852C123.485 48.9589 124.234 47.5568 125.335 46.4564C126.435 45.356 127.837 44.6066 129.363 44.303C130.89 43.9994 132.472 44.1552 133.91 44.7507C135.347 45.3463 136.576 46.3548 137.441 47.6488C138.305 48.9427 138.767 50.464 138.767 52.0202C138.765 54.1065 137.935 56.1067 136.46 57.5819C134.985 59.0571 132.985 59.8867 130.898 59.8887Z" fill="#6B48FF" stroke="#263238" stroke-linecap="round" stroke-linejoin="round"/>
<path d="M171.911 70.4707V65.6559L168.298 65.346C168.085 64.5913 167.785 63.8635 167.407 63.1767L169.735 60.4102L166.326 57.0013L163.559 59.3294C162.872 58.9505 162.145 58.6513 161.39 58.4375L161.08 54.832H156.265L155.948 58.4526C155.196 58.6678 154.471 58.967 153.786 59.3445L151.02 57.0165L147.633 60.4254L149.961 63.1918C149.583 63.8786 149.283 64.6064 149.07 65.3611L145.457 65.671V70.4707L149.07 70.7881C149.285 71.5399 149.584 72.2651 149.961 72.9499L147.633 75.7617L151.042 79.1706L153.809 76.8425C154.492 77.2232 155.218 77.5225 155.97 77.7345L156.288 81.3474H161.103L161.413 77.7345C162.168 77.5239 162.897 77.2245 163.582 76.8425L166.348 79.1706L169.757 75.7617L167.429 72.9952C167.807 72.3104 168.106 71.5853 168.321 70.8335L171.911 70.4707ZM158.669 73.6679C157.561 73.6679 156.478 73.3395 155.557 72.724C154.636 72.1086 153.918 71.2339 153.494 70.2104C153.07 69.187 152.96 68.0608 153.176 66.9744C153.392 65.8879 153.925 64.8899 154.708 64.1066C155.492 63.3233 156.49 62.7899 157.576 62.5738C158.663 62.3577 159.789 62.4686 160.812 62.8925C161.836 63.3164 162.71 64.0343 163.326 64.9554C163.941 65.8764 164.27 66.9593 164.27 68.0671C164.272 68.8039 164.128 69.5338 163.848 70.2151C163.567 70.8963 163.155 71.5156 162.635 72.0373C162.114 72.559 161.496 72.9729 160.816 73.2553C160.135 73.5377 159.406 73.6831 158.669 73.6831V73.6679Z" fill="#6B48FF"/>
<mask id="mask1_3901_4879" style="mask-type:luminance" maskUnits="userSpaceOnUse" x="145" y="54" width="27" height="28">
<path d="M171.911 70.4707V65.6559L168.298 65.346C168.085 64.5913 167.785 63.8635 167.407 63.1767L169.735 60.4102L166.326 57.0013L163.559 59.3294C162.872 58.9505 162.145 58.6513 161.39 58.4375L161.08 54.832H156.265L155.948 58.4526C155.196 58.6678 154.471 58.967 153.786 59.3445L151.02 57.0165L147.633 60.4254L149.961 63.1918C149.583 63.8786 149.283 64.6064 149.07 65.3611L145.457 65.671V70.4707L149.07 70.7881C149.285 71.5399 149.584 72.2651 149.961 72.9499L147.633 75.7617L151.042 79.1706L153.809 76.8425C154.492 77.2232 155.218 77.5225 155.97 77.7345L156.288 81.3474H161.103L161.413 77.7345C162.168 77.5239 162.897 77.2245 163.582 76.8425L166.348 79.1706L169.757 75.7617L167.429 72.9952C167.807 72.3104 168.106 71.5853 168.321 70.8335L171.911 70.4707ZM158.669 73.6679C157.561 73.6679 156.478 73.3395 155.557 72.724C154.636 72.1086 153.918 71.2339 153.494 70.2104C153.07 69.187 152.96 68.0608 153.176 66.9744C153.392 65.8879 153.925 64.8899 154.708 64.1066C155.492 63.3233 156.49 62.7899 157.576 62.5738C158.663 62.3577 159.789 62.4686 160.812 62.8925C161.836 63.3164 162.71 64.0343 163.326 64.9554C163.941 65.8764 164.27 66.9593 164.27 68.0671C164.272 68.8039 164.128 69.5338 163.848 70.2151C163.567 70.8963 163.155 71.5156 162.635 72.0373C162.114 72.559 161.496 72.9729 160.816 73.2553C160.135 73.5377 159.406 73.6831 158.669 73.6831V73.6679Z" fill="white"/>
</mask>
<g mask="url(#mask1_3901_4879)">
<path opacity="0.3" d="M171.911 70.4707V65.6559L168.298 65.346C168.085 64.5913 167.785 63.8635 167.407 63.1767L169.735 60.4102L166.326 57.0013L163.559 59.3294C162.872 58.9505 162.145 58.6513 161.39 58.4375L161.08 54.832H156.265L155.948 58.4526C155.196 58.6678 154.471 58.967 153.786 59.3445L151.02 57.0165L147.633 60.4254L149.961 63.1918C149.583 63.8786 149.283 64.6064 149.07 65.3611L145.457 65.671V70.4707L149.07 70.7881C149.285 71.5399 149.584 72.2651 149.961 72.9499L147.633 75.7617L151.042 79.1706L153.809 76.8425C154.492 77.2232 155.218 77.5225 155.97 77.7345L156.288 81.3474H161.103L161.413 77.7345C162.168 77.5239 162.897 77.2245 163.582 76.8425L166.348 79.1706L169.757 75.7617L167.429 72.9952C167.807 72.3104 168.106 71.5853 168.321 70.8335L171.911 70.4707ZM158.669 73.6679C157.561 73.6679 156.478 73.3395 155.557 72.724C154.636 72.1086 153.918 71.2339 153.494 70.2104C153.07 69.187 152.96 68.0608 153.176 66.9744C153.392 65.8879 153.925 64.8899 154.708 64.1066C155.492 63.3233 156.49 62.7899 157.576 62.5738C158.663 62.3577 159.789 62.4686 160.812 62.8925C161.836 63.3164 162.71 64.0343 163.326 64.9554C163.941 65.8764 164.27 66.9593 164.27 68.0671C164.272 68.8039 164.128 69.5338 163.848 70.2151C163.567 70.8963 163.155 71.5156 162.635 72.0373C162.114 72.559 161.496 72.9729 160.816 73.2553C160.135 73.5377 159.406 73.6831 158.669 73.6831V73.6679Z" fill="white"/>
</g>
<path d="M171.911 70.4707V65.6559L168.298 65.346C168.085 64.5913 167.785 63.8635 167.407 63.1767L169.735 60.4102L166.326 57.0013L163.559 59.3294C162.872 58.9505 162.145 58.6513 161.39 58.4375L161.08 54.832H156.265L155.948 58.4526C155.196 58.6678 154.471 58.967 153.786 59.3445L151.02 57.0165L147.633 60.4254L149.961 63.1918C149.583 63.8786 149.283 64.6064 149.07 65.3611L145.457 65.671V70.4707L149.07 70.7881C149.285 71.5399 149.584 72.2651 149.961 72.9499L147.633 75.7617L151.042 79.1706L153.809 76.8425C154.492 77.2232 155.218 77.5225 155.97 77.7345L156.288 81.3474H161.103L161.413 77.7345C162.168 77.5239 162.897 77.2245 163.582 76.8425L166.348 79.1706L169.757 75.7617L167.429 72.9952C167.807 72.3104 168.106 71.5853 168.321 70.8335L171.911 70.4707ZM158.669 73.6679C157.561 73.6679 156.478 73.3395 155.557 72.724C154.636 72.1086 153.918 71.2339 153.494 70.2104C153.07 69.187 152.96 68.0608 153.176 66.9744C153.392 65.8879 153.925 64.8899 154.708 64.1066C155.492 63.3233 156.49 62.7899 157.576 62.5738C158.663 62.3577 159.789 62.4686 160.812 62.8925C161.836 63.3164 162.71 64.0343 163.326 64.9554C163.941 65.8764 164.27 66.9593 164.27 68.0671C164.272 68.8039 164.128 69.5338 163.848 70.2151C163.567 70.8963 163.155 71.5156 162.635 72.0373C162.114 72.559 161.496 72.9729 160.816 73.2553C160.135 73.5377 159.406 73.6831 158.669 73.6831V73.6679Z" stroke="#263238" stroke-linecap="round" stroke-linejoin="round"/>
<path d="M148.328 81.7178V78.2862L145.758 78.067C145.607 77.5397 145.394 77.0322 145.123 76.5553L146.786 74.5825L144.36 72.1562L142.387 73.8191C141.91 73.5482 141.403 73.335 140.875 73.1842L140.656 70.6143H137.225L137.005 73.1842C136.478 73.335 135.971 73.5482 135.494 73.8191L133.529 72.1562L131.102 74.5825L132.758 76.5553C132.487 77.0322 132.273 77.5397 132.123 78.067L129.553 78.2862V81.7178L132.123 81.937C132.273 82.4644 132.487 82.9718 132.758 83.4487L131.102 85.414L133.529 87.8402L135.494 86.1849C135.971 86.4559 136.478 86.669 137.005 86.8198L137.225 89.3898H140.656L140.875 86.8198C141.403 86.669 141.91 86.4559 142.387 86.1849L144.36 87.8402L146.786 85.414L145.123 83.4487C145.394 82.9718 145.607 82.4644 145.758 81.937L148.328 81.7178ZM138.91 83.9854C138.122 83.9854 137.352 83.7518 136.697 83.3141C136.042 82.8764 135.532 82.2543 135.23 81.5264C134.929 80.7985 134.85 79.9976 135.003 79.2249C135.157 78.4522 135.536 77.7424 136.094 77.1854C136.651 76.6283 137.36 76.2489 138.133 76.0952C138.906 75.9415 139.707 76.0204 140.435 76.3219C141.162 76.6234 141.785 77.1339 142.222 77.789C142.66 78.4441 142.894 79.2142 142.894 80.002C142.894 80.5251 142.791 81.0431 142.59 81.5264C142.39 82.0097 142.097 82.4488 141.727 82.8187C141.357 83.1886 140.918 83.482 140.435 83.6822C139.951 83.8824 139.433 83.9854 138.91 83.9854Z" fill="#6B48FF"/>
<mask id="mask2_3901_4879" style="mask-type:luminance" maskUnits="userSpaceOnUse" x="129" y="70" width="20" height="20">
<path d="M148.328 81.7178V78.2862L145.758 78.067C145.607 77.5397 145.394 77.0322 145.123 76.5553L146.786 74.5825L144.36 72.1562L142.387 73.8191C141.91 73.5482 141.403 73.335 140.875 73.1842L140.656 70.6143H137.225L137.005 73.1842C136.478 73.335 135.971 73.5482 135.494 73.8191L133.529 72.1562L131.102 74.5825L132.758 76.5553C132.487 77.0322 132.273 77.5397 132.123 78.067L129.553 78.2862V81.7178L132.123 81.937C132.273 82.4644 132.487 82.9718 132.758 83.4487L131.102 85.414L133.529 87.8402L135.494 86.1849C135.971 86.4559 136.478 86.669 137.005 86.8198L137.225 89.3898H140.656L140.875 86.8198C141.403 86.669 141.91 86.4559 142.387 86.1849L144.36 87.8402L146.786 85.414L145.123 83.4487C145.394 82.9718 145.607 82.4644 145.758 81.937L148.328 81.7178ZM138.91 83.9854C138.122 83.9854 137.352 83.7518 136.697 83.3141C136.042 82.8764 135.532 82.2543 135.23 81.5264C134.929 80.7985 134.85 79.9976 135.003 79.2249C135.157 78.4522 135.536 77.7424 136.094 77.1854C136.651 76.6283 137.36 76.2489 138.133 76.0952C138.906 75.9415 139.707 76.0204 140.435 76.3219C141.162 76.6234 141.785 77.1339 142.222 77.789C142.66 78.4441 142.894 79.2142 142.894 80.002C142.894 80.5251 142.791 81.0431 142.59 81.5264C142.39 82.0097 142.097 82.4488 141.727 82.8187C141.357 83.1886 140.918 83.482 140.435 83.6822C139.951 83.8824 139.433 83.9854 138.91 83.9854Z" fill="white"/>
</mask>
<g mask="url(#mask2_3901_4879)">
<path opacity="0.5" d="M148.328 81.7178V78.2862L145.758 78.067C145.607 77.5397 145.394 77.0322 145.123 76.5553L146.786 74.5825L144.36 72.1562L142.387 73.8191C141.91 73.5482 141.403 73.335 140.875 73.1842L140.656 70.6143H137.225L137.005 73.1842C136.478 73.335 135.971 73.5482 135.494 73.8191L133.529 72.1562L131.102 74.5825L132.758 76.5553C132.487 77.0322 132.273 77.5397 132.123 78.067L129.553 78.2862V81.7178L132.123 81.937C132.273 82.4644 132.487 82.9718 132.758 83.4487L131.102 85.414L133.529 87.8402L135.494 86.1849C135.971 86.4559 136.478 86.669 137.005 86.8198L137.225 89.3898H140.656L140.875 86.8198C141.403 86.669 141.91 86.4559 142.387 86.1849L144.36 87.8402L146.786 85.414L145.123 83.4487C145.394 82.9718 145.607 82.4644 145.758 81.937L148.328 81.7178ZM138.91 83.9854C138.122 83.9854 137.352 83.7518 136.697 83.3141C136.042 82.8764 135.532 82.2543 135.23 81.5264C134.929 80.7985 134.85 79.9976 135.003 79.2249C135.157 78.4522 135.536 77.7424 136.094 77.1854C136.651 76.6283 137.36 76.2489 138.133 76.0952C138.906 75.9415 139.707 76.0204 140.435 76.3219C141.162 76.6234 141.785 77.1339 142.222 77.789C142.66 78.4441 142.894 79.2142 142.894 80.002C142.894 80.5251 142.791 81.0431 142.59 81.5264C142.39 82.0097 142.097 82.4488 141.727 82.8187C141.357 83.1886 140.918 83.482 140.435 83.6822C139.951 83.8824 139.433 83.9854 138.91 83.9854Z" fill="white"/>
</g>
<path d="M148.328 81.7178V78.2862L145.758 78.067C145.607 77.5397 145.394 77.0322 145.123 76.5553L146.786 74.5825L144.36 72.1562L142.387 73.8191C141.91 73.5482 141.403 73.335 140.875 73.1842L140.656 70.6143H137.225L137.005 73.1842C136.478 73.335 135.971 73.5482 135.494 73.8191L133.529 72.1562L131.102 74.5825L132.758 76.5553C132.487 77.0322 132.273 77.5397 132.123 78.067L129.553 78.2862V81.7178L132.123 81.937C132.273 82.4644 132.487 82.9718 132.758 83.4487L131.102 85.414L133.529 87.8402L135.494 86.1849C135.971 86.4559 136.478 86.669 137.005 86.8198L137.225 89.3898H140.656L140.875 86.8198C141.403 86.669 141.91 86.4559 142.387 86.1849L144.36 87.8402L146.786 85.414L145.123 83.4487C145.394 82.9718 145.607 82.4644 145.758 81.937L148.328 81.7178ZM138.91 83.9854C138.122 83.9854 137.352 83.7518 136.697 83.3141C136.042 82.8764 135.532 82.2543 135.23 81.5264C134.929 80.7985 134.85 79.9976 135.003 79.2249C135.157 78.4522 135.536 77.7424 136.094 77.1854C136.651 76.6283 137.36 76.2489 138.133 76.0952C138.906 75.9415 139.707 76.0204 140.435 76.3219C141.162 76.6234 141.785 77.1339 142.222 77.789C142.66 78.4441 142.894 79.2142 142.894 80.002C142.894 80.5251 142.791 81.0431 142.59 81.5264C142.39 82.0097 142.097 82.4488 141.727 82.8187C141.357 83.1886 140.918 83.482 140.435 83.6822C139.951 83.8824 139.433 83.9854 138.91 83.9854Z" stroke="#263238" stroke-linecap="round" stroke-linejoin="round"/>
<path d="M162.456 51.9825L164.277 52.8063L164.995 51.1661" stroke="#263238" stroke-linecap="round" stroke-linejoin="round"/>
<path d="M121.979 71.4079L120.15 70.584L119.432 72.2318" stroke="#263238" stroke-linecap="round" stroke-linejoin="round"/>
<path d="M197.663 33.4338V37.145C197.663 37.4927 197.814 37.6136 198.056 37.6136C198.298 37.6136 198.449 37.4927 198.449 37.145V33.4338H199.167V37.0997C199.191 37.2573 199.178 37.4182 199.13 37.5704C199.083 37.7225 199.001 37.8619 198.892 37.9782C198.783 38.0944 198.65 38.1846 198.501 38.2419C198.352 38.2992 198.192 38.3221 198.033 38.309C197.278 38.309 196.907 37.8706 196.907 37.0997V33.4338H197.663Z" fill="#263238"/>
<path d="M201.919 34.6129V35.2403C201.919 35.9961 201.548 36.4345 200.792 36.4345H200.437V38.241H199.681V33.4338H200.792C201.548 33.4338 201.919 33.8495 201.919 34.6129ZM200.407 34.114V35.7467H200.762C201.004 35.7467 201.132 35.6333 201.132 35.2932V34.5373C201.132 34.1972 201.004 34.0838 200.762 34.0838L200.407 34.114Z" fill="#263238"/>
<path d="M204.625 38.241H203.869L203.74 37.3642H202.811L202.682 38.241H201.987L202.743 33.4262H203.846L204.625 38.241ZM202.901 36.7293H203.657L203.302 34.2954L202.901 36.7293Z" fill="#263238"/>
<path d="M204.972 33.4338H206.174C206.93 33.4338 207.3 33.857 207.3 34.6205V37.0543C207.3 37.8102 206.93 38.2486 206.174 38.2486H204.972V33.4338ZM205.728 34.1216V37.5607H206.159C206.401 37.5607 206.544 37.4322 206.544 37.0921V34.5902C206.544 34.2425 206.401 34.1216 206.159 34.1216H205.728Z" fill="#263238"/>
<path d="M210.218 38.241H209.462L209.334 37.3642H208.404L208.275 38.241H207.58L208.336 33.4262H209.439L210.218 38.241ZM208.495 36.7293H209.251L208.895 34.2954L208.495 36.7293Z" fill="#263238"/>
<path d="M210.089 33.4338H212.425V34.1216H211.631V38.2486H210.875V34.114H210.12L210.089 33.4338Z" fill="#263238"/>
<path d="M212.75 33.4338H213.506V38.2486H212.75V33.4338Z" fill="#263238"/>
<path d="M214.745 34.7565V38.241H214.065V33.4338H215.017L215.773 36.3136V33.4338H216.416V38.2486H215.66L214.745 34.7565Z" fill="#263238"/>
<path d="M218.124 35.5577H219.182V37.0694C219.182 37.8253 218.797 38.2788 218.056 38.2788C217.315 38.2788 216.93 37.8404 216.93 37.0694V34.5675C216.93 33.8117 217.315 33.3582 218.056 33.3582C218.797 33.3582 219.182 33.7966 219.182 34.5675V35.0362H218.426V34.5222C218.426 34.1745 218.275 34.046 218.041 34.046C217.806 34.046 217.648 34.1745 217.648 34.5222V37.1148C217.648 37.4625 217.799 37.5834 218.041 37.5834C218.283 37.5834 218.426 37.4625 218.426 37.1148V36.2304H218.086L218.124 35.5577Z" fill="#263238"/>
<path d="M316.257 70.9015L303.694 61.9446L307.27 76.9484L309.847 73.1237L312.22 76.6536L314.118 75.3762L311.744 71.8464L316.257 70.9015Z" fill="#263238"/>
<path d="M166.53 138.226C168.079 136.041 178.283 142.118 177.028 146.434C175.774 150.75 171.692 150.281 169.304 147.991C166.915 145.701 164.874 140.561 166.53 138.226Z" fill="#1EE0CC"/>
<mask id="mask3_3901_4879" style="mask-type:luminance" maskUnits="userSpaceOnUse" x="165" y="137" width="13" height="13">
<path d="M166.53 138.226C168.079 136.041 178.283 142.118 177.028 146.434C175.774 150.75 171.692 150.281 169.304 147.991C166.915 145.701 164.874 140.561 166.53 138.226Z" fill="white"/>
</mask>
<g mask="url(#mask3_3901_4879)">
<path opacity="0.3" d="M166.53 138.226C168.079 136.041 178.283 142.118 177.028 146.434C175.774 150.75 171.692 150.281 169.304 147.991C166.915 145.701 164.874 140.561 166.53 138.226Z" fill="black" fill-opacity="0.7"/>
</g>
<path d="M166.53 138.226C168.079 136.041 178.283 142.118 177.028 146.434C175.774 150.75 171.692 150.281 169.304 147.991C166.915 145.701 164.874 140.561 166.53 138.226Z" stroke="#263238" stroke-linecap="round" stroke-linejoin="round"/>
<path d="M171.374 121.468C171.374 121.468 172.886 121.468 175.395 127.296C176.441 129.842 176.704 132.642 176.151 135.338L172.47 153.078L163.506 147.689L168.714 134.673C168.714 134.673 165.985 126.26 171.374 121.468Z" fill="white" stroke="#263238" stroke-linecap="round" stroke-linejoin="round"/>
<path d="M167.747 132.882L162.002 134.786C161.39 134.945 160.188 133.932 160.241 133.275L161.949 113.184C161.983 112.789 162.139 112.414 162.395 112.111C162.65 111.807 162.994 111.591 163.378 111.491L169.75 110.108C170.354 109.949 171.889 110.675 171.836 111.302L169.183 131.158C169.153 131.56 168.999 131.941 168.741 132.25C168.484 132.559 168.136 132.78 167.747 132.882Z" fill="#1EE0CC"/>
<mask id="mask4_3901_4879" style="mask-type:luminance" maskUnits="userSpaceOnUse" x="160" y="110" width="12" height="25">
<path d="M167.747 132.882L162.002 134.786C161.39 134.945 160.188 133.932 160.241 133.275L161.949 113.184C161.983 112.789 162.139 112.414 162.395 112.111C162.65 111.807 162.994 111.591 163.378 111.491L169.75 110.108C170.354 109.949 171.889 110.675 171.836 111.302L169.183 131.158C169.153 131.56 168.999 131.941 168.741 132.25C168.484 132.559 168.136 132.78 167.747 132.882Z" fill="white"/>
</mask>
<g mask="url(#mask4_3901_4879)">
<path opacity="0.3" d="M167.747 132.882L162.002 134.786C161.39 134.945 160.188 133.932 160.241 133.275L161.949 113.184C161.983 112.789 162.139 112.414 162.395 112.111C162.65 111.807 162.994 111.591 163.378 111.491L169.75 110.108C170.354 109.949 171.889 110.675 171.836 111.302L169.183 131.158C169.153 131.56 168.999 131.941 168.741 132.25C168.484 132.559 168.136 132.78 167.747 132.882Z" fill="black" fill-opacity="0.7"/>
</g>
<path d="M167.747 132.882L162.002 134.786C161.39 134.945 160.188 133.932 160.241 133.275L161.949 113.184C161.983 112.789 162.139 112.414 162.395 112.111C162.65 111.807 162.994 111.591 163.378 111.491L169.75 110.108C170.354 109.949 171.889 110.675 171.836 111.302L169.183 131.158C169.153 131.56 168.999 131.941 168.741 132.25C168.484 132.559 168.136 132.78 167.747 132.882Z" stroke="#263238" stroke-linecap="round" stroke-linejoin="round"/>
<path d="M168.691 133.381L162.327 134.764C162.186 134.799 162.039 134.8 161.898 134.767C161.756 134.734 161.625 134.668 161.514 134.575C161.403 134.481 161.316 134.362 161.261 134.228C161.205 134.094 161.182 133.949 161.193 133.804L162.894 113.706C162.929 113.309 163.085 112.934 163.343 112.63C163.6 112.327 163.945 112.111 164.33 112.012L170.694 110.629C170.835 110.594 170.982 110.593 171.124 110.626C171.265 110.659 171.397 110.725 171.507 110.818C171.618 110.912 171.705 111.031 171.761 111.165C171.817 111.299 171.84 111.445 171.828 111.589L170.128 131.695C170.092 132.09 169.934 132.464 169.677 132.766C169.42 133.067 169.076 133.282 168.691 133.381Z" fill="#1EE0CC" stroke="#263238" stroke-linecap="round" stroke-linejoin="round"/>
<path opacity="0.3" d="M165.161 117.424L164.133 117.651C164.111 117.656 164.087 117.655 164.064 117.649C164.042 117.643 164.021 117.632 164.003 117.617C163.986 117.602 163.972 117.582 163.963 117.561C163.954 117.539 163.95 117.516 163.952 117.492L164.232 114.257C164.236 114.193 164.26 114.131 164.3 114.081C164.341 114.031 164.396 113.995 164.458 113.978L165.486 113.759C165.509 113.752 165.532 113.752 165.555 113.757C165.578 113.761 165.599 113.772 165.617 113.787C165.635 113.801 165.649 113.82 165.657 113.842C165.666 113.863 165.67 113.887 165.668 113.91L165.396 117.152C165.389 117.216 165.363 117.276 165.321 117.325C165.279 117.373 165.223 117.408 165.161 117.424Z" fill="black" fill-opacity="0.7"/>
<path d="M174.088 127.5C174.338 124.681 171.775 120.455 170.067 120.455C168.359 120.455 163.166 124.454 163.166 124.454C161.163 125.913 162.153 127.296 162.153 127.296C160.974 128.052 160.642 129.133 161.186 129.624C161.73 130.115 163.453 129.624 163.453 129.624C163.453 129.624 161.73 130.886 162.161 131.498C163.174 132.965 166.515 131.037 166.515 131.037C166.515 131.037 164.58 132.315 164.686 132.549C165.441 134.144 168.586 132.285 168.586 132.285L170.808 133.426C170.806 133.687 170.859 133.945 170.961 134.185C171.064 134.425 171.215 134.641 171.405 134.82C171.596 134.999 171.821 135.136 172.066 135.224C172.312 135.312 172.573 135.348 172.834 135.331" fill="white"/>
<path d="M174.088 127.5C174.338 124.681 171.775 120.455 170.067 120.455C168.359 120.455 163.166 124.454 163.166 124.454C161.163 125.913 162.153 127.296 162.153 127.296C160.974 128.052 160.642 129.133 161.186 129.624C161.73 130.115 163.453 129.624 163.453 129.624C163.453 129.624 161.73 130.886 162.161 131.498C163.174 132.965 166.515 131.037 166.515 131.037C166.515 131.037 164.58 132.315 164.686 132.549C165.441 134.144 168.586 132.285 168.586 132.285L170.808 133.426C170.806 133.687 170.859 133.945 170.961 134.185C171.064 134.425 171.215 134.641 171.405 134.82C171.596 134.999 171.821 135.136 172.066 135.224C172.312 135.312 172.573 135.348 172.834 135.331" stroke="#263238" stroke-linecap="round" stroke-linejoin="round"/>
<path d="M162.183 127.296C162.183 127.296 167.043 124.152 167.663 124.068C168.283 123.985 170.528 123.494 170.528 123.494" fill="white"/>
<path d="M162.183 127.296C162.183 127.296 167.043 124.152 167.663 124.068C168.283 123.985 170.528 123.494 170.528 123.494" stroke="#263238" stroke-linecap="round" stroke-linejoin="round"/>
<path d="M163.506 129.624C163.506 129.624 167.459 127.583 168.185 127.583C169.268 127.464 170.343 127.28 171.405 127.031" fill="white"/>
<path d="M163.506 129.624C163.506 129.624 167.459 127.583 168.185 127.583C169.268 127.464 170.343 127.28 171.405 127.031" stroke="#263238" stroke-linecap="round" stroke-linejoin="round"/>
<path d="M166.53 131.037C166.99 130.708 167.478 130.419 167.989 130.176C168.932 130.107 169.879 130.107 170.823 130.176" fill="white"/>
<path d="M166.53 131.037C166.99 130.708 167.478 130.419 167.989 130.176C168.932 130.107 169.879 130.107 170.823 130.176" stroke="#263238" stroke-linecap="round" stroke-linejoin="round"/>
<path d="M127.641 130.939C135.199 131.052 152.584 158.15 152.584 158.15L163.506 144.545L166.529 138.241C166.529 138.241 168.041 149.579 177.028 146.449C177.028 146.449 169.114 176.215 160.233 179.805C151.352 183.395 126.726 158.15 126.726 158.15L127.641 130.939Z" fill="#1EE0CC"/>
<mask id="mask5_3901_4879" style="mask-type:luminance" maskUnits="userSpaceOnUse" x="126" y="130" width="52" height="51">
<path d="M127.641 130.939C135.199 131.052 152.584 158.15 152.584 158.15L163.506 144.545L166.529 138.241C166.529 138.241 168.041 149.579 177.028 146.449C177.028 146.449 169.114 176.215 160.233 179.805C151.352 183.395 126.726 158.15 126.726 158.15L127.641 130.939Z" fill="white"/>
</mask>
<g mask="url(#mask5_3901_4879)">
<path opacity="0.2" d="M128.261 159.662C131.382 162.723 138.775 169.722 145.978 174.688C143.862 167.606 138.064 160.062 138.064 160.062C136.265 159.465 133.726 154.076 133.726 154.076C132.531 154.529 130.838 150.788 130.838 150.788C129.447 151.967 128.669 155.451 128.261 159.662Z" fill="black" fill-opacity="0.7"/>
<path opacity="0.2" d="M152.063 165.066C151.772 162.68 151.986 160.259 152.69 157.961L152.561 158.127C152.561 158.127 151.382 156.291 149.538 153.592C149.016 157.099 148.767 162.98 152.063 165.066Z" fill="black" fill-opacity="0.7"/>
</g>
<path d="M127.641 130.939C135.199 131.052 152.584 158.15 152.584 158.15L163.506 144.545L166.529 138.241C166.529 138.241 168.041 149.579 177.028 146.449C177.028 146.449 169.114 176.215 160.233 179.805C151.352 183.395 126.726 158.15 126.726 158.15L127.641 130.939Z" stroke="#263238" stroke-linecap="round" stroke-linejoin="round"/>
<path d="M49.3039 247.53C49.3039 247.53 44.5193 257.167 44.5193 259.435C44.5193 261.702 43.7181 262.723 39.5307 262.723C35.3432 262.723 24.9804 262.813 23.3856 262.072H13.6955C11.428 262.072 10.5058 259.896 11.8966 260.19C13.2874 260.485 23.5746 257.643 26.3712 256.494C29.1679 255.345 33.7635 253.985 36.2427 251.589C38.7219 249.193 41.7226 240.251 41.7226 240.251L49.3039 247.53Z" fill="white" stroke="#263238" stroke-linecap="round" stroke-linejoin="round"/>
<path d="M23.3857 262.065C23.3857 259.253 26.4092 260.599 30.9443 259.427C33.8695 258.671 34.1794 257.651 34.1794 257.651" stroke="#263238" stroke-linecap="round" stroke-linejoin="round"/>
<path d="M130.717 148.324C131.019 153.826 131.148 159.541 131.367 163.804C131.911 174.106 138.804 204.219 138.804 204.219C138.804 204.219 146.363 208.754 146.741 217.069C147.119 225.383 100.929 248.815 88.5401 242.133C76.1516 235.451 77.8145 216.041 77.8145 216.041C77.8145 216.041 59.4774 141.967 66.9831 136.011C74.4887 130.055 77.0208 130.796 96.2347 128.135C115.449 125.474 127.64 130.939 127.64 130.939C128.731 131.993 129.495 133.34 129.84 134.817" fill="#1EE0CC"/>
<mask id="mask6_3901_4879" style="mask-type:luminance" maskUnits="userSpaceOnUse" x="65" y="127" width="82" height="117">
<path d="M130.717 148.324C131.019 153.826 131.148 159.541 131.367 163.804C131.911 174.106 138.804 204.219 138.804 204.219C138.804 204.219 146.363 208.754 146.741 217.069C147.119 225.383 100.929 248.815 88.5401 242.133C76.1516 235.451 77.8145 216.041 77.8145 216.041C77.8145 216.041 59.4774 141.967 66.9831 136.011C74.4887 130.055 77.0208 130.796 96.2347 128.135C115.449 125.474 127.64 130.939 127.64 130.939C128.731 131.993 129.495 133.34 129.84 134.817" fill="white"/>
</mask>
<g mask="url(#mask6_3901_4879)">
<path opacity="0.2" d="M77.8073 215.996C77.8073 215.996 76.1368 235.406 88.5329 242.088C100.929 248.769 147.142 225.33 146.734 217.024C146.326 208.717 138.805 204.174 138.805 204.174C138.805 204.174 138.125 201.188 137.165 196.782C130.611 201.03 115.676 209.843 105.955 208.875C105.955 208.875 122.138 214.612 132.486 209.684C142.834 204.756 128.185 216.169 125.199 215.988C122.214 215.807 99.9312 211.778 95.8949 213.872C91.8586 215.965 82.8866 231.362 82.8866 231.362C82.8866 231.362 77.4445 219.132 78.6538 211.627C78.6538 211.627 78.8126 188.256 76.2124 174.59C76.2124 174.59 82.4331 163.857 75.5548 155.52C73.0151 152.443 70.2638 158.777 67.7544 167.991C71.4581 190.334 77.8073 215.996 77.8073 215.996Z" fill="black" fill-opacity="0.7"/>
</g>
<path d="M130.717 148.324C131.019 153.826 131.148 159.541 131.367 163.804C131.911 174.106 138.804 204.219 138.804 204.219C138.804 204.219 146.363 208.754 146.741 217.069C147.119 225.383 100.929 248.815 88.5401 242.133C76.1516 235.451 77.8145 216.041 77.8145 216.041C77.8145 216.041 59.4774 141.967 66.9831 136.011C74.4887 130.055 77.0208 130.796 96.2347 128.135C115.449 125.474 127.64 130.939 127.64 130.939C128.731 131.993 129.495 133.34 129.84 134.817" stroke="#263238" stroke-linecap="round" stroke-linejoin="round"/>
<path d="M140.007 211.287C141.171 211.135 144.323 213.131 144.323 213.131C144.323 213.131 195.297 200.039 202.962 204.197C218.344 212.511 210.142 228.966 206.953 233.675C203.763 238.384 156.704 260.674 140.369 261.097C124.035 261.521 94.0733 257.008 88.2154 247.386C82.3576 237.764 88.3515 227.091 96.5299 219.261C104.844 211.287 121.156 218.263 126.764 216.668C133.93 214.612 136.447 211.732 140.007 211.287Z" fill="#263238"/>
<path d="M97.3686 256.071L96.6128 259.359C96.6128 259.359 98.6158 265.051 107.437 265.973C116.257 266.895 121.473 268.86 125.706 269.109C127.939 269.283 130.183 269.248 132.41 269.004L133.272 267.749L97.3686 256.071Z" fill="white" stroke="#263238" stroke-linecap="round" stroke-linejoin="round"/>
<path d="M148.548 255.723L133.272 267.749C125.903 267.123 118.582 266.03 111.352 264.476C104.118 262.798 97.7994 260.394 97.4517 257.107C96.9226 252.095 102.267 250.727 108.631 250.924C109.818 250.924 111.034 251.037 112.267 251.165C122.448 252.261 135.381 246.63 135.381 246.63L148.548 255.723Z" fill="#1EE0CC"/>
<mask id="mask7_3901_4879" style="mask-type:luminance" maskUnits="userSpaceOnUse" x="97" y="246" width="52" height="22">
<path d="M148.548 255.723L133.272 267.749C125.903 267.123 118.582 266.03 111.352 264.476C104.118 262.798 97.7994 260.394 97.4517 257.107C96.9226 252.095 102.267 250.727 108.631 250.924C109.818 250.924 111.034 251.037 112.267 251.165C122.448 252.261 135.381 246.63 135.381 246.63L148.548 255.723Z" fill="white"/>
</mask>
<g mask="url(#mask7_3901_4879)">
<path opacity="0.2" d="M97.4672 256.948C100.433 258.051 103.279 259.452 105.963 261.128C105.963 261.128 120.15 268.429 141.949 260.908L148.555 255.723L135.404 246.585C135.404 246.585 122.471 252.208 112.29 251.12C111.058 250.992 109.841 250.901 108.654 250.878C102.342 250.682 97.0288 252.027 97.4672 256.948Z" fill="black" fill-opacity="0.7"/>
</g>
<path d="M148.548 255.723L133.272 267.749C125.903 267.123 118.582 266.03 111.352 264.476C104.118 262.798 97.7994 260.394 97.4517 257.107C96.9226 252.095 102.267 250.727 108.631 250.924C109.818 250.924 111.034 251.037 112.267 251.165C122.448 252.261 135.381 246.63 135.381 246.63L148.548 255.723Z" stroke="#263238" stroke-linecap="round" stroke-linejoin="round"/>
<path d="M134.315 260.447C137.066 260.893 134.043 266.532 130.309 264.816C126.575 263.1 131.556 260.001 134.315 260.447Z" fill="white"/>
<mask id="mask8_3901_4879" style="mask-type:luminance" maskUnits="userSpaceOnUse" x="128" y="260" width="8" height="6">
<path d="M134.315 260.447C137.066 260.893 134.043 266.532 130.309 264.816C126.575 263.1 131.556 260.001 134.315 260.447Z" fill="white"/>
</mask>
<g mask="url(#mask8_3901_4879)">
<path opacity="0.2" d="M129.145 263.909C131.139 263.666 133.119 263.32 135.078 262.874C135.607 261.77 135.486 260.606 134.322 260.447C132.002 260.069 128.117 262.201 129.145 263.909Z" fill="black" fill-opacity="0.7"/>
</g>
<path d="M134.315 260.447C137.066 260.893 134.043 266.532 130.309 264.816C126.575 263.1 131.556 260.001 134.315 260.447Z" stroke="#263238" stroke-linecap="round" stroke-linejoin="round"/>
<path d="M111.352 264.431C104.118 262.753 97.7994 260.349 97.4517 257.061C96.9226 252.05 102.267 250.682 108.631 250.878C108.933 251.12 115.131 257.107 111.352 264.431Z" fill="white"/>
<mask id="mask9_3901_4879" style="mask-type:luminance" maskUnits="userSpaceOnUse" x="97" y="250" width="16" height="15">
<path d="M111.352 264.431C104.118 262.753 97.7994 260.349 97.4517 257.061C96.9226 252.05 102.267 250.682 108.631 250.878C108.933 251.12 115.131 257.107 111.352 264.431Z" fill="white"/>
</mask>
<g mask="url(#mask9_3901_4879)">
<path opacity="0.2" d="M97.4672 256.948C100.433 258.051 103.279 259.452 105.963 261.128C107.874 262.011 109.876 262.68 111.934 263.123C114.376 256.411 108.911 251.128 108.654 250.878C102.342 250.682 97.0288 252.027 97.4672 256.948Z" fill="black" fill-opacity="0.7"/>
</g>
<path d="M111.352 264.431C104.118 262.753 97.7994 260.349 97.4517 257.061C96.9226 252.05 102.267 250.682 108.631 250.878C108.933 251.12 115.131 257.107 111.352 264.431Z" stroke="#263238" stroke-linecap="round" stroke-linejoin="round"/>
<path d="M116.537 258.21H116.492C116.298 258.21 116.111 258.136 115.97 258.002C115.83 257.869 115.746 257.686 115.736 257.492C115.585 254.333 113.151 251.77 113.128 251.74C113.007 251.593 112.946 251.405 112.957 251.215C112.968 251.024 113.051 250.845 113.188 250.713C113.326 250.581 113.509 250.506 113.699 250.503C113.89 250.5 114.075 250.569 114.217 250.697C114.338 250.818 117.066 253.682 117.24 257.416C117.251 257.614 117.183 257.809 117.051 257.957C116.92 258.106 116.735 258.196 116.537 258.21Z" fill="white" stroke="#263238" stroke-linecap="round" stroke-linejoin="round"/>
<path d="M119.561 258.391H119.5C119.3 258.391 119.108 258.312 118.966 258.17C118.824 258.028 118.744 257.836 118.744 257.636C118.676 254.446 116.477 251.687 116.432 251.657C116.319 251.501 116.269 251.308 116.294 251.117C116.318 250.927 116.414 250.752 116.563 250.63C116.711 250.508 116.9 250.446 117.092 250.459C117.284 250.471 117.464 250.556 117.596 250.697C119.155 252.681 120.082 255.088 120.256 257.605C120.265 257.801 120.197 257.992 120.067 258.139C119.937 258.285 119.756 258.376 119.561 258.391Z" fill="white" stroke="#263238" stroke-linecap="round" stroke-linejoin="round"/>
<path d="M123.181 258.014C122.982 258.03 122.784 257.967 122.631 257.838C122.478 257.709 122.382 257.525 122.365 257.326C122.131 254.68 119.878 251.279 119.855 251.279C119.794 251.197 119.749 251.103 119.725 251.003C119.701 250.903 119.697 250.799 119.714 250.698C119.732 250.597 119.769 250.5 119.825 250.414C119.881 250.327 119.954 250.253 120.039 250.196C120.125 250.139 120.221 250.1 120.322 250.081C120.423 250.063 120.527 250.065 120.627 250.087C120.727 250.11 120.822 250.153 120.905 250.214C120.988 250.274 121.058 250.351 121.11 250.44C121.216 250.591 123.604 254.174 123.869 257.243C123.874 257.434 123.805 257.621 123.677 257.764C123.55 257.907 123.372 257.996 123.181 258.014Z" fill="white" stroke="#263238" stroke-linecap="round" stroke-linejoin="round"/>
<path d="M126.598 257.651C126.53 257.662 126.461 257.662 126.394 257.651C126.196 257.617 126.02 257.507 125.904 257.344C125.788 257.181 125.741 256.979 125.774 256.781C126.31 253.569 123.332 250.818 123.302 250.795C123.153 250.661 123.063 250.473 123.052 250.272C123.042 250.072 123.111 249.875 123.245 249.726C123.38 249.576 123.568 249.486 123.769 249.476C123.969 249.465 124.166 249.535 124.315 249.669C124.459 249.805 127.943 252.995 127.27 257.031C127.241 257.194 127.16 257.342 127.038 257.454C126.917 257.566 126.762 257.635 126.598 257.651Z" fill="white" stroke="#263238" stroke-linecap="round" stroke-linejoin="round"/>
<path d="M130.316 256.759C130.234 256.77 130.15 256.77 130.067 256.759C129.97 256.737 129.879 256.695 129.798 256.638C129.717 256.58 129.648 256.507 129.595 256.423C129.543 256.339 129.507 256.245 129.491 256.147C129.474 256.049 129.478 255.949 129.5 255.852C130.158 252.987 127.338 249.752 127.308 249.722C127.236 249.649 127.179 249.562 127.141 249.467C127.104 249.371 127.086 249.269 127.089 249.167C127.092 249.064 127.116 248.963 127.16 248.87C127.203 248.777 127.265 248.694 127.341 248.626C127.418 248.557 127.508 248.505 127.605 248.473C127.702 248.44 127.805 248.428 127.907 248.436C128.01 248.445 128.109 248.474 128.2 248.522C128.29 248.57 128.37 248.636 128.434 248.717C128.578 248.875 131.805 252.564 130.974 256.192C130.936 256.343 130.852 256.478 130.735 256.579C130.617 256.681 130.471 256.743 130.316 256.759Z" fill="white" stroke="#263238" stroke-linecap="round" stroke-linejoin="round"/>
<path d="M208.857 251.12L209.953 254.31C209.953 254.31 208.555 260.183 199.885 262.035C191.216 263.887 186.227 266.373 182.04 267.069C179.839 267.478 177.604 267.677 175.365 267.666L174.368 266.472L208.857 251.12Z" fill="white" stroke="#263238" stroke-linecap="round" stroke-linejoin="round"/>
<path d="M157.943 256.184L174.39 266.502C181.646 265.105 188.806 263.249 195.826 260.946C202.848 258.52 208.88 255.466 208.88 252.156C208.88 247.122 203.415 246.32 197.111 247.182C195.932 247.333 194.73 247.553 193.521 247.809C183.513 249.964 170.089 245.731 170.089 245.731L157.943 256.184Z" fill="#1EE0CC"/>
<mask id="mask10_3901_4879" style="mask-type:luminance" maskUnits="userSpaceOnUse" x="157" y="245" width="52" height="22">
<path d="M157.943 256.184L174.39 266.502C181.646 265.105 188.806 263.249 195.826 260.946C202.848 258.52 208.88 255.466 208.88 252.156C208.88 247.122 203.415 246.32 197.111 247.182C195.932 247.333 194.73 247.553 193.521 247.809C183.513 249.964 170.089 245.731 170.089 245.731L157.943 256.184Z" fill="white"/>
</mask>
<g mask="url(#mask10_3901_4879)">
<path opacity="0.2" d="M157.943 256.184L167.618 262.231C175.462 259.802 182.34 254.959 187.27 248.391C181.441 248.266 175.655 247.361 170.067 245.701L157.943 256.184Z" fill="black" fill-opacity="0.7"/>
</g>
<path d="M157.943 256.184L174.39 266.502C181.646 265.105 188.806 263.249 195.826 260.946C202.848 258.52 208.88 255.466 208.88 252.156C208.88 247.122 203.415 246.32 197.111 247.182C195.932 247.333 194.73 247.553 193.521 247.809C183.513 249.964 170.089 245.731 170.089 245.731L157.943 256.184Z" stroke="#263238" stroke-linecap="round" stroke-linejoin="round"/>
<path d="M195.826 260.946C202.848 258.52 208.88 255.466 208.88 252.156C208.88 247.122 203.415 246.32 197.111 247.182C196.862 247.469 191.359 254.045 195.826 260.946Z" fill="white" stroke="#263238" stroke-linecap="round" stroke-linejoin="round"/>
<path d="M190.036 255.3H190.082C190.181 255.294 190.278 255.269 190.368 255.225C190.457 255.182 190.537 255.121 190.603 255.047C190.669 254.972 190.72 254.886 190.752 254.792C190.785 254.698 190.798 254.598 190.792 254.499C190.611 251.347 192.758 248.535 192.78 248.512C192.841 248.434 192.886 248.344 192.913 248.249C192.939 248.153 192.946 248.053 192.934 247.954C192.922 247.855 192.89 247.76 192.841 247.674C192.792 247.587 192.726 247.511 192.648 247.45C192.57 247.389 192.48 247.344 192.384 247.318C192.288 247.292 192.188 247.284 192.09 247.297C191.991 247.309 191.896 247.34 191.809 247.39C191.723 247.439 191.647 247.504 191.586 247.583C191.48 247.711 189.069 250.856 189.318 254.582C189.328 254.769 189.406 254.947 189.539 255.08C189.672 255.212 189.849 255.291 190.036 255.3Z" fill="white" stroke="#263238" stroke-linecap="round" stroke-linejoin="round"/>
<path d="M187.051 255.799H187.111C187.311 255.782 187.495 255.686 187.624 255.533C187.753 255.38 187.816 255.182 187.799 254.983C187.741 252.802 188.324 250.652 189.477 248.8C189.532 248.716 189.57 248.623 189.589 248.525C189.608 248.427 189.607 248.326 189.587 248.229C189.566 248.131 189.527 248.038 189.47 247.956C189.414 247.874 189.342 247.803 189.258 247.749C189.091 247.64 188.887 247.602 188.691 247.643C188.496 247.685 188.325 247.801 188.215 247.968C186.871 250.102 186.202 252.591 186.295 255.111C186.312 255.299 186.399 255.475 186.539 255.602C186.679 255.729 186.862 255.8 187.051 255.799Z" fill="white" stroke="#263238" stroke-linecap="round" stroke-linejoin="round"/>
<path d="M183.408 255.799C183.608 255.799 183.8 255.719 183.942 255.577C184.084 255.436 184.164 255.243 184.164 255.043C184.118 252.382 186 248.777 186.023 248.739C186.072 248.651 186.103 248.554 186.114 248.454C186.125 248.354 186.115 248.253 186.087 248.156C186.058 248.059 186.01 247.97 185.946 247.892C185.882 247.814 185.803 247.75 185.714 247.703C185.625 247.656 185.527 247.627 185.427 247.619C185.326 247.61 185.225 247.622 185.129 247.653C185.034 247.684 184.945 247.734 184.869 247.8C184.792 247.866 184.73 247.946 184.685 248.036C184.602 248.195 182.599 252.02 182.652 255.066C182.658 255.262 182.74 255.449 182.881 255.586C183.022 255.722 183.211 255.799 183.408 255.799Z" fill="white" stroke="#263238" stroke-linecap="round" stroke-linejoin="round"/>
<path d="M179.969 255.799C180.037 255.806 180.105 255.806 180.173 255.799C180.269 255.773 180.358 255.728 180.437 255.667C180.515 255.606 180.581 255.53 180.63 255.444C180.679 255.357 180.711 255.262 180.723 255.164C180.736 255.065 180.728 254.965 180.702 254.869C179.833 251.732 182.508 248.686 182.531 248.656C182.665 248.508 182.735 248.312 182.725 248.112C182.715 247.912 182.626 247.725 182.478 247.59C182.405 247.523 182.318 247.471 182.224 247.437C182.13 247.403 182.03 247.388 181.931 247.393C181.831 247.398 181.733 247.422 181.643 247.465C181.552 247.508 181.472 247.569 181.405 247.643C181.276 247.794 178.147 251.332 179.243 255.27C179.292 255.424 179.388 255.559 179.519 255.654C179.649 255.749 179.807 255.8 179.969 255.799Z" fill="white" stroke="#263238" stroke-linecap="round" stroke-linejoin="round"/>
<path d="M176.182 255.3C176.267 255.299 176.351 255.284 176.431 255.255C176.621 255.189 176.776 255.052 176.864 254.872C176.952 254.692 176.965 254.484 176.9 254.295C175.948 251.521 178.412 248.006 178.412 247.968C178.508 247.805 178.54 247.613 178.501 247.427C178.462 247.242 178.355 247.079 178.201 246.968C178.048 246.858 177.858 246.81 177.67 246.833C177.483 246.855 177.31 246.948 177.187 247.091C177.066 247.265 174.239 251.271 175.449 254.786C175.5 254.939 175.599 255.071 175.731 255.163C175.863 255.256 176.021 255.304 176.182 255.3Z" fill="white" stroke="#263238" stroke-linecap="round" stroke-linejoin="round"/>
<path d="M172.577 259.389C169.886 260.145 173.484 265.436 177.013 263.312C180.543 261.188 175.29 258.679 172.577 259.389Z" fill="white" stroke="#263238" stroke-linecap="round" stroke-linejoin="round"/>
<path d="M100.77 215.27C110.733 213.524 137.195 227.447 153.408 236.721C155 235.839 156.517 234.827 157.943 233.698C161.677 230.372 175.925 212.057 185.751 207.87L203.695 231.347C199.651 237.008 187.686 243.259 175.729 248.414C173.598 251.935 171.089 255.212 168.246 258.187C160.906 265.746 157.913 261.506 157.913 261.506C157.913 261.506 153.272 260.984 146.424 260.047C146.145 260.71 145.654 261.261 145.027 261.614C144.4 261.967 143.674 262.102 142.962 261.997C142.07 261.853 140.355 260.583 138.427 258.898C121.133 256.298 97.6714 251.959 91.3297 246.85C80.9972 238.52 91.9344 216.812 100.77 215.27Z" fill="#263238"/>
<path d="M74.0279 148.324C75.9024 154.371 76.0536 163.033 74.5192 169.79C74.5192 169.79 67.8072 199.48 66.9606 205.943C66.1141 212.405 54.7838 237.515 54.1867 245.723L48.9637 253.237C48.9637 253.237 41.3296 252.662 36.2427 246.872L39.833 238.913C39.833 238.913 43.121 226.676 44.3152 224.975C45.5095 223.274 49.4399 200.191 50.7627 196.419C52.0854 192.647 60.037 142.375 66.9758 135.95C66.9758 135.95 68.8276 135.799 69.5835 137.258" fill="#1EE0CC"/>
<path d="M74.0279 148.324C75.9024 154.371 76.0536 163.033 74.5192 169.79C74.5192 169.79 67.8072 199.48 66.9606 205.943C66.1141 212.405 54.7838 237.515 54.1867 245.723L48.9637 253.237C48.9637 253.237 41.3296 252.662 36.2427 246.872L39.833 238.913C39.833 238.913 43.121 226.676 44.3152 224.975C45.5095 223.274 49.4399 200.191 50.7627 196.419C52.0854 192.647 60.037 142.375 66.9758 135.95C66.9758 135.95 68.8276 135.799 69.5835 137.258" stroke="#263238" stroke-linecap="round" stroke-linejoin="round"/>
<path d="M174.935 243.902C171.397 242.435 166.318 243.902 166.318 243.902C166.318 243.902 149.636 236.638 138.208 229.722C126.779 222.806 110.4 217.628 110.4 217.628C104.118 217.182 101.133 217.326 98.1396 220.652" stroke="white" stroke-linecap="round" stroke-linejoin="round"/>
<path d="M90.5132 240.243C90.5132 240.243 90.4301 245.308 97.6107 248.822" stroke="white" stroke-linecap="round" stroke-linejoin="round"/>
<path d="M169.757 219.11C169.757 219.11 158.419 227.311 156.152 232.715C153.922 233.652 151.769 234.761 149.712 236.033" stroke="white" stroke-linecap="round" stroke-linejoin="round"/>
<path d="M155.328 225.927C154.49 228.282 154.351 230.828 154.927 233.259" stroke="white" stroke-linecap="round" stroke-linejoin="round"/>
<path d="M157.943 220.606C157.326 221.506 156.782 222.454 156.318 223.441" stroke="white" stroke-linecap="round" stroke-linejoin="round"/>
<path d="M141.798 219.858C141.798 219.858 138.019 224.922 137.059 229.042" stroke="white" stroke-linecap="round" stroke-linejoin="round"/>
<path d="M120.672 250.508C119.259 250.428 117.852 250.256 116.461 249.994" stroke="white" stroke-linecap="round" stroke-linejoin="round"/>
<path d="M156.25 246.872C145.504 249.013 134.601 250.277 123.65 250.652" stroke="white" stroke-linecap="round" stroke-linejoin="round"/>
<path d="M152.561 158.15C151.915 159.394 151.577 160.776 151.577 162.179C151.577 163.581 151.915 164.963 152.561 166.207" stroke="#263238" stroke-linecap="round" stroke-linejoin="round"/>
<path d="M92.6523 135.474C97.8677 138.709 105.184 141.445 110.657 137.243" stroke="#263238" stroke-linecap="round" stroke-linejoin="round"/>
<path d="M88.5327 132.542C89.2432 133.146 89.984 133.706 90.7398 134.242" stroke="#263238" stroke-linecap="round" stroke-linejoin="round"/>
<path d="M133.393 152.708C133.083 155.588 132.819 159.019 131.269 161.544" stroke="#263238" stroke-linecap="round" stroke-linejoin="round"/>
<path d="M133.725 148.543C133.725 149.299 133.627 150.108 133.566 150.894" stroke="#263238" stroke-linecap="round" stroke-linejoin="round"/>
<path d="M136.537 161.544C136.537 161.544 134.73 163.456 131.314 162.579" stroke="#263238" stroke-linecap="round" stroke-linejoin="round"/>
<path d="M78.4042 154.068C78.4042 154.068 78.1775 166.479 74.0278 171.937" stroke="#263238" stroke-linecap="round" stroke-linejoin="round"/>
<path d="M102.025 208.036L99.0767 207.333" stroke="#263238" stroke-linecap="round" stroke-linejoin="round"/>
<path d="M138.805 204.197C134.564 204.257 130.785 207.281 127.006 210.304C119.447 214.839 111.889 208.792 104.028 208.452" stroke="#263238" stroke-linecap="round" stroke-linejoin="round"/>
<path d="M80.1956 201.808C79.538 206.562 78.8124 211.309 77.8071 215.996" stroke="#263238" stroke-linecap="round" stroke-linejoin="round"/>
<path d="M80.9443 195.943C80.8158 197.092 80.6722 198.21 80.521 199.382" stroke="#263238" stroke-linecap="round" stroke-linejoin="round"/>
<path d="M122.403 179.397C117.633 187.5 110.785 196.744 101.133 199.049" stroke="#263238" stroke-linecap="round" stroke-linejoin="round"/>
<path d="M127.595 169.019C126.417 171.882 125.067 174.672 123.551 177.371" stroke="#263238" stroke-linecap="round" stroke-linejoin="round"/>
<path d="M65.7589 164.408C62.1384 173.267 58.4423 183.849 51.9419 191.09" stroke="#263238" stroke-linecap="round" stroke-linejoin="round"/>
<path d="M68.2685 158.15C67.7697 159.473 67.2481 160.795 66.7568 162.118" stroke="#263238" stroke-linecap="round" stroke-linejoin="round"/>
<path d="M56.5754 217.432C56.5754 217.432 47.9057 224.559 44.3154 224.99" stroke="#263238" stroke-linecap="round" stroke-linejoin="round"/>
<path d="M41.9872 247.696C40.347 246.797 38.412 245.663 37.5806 243.917" stroke="#263238" stroke-linecap="round" stroke-linejoin="round"/>
<path d="M47.9582 250.319C46.6581 249.865 45.3807 249.344 44.126 248.769" stroke="#263238" stroke-linecap="round" stroke-linejoin="round"/>
<path d="M167.354 150.183C168.293 151.154 169.506 151.816 170.83 152.08" stroke="#263238" stroke-linecap="round" stroke-linejoin="round"/>
<path d="M163.506 144.545C164.097 145.829 164.814 147.051 165.645 148.195" stroke="#263238" stroke-linecap="round" stroke-linejoin="round"/>
<path d="M89.6514 129.284C89.6514 129.284 94.9424 136.91 104.013 135.867C109.016 135.285 108.502 131.43 108.502 131.43C107.792 130.977 107.259 130.294 106.991 129.495C106.454 128.127 106.235 125.898 107.497 122.413C107.497 122.315 107.565 122.209 107.603 122.111C109.024 118.331 91.9038 112.988 91.9038 112.988C91.9038 112.988 93.9673 122.859 89.6514 129.284Z" fill="white" stroke="#263238" stroke-linecap="round" stroke-linejoin="round"/>
<path d="M97.9434 119.783C97.9434 119.783 101.118 127.696 107.014 129.495C106.477 128.127 106.258 125.898 107.52 122.413L97.9434 119.783Z" fill="#263238"/>
<path d="M96.3786 117.923C95.978 121.317 104.625 126.449 109.689 126.434C112.002 126.434 115.207 121.967 116.567 115.384C117.248 112.058 115.215 108.8 116.862 104.167C118.268 100.206 115.517 88.392 103.854 87.4245C87.1874 86.0413 85.2448 103.91 92.6295 115.966" fill="white"/>
<path d="M96.3786 117.923C95.978 121.317 104.625 126.449 109.689 126.434C112.002 126.434 115.207 121.967 116.567 115.384C117.248 112.058 115.214 108.8 116.862 104.167C118.268 100.206 115.517 88.392 103.854 87.4245C87.1874 86.0413 85.2448 103.91 92.6295 115.966" stroke="#263238" stroke-linecap="round" stroke-linejoin="round"/>
<path d="M117.202 103.275C116.749 102.649 116.119 102.171 115.394 101.902C114.669 101.633 113.881 101.585 113.128 101.763" stroke="#263238" stroke-linecap="round" stroke-linejoin="round"/>
<path d="M107.573 101.672C107.573 101.672 104.134 101.325 102.04 103.275" stroke="#263238" stroke-linecap="round" stroke-linejoin="round"/>
<path d="M112.229 104.016C111.927 107.455 115.819 113.214 114.844 114.038C113.869 114.862 111.556 113.736 110.657 113.282" stroke="#263238" stroke-linecap="round" stroke-linejoin="round"/>
<path d="M106.174 107.984C106.546 107.984 106.847 107.564 106.847 107.047C106.847 106.529 106.546 106.109 106.174 106.109C105.803 106.109 105.501 106.529 105.501 107.047C105.501 107.564 105.803 107.984 106.174 107.984Z" fill="#263238"/>
<path d="M114.33 107.984C114.701 107.984 115.003 107.564 115.003 107.047C115.003 106.529 114.701 106.109 114.33 106.109C113.958 106.109 113.657 106.529 113.657 107.047C113.657 107.564 113.958 107.984 114.33 107.984Z" fill="#263238"/>
<path d="M112.153 117.697C112.153 117.697 108.192 118.226 106.174 116.132" stroke="#263238" stroke-linecap="round" stroke-linejoin="round"/>
<path d="M106.817 116.691C106.92 117.279 107.195 117.823 107.606 118.254C108.018 118.686 108.548 118.986 109.13 119.118C111.224 119.639 111.148 117.757 111.148 117.757" stroke="#263238" stroke-linecap="round" stroke-linejoin="round"/>
<path d="M100.936 95.0511C100.936 95.0511 119.477 100.13 121.42 92.2847C121.42 92.2847 118.049 92.6853 114.33 88.6188C109.795 83.6301 102.433 82.3376 96.2274 84.5825C90.0218 86.8274 90.3997 90.0776 90.3997 90.0776C90.3997 90.0776 86.7338 90.5613 85.1087 94.9755C83.4836 99.3897 86.0611 114.983 92.2818 118.294L94.0051 116.132C94.0051 116.132 93.3173 111.68 96.2727 108.354L97.9205 108.777C97.9205 108.777 96.1291 104.923 97.9961 102.821C99.9509 100.713 101.006 97.9253 100.936 95.0511Z" fill="#263238"/>
<path d="M96.2351 107.984C96.2351 107.984 94.3681 102.602 91.9796 104.016C89.5911 105.429 92.1988 115.754 96.2351 113.441" fill="white"/>
<path d="M96.2351 107.984C96.2351 107.984 94.3681 102.602 91.9796 104.016C89.5911 105.429 92.1988 115.754 96.2351 113.441" stroke="#263238" stroke-linecap="round" stroke-linejoin="round"/>
<path opacity="0.3" d="M96.2349 90.6822C96.2349 90.6822 107.762 92.6248 111.186 87.9914" stroke="white" stroke-linecap="round" stroke-linejoin="round"/>
<path opacity="0.3" d="M103.703 93.3731C103.703 93.3731 111.715 96.064 117.202 93.3731" stroke="white" stroke-linecap="round" stroke-linejoin="round"/>
<path opacity="0.3" d="M93.6423 94.5673C93.6423 94.5673 93.5289 101.211 87.3989 103.275" stroke="white" stroke-linecap="round" stroke-linejoin="round"/>
</svg>
