<svg width="329" height="302" viewBox="0 0 329 302" fill="none" xmlns="http://www.w3.org/2000/svg">
<path d="M4.58705 156.87C4.58705 156.87 6.4196 212.576 52.8913 249.708C99.363 286.84 163.835 289.5 216.009 293.024C268.184 296.547 308.245 267.021 314.28 222.382C320.316 177.743 280.46 164.632 258.83 113.816C237.2 63.0002 239.125 46.295 193.361 15.0356C147.596 -16.2238 76.0139 3.00729 38.4786 56.5191C0.943181 110.031 4.58705 156.87 4.58705 156.87Z" fill="#1EE3CF"/>
<path opacity="0.7" d="M4.58705 156.87C4.58705 156.87 6.4196 212.576 52.8913 249.708C99.363 286.84 163.835 289.5 216.009 293.024C268.184 296.547 308.245 267.021 314.28 222.382C320.316 177.743 280.46 164.632 258.83 113.816C237.2 63.0002 239.125 46.295 193.361 15.0356C147.596 -16.2238 76.0139 3.00729 38.4786 56.5191C0.943181 110.031 4.58705 156.87 4.58705 156.87Z" fill="white"/>
<path d="M311.372 54.7714C311.825 52.1889 312.483 45.7714 308.542 42.6299C303.589 38.6323 300.052 45.821 295.757 40.2313C291.462 34.6417 290.181 22.4861 277.41 22.663C264.639 22.8398 263.67 30.0144 263.67 32.4129C263.67 34.8115 259.835 36.5663 259.035 36.5663C258.236 36.5663 253.757 34.4861 252.158 39.1276C250.559 43.7691 251.648 46.4436 249.108 46.5356C246.568 46.6276 243.391 43.1818 239.91 44.887C236.429 46.5922 236.45 50.2997 235.014 51.5804C233.578 52.8611 231.179 50.6181 227.981 51.8988C226.042 52.67 225.462 53.9153 225.299 54.7714H311.372Z" fill="white" stroke="#263238" stroke-miterlimit="10"/>
<path d="M61.3608 49.4224C61.6863 47.6111 62.1462 43.1111 59.408 40.9318C55.934 38.1016 53.4646 43.1747 50.4434 39.2549C47.4222 35.3351 46.5165 26.7809 37.5519 26.9082C28.5873 27.0356 27.908 32.0662 27.908 33.7431C27.908 35.42 25.2193 36.6582 24.6604 36.6582C24.1014 36.6582 20.9599 35.1865 19.8632 38.4412C18.7665 41.696 19.5024 43.571 17.7406 43.6417C15.9788 43.7125 13.7005 41.2785 11.2736 42.4743C8.8467 43.67 8.85377 46.2879 7.83491 47.1795C6.81604 48.071 5.14623 46.4719 2.88208 47.4059C2.41799 47.5454 1.99923 47.8055 1.66858 48.1598C1.33792 48.5141 1.10721 48.9498 1 49.4224H61.3608Z" fill="white" stroke="#263238" stroke-miterlimit="10"/>
<path d="M236.125 140.696C236.45 138.885 236.91 134.385 234.172 132.205C230.698 129.375 228.229 134.448 225.207 130.529C222.186 126.609 221.28 118.054 212.316 118.182C203.351 118.309 202.672 123.34 202.672 125.017C202.672 126.694 199.983 127.932 199.424 127.932C198.865 127.932 195.724 126.474 194.599 129.729C193.474 132.984 194.238 134.859 192.476 134.929C190.714 135 188.479 132.566 186.052 133.783C183.625 135 183.632 137.576 182.62 138.467C181.608 139.359 179.931 137.76 177.667 138.694C177.203 138.833 176.784 139.093 176.454 139.448C176.123 139.802 175.892 140.238 175.785 140.71L236.125 140.696Z" fill="white" stroke="#263238" stroke-miterlimit="10"/>
<path d="M279.151 28.5922C279.292 27.7714 279.504 25.762 278.266 24.7431C276.696 23.4766 275.585 25.7549 274.219 23.9861C272.854 22.2172 272.457 18.3681 268.396 18.4177C264.335 18.4672 264.045 20.7455 264.045 21.5026C264.045 22.2597 262.828 22.8186 262.58 22.8186C262.332 22.8186 260.91 22.1606 260.401 23.6323C259.891 25.104 260.238 25.946 259.431 25.9814C258.625 26.0167 257.634 24.913 256.538 25.4648C255.441 26.0167 255.441 27.1771 254.988 27.5875C254.535 27.9979 253.771 27.2832 252.759 27.6865C252.549 27.7487 252.359 27.8662 252.21 28.0267C252.06 28.1873 251.957 28.385 251.91 28.5993L279.151 28.5922Z" fill="white" stroke="#263238" stroke-miterlimit="10"/>
<path d="M76.6792 142.274V139.047" stroke="#263238" stroke-miterlimit="10"/>
<g opacity="0.3">
<path d="M261.003 63.0851C262.495 63.0851 263.705 61.875 263.705 60.3823C263.705 58.8896 262.495 57.6795 261.003 57.6795C259.51 57.6795 258.3 58.8896 258.3 60.3823C258.3 61.875 259.51 63.0851 261.003 63.0851Z" stroke="black" stroke-linecap="round" stroke-linejoin="round"/>
<path d="M23.8327 109.033C25.3254 109.033 26.5355 107.823 26.5355 106.33C26.5355 104.838 25.3254 103.628 23.8327 103.628C22.34 103.628 21.1299 104.838 21.1299 106.33C21.1299 107.823 22.34 109.033 23.8327 109.033Z" stroke="black" stroke-linecap="round" stroke-linejoin="round"/>
<path d="M227.217 248.894C228.71 248.894 229.92 247.684 229.92 246.191C229.92 244.699 228.71 243.488 227.217 243.488C225.724 243.488 224.514 244.699 224.514 246.191C224.514 247.684 225.724 248.894 227.217 248.894Z" stroke="black" stroke-linecap="round" stroke-linejoin="round"/>
<path d="M28.5661 226.599C30.0588 226.599 31.2689 225.389 31.2689 223.896C31.2689 222.404 30.0588 221.194 28.5661 221.194C27.0734 221.194 25.8633 222.404 25.8633 223.896C25.8633 225.389 27.0734 226.599 28.5661 226.599Z" stroke="black" stroke-linecap="round" stroke-linejoin="round"/>
<path d="M211.842 107.512L206.104 113.25" stroke="black" stroke-linecap="round" stroke-linejoin="round"/>
<path d="M211.842 113.25L206.104 107.512" stroke="black" stroke-linecap="round" stroke-linejoin="round"/>
<path d="M191.238 272.385L196.977 278.116" stroke="black" stroke-linecap="round" stroke-linejoin="round"/>
<path d="M196.977 272.385L191.238 278.116" stroke="black" stroke-linecap="round" stroke-linejoin="round"/>
<path d="M10.835 143.328L16.5661 149.059" stroke="black" stroke-linecap="round" stroke-linejoin="round"/>
<path d="M16.5661 143.328L10.835 149.059" stroke="black" stroke-linecap="round" stroke-linejoin="round"/>
<path d="M222.321 9.53795L228.059 15.2762" stroke="black" stroke-linecap="round" stroke-linejoin="round"/>
<path d="M228.059 9.53795L222.321 15.2762" stroke="black" stroke-linecap="round" stroke-linejoin="round"/>
<path d="M264.54 231.481C266.033 231.481 267.243 230.271 267.243 228.779C267.243 227.286 266.033 226.076 264.54 226.076C263.048 226.076 261.837 227.286 261.837 228.779C261.837 230.271 263.048 231.481 264.54 231.481Z" stroke="black" stroke-linecap="round" stroke-linejoin="round"/>
<path d="M299.344 151.309C300.837 151.309 302.047 150.099 302.047 148.606C302.047 147.114 300.837 145.904 299.344 145.904C297.852 145.904 296.642 147.114 296.642 148.606C296.642 150.099 297.852 151.309 299.344 151.309Z" stroke="black" stroke-linecap="round" stroke-linejoin="round"/>
<path d="M225.858 177.934L231.597 183.672" stroke="black" stroke-linecap="round" stroke-linejoin="round"/>
<path d="M231.597 177.934L225.858 183.672" stroke="black" stroke-linecap="round" stroke-linejoin="round"/>
<path d="M287.953 132.262L293.684 137.993" stroke="black" stroke-linecap="round" stroke-linejoin="round"/>
<path d="M293.684 132.262L287.953 137.993" stroke="black" stroke-linecap="round" stroke-linejoin="round"/>
<path d="M83.1323 14.2714L88.8635 20.0026" stroke="black" stroke-linecap="round" stroke-linejoin="round"/>
<path d="M88.8635 14.2714L83.1323 20.0026" stroke="black" stroke-linecap="round" stroke-linejoin="round"/>
</g>
<path d="M185.925 25.4861H43.1206V290.031H185.925V25.4861Z" fill="#DAD2FF"/>
<path opacity="0.3" d="M142.503 25.4861L43.1206 198.856V260.887L178.057 25.4861H142.503Z" fill="white"/>
<path opacity="0.3" d="M185.925 133.84L183.562 132.135L97.6655 283.868L100.008 290.031H185.925V133.84Z" fill="white"/>
<path d="M190.212 77.5332C190.679 77.5314 191.126 77.3452 191.456 77.0152C191.786 76.6852 191.972 76.2381 191.974 75.7714V58.1323C191.974 57.6644 191.789 57.2155 191.459 56.884C191.128 56.5525 190.68 56.3653 190.212 56.3634C190.101 56.3643 189.989 56.3762 189.88 56.3988V23.4059C189.874 20.3921 188.673 17.5037 186.54 15.3746C184.407 13.2455 181.516 12.0497 178.503 12.0497H53.1606C50.1492 12.0535 47.2622 13.2509 45.1322 15.3796C43.0022 17.5083 41.803 20.3945 41.7974 23.4059V289.649C41.7974 292.665 42.9951 295.558 45.1272 297.691C47.2593 299.825 50.1514 301.024 53.1676 301.026H178.503C181.52 301.026 184.414 299.827 186.548 297.694C188.681 295.56 189.88 292.666 189.88 289.649V127.677C189.991 127.688 190.102 127.688 190.212 127.677C190.68 127.677 191.128 127.491 191.458 127.161C191.789 126.831 191.974 126.383 191.974 125.915V108.276C191.974 107.809 191.789 107.361 191.458 107.03C191.128 106.7 190.68 106.514 190.212 106.514C190.102 106.507 189.991 106.507 189.88 106.514V102.616C189.991 102.627 190.102 102.627 190.212 102.616C190.68 102.614 191.128 102.427 191.459 102.095C191.789 101.764 191.974 101.315 191.974 100.847V83.2148C191.972 82.7482 191.786 82.3011 191.456 81.9711C191.126 81.6411 190.679 81.4549 190.212 81.453C190.102 81.4423 189.991 81.4423 189.88 81.453V77.4979C189.989 77.5205 190.101 77.5323 190.212 77.5332ZM183.307 283.868H48.3776V31.6559H183.307V283.868Z" fill="#263238"/>
<path d="M137.075 211.387V203.604L128.931 202.677C128.69 201.105 128.311 199.556 127.799 198.05L134.578 193.097L130.615 186.326L123.087 189.545C122.076 188.306 120.964 187.154 119.762 186.099L123.122 178.451L116.252 174.545L111.363 181.033C109.862 180.451 108.314 179.999 106.736 179.682L105.766 171.411H97.8418L96.9007 179.441C95.3083 179.681 93.739 180.055 92.2097 180.559L87.1719 173.873L80.3017 177.779L83.5634 185.208C82.3087 186.197 81.1416 187.293 80.0752 188.484L72.2922 185.172L68.33 191.937L74.9101 196.762C74.3212 198.238 73.8643 199.762 73.5446 201.319L65.146 202.231V210.014L73.2899 210.941C73.5339 212.514 73.9151 214.062 74.429 215.569L67.6436 220.521L71.6059 227.286L79.1342 224.073C80.1454 225.312 81.2577 226.465 82.4597 227.519L79.0988 235.168L85.9691 239.073L90.8583 232.585C92.3602 233.164 93.9081 233.616 95.4856 233.937L96.455 242.201H104.379L105.349 234.22C106.941 233.98 108.511 233.606 110.04 233.102L115.078 239.788L121.948 235.875L118.686 228.453C119.941 227.463 121.108 226.367 122.174 225.177L129.957 228.488L133.92 221.717L127.339 216.899C127.929 215.421 128.386 213.894 128.705 212.335L137.075 211.387ZM101.125 225.403C97.4588 225.352 93.8898 224.218 90.8666 222.143C87.8434 220.069 85.5009 217.147 84.1336 213.745C82.7663 210.343 82.4352 206.613 83.182 203.024C83.9288 199.434 85.72 196.146 88.3306 193.571C90.9412 190.997 94.2546 189.252 97.8542 188.555C101.454 187.859 105.179 188.242 108.561 189.657C111.944 191.071 114.833 193.455 116.864 196.506C118.896 199.558 119.981 203.143 119.981 206.809C119.964 209.268 119.463 211.7 118.507 213.966C117.55 216.231 116.156 218.286 114.405 220.013C112.654 221.739 110.58 223.104 108.301 224.029C106.023 224.954 103.584 225.421 101.125 225.403Z" stroke="#263238" stroke-miterlimit="10"/>
<path d="M172.184 172.345V167.293L166.927 166.691C166.775 165.678 166.539 164.679 166.219 163.705L170.606 160.5L168.038 156.12L163.177 158.201C162.533 157.399 161.823 156.654 161.054 155.972L163.226 151.019L158.79 148.493L155.627 152.689C154.659 152.31 153.66 152.017 152.641 151.812L152.012 146.47H146.889L146.281 151.656C145.253 151.807 144.24 152.044 143.252 152.363L139.99 148.047L135.554 150.573L137.677 155.37C136.864 156.011 136.109 156.721 135.42 157.493L130.403 155.37L127.842 159.75L132.087 162.863C131.705 163.819 131.409 164.806 131.203 165.814L125.776 166.429V171.481L131.04 172.083C131.188 173.097 131.425 174.096 131.748 175.069L127.361 178.274L129.922 182.654L134.79 180.573C135.434 181.375 136.144 182.12 136.913 182.802L134.741 187.755L139.177 190.281L142.34 186.106C143.307 186.487 144.306 186.78 145.325 186.984L145.955 192.326H151.078L151.686 187.139C152.714 186.988 153.727 186.751 154.715 186.432L157.969 190.748L162.413 188.222L160.29 183.425C161.103 182.785 161.858 182.074 162.547 181.302L167.557 183.425L170.125 179.045L165.88 175.932C166.261 174.977 166.557 173.989 166.764 172.981L172.184 172.345ZM148.955 181.401C146.583 181.37 144.273 180.639 142.315 179.299C140.358 177.959 138.841 176.069 137.954 173.869C137.067 171.669 136.851 169.255 137.333 166.932C137.814 164.609 138.972 162.481 140.66 160.814C142.349 159.147 144.492 158.017 146.821 157.566C149.15 157.114 151.56 157.361 153.749 158.276C155.938 159.191 157.807 160.732 159.122 162.707C160.437 164.681 161.139 167.001 161.139 169.373C161.129 170.963 160.806 172.535 160.188 174C159.57 175.465 158.67 176.794 157.538 177.91C156.407 179.027 155.067 179.911 153.594 180.509C152.121 181.108 150.545 181.411 148.955 181.401Z" stroke="#263238" stroke-miterlimit="10"/>
<path opacity="0.3" d="M253.488 100.451L255.342 95.3068L251.061 92.9719L247.736 97.3162C246.781 97.0909 245.802 96.984 244.821 96.9978L242.493 92.045L237.823 93.4177L238.531 98.8375C237.7 99.3574 236.935 99.975 236.252 100.677L231.108 98.8304L228.774 103.111L233.118 106.429C232.893 107.385 232.786 108.363 232.8 109.345L227.847 111.679L229.226 116.349L234.639 115.642C235.162 116.472 235.782 117.237 236.486 117.92L234.639 123.064L238.884 125.399L242.21 121.054C243.165 121.279 244.144 121.386 245.125 121.373L247.453 126.326L252.13 124.953L251.422 119.533C252.255 119.017 253.02 118.399 253.7 117.694L258.851 119.54L261.179 115.295L256.842 111.97C257.061 111.014 257.165 110.035 257.153 109.054L262.106 106.727L260.733 102.05L255.314 102.757C255.186 102.552 255.052 102.354 254.917 102.156M239.203 114.276C237.97 112.87 237.292 111.062 237.296 109.192C237.3 107.321 237.985 105.516 239.223 104.115C240.462 102.713 242.168 101.811 244.024 101.577C245.88 101.342 247.757 101.793 249.305 102.843C250.853 103.893 251.965 105.471 252.433 107.281C252.901 109.092 252.694 111.011 251.849 112.68C251.005 114.349 249.581 115.653 247.844 116.348C246.108 117.043 244.178 117.081 242.415 116.455" stroke="black" stroke-linecap="round" stroke-linejoin="round"/>
<path opacity="0.3" d="M245.259 83.5898C244.116 83.939 242.887 83.8801 241.782 83.4232C240.677 82.9662 239.765 82.1396 239.202 81.0847C238.639 80.0297 238.46 78.812 238.696 77.6398C238.932 76.4676 239.568 75.4137 240.494 74.6584C241.421 73.903 242.582 73.4931 243.777 73.4987C244.973 73.5044 246.13 73.9253 247.049 74.6894C247.969 75.4534 248.595 76.5133 248.819 77.6877C249.044 78.8621 248.853 80.078 248.281 81.1276C248.139 81.3961 247.971 81.6497 247.778 81.8846M236.833 87.9483L239.698 89.512L241.92 86.604C242.559 86.7584 243.215 86.8297 243.873 86.8162L245.436 90.1276L248.564 89.2078L248.083 85.578C248.639 85.2323 249.15 84.8188 249.604 84.3469L253.05 85.5851L254.613 82.7196L251.705 80.4979C251.859 79.863 251.937 79.2123 251.939 78.5592L255.243 77.0026L254.323 73.8752L250.7 74.3563C250.352 73.7978 249.936 73.2844 249.462 72.828L250.7 69.3823L247.87 67.8257L245.641 70.7266C245.004 70.578 244.35 70.5091 243.696 70.5214L242.132 67.2101L239.005 68.1299L239.486 71.7526C238.931 72.103 238.42 72.5187 237.965 72.9908L234.519 71.7526L232.955 74.5828L235.863 76.8045C235.715 77.4447 235.644 78.1002 235.651 78.7573L232.347 80.3139L233.266 83.4412L236.889 82.9601C237.239 83.5156 237.652 84.0285 238.12 84.4884L236.833 87.9483Z" stroke="black" stroke-linecap="round" stroke-linejoin="round"/>
<path d="M58.9766 12.0497V251.618C58.9746 252.195 59.1608 252.757 59.5068 253.218C59.8528 253.68 60.3399 254.016 60.8941 254.176C61.4484 254.336 62.0397 254.311 62.5785 254.105C63.1173 253.899 63.5741 253.522 63.8799 253.033C64.1433 252.608 64.2829 252.118 64.2832 251.618V12.0497" stroke="#263238" stroke-miterlimit="10"/>
<path d="M77.981 81.3894C78.0782 81.7854 78.2619 82.1551 78.5187 82.4719C78.9574 83.0167 79.7145 82.6913 79.7145 83.3422C79.7145 83.9931 78.6319 84.8564 78.6319 84.8564C78.6319 84.8564 78.3065 88.3233 77.6555 89.4059C77.0046 90.4884 73.7569 89.5191 73.7569 89.5191L72.8866 92.2219L63.4621 91.4648L63.9999 87.9271L63.0234 82.4648C63.0234 82.4648 63.455 80.2998 65.1885 79.5427C66.922 78.7856 73.856 79.3233 75.1579 79.5427C76.4598 79.762 77.981 81.3894 77.981 81.3894Z" fill="white" stroke="#263238" stroke-miterlimit="10"/>
<path d="M63.0234 82.4648C63.0234 82.4648 63.455 86.8021 63.9928 87.8846C64.5305 88.9672 66.3772 89.3988 69.0871 88.9672C71.797 88.5356 72.9857 87.6653 73.3324 86.5828C73.6791 85.5002 74.3088 83.5474 74.7475 83.4412C75.1862 83.3351 75.2923 83.3351 75.5116 83.9861C75.731 84.637 74.9668 85.2809 75.7239 84.637C76.481 83.9931 76.7003 81.17 76.7003 81.17C76.7003 81.17 70.0989 82.0332 67.2687 82.0332C65.8926 82.0615 64.5162 81.9882 63.1508 81.8139L63.0234 82.4648Z" fill="#263238" stroke="#263238" stroke-miterlimit="10"/>
<path d="M62.592 82.3587C62.592 82.3587 62.3798 87.2337 65.1958 88.9672C68.0118 90.7007 71.4788 88.8611 72.7807 87.6653C74.0826 86.4696 74.7265 82.7903 74.7265 82.7903L73.4316 82.9035C73.4316 82.9035 73.8632 85.6063 70.6015 86.5828C67.3397 87.5592 66.3562 87.3398 65.4081 86.5828C64.4599 85.8257 63.0236 82.4648 63.0236 82.4648L62.592 82.3587Z" fill="white" stroke="#263238" stroke-miterlimit="10"/>
<path d="M62.705 77.5899C62.705 77.5899 62.8111 81.2762 62.4856 81.8351L62.1602 82.3799C62.1602 82.3799 63.9998 84.3328 70.396 83.8941C74.1406 83.6738 77.7627 82.4786 80.9031 80.4271L78.8441 78.4814C78.8441 78.4814 78.9573 74.3634 76.0139 71.979C73.0705 69.5946 66.2639 71.1158 64.5304 73.2809C62.7969 75.446 62.5918 76.8328 62.705 77.5899Z" fill="white" stroke="#263238" stroke-miterlimit="10"/>
<path d="M52.8421 117.679L52.6299 122.01L73.7572 122.441L73.3186 118.33C73.3186 118.33 71.5851 117.46 66.2431 116.703C62.4311 116.263 58.5856 116.19 54.7596 116.484C54.1408 116.498 53.5249 116.572 52.92 116.703L52.8421 117.679Z" fill="#1EE0CC" stroke="#263238" stroke-miterlimit="10"/>
<path d="M108.972 73.2314H105.738H105.427H102.187L104.833 74.9931V86.5969H106.212V75.0144L106.326 74.9931L108.972 73.2314Z" fill="white" stroke="#263238" stroke-miterlimit="10"/>
<path d="M115.842 72.4601H95.019V73.6134H115.842V72.4601Z" fill="white" stroke="#263238" stroke-miterlimit="10"/>
<path d="M55.092 92.9436C55.092 92.9436 52.2193 94.4578 52.2193 97.0262C52.2193 99.5946 46.75 108.821 46.75 113.809C46.75 118.797 49.9198 118.054 52.0354 116.979C53.5479 116.174 54.9709 115.211 56.2807 114.106L57.5118 94.1252C57.5118 94.1252 57.2075 92.795 55.092 92.9436Z" fill="white" stroke="#263238" stroke-miterlimit="10"/>
<path d="M55.092 92.9436C55.092 92.9436 52.2193 94.4578 52.2193 97.0262C52.2193 98.1158 51.2358 100.408 50.0967 103.069L56.7052 107.314L57.5118 94.1252C57.5118 94.1252 57.2075 92.795 55.092 92.9436Z" fill="white" stroke="#263238" stroke-miterlimit="10"/>
<path d="M73.9693 92.7596C73.5959 92.0083 72.9871 91.3996 72.2358 91.0261C71.0472 90.4813 65.7335 89.512 63.8939 89.512C63.3061 89.556 62.7364 89.7353 62.2295 90.036C61.7225 90.3368 61.292 90.7507 60.9717 91.2455L73.9693 92.7596Z" fill="white" stroke="#263238" stroke-miterlimit="10"/>
<path d="M62.1603 90.92C60.0633 91.3032 57.9985 91.8449 55.9834 92.5403C52.9551 93.6228 53.0612 96.7856 52.9551 99.6158C52.849 102.446 52.6296 113.264 52.5164 114.779C52.4032 116.293 52.4103 117.488 52.8419 117.708C53.2735 117.927 60.5329 116.951 64.8702 117.488C69.2075 118.026 72.2358 119.328 73.3183 118.684C74.4009 118.04 74.6202 116.406 74.6202 115.217C74.6202 114.029 79.1697 104.703 79.1697 104.703C79.1697 104.703 95.8537 107.845 96.1509 107.738C96.448 107.632 105.717 90.5875 105.717 90.5875C105.717 90.5875 108.094 88.9601 108.42 88.4153C108.745 87.8705 108.314 84.9554 108.314 84.6299C108.314 84.3045 108.42 83.2148 108.42 82.4578C108.42 81.7007 107.125 81.0427 106.906 81.3752C106.719 81.6206 106.5 81.8396 106.255 82.0262L105.172 83.5403C105.099 82.7612 104.916 81.9965 104.627 81.2691C104.309 80.8375 103.007 81.2691 103.545 82.1323C103.759 82.433 103.874 82.7928 103.874 83.1618C103.874 83.5308 103.759 83.8906 103.545 84.1913C103.081 85.1717 102.858 86.2487 102.894 87.3328C102.839 88.5415 102.659 89.7413 102.356 90.913C102.356 90.913 94.3396 98.0663 93.448 98.9365C93.0242 99.3445 92.6272 99.7793 92.2594 100.238C92.2594 100.238 84.2428 95.795 82.29 94.9247C80.3372 94.0545 73.948 92.7597 73.948 92.7597C73.948 92.7597 65.8537 90.92 62.1603 90.92Z" fill="white" stroke="#263238" stroke-miterlimit="10"/>
<path d="M82.3112 94.9247C80.3655 94.0615 73.9693 92.7596 73.9693 92.7596C73.9693 92.7596 65.8466 90.92 62.1603 90.92C60.0633 91.3032 57.9985 91.8449 55.9834 92.5403C52.9551 93.6228 53.0612 96.7856 52.9551 99.6158C52.849 102.446 52.6296 113.264 52.5164 114.779C52.4032 116.293 52.4103 117.488 52.8419 117.708C53.2735 117.927 60.5329 116.951 64.8702 117.488C69.2075 118.026 72.2358 119.328 73.3183 118.684C74.4009 118.04 74.6202 116.406 74.6202 115.217C74.6202 114.028 79.1697 104.703 79.1697 104.703L84.7028 105.736L87.6037 97.7054C85.474 96.5238 83.224 95.3351 82.3112 94.9247Z" fill="white" stroke="#263238" stroke-miterlimit="10"/>
<path d="M70.0991 118.458C68.0667 114.671 66.2869 110.755 64.7712 106.734C62.8703 101.728 61.4257 96.5608 60.4552 91.295C59.7477 91.4507 58.9198 91.6629 58.0142 91.9247L58.1557 92.0309L58.2618 92.4342C58.9693 95.1936 63.4127 111.368 66.5755 117.75C67.9198 117.955 69.0943 118.238 70.0991 118.458Z" fill="#1EE0CC" stroke="#263238" stroke-miterlimit="10"/>
<path d="M54.2783 117.658L57.2783 117.453L74.8821 92.9507L73.9694 92.7597L72.0236 92.5403L54.2783 117.658Z" fill="#1EE0CC" stroke="#263238" stroke-miterlimit="10"/>
<path d="M85.2407 136.529C85.2407 136.529 51.6534 137.073 50.7832 136.529C49.9129 135.984 48.1865 134.363 49.0497 130.161C49.7577 127.262 50.9695 124.51 52.6299 122.031L73.7572 122.462L75.1723 126.149C75.1723 126.149 84.2714 127.988 87.519 130.394C90.7666 132.8 86.4365 136.896 86.4365 136.896" fill="#263238"/>
<path d="M85.2407 136.529C85.2407 136.529 51.6534 137.073 50.7832 136.529C49.9129 135.984 48.1865 134.363 49.0497 130.161C49.7577 127.262 50.9695 124.51 52.6299 122.031L73.7572 122.462L75.1723 126.149C75.1723 126.149 84.2714 127.988 87.519 130.394C90.7666 132.8 86.4365 136.896 86.4365 136.896" stroke="#263238" stroke-miterlimit="10"/>
<path d="M75.165 126.128C75.165 126.128 75.8089 128.958 76.0282 129.92L75.165 126.128Z" fill="white"/>
<path d="M75.165 126.128C75.165 126.128 75.8089 128.958 76.0282 129.92" stroke="#263238" stroke-miterlimit="10"/>
<path d="M50.896 137.717L53.6059 164.045L59.9738 164.477C59.9738 164.477 60.7309 144.007 60.7309 143.569C60.7309 143.13 61.3818 137.83 61.3818 137.83L50.896 137.717Z" fill="#263238" stroke="#263238" stroke-miterlimit="10"/>
<path d="M53.6063 164.045C53.6063 164.045 52.9553 169.359 53.4931 169.896C54.0308 170.434 58.7997 170.547 59.4506 169.896C60.1016 169.245 59.8893 164.045 59.8893 164.045H53.6063Z" fill="white" stroke="#263238" stroke-miterlimit="10"/>
<path d="M59.8606 168.036L53.2875 167.958C53.1943 168.611 53.2648 169.277 53.4927 169.896C54.0375 170.441 58.7993 170.547 59.4503 169.896C59.7423 169.321 59.8835 168.681 59.8606 168.036Z" fill="white" stroke="#263238" stroke-miterlimit="10"/>
<path d="M76.1343 137.937L73.106 164.59H79.1696C79.5719 163.568 79.8983 162.518 80.146 161.448C80.0314 160.711 79.849 159.987 79.6012 159.283L85.4527 138.368L76.1343 137.937Z" fill="#263238" stroke="#263238" stroke-miterlimit="10"/>
<path d="M79.1698 164.59C79.1698 164.59 81.2287 166.536 82.5306 166.974C83.8325 167.413 85.566 168.163 85.566 168.814C85.566 169.465 82.3113 169.79 79.9056 169.79C77.4314 169.63 74.9706 169.304 72.54 168.814L73.0849 164.569L79.1698 164.59Z" fill="white" stroke="#263238" stroke-miterlimit="10"/>
<path d="M85.5662 168.814C85.5496 168.65 85.4712 168.498 85.3469 168.389C83.9845 168.602 82.6078 168.708 81.229 168.708C78.3988 168.708 74.203 167.696 72.7384 167.293L72.5474 168.786C74.978 169.275 77.4387 169.602 79.9129 169.762C82.3115 169.79 85.5662 169.465 85.5662 168.814Z" fill="white" stroke="#263238" stroke-miterlimit="10"/>
<path d="M86.8609 153.757C86.8609 153.757 89.7902 146.385 90.9789 142.38C92.1675 138.375 93.0378 140.102 93.0378 141.623C93.0378 143.144 88.269 153.863 88.085 154.727C87.901 155.59 86.1039 155.491 86.8609 153.757Z" fill="white" stroke="#263238" stroke-miterlimit="10"/>
<path d="M89.7617 167.406H78.0023L75.4834 150.828H92.2806L89.7617 167.406Z" fill="white" stroke="#263238" stroke-miterlimit="10"/>
<path d="M76.4668 150.729C76.4668 150.729 77.4008 142.168 84.0517 142.281C90.7026 142.394 91.3253 150.729 91.3253 150.729" stroke="#263238" stroke-miterlimit="10"/>
<path d="M88.8137 136.309H42.9858V138.8H88.8137V136.309Z" fill="white" stroke="#263238" stroke-miterlimit="10"/>
<path d="M88.8134 136.309H78.6318V138.8H88.8134V136.309Z" fill="white" stroke="#263238" stroke-miterlimit="10"/>
<path d="M94.5801 53.6464V50.5474" stroke="#263238" stroke-miterlimit="10"/>
<path d="M94.5801 70.9389V55.8257" stroke="#263238" stroke-miterlimit="10"/>
<path d="M116.068 71.1229V60.3823" stroke="#263238" stroke-miterlimit="10"/>
<path d="M138.101 301.026H132.611L139.934 250.005H145.425L138.101 301.026Z" fill="#263238" stroke="#263238" stroke-miterlimit="10"/>
<path d="M149.083 301.026H154.573L147.25 250.005H141.76L149.083 301.026Z" fill="white" stroke="#263238" stroke-miterlimit="10"/>
<path d="M215.995 301.026H210.505L217.828 250.005H223.319L215.995 301.026Z" fill="#263238" stroke="#263238" stroke-miterlimit="10"/>
<path d="M226.977 301.026H232.467L225.144 250.005H219.661L226.977 301.026Z" fill="white" stroke="#263238" stroke-miterlimit="10"/>
<path d="M230.811 242.003H126.116V252.156H230.811V242.003Z" fill="#1EE0CC" stroke="#263238" stroke-miterlimit="10"/>
<path d="M233.366 242.003H128.67V252.156H233.366V242.003Z" fill="#1EE0CC" stroke="#263238" stroke-miterlimit="10"/>
<path d="M130.382 252.156H139.269L143.861 242.003H134.974L130.382 252.156Z" fill="#263238"/>
<path d="M165.554 242.003H156.668L152.076 252.156H160.962L165.554 242.003Z" fill="#263238"/>
<path d="M230.642 242.003H221.755L217.163 252.156H226.05L230.642 242.003Z" fill="#263238"/>
<path d="M208.948 242.003H200.062L195.47 252.156H204.357L208.948 242.003Z" fill="#263238"/>
<path d="M187.248 242.003H178.361L173.769 252.156H182.656L187.248 242.003Z" fill="#263238"/>
<path d="M232.793 246.503H215.465" stroke="#263238" stroke-miterlimit="10"/>
<path d="M232.488 248.201H229.75" stroke="#263238" stroke-miterlimit="10"/>
<path d="M128.224 247.776H145.552" stroke="#263238" stroke-miterlimit="10"/>
<path d="M128.528 245.866H150.413" stroke="#263238" stroke-miterlimit="10"/>
<path d="M259.05 299.024H232.354V301.026H259.05V299.024Z" fill="#263238" stroke="#263238" stroke-linecap="round" stroke-linejoin="round"/>
<path d="M254.542 298.967H236.861L243.795 261.255H247.616L254.542 298.967Z" fill="#1EE0CC" stroke="#263238" stroke-linecap="round" stroke-linejoin="round"/>
<path d="M241.212 275.271H250.191L249.328 270.602H242.076L241.212 275.271Z" fill="white" stroke="#263238" stroke-linecap="round" stroke-linejoin="round"/>
<path d="M251.889 292.67L252.328 295.253" stroke="#263238" stroke-linecap="round" stroke-linejoin="round"/>
<path d="M246.837 263.342L251.33 289.429" stroke="#263238" stroke-linecap="round" stroke-linejoin="round"/>
<path d="M296.62 198.241L304.722 275.922" stroke="#263238" stroke-width="2" stroke-miterlimit="10"/>
<path d="M303.419 261.057L299.74 257.172" stroke="#263238" stroke-width="2" stroke-miterlimit="10"/>
<path d="M300.858 258.34C300.851 257.745 300.717 257.159 300.464 256.621C300.212 256.083 299.847 255.605 299.394 255.22C298.453 254.378 293.486 252.29 293.026 254.038C292.502 255.941 297.589 259.691 300.858 258.34Z" fill="#1EE0CC" stroke="#263238" stroke-miterlimit="10"/>
<path d="M300.858 258.34L296.132 255.396" stroke="#263238" stroke-width="0.5" stroke-miterlimit="10"/>
<path d="M304.34 269.894L300.667 266.01" stroke="#263238" stroke-width="2" stroke-miterlimit="10"/>
<path d="M301.778 267.17C301.771 266.577 301.637 265.993 301.386 265.456C301.134 264.919 300.771 264.442 300.32 264.057C299.372 263.215 294.412 261.128 293.953 262.875C293.429 264.771 298.509 268.507 301.778 267.17Z" fill="#1EE0CC" stroke="#263238" stroke-miterlimit="10"/>
<path d="M301.778 267.17L297.052 264.227" stroke="#263238" stroke-width="0.5" stroke-miterlimit="10"/>
<path d="M301.169 239.498L297.49 235.62" stroke="#263238" stroke-width="2" stroke-miterlimit="10"/>
<path d="M298.637 236.781C298.63 236.186 298.495 235.6 298.243 235.062C297.99 234.524 297.625 234.046 297.172 233.661C296.231 232.819 291.264 230.731 290.804 232.479C290.252 234.382 295.34 238.118 298.637 236.781Z" fill="#1EE0CC" stroke="#263238" stroke-miterlimit="10"/>
<path d="M298.608 236.781L293.882 233.837" stroke="#263238" stroke-width="0.5" stroke-miterlimit="10"/>
<path d="M302.09 248.335L298.417 244.451" stroke="#263238" stroke-width="2" stroke-miterlimit="10"/>
<path d="M299.528 245.618C299.521 245.024 299.388 244.439 299.137 243.9C298.885 243.362 298.522 242.884 298.07 242.498C297.122 241.656 292.162 239.569 291.703 241.316C291.179 243.22 296.259 246.955 299.528 245.618Z" fill="#1EE0CC" stroke="#263238" stroke-miterlimit="10"/>
<path d="M299.528 245.618L294.802 242.668" stroke="#263238" stroke-width="0.5" stroke-miterlimit="10"/>
<path d="M299.67 225.149L295.998 221.264" stroke="#263238" stroke-width="2" stroke-miterlimit="10"/>
<path d="M297.108 222.432C297.102 221.838 296.968 221.252 296.717 220.714C296.466 220.176 296.102 219.698 295.651 219.312C294.703 218.47 289.743 216.382 289.283 218.13C288.731 220.069 293.84 223.769 297.108 222.432Z" fill="#1EE0CC" stroke="#263238" stroke-miterlimit="10"/>
<path d="M297.108 222.432L292.382 219.481" stroke="#263238" stroke-width="0.5" stroke-miterlimit="10"/>
<path d="M298.162 210.736L294.49 206.852" stroke="#263238" stroke-width="2" stroke-miterlimit="10"/>
<path d="M295.608 208.04C295.601 207.446 295.467 206.86 295.214 206.321C294.962 205.783 294.597 205.305 294.144 204.92C293.203 204.078 288.236 201.991 287.776 203.738C287.252 205.621 292.332 209.356 295.608 208.04Z" fill="#1EE0CC" stroke="#263238" stroke-miterlimit="10"/>
<path d="M295.608 208.019L290.882 205.069" stroke="#263238" stroke-width="0.5" stroke-miterlimit="10"/>
<path d="M302.797 255.828L305.592 251.271" stroke="#263238" stroke-width="2" stroke-miterlimit="10"/>
<path d="M304.743 252.616C304.626 252.033 304.636 251.432 304.772 250.854C304.907 250.275 305.165 249.732 305.528 249.262C306.278 248.243 310.708 245.172 311.528 246.786C312.42 248.569 308.217 253.274 304.743 252.616Z" fill="#1EE0CC" stroke="#263238" stroke-miterlimit="10"/>
<path d="M304.743 252.644L308.995 248.576" stroke="#263238" stroke-width="0.5" stroke-miterlimit="10"/>
<path d="M300.37 232.585L303.165 228.029" stroke="#263238" stroke-width="2" stroke-miterlimit="10"/>
<path d="M302.316 229.394C302.199 228.811 302.209 228.211 302.345 227.632C302.48 227.054 302.738 226.511 303.101 226.04C303.851 225.021 308.28 221.951 309.101 223.564C309.993 225.326 305.797 230.024 302.316 229.394Z" fill="#1EE0CC" stroke="#263238" stroke-miterlimit="10"/>
<path d="M302.316 229.394L306.568 225.326" stroke="#263238" stroke-width="0.5" stroke-miterlimit="10"/>
<path d="M299.309 222.368L302.103 217.812" stroke="#263238" stroke-width="2" stroke-miterlimit="10"/>
<path d="M301.247 219.177C301.134 218.594 301.145 217.993 301.282 217.415C301.419 216.837 301.677 216.294 302.04 215.823C302.783 214.804 307.212 211.734 308.033 213.354C308.931 215.116 304.728 219.807 301.247 219.177Z" fill="#1EE0CC" stroke="#263238" stroke-miterlimit="10"/>
<path d="M301.248 219.177L305.507 215.109" stroke="#263238" stroke-width="0.5" stroke-miterlimit="10"/>
<path d="M297.745 207.389L300.54 202.833" stroke="#263238" stroke-width="2" stroke-miterlimit="10"/>
<path d="M299.684 204.198C299.57 203.615 299.582 203.014 299.719 202.436C299.855 201.858 300.113 201.315 300.476 200.845C301.226 199.826 305.648 196.762 306.469 198.375C307.368 200.13 303.165 204.835 299.684 204.198Z" fill="#1EE0CC" stroke="#263238" stroke-miterlimit="10"/>
<path d="M299.684 204.198L303.943 200.13" stroke="#263238" stroke-width="0.5" stroke-miterlimit="10"/>
<path d="M296.549 197.809C296.433 197.228 296.443 196.628 296.578 196.05C296.714 195.473 296.972 194.931 297.335 194.462C298.085 193.444 302.514 190.373 303.335 191.986C304.226 193.741 300.052 198.446 296.549 197.809Z" fill="#1EE0CC" stroke="#263238" stroke-miterlimit="10"/>
<path d="M296.549 197.809L300.802 193.741" stroke="#263238" stroke-width="0.5" stroke-miterlimit="10"/>
<path d="M296.797 197.986C296.205 198.04 295.609 197.967 295.047 197.772C294.486 197.577 293.973 197.264 293.542 196.854C292.609 195.998 290.005 191.279 291.71 190.628C293.55 189.92 297.788 194.597 296.797 197.986Z" fill="#1EE0CC" stroke="#263238" stroke-miterlimit="10"/>
<path d="M296.797 197.986L293.196 193.33" stroke="#263238" stroke-width="0.5" stroke-miterlimit="10"/>
<path d="M318.002 208.939L309.936 286.628" stroke="#263238" stroke-width="2" stroke-miterlimit="10"/>
<path d="M311.719 271.812L308.924 267.255" stroke="#263238" stroke-width="2" stroke-miterlimit="10"/>
<path d="M309.773 268.62C309.89 268.039 309.88 267.439 309.744 266.862C309.609 266.284 309.351 265.743 308.988 265.274C308.238 264.255 303.809 261.184 302.988 262.797C302.096 264.552 306.299 269.257 309.773 268.62Z" fill="#1EE0CC" stroke="#263238" stroke-miterlimit="10"/>
<path d="M309.773 268.62L305.754 264.764" stroke="#263238" stroke-width="0.5" stroke-miterlimit="10"/>
<path d="M313.955 250.253L311.16 245.696" stroke="#263238" stroke-width="2" stroke-miterlimit="10"/>
<path d="M312.016 247.062C312.13 246.479 312.119 245.88 311.982 245.302C311.845 244.725 311.587 244.184 311.224 243.715C310.474 242.696 306.044 239.625 305.224 241.238C304.332 242.993 308.542 247.698 312.016 247.062Z" fill="#1EE0CC" stroke="#263238" stroke-miterlimit="10"/>
<path d="M312.016 247.062L307.998 243.205" stroke="#263238" stroke-width="0.5" stroke-miterlimit="10"/>
<path d="M313.042 259.083L310.24 254.533" stroke="#263238" stroke-width="2" stroke-miterlimit="10"/>
<path d="M311.097 255.899C311.213 255.316 311.202 254.714 311.065 254.136C310.929 253.557 310.669 253.014 310.304 252.545C309.554 251.526 305.132 248.462 304.311 250.076C303.413 251.83 307.623 256.536 311.097 255.899Z" fill="#1EE0CC" stroke="#263238" stroke-miterlimit="10"/>
<path d="M311.096 255.899L307.078 252.043" stroke="#263238" stroke-width="0.5" stroke-miterlimit="10"/>
<path d="M315.448 235.896L312.653 231.34" stroke="#263238" stroke-width="2" stroke-miterlimit="10"/>
<path d="M313.495 232.712C313.612 232.13 313.602 231.529 313.467 230.95C313.331 230.372 313.073 229.829 312.71 229.359C311.96 228.34 307.531 225.276 306.71 226.889C305.818 228.644 310.028 233.342 313.495 232.712Z" fill="#1EE0CC" stroke="#263238" stroke-miterlimit="10"/>
<path d="M313.502 232.712L309.483 228.856" stroke="#263238" stroke-width="0.5" stroke-miterlimit="10"/>
<path d="M316.941 221.484L314.146 216.927" stroke="#263238" stroke-width="2" stroke-miterlimit="10"/>
<path d="M314.995 218.3C315.112 217.717 315.102 217.116 314.966 216.538C314.831 215.959 314.573 215.416 314.21 214.946C313.46 213.927 309.03 210.863 308.21 212.477C307.318 214.231 311.521 218.929 314.995 218.3Z" fill="#1EE0CC" stroke="#263238" stroke-miterlimit="10"/>
<path d="M315.002 218.3L310.983 214.444" stroke="#263238" stroke-width="0.5" stroke-miterlimit="10"/>
<path d="M312.193 266.569L315.866 262.684" stroke="#263238" stroke-width="2" stroke-miterlimit="10"/>
<path d="M314.748 263.845C314.755 263.251 314.889 262.666 315.142 262.129C315.394 261.592 315.759 261.115 316.212 260.731C317.153 259.882 322.113 257.795 322.58 259.543C323.104 261.446 318.024 265.182 314.748 263.845Z" fill="#1EE0CC" stroke="#263238" stroke-miterlimit="10"/>
<path d="M314.748 263.845L319.75 260.745" stroke="#263238" stroke-width="0.5" stroke-miterlimit="10"/>
<path d="M314.606 243.319L318.278 239.434" stroke="#263238" stroke-width="2" stroke-miterlimit="10"/>
<path d="M317.16 240.587C317.167 239.994 317.302 239.409 317.554 238.872C317.807 238.335 318.172 237.858 318.625 237.474C319.566 236.632 324.526 234.538 324.993 236.286C325.523 238.196 320.436 241.932 317.16 240.587Z" fill="#1EE0CC" stroke="#263238" stroke-miterlimit="10"/>
<path d="M317.16 240.595L322.163 237.495" stroke="#263238" stroke-width="0.5" stroke-miterlimit="10"/>
<path d="M315.667 233.102L319.34 229.217" stroke="#263238" stroke-width="2" stroke-miterlimit="10"/>
<path d="M318.222 230.378C318.229 229.784 318.363 229.199 318.616 228.662C318.869 228.125 319.234 227.648 319.686 227.264C320.627 226.422 325.587 224.328 326.054 226.076C326.578 227.979 321.498 231.715 318.222 230.378Z" fill="#1EE0CC" stroke="#263238" stroke-miterlimit="10"/>
<path d="M318.222 230.378L323.224 227.279" stroke="#263238" stroke-width="0.5" stroke-miterlimit="10"/>
<path d="M317.217 218.123L320.889 214.238" stroke="#263238" stroke-width="2" stroke-miterlimit="10"/>
<path d="M319.778 215.399C319.785 214.806 319.919 214.222 320.171 213.685C320.422 213.148 320.785 212.671 321.236 212.286C322.177 211.444 327.144 209.349 327.604 211.097C328.127 212.993 323.047 216.736 319.778 215.399Z" fill="#1EE0CC" stroke="#263238" stroke-miterlimit="10"/>
<path d="M319.778 215.399L324.781 212.3" stroke="#263238" stroke-width="0.5" stroke-miterlimit="10"/>
<path d="M318.023 208.507C318.03 207.913 318.163 207.328 318.415 206.79C318.666 206.251 319.03 205.773 319.481 205.387C320.422 204.545 325.389 202.451 325.849 204.198C326.372 206.102 321.278 209.837 318.023 208.507Z" fill="#1EE0CC" stroke="#263238" stroke-miterlimit="10"/>
<path d="M318.023 208.507L323.026 205.401" stroke="#263238" stroke-width="0.5" stroke-miterlimit="10"/>
<path d="M318.228 208.748C317.638 208.68 317.069 208.486 316.56 208.18C316.052 207.874 315.614 207.462 315.278 206.972C314.57 205.946 312.978 200.788 314.769 200.498C316.714 200.165 319.898 205.613 318.228 208.748Z" fill="#1EE0CC" stroke="#263238" stroke-miterlimit="10"/>
<path d="M318.229 208.727L315.667 203.427" stroke="#263238" stroke-width="0.5" stroke-miterlimit="10"/>
<path d="M308.762 177.304V275.547" stroke="#263238" stroke-width="2" stroke-miterlimit="10"/>
<path d="M308.839 260.774L305.584 256.529" stroke="#263238" stroke-width="2" stroke-miterlimit="10"/>
<path d="M306.575 257.802C306.629 257.211 306.556 256.616 306.361 256.056C306.166 255.495 305.853 254.984 305.443 254.554C304.594 253.613 299.875 251.017 299.224 252.715C298.516 254.554 303.186 258.793 306.575 257.802Z" fill="#1EE0CC" stroke="#263238" stroke-miterlimit="10"/>
<path d="M306.576 257.802L302.182 254.385" stroke="#263238" stroke-width="0.5" stroke-miterlimit="10"/>
<path d="M308.839 242.314L305.584 238.069" stroke="#263238" stroke-width="2" stroke-miterlimit="10"/>
<path d="M306.575 239.342C306.629 238.75 306.557 238.154 306.361 237.592C306.166 237.031 305.853 236.518 305.443 236.087C304.594 235.154 299.875 232.55 299.224 234.255C298.516 236.087 303.186 240.333 306.575 239.342Z" fill="#1EE0CC" stroke="#263238" stroke-miterlimit="10"/>
<path d="M306.576 239.342L302.182 235.925" stroke="#263238" stroke-width="0.5" stroke-miterlimit="10"/>
<path d="M308.839 220.635L305.584 216.396" stroke="#263238" stroke-width="2" stroke-miterlimit="10"/>
<path d="M306.575 217.67C306.629 217.078 306.557 216.482 306.361 215.92C306.166 215.359 305.853 214.846 305.443 214.415C304.594 213.481 299.875 210.878 299.224 212.576C298.516 214.408 303.186 218.653 306.575 217.67Z" fill="#1EE0CC" stroke="#263238" stroke-miterlimit="10"/>
<path d="M306.576 217.67L302.182 214.245" stroke="#263238" stroke-width="0.5" stroke-miterlimit="10"/>
<path d="M308.839 206.208L305.584 201.97" stroke="#263238" stroke-width="2" stroke-miterlimit="10"/>
<path d="M306.575 203.236C306.629 202.645 306.556 202.05 306.361 201.49C306.166 200.929 305.853 200.417 305.443 199.988C304.594 199.054 299.875 196.451 299.224 198.149C298.516 199.988 303.186 204.227 306.575 203.236Z" fill="#1EE0CC" stroke="#263238" stroke-miterlimit="10"/>
<path d="M306.576 203.236L302.182 199.819" stroke="#263238" stroke-width="0.5" stroke-miterlimit="10"/>
<path d="M308.839 191.717L305.584 187.472" stroke="#263238" stroke-width="2" stroke-miterlimit="10"/>
<path d="M306.575 188.745C306.63 188.155 306.557 187.559 306.362 186.999C306.166 186.438 305.853 185.927 305.443 185.498C304.594 184.557 299.875 181.96 299.224 183.658C298.516 185.498 303.186 189.736 306.575 188.745Z" fill="#1EE0CC" stroke="#263238" stroke-miterlimit="10"/>
<path d="M306.576 188.745L302.182 185.328" stroke="#263238" stroke-width="0.5" stroke-miterlimit="10"/>
<path d="M308.769 266.413L312.023 262.168" stroke="#263238" stroke-width="2" stroke-miterlimit="10"/>
<path d="M311.033 263.441C310.978 262.849 311.051 262.253 311.246 261.691C311.442 261.13 311.755 260.617 312.165 260.187C313.014 259.253 317.733 256.649 318.384 258.354C319.092 260.187 314.422 264.432 311.033 263.441Z" fill="#1EE0CC" stroke="#263238" stroke-miterlimit="10"/>
<path d="M311.033 263.441L315.688 259.84" stroke="#263238" stroke-width="0.5" stroke-miterlimit="10"/>
<path d="M308.769 237.05L312.023 232.804" stroke="#263238" stroke-width="2" stroke-miterlimit="10"/>
<path d="M311.033 234.078C310.978 233.487 311.051 232.892 311.246 232.331C311.441 231.771 311.755 231.259 312.165 230.83C313.014 229.889 317.733 227.293 318.384 228.991C319.092 230.83 314.422 235.069 311.033 234.078Z" fill="#1EE0CC" stroke="#263238" stroke-miterlimit="10"/>
<path d="M311.033 234.078L315.688 230.477" stroke="#263238" stroke-width="0.5" stroke-miterlimit="10"/>
<path d="M308.769 222.559L312.023 218.314" stroke="#263238" stroke-width="2" stroke-miterlimit="10"/>
<path d="M311.033 219.587C310.978 218.996 311.051 218.399 311.246 217.838C311.442 217.276 311.755 216.763 312.165 216.333C313.014 215.399 317.733 212.795 318.384 214.5C319.092 216.333 314.422 220.578 311.033 219.587Z" fill="#1EE0CC" stroke="#263238" stroke-miterlimit="10"/>
<path d="M311.033 219.587L315.688 215.986" stroke="#263238" stroke-width="0.5" stroke-miterlimit="10"/>
<path d="M308.769 203.406L312.023 199.161" stroke="#263238" stroke-width="2" stroke-miterlimit="10"/>
<path d="M311.033 200.434C310.978 199.842 311.051 199.246 311.246 198.684C311.442 198.123 311.755 197.61 312.165 197.179C313.014 196.245 317.733 193.642 318.384 195.34C319.092 197.179 314.422 201.425 311.033 200.434Z" fill="#1EE0CC" stroke="#263238" stroke-miterlimit="10"/>
<path d="M311.033 200.434L315.688 196.833" stroke="#263238" stroke-width="0.5" stroke-miterlimit="10"/>
<path d="M308.769 188.342L312.023 184.104" stroke="#263238" stroke-width="2" stroke-miterlimit="10"/>
<path d="M311.033 185.399C310.978 184.807 311.051 184.21 311.246 183.649C311.442 183.088 311.755 182.574 312.165 182.144C313.014 181.21 317.733 178.606 318.384 180.304C319.092 182.123 314.422 186.361 311.033 185.399Z" fill="#1EE0CC" stroke="#263238" stroke-miterlimit="10"/>
<path d="M311.033 185.378L315.688 181.769" stroke="#263238" stroke-width="0.5" stroke-miterlimit="10"/>
<path d="M308.542 178.698C308.488 178.106 308.561 177.51 308.756 176.948C308.951 176.387 309.265 175.874 309.674 175.444C310.523 174.51 315.25 171.906 315.901 173.604C316.637 175.444 311.967 179.689 308.542 178.698Z" fill="#1EE0CC" stroke="#263238" stroke-miterlimit="10"/>
<path d="M308.57 178.698L313.226 175.09" stroke="#263238" stroke-width="0.5" stroke-miterlimit="10"/>
<path d="M308.797 178.896C308.203 178.889 307.618 178.755 307.081 178.502C306.544 178.25 306.067 177.885 305.684 177.432C304.842 176.484 302.761 171.517 304.509 171.064C306.419 170.54 310.141 175.628 308.797 178.896Z" fill="#1EE0CC" stroke="#263238" stroke-miterlimit="10"/>
<path d="M308.797 178.896L305.705 173.887" stroke="#263238" stroke-width="0.5" stroke-miterlimit="10"/>
<path d="M312.801 301.026H302.401L301.099 274.748H314.103L312.801 301.026Z" fill="#263238" stroke="#263238" stroke-miterlimit="10"/>
<path d="M288.024 301.026H328" stroke="#263238" stroke-miterlimit="10"/>
<path d="M11.019 301.026H284.486" stroke="#263238" stroke-miterlimit="10"/>
</svg>
