<svg width="265" height="242" viewBox="0 0 265 242" fill="none" xmlns="http://www.w3.org/2000/svg">
<path d="M8.26311 124.923C8.26311 124.923 9.68251 169.015 46.4782 198.369C83.2739 227.723 134.251 229.849 175.523 232.64C216.794 235.43 248.468 212.068 253.3 176.776C258.132 141.484 226.543 131.095 209.431 90.8872C192.32 50.6789 193.842 37.4694 157.638 12.7417C121.435 -11.9861 64.7673 3.16829 35.0747 45.5328C5.38203 87.8974 8.26311 124.923 8.26311 124.923Z" fill="#DAD2FF"/>
<path opacity="0.7" d="M8.26311 124.923C8.26311 124.923 9.68251 169.015 46.4782 198.369C83.2739 227.723 134.251 229.849 175.523 232.64C216.794 235.43 248.468 212.068 253.3 176.776C258.132 141.484 226.543 131.095 209.431 90.8872C192.32 50.6789 193.842 37.4694 157.638 12.7417C121.435 -11.9861 64.7673 3.16829 35.0747 45.5328C5.38203 87.8974 8.26311 124.923 8.26311 124.923Z" fill="white"/>
<path d="M187.761 214.955C211.845 214.955 231.369 209.163 231.369 202.018C231.369 194.873 211.845 189.08 187.761 189.08C163.676 189.08 144.152 194.873 144.152 202.018C144.152 209.163 163.676 214.955 187.761 214.955Z" fill="#263238" stroke="#263238" stroke-width="1.193" stroke-linecap="round" stroke-linejoin="round"/>
<path d="M187.76 195.029C208.386 195.029 225.661 199.257 230.197 204.989C230.913 204.16 231.326 203.112 231.369 202.017C231.369 194.866 211.841 189.073 187.76 189.073C163.678 189.073 144.145 194.866 144.145 202.017C144.187 203.112 144.601 204.16 145.317 204.989C149.853 199.281 167.127 195.029 187.76 195.029Z" fill="white" stroke="#263238" stroke-width="1.193" stroke-linecap="round" stroke-linejoin="round"/>
<path d="M181.804 213.33C167.236 212.672 156.243 209.706 156.243 206.082C156.251 205.687 156.375 205.302 156.6 204.977" stroke="white" stroke-width="1.193" stroke-linecap="round" stroke-linejoin="round"/>
<path d="M215.61 202.555C218.105 203.612 219.53 204.82 219.53 206.106C219.53 210.171 205.361 213.463 187.887 213.463H187.132" stroke="white" stroke-width="1.193" stroke-linecap="round" stroke-linejoin="round"/>
<path d="M160.501 202.416C165.98 200.223 176.205 198.744 187.887 198.744C194.534 198.692 201.172 199.236 207.722 200.368" stroke="white" stroke-width="1.193" stroke-linecap="round" stroke-linejoin="round"/>
<path d="M181.388 208.631C177.697 208.118 175.227 207.181 175.227 206.106C175.227 204.482 180.899 203.165 187.911 203.165C194.923 203.165 200.565 204.482 200.565 206.106C200.565 207.501 196.397 208.667 190.804 208.969" stroke="white" stroke-width="1.193" stroke-linecap="round" stroke-linejoin="round"/>
<path d="M12.6182 150.007C31.6381 144.601 71.6592 133.934 93.7474 133.131C123.44 132.08 173.572 153.631 204.871 157.406C236.171 161.181 257.202 160.106 257.202 160.106" stroke="#263238" stroke-width="1.193" stroke-linecap="round" stroke-linejoin="round"/>
<path d="M2.03613 153.093C2.03613 153.093 3.67901 152.592 6.56009 151.752" stroke="#263238" stroke-width="1.193" stroke-linecap="round" stroke-linejoin="round"/>
<path d="M248.752 119.468C237.788 117.06 226.572 115.999 215.351 116.31C192.145 117.089 167.031 120.157 135.979 124.162C104.928 128.166 60.7087 106.042 30.6416 114.25C0.574439 122.458 2.85756 124.929 2.85756 124.929" stroke="#263238" stroke-width="1.193" stroke-linecap="round" stroke-linejoin="round"/>
<path d="M257.305 121.691C257.305 121.691 256.133 121.305 254.013 120.743" stroke="#263238" stroke-width="1.193" stroke-linecap="round" stroke-linejoin="round"/>
<path d="M201.628 64.6434C201.294 63.2859 200.514 62.0796 199.414 61.2172C198.313 60.3549 196.956 59.8862 195.557 59.8862C194.159 59.8862 192.802 60.3549 191.701 61.2172C190.601 62.0796 189.821 63.2859 189.487 64.6434H201.628Z" stroke="#263238" stroke-width="1.193" stroke-linecap="round" stroke-linejoin="round"/>
<path d="M262.964 64.6434C262.597 63.0963 261.763 61.6998 260.574 60.644C259.385 59.5881 257.9 58.9241 256.32 58.7424C256.817 56.1185 256.727 53.4173 256.058 50.8321C255.389 48.2468 254.157 45.8414 252.45 43.788C250.743 41.7345 248.603 40.0838 246.183 38.9539C243.764 37.8239 241.124 37.2428 238.454 37.252C234.189 37.2522 230.061 38.7523 226.792 41.4897C223.522 44.2271 221.319 48.0274 220.569 52.2252C218.855 50.8842 216.797 50.0524 214.632 49.8246C212.468 49.5969 210.282 49.9825 208.326 50.9373C206.37 51.8921 204.721 53.3777 203.569 55.2246C202.417 57.0714 201.807 59.205 201.809 61.3818C201.813 62.4901 201.973 63.5923 202.286 64.6555L262.964 64.6434Z" stroke="#263238" stroke-width="1.193" stroke-linecap="round" stroke-linejoin="round"/>
<path d="M93.5843 79.224C93.4181 78.5314 93.0235 77.9149 92.4641 77.4739C91.9048 77.0329 91.2132 76.7931 90.5009 76.7931C89.7886 76.7931 89.0971 77.0329 88.5377 77.4739C87.9783 77.9149 87.5837 78.5314 87.4175 79.224H93.5843Z" stroke="#263238" stroke-width="1.193" stroke-linecap="round" stroke-linejoin="round"/>
<path d="M124.721 79.224C124.537 78.4343 124.114 77.7205 123.51 77.18C122.906 76.6395 122.15 76.2986 121.344 76.204C121.635 74.9855 121.674 73.7206 121.46 72.4864C121.246 71.2522 120.782 70.0746 120.098 69.0254C119.413 67.9762 118.522 67.0774 117.479 66.3839C116.436 65.6903 115.262 65.2166 114.03 64.9915C112.798 64.7664 111.533 64.7947 110.312 65.0746C109.091 65.3546 107.939 65.8803 106.928 66.6198C105.917 67.3592 105.067 68.2969 104.43 69.3757C103.794 70.4544 103.383 71.6515 103.224 72.8941C102.354 72.2138 101.31 71.7918 100.211 71.6762C99.1125 71.5606 98.0034 71.7561 97.0105 72.2403C96.0175 72.7245 95.1806 73.478 94.5951 74.4148C94.0097 75.3516 93.6992 76.4341 93.6992 77.5389C93.702 78.1031 93.7833 78.6641 93.9408 79.2059L124.721 79.224Z" stroke="#263238" stroke-width="1.193" stroke-linecap="round" stroke-linejoin="round"/>
<path d="M121.586 88.9726C121.481 88.5351 121.233 88.1455 120.88 87.8667C120.527 87.588 120.09 87.4364 119.641 87.4364C119.191 87.4364 118.754 87.588 118.401 87.8667C118.049 88.1455 117.8 88.5351 117.696 88.9726H121.586Z" stroke="#263238" stroke-width="1.193" stroke-linecap="round" stroke-linejoin="round"/>
<path d="M141.24 88.9726C141.122 88.4762 140.855 88.0283 140.473 87.6899C140.091 87.3515 139.615 87.1392 139.108 87.0821C139.173 86.7295 139.206 86.3716 139.204 86.013C139.186 84.5723 138.635 83.1895 137.657 82.1318C136.678 81.0742 135.342 80.4168 133.908 80.2868C132.473 80.1569 131.04 80.5635 129.888 81.4282C128.736 82.2928 127.945 83.5541 127.668 84.9681C127.118 84.5391 126.459 84.2732 125.766 84.2007C125.072 84.1281 124.372 84.252 123.746 84.558C123.119 84.864 122.591 85.3399 122.222 85.9314C121.853 86.5229 121.658 87.2062 121.658 87.9035C121.659 88.2592 121.71 88.613 121.809 88.9545L141.24 88.9726Z" stroke="#263238" stroke-width="1.193" stroke-linecap="round" stroke-linejoin="round"/>
<path d="M79.7407 158.553C79.5281 158.556 79.3189 158.5 79.1367 158.39C78.8725 158.227 78.6812 157.969 78.6025 157.669C78.5238 157.368 78.5637 157.049 78.7139 156.778C79.0098 156.258 153.688 74.8208 187.857 44.959C187.976 44.8633 188.127 44.8163 188.279 44.8275C188.432 44.8387 188.574 44.9073 188.678 45.0194C188.777 45.1394 188.827 45.293 188.815 45.4483C188.804 45.6036 188.733 45.7486 188.618 45.8529C154.619 75.5879 81.0453 157.448 80.7494 157.961C80.6488 158.141 80.5023 158.29 80.3251 158.394C80.1479 158.498 79.9462 158.553 79.7407 158.553Z" fill="#263238"/>
<path d="M83.8659 142.348C83.8659 142.348 87.5684 138.398 89.7911 138.398C92.0138 138.398 96.2116 142.1 95.964 144.075C95.7164 146.051 92.0138 144.323 92.0138 144.323C92.0138 144.323 88.5529 149.016 85.098 148.273C81.6432 147.53 83.8659 142.348 83.8659 142.348Z" fill="#DAD2FF" stroke="#263238" stroke-width="1.193" stroke-linecap="round" stroke-linejoin="round"/>
<path d="M92.0323 144.311C92.0323 144.311 94.2973 145.881 94.4966 146.987C94.696 148.092 91.984 151.215 88.97 151.915C85.9561 152.616 84.3434 150.907 85.2494 149.3C86.1554 147.693 89.7492 144.456 92.0323 144.311Z" fill="#DAD2FF" stroke="#263238" stroke-width="1.193" stroke-linecap="round" stroke-linejoin="round"/>
<path d="M185.048 130.002V48.2871C185.048 48.2871 183.399 54.2002 183.399 54.6291" stroke="#263238" stroke-width="1.193" stroke-linecap="round" stroke-linejoin="round"/>
<path d="M219.126 134.309H156.467V184.513H219.126V134.309Z" fill="#DAD2FF" stroke="#263238" stroke-width="1.193" stroke-linecap="round" stroke-linejoin="round"/>
<path d="M185.942 134.097V131.222C185.942 131.032 185.866 130.849 185.731 130.714C185.597 130.579 185.414 130.504 185.223 130.504C185.033 130.504 184.85 130.579 184.715 130.714C184.58 130.849 184.504 131.032 184.504 131.222V134.097H185.942Z" fill="#263238"/>
<path d="M191.692 127.103V127.248C191.634 127.138 191.547 127.046 191.441 126.981C191.334 126.916 191.213 126.881 191.088 126.88C190.896 126.88 190.711 126.956 190.576 127.092C190.44 127.228 190.363 127.412 190.363 127.604V135.281C190.363 135.868 190.131 136.431 189.716 136.847C189.302 137.262 188.74 137.496 188.153 137.498C187.849 137.498 187.548 137.435 187.271 137.311C187.111 137.549 187.041 137.838 187.074 138.123C187.107 138.409 187.241 138.673 187.452 138.869C187.683 138.913 187.918 138.935 188.153 138.935C188.633 138.935 189.108 138.841 189.551 138.657C189.994 138.474 190.397 138.204 190.737 137.865C191.076 137.526 191.345 137.123 191.529 136.68C191.712 136.236 191.807 135.761 191.807 135.281V131.724H193.462L191.692 127.103Z" fill="#263238"/>
<path d="M185.109 47.52C185.109 47.52 186.389 42.9719 185.254 43.3947C184.118 43.8175 185.109 47.52 185.109 47.52Z" stroke="#263238" stroke-width="1.193" stroke-linecap="round" stroke-linejoin="round"/>
<path d="M185.108 47.52C185.108 47.52 180.276 45.8107 180.705 47.375C181.134 48.9394 185.108 47.52 185.108 47.52Z" stroke="#263238" stroke-width="1.193" stroke-linecap="round" stroke-linejoin="round"/>
<path d="M80.9125 87.1606C80.9125 87.1606 74.951 83.8204 63.2576 85.4935C51.5641 87.1666 49.3354 96.8064 51.244 106.827C53.1527 116.847 64.2119 125.333 65.885 124.621C67.5581 123.908 65.4078 101.475 69.2251 97.1809C73.0424 92.8865 85.4485 93.6052 86.1371 90.2651C86.8256 86.925 80.9125 87.1606 80.9125 87.1606Z" fill="#263238" stroke="#263238" stroke-width="1.193" stroke-linecap="round" stroke-linejoin="round"/>
<path d="M60.1289 93.1099L61.3369 101.004C61.3369 101.004 53.8473 121.45 55.0613 124.288C56.2754 127.127 67.6064 128.13 67.6064 128.13C67.6064 128.13 86.0284 130.359 91.4946 128.13C96.9608 125.901 94.1281 119.426 93.518 117.608C92.908 115.79 89.4712 101.21 89.4712 101.21C89.4712 101.21 90.6792 97.7668 90.6792 95.9487C90.6792 94.1307 90.4739 89.0631 89.6645 87.8491C88.8551 86.635 74.6853 85.2156 68.4097 86.2304C62.1342 87.2451 59.3195 88.8638 60.1289 93.1099Z" fill="#757575" stroke="#263238" stroke-width="1.193" stroke-linecap="round" stroke-linejoin="round"/>
<path d="M63.3725 102.224C63.3725 102.224 63.1672 119.831 64.1819 123.274C65.1966 126.716 69.2434 130.763 77.7417 129.749C86.24 128.734 87.0554 120.64 87.0554 120.64L86.4514 101.82L63.3725 102.224Z" fill="white" stroke="#263238" stroke-width="1.193" stroke-linecap="round" stroke-linejoin="round"/>
<path d="M77.947 114.872C77.9482 115.173 77.8599 115.468 77.6934 115.719C77.5269 115.97 77.2896 116.166 77.0116 116.283C76.7336 116.399 76.4273 116.43 76.1317 116.372C75.836 116.314 75.5642 116.169 75.3508 115.956C75.1373 115.744 74.9917 115.473 74.9325 115.177C74.8733 114.882 74.9031 114.575 75.0181 114.297C75.1331 114.019 75.3282 113.78 75.5787 113.613C75.8291 113.445 76.1236 113.356 76.4249 113.356C76.6245 113.355 76.8223 113.394 77.0069 113.47C77.1916 113.545 77.3594 113.657 77.5008 113.798C77.6422 113.939 77.7544 114.106 77.831 114.29C77.9076 114.475 77.947 114.672 77.947 114.872Z" stroke="#263238" stroke-width="1.193" stroke-miterlimit="10"/>
<path d="M77.7414 121.25C77.7413 121.451 77.6817 121.648 77.5699 121.815C77.4581 121.982 77.2993 122.112 77.1135 122.188C76.9278 122.265 76.7234 122.285 76.5264 122.245C76.3294 122.205 76.1486 122.108 76.007 121.966C75.8653 121.823 75.7692 121.642 75.7307 121.445C75.6922 121.247 75.7132 121.043 75.7909 120.858C75.8686 120.672 75.9996 120.514 76.1673 120.404C76.335 120.293 76.5317 120.234 76.7327 120.236C76.8656 120.236 76.9973 120.262 77.1201 120.313C77.2429 120.364 77.3543 120.439 77.4481 120.533C77.5418 120.627 77.616 120.739 77.6663 120.862C77.7166 120.986 77.7421 121.117 77.7414 121.25Z" fill="#263238"/>
<path d="M71.6289 108.379C72.2752 109.08 72.4987 109.919 72.1363 110.264C71.7739 110.608 70.9283 110.318 70.2941 109.623C69.6599 108.929 69.4183 108.089 69.7867 107.745C70.1551 107.401 70.9826 107.684 71.6289 108.379Z" fill="#263238"/>
<path d="M79.8493 108.379C79.2031 109.08 78.9735 109.919 79.342 110.264C79.7104 110.608 80.55 110.318 81.154 109.623C81.758 108.929 82.0298 108.089 81.6614 107.745C81.2929 107.401 80.4956 107.684 79.8493 108.379Z" fill="#263238"/>
<path d="M67.3042 105.993C67.7576 105.324 68.4093 104.814 69.1677 104.534C69.9261 104.255 70.753 104.22 71.5322 104.435" stroke="#263238" stroke-width="1.193" stroke-linecap="round" stroke-linejoin="round"/>
<path d="M79.5293 104.658C79.5293 104.658 82.4164 103.771 83.3103 106.217" stroke="#263238" stroke-width="1.193" stroke-linecap="round" stroke-linejoin="round"/>
<path d="M89.278 217.618C89.278 217.618 92.4611 215.71 94.2247 214.961C94.39 214.885 94.5594 214.818 94.7321 214.762C96.2904 214.242 100.706 214.502 104.855 211.905C109.005 209.307 106.933 206.191 103.816 205.412C100.7 204.632 97.3293 203.6 97.3293 203.6L96.5501 191.393C96.5501 191.393 87.2002 193.99 84.0836 195.289C80.9669 196.587 82.785 215.021 83.0447 216.58C83.3044 218.138 83.3044 219.177 89.278 217.618Z" fill="#263238" stroke="#263238" stroke-width="1.193" stroke-linecap="round" stroke-linejoin="round"/>
<path d="M99.6668 211.905C94.2308 212.944 94.2308 213.982 88.2391 215.021C86.4841 215.372 84.6944 215.518 82.9058 215.456C82.9662 216.012 83.0145 216.404 83.0447 216.58C83.3044 218.138 83.3044 219.177 89.278 217.618C89.278 217.618 92.461 215.71 94.2247 214.961C94.39 214.885 94.5594 214.818 94.7321 214.762C96.2904 214.242 100.706 214.502 104.855 211.905C106.19 211.077 106.872 210.189 107.096 209.344C104.738 210.508 102.241 211.368 99.6668 211.905Z" fill="white" stroke="#263238" stroke-width="1.193" stroke-linecap="round" stroke-linejoin="round"/>
<path d="M101.829 205.255C101.829 205.255 101.63 219.424 101.225 222.456C100.82 225.489 101.424 229.342 106.057 229.342C110.69 229.342 119.822 226.322 123.06 225.718C126.297 225.114 131.564 223.689 133.787 218.633C136.009 213.578 122.456 214.176 122.456 214.176L123.265 203.853C123.265 203.853 109.319 206.668 101.829 205.255Z" fill="#263238" stroke="#263238" stroke-width="1.193" stroke-linecap="round" stroke-linejoin="round"/>
<path d="M133.811 218.615C134.059 218.124 134.119 217.559 133.98 217.027C132.593 218.91 130.711 220.374 128.544 221.255C123.712 223.278 114.574 225.483 107.694 226.521C104.547 226.98 102.554 226.467 101.304 225.779C101.751 227.742 103.061 229.354 106.075 229.354C110.732 229.354 119.84 226.334 123.078 225.73C126.315 225.126 131.588 223.671 133.811 218.615Z" fill="white" stroke="#263238" stroke-width="1.193" stroke-linecap="round" stroke-linejoin="round"/>
<path d="M122.48 214.158C122.48 214.158 123.489 217.6 120.668 219.829" stroke="white" stroke-width="1.193" stroke-linecap="round" stroke-linejoin="round"/>
<path d="M100.416 197.765C100.416 197.765 100.102 203.92 100.446 205.152C101.738 209.827 102.149 208.734 111.868 208.528C121.586 208.323 125.512 204.445 126.527 202.017C127.541 199.589 126.527 194.322 126.122 192.498C125.717 190.674 122.498 190.082 121.26 190.275C120.022 190.469 101.02 195.742 100.416 197.765Z" fill="#757575" stroke="#263238" stroke-width="1.193" stroke-linecap="round" stroke-linejoin="round"/>
<path d="M33.6133 213.149V226.751C33.6178 227.283 33.7676 227.804 34.0464 228.258C34.3253 228.711 34.7227 229.08 35.1958 229.324L57.0606 240.613C57.4496 240.815 57.8794 240.927 58.3176 240.939C58.7559 240.952 59.1914 240.865 59.5913 240.685L91.8026 228.406C92.3166 228.175 92.753 227.802 93.0595 227.329C93.3659 226.856 93.5293 226.305 93.5301 225.742V209.301L56.6861 220.433L33.6133 213.149Z" fill="#DAD2FF"/>
<path opacity="0.18" d="M58.3108 219.944L56.6921 220.433L33.6133 213.149V226.751C33.6178 227.283 33.7676 227.804 34.0464 228.258C34.3253 228.711 34.7227 229.08 35.1958 229.324L57.0606 240.613C57.4472 240.815 57.8747 240.926 58.3108 240.939V219.944Z" fill="black"/>
<path d="M33.6133 213.149V226.751C33.6178 227.283 33.7676 227.804 34.0464 228.258C34.3253 228.711 34.7227 229.08 35.1958 229.324L57.0606 240.613C57.4496 240.815 57.8794 240.927 58.3176 240.939C58.7559 240.952 59.1914 240.865 59.5913 240.685L91.8026 228.406C92.3166 228.175 92.753 227.802 93.0595 227.329C93.3659 226.856 93.5293 226.305 93.5301 225.742V209.301L56.6861 220.433L33.6133 213.149Z" stroke="#263238" stroke-width="1.193" stroke-linecap="round" stroke-linejoin="round"/>
<path d="M67.2681 190.185L31.9341 201.54C31.658 201.629 31.4172 201.803 31.2467 202.037C31.0762 202.272 30.9848 202.555 30.9858 202.845V212.919C30.9912 213.173 31.0669 213.42 31.2044 213.634C31.342 213.847 31.5361 214.018 31.765 214.127L56.3961 225.851C56.562 225.93 56.7421 225.976 56.9258 225.984C57.1094 225.992 57.2929 225.963 57.4652 225.899L94.4481 212.062C94.7097 211.965 94.9355 211.79 95.0952 211.561C95.2549 211.332 95.341 211.06 95.342 210.781L95.4085 201.329C95.4065 201.016 95.2985 200.713 95.1021 200.469C94.9057 200.226 94.6326 200.056 94.3273 199.988L67.9688 190.149C67.7358 190.102 67.495 190.115 67.2681 190.185Z" fill="white"/>
<path d="M56.354 225.845C56.5199 225.924 56.7 225.969 56.8836 225.978C57.0673 225.986 57.2507 225.957 57.4231 225.893L94.4483 212.062C94.7099 211.965 94.9356 211.79 95.0954 211.561C95.2551 211.332 95.3412 211.06 95.3422 210.781L95.4086 201.329C95.4095 201.007 95.2937 200.696 95.0825 200.453L56.8795 214.562L56.354 225.845Z" fill="#DAD2FF"/>
<path opacity="0.5" d="M56.354 225.845C56.5199 225.924 56.7 225.969 56.8836 225.978C57.0673 225.986 57.2507 225.957 57.4231 225.893L94.4483 212.062C94.7099 211.965 94.9356 211.79 95.0954 211.561C95.2551 211.332 95.3412 211.06 95.3422 210.781L95.4086 201.329C95.4095 201.007 95.2937 200.696 95.0825 200.453L56.8795 214.562L56.354 225.845Z" fill="white"/>
<path d="M30.9858 202.814V212.889C30.9912 213.143 31.0669 213.39 31.2044 213.603C31.342 213.817 31.536 213.988 31.765 214.097L56.3961 225.851C56.5605 225.93 56.7393 225.976 56.9216 225.984V214.562L31.0281 202.579C31.0047 202.655 30.9905 202.735 30.9858 202.814Z" fill="#DAD2FF"/>
<path d="M67.2681 190.185L31.9341 201.54C31.658 201.629 31.4172 201.803 31.2467 202.037C31.0762 202.272 30.9848 202.555 30.9858 202.845V212.919C30.9912 213.173 31.0669 213.42 31.2044 213.634C31.342 213.847 31.5361 214.018 31.765 214.127L56.3961 225.851C56.562 225.93 56.7421 225.976 56.9258 225.984C57.1094 225.992 57.2929 225.963 57.4652 225.899L94.4481 212.062C94.7097 211.965 94.9355 211.79 95.0952 211.561C95.2549 211.332 95.341 211.06 95.342 210.781L95.4085 201.329C95.4065 201.016 95.2985 200.713 95.1021 200.469C94.9057 200.226 94.6326 200.056 94.3273 199.988L67.9688 190.149C67.7358 190.102 67.495 190.115 67.2681 190.185V190.185Z" stroke="#263238" stroke-width="1.193" stroke-linecap="round" stroke-linejoin="round"/>
<path d="M115.799 171.654C115.799 171.654 120.45 173.877 122.884 178.334C125.318 182.792 123.488 191.284 122.069 193.917C120.65 196.551 111.143 197.765 107.905 197.765C104.668 197.765 104.058 197.36 104.058 197.36C104.058 197.36 93.7353 199.384 87.2544 200.598C80.7735 201.812 82.4224 186.633 84.4216 179.748C86.4209 172.862 97.7821 169.425 102.439 169.425C107.096 169.425 115.799 171.654 115.799 171.654Z" fill="#263238" stroke="#263238" stroke-width="1.193" stroke-linecap="round" stroke-linejoin="round"/>
<path d="M104.058 197.36C104.058 197.36 112.761 194.34 116.403 186.633" stroke="white" stroke-width="1.193" stroke-linecap="round" stroke-linejoin="round"/>
<path d="M112.357 192.903C115.162 191.727 117.707 190.009 119.847 187.847" stroke="white" stroke-width="1.193" stroke-linecap="round" stroke-linejoin="round"/>
<path d="M91.9113 178.334C91.9113 178.334 94.3273 191.085 93.1193 196.346C91.9113 201.606 84.8204 202.422 83.2016 201.812C81.5829 201.202 82.3923 188.657 82.3923 182.381C82.3923 176.106 88.6739 176.51 91.9113 178.334Z" fill="#757575" stroke="#263238" stroke-width="1.193" stroke-linecap="round" stroke-linejoin="round"/>
<path d="M40.2937 144.323C40.2937 144.323 38.8803 152.616 39.889 156.675C40.4029 158.936 41.3663 161.07 42.7218 162.95C42.7218 162.95 37.6603 170.44 38.675 176.71C39.6897 182.979 42.299 183.794 42.299 183.794C42.299 183.794 40.0763 195.337 44.111 199.384C48.1457 203.431 57.0668 207.882 66.9845 206.064C76.9021 204.246 83.5824 203.835 85.6058 200.392C87.6292 196.95 86.4151 181.771 86.4151 181.771C86.4151 181.771 86.0105 164.974 85.6058 154.645C85.2011 144.317 83.7938 136.024 78.9255 131.977C74.0573 127.931 52.6093 134.206 46.1344 138.452C39.6595 142.698 40.2937 144.323 40.2937 144.323Z" fill="#DAD2FF"/>
<path opacity="0.3" d="M41.7371 144.323C41.7371 144.323 40.3177 152.622 41.3324 156.675C41.8433 158.937 42.8069 161.071 44.1651 162.95C44.1651 162.95 39.1036 170.44 40.1183 176.71C41.1331 182.979 43.7423 183.794 43.7423 183.794C43.7423 183.794 41.5136 195.337 45.5543 199.384C49.5951 203.431 58.5343 207.882 68.4761 206.064C78.418 204.246 85.0801 203.835 87.1035 200.392C89.1269 196.95 87.9129 181.771 87.9129 181.771C87.9129 181.771 87.5082 164.974 87.1035 154.645C86.6988 144.317 85.2915 136.024 80.4233 131.977C75.555 127.931 54.107 134.206 47.6321 138.452C41.1572 142.698 41.7371 144.323 41.7371 144.323Z" fill="black"/>
<path d="M40.2937 144.323C40.2937 144.323 38.8803 152.616 39.889 156.675C40.4029 158.936 41.3663 161.07 42.7218 162.95C42.7218 162.95 37.6603 170.44 38.675 176.71C39.6897 182.979 42.299 183.794 42.299 183.794C42.299 183.794 40.0763 195.337 44.111 199.384C48.1457 203.431 57.0668 207.882 66.9845 206.064C76.9021 204.246 83.5824 203.835 85.6058 200.392C87.6292 196.95 86.4151 181.771 86.4151 181.771C86.4151 181.771 86.0105 164.974 85.6058 154.645C85.2011 144.317 83.7938 136.024 78.9256 131.977C74.0573 127.931 52.6093 134.206 46.1344 138.452C39.6595 142.698 40.2937 144.323 40.2937 144.323Z" stroke="#263238" stroke-width="1.193" stroke-linecap="round" stroke-linejoin="round"/>
<path d="M42.7217 162.95C45.8554 165.088 49.4407 166.473 53.1978 166.997C56.9548 167.521 60.7821 167.169 64.3811 165.97" stroke="#263238" stroke-width="1.193" stroke-linecap="round" stroke-linejoin="round"/>
<path d="M42.3169 183.794C42.3169 183.794 52.6393 193.918 69.6479 184.199" stroke="#263238" stroke-width="1.193" stroke-linecap="round" stroke-linejoin="round"/>
<path d="M82.5979 134.405C82.5979 134.405 78.7564 128.535 73.4896 125.297C68.2227 122.06 54.6689 119.632 49.2027 118.617C43.7365 117.602 37.8656 118.013 36.2469 124.053C34.6282 130.093 34.8275 140.246 36.4462 144.698C38.0649 149.149 44.7452 151.783 50.0121 148.75C55.2789 145.718 69.8474 133.971 74.9089 133.367C79.9705 132.763 82.1932 136.634 82.5979 134.405Z" fill="#757575"/>
<path opacity="0.3" d="M71.3695 133.288C74.4559 132.001 66.7368 134.315 66.2234 133.542C65.71 132.769 71.6232 128.915 72.9097 128.402C74.1962 127.888 65.4503 129.688 65.71 128.402C65.9697 127.115 74.1962 126.855 68.5367 125.569C62.8773 124.282 44.3767 120.936 40.7527 119.65C40.4755 119.56 40.213 119.429 39.9736 119.263C39.0365 119.746 38.217 120.43 37.573 121.265C36.929 122.1 36.4763 123.066 36.2469 124.095C34.6282 130.165 34.8275 140.288 36.4462 144.74C37.8596 148.618 43.0902 151.112 47.9222 149.693C50.151 147.881 52.2106 145.501 55.6957 143.308C62.6236 138.923 68.2831 134.55 71.3695 133.288Z" fill="black"/>
<path d="M82.5979 134.405C82.5979 134.405 78.7564 128.535 73.4896 125.297C68.2227 122.06 54.6689 119.632 49.2027 118.617C43.7365 117.602 37.8656 118.013 36.2469 124.053C34.6282 130.093 34.8275 140.246 36.4462 144.698C38.0649 149.149 44.7452 151.783 50.0121 148.75C55.2789 145.718 69.8474 133.971 74.9089 133.367C79.9705 132.763 82.1932 136.634 82.5979 134.405Z" stroke="#263238" stroke-width="1.193" stroke-linecap="round" stroke-linejoin="round"/>
<path d="M104.462 161.936C104.462 161.936 109.119 162.54 112.151 163.748C115.183 164.956 117.213 172.451 115.999 173.46C114.785 174.469 112.375 173.261 112.375 173.261C110.471 173.931 108.504 174.404 106.504 174.674C104.058 174.892 101.424 163.355 104.462 161.936Z" fill="#DAD2FF" stroke="#263238" stroke-width="1.193" stroke-linecap="round" stroke-linejoin="round"/>
<path d="M89.0784 161.326C89.0784 161.326 89.8878 161.326 94.3393 159.302C98.7908 157.279 102.439 157.279 105.272 161.718C108.104 166.158 109.318 171.642 107.688 174.879C106.057 178.117 99.9988 180.346 96.7553 180.346C93.5118 180.346 93.1313 176.118 93.1313 176.118C93.1313 176.118 92.7266 169.437 90.7153 167.009C88.704 164.581 88.2691 161.936 89.0784 161.326Z" fill="#757575" stroke="#263238" stroke-width="1.193" stroke-linecap="round" stroke-linejoin="round"/>
<path d="M74.0996 134.405C78.5511 132.787 84.2226 133.801 86.246 139.467C88.2694 145.132 90.0875 161.73 90.0875 161.73C90.0875 161.73 95.149 162.334 97.1724 164.569C99.1958 166.804 100.192 172.463 99.8058 175.296C99.4193 178.129 92.3162 183.39 84.2226 183.595C76.129 183.801 70.2521 179.971 67.4194 169.625C64.5866 159.278 65.71 143.556 65.71 143.556C65.71 143.556 66.7368 138.923 68.2831 137.89" fill="#DAD2FF"/>
<path opacity="0.3" d="M99.8057 175.296C100.21 172.463 99.2017 166.792 97.1722 164.569C97.0937 164.479 96.9971 164.394 96.9125 164.309C97.1551 166.129 97.3003 167.959 97.3474 169.794C97.7521 181.674 81.1481 179.687 77.802 171.08C75.99 166.448 75.4826 146.123 70.0829 144.583C66.9662 143.695 65.9032 146.135 65.5649 148.364C65.4562 154.192 65.6495 163.174 67.4192 169.625C70.252 179.953 76.1229 183.795 84.2225 183.595C92.3221 183.396 99.401 178.129 99.8057 175.296Z" fill="black"/>
<path d="M74.0996 134.405C78.5511 132.787 84.2226 133.801 86.246 139.467C88.2694 145.132 90.0875 161.73 90.0875 161.73C90.0875 161.73 95.149 162.334 97.1724 164.569C99.1958 166.804 100.192 172.463 99.8058 175.296C99.4193 178.129 92.3162 183.39 84.2226 183.595C76.129 183.801 70.2521 179.971 67.4194 169.625C64.5866 159.278 65.71 143.556 65.71 143.556C65.71 143.556 66.7368 138.923 68.2831 137.89" stroke="#263238" stroke-width="1.193" stroke-linecap="round" stroke-linejoin="round"/>
<path d="M90.0874 161.73C90.0874 161.73 91.6699 169.105 83.54 173.152" stroke="#263238" stroke-width="1.193" stroke-linecap="round" stroke-linejoin="round"/>
<path d="M173.827 169V165.863H165.062V162.726C166.601 159.796 168.517 156.708 172.13 151.385H177.331V162.909H179.625V165.863H177.331V169H173.827ZM168.297 162.921V163.019H173.9V153.998H173.827C171.264 157.757 169.726 160.162 168.297 162.921ZM188.463 169.391C184.032 169.391 181.334 165.863 181.334 160.162C181.334 154.474 184.057 150.982 188.463 150.982C192.87 150.982 195.58 154.461 195.58 160.15C195.58 165.838 192.895 169.391 188.463 169.391ZM188.463 166.437C190.563 166.437 191.833 164.178 191.833 160.162C191.833 156.183 190.551 153.937 188.463 153.937C186.388 153.937 185.082 156.195 185.082 160.162C185.082 164.166 186.364 166.437 188.463 166.437ZM206.249 169V165.863H197.484V162.726C199.022 159.796 200.939 156.708 204.552 151.385H209.752V162.909H212.047V165.863H209.752V169H206.249ZM200.719 162.921V163.019H206.322V153.998H206.249C203.686 157.757 202.147 160.162 200.719 162.921Z" fill="black"/>
</svg>
