<svg width="327" height="327" viewBox="0 0 327 327" fill="none" xmlns="http://www.w3.org/2000/svg">
<path opacity="0.7" d="M44.4066 109.283C44.4066 109.283 26.16 156.371 51.7968 203.786C77.4336 251.201 130.211 276.25 172.46 297.635C214.708 319.021 258.592 308.623 279.389 273.568C300.251 238.514 271.672 213.466 271.606 163.435C271.541 113.404 279.062 100.193 251.986 57.879C224.976 15.6306 158.464 6.27837 108.237 37.605C57.9444 68.997 44.4066 109.283 44.4066 109.283Z" fill="white"/>
<path d="M48.3306 123.41C71.4822 100.258 91.1022 119.682 99.3426 88.617C117.982 18.3774 195.415 19.0968 205.618 68.997C223.93 158.987 303.848 101.828 303.26 166.312C302.606 235.178 251.986 288.741 161.211 294.104C79.8534 298.943 10.0062 161.734 48.3306 123.41Z" fill="#92E3A9"/>
<path d="M48.3306 123.41C71.4822 100.258 91.1022 119.682 99.3426 88.617C117.982 18.3774 195.415 19.0968 205.618 68.997C223.93 158.987 303.848 101.828 303.26 166.312C302.606 235.178 251.986 288.741 161.211 294.104C79.8534 298.943 10.0062 161.734 48.3306 123.41Z" fill="#00DDDD"/>
<path d="M93.7837 127.988L91.8871 127.007C92.2141 126.157 92.2141 125.11 92.1487 124.391C92.8027 124.652 93.3913 124.979 93.9799 125.241C93.9145 126.026 93.8491 126.941 93.7837 127.988Z" stroke="#263238" stroke-miterlimit="10" stroke-linecap="round" stroke-linejoin="round"/>
<path d="M96.5305 126.484C97.1845 126.811 97.8385 127.007 98.4925 127.138C98.9503 129.688 99.1465 133.874 96.9229 138.19C96.3997 139.171 91.2331 136.49 91.6909 135.509C92.8681 133.154 93.4567 130.342 93.7183 127.922C93.8491 126.941 93.9145 125.96 93.9145 125.176C95.0263 125.764 96.0073 126.222 96.5305 126.484Z" stroke="#263238" stroke-miterlimit="10" stroke-linecap="round" stroke-linejoin="round"/>
<path d="M102.743 114.385C104.444 115.235 105.621 116.674 106.144 118.374C106.667 120.009 106.602 121.906 105.752 123.606C104.902 125.306 103.463 126.484 101.762 127.007C100.716 127.334 99.6043 127.465 98.4925 127.268C97.8385 127.138 97.1845 126.941 96.5305 126.614C96.0073 126.353 95.0263 125.895 93.9145 125.372C93.3259 125.11 92.6719 124.783 92.0833 124.522C90.5791 123.802 89.1403 123.214 88.3555 122.952L94.9609 110.068C96.3997 110.918 101.239 113.6 102.743 114.385Z" stroke="#263238" stroke-miterlimit="10" stroke-linecap="round" stroke-linejoin="round"/>
<path d="M88.617 103.855C90.4482 106.144 92.6064 108.237 95.0262 109.938L88.4208 122.821C85.6086 121.906 82.731 121.317 79.788 121.186L77.2374 121.056L87.0474 101.893L88.617 103.855Z" stroke="#263238" stroke-miterlimit="10" stroke-linecap="round" stroke-linejoin="round"/>
<path d="M74.2291 121.579L85.7395 99.1465C85.9357 98.8195 86.3281 98.6233 86.7205 98.8195L87.5707 99.2773C87.8977 99.4735 88.0939 99.8659 87.8977 100.258L87.0475 101.893L77.2375 121.055L76.3873 122.69C76.1911 123.017 75.7987 123.214 75.4063 123.017L74.5561 122.56C74.1637 122.363 74.0329 121.971 74.2291 121.579Z" stroke="#263238" stroke-miterlimit="10" stroke-linecap="round" stroke-linejoin="round"/>
<path d="M74.5561 107.583L70.1089 105.359" stroke="#263238" stroke-miterlimit="10" stroke-linecap="round" stroke-linejoin="round"/>
<path d="M79.7226 100.52L76.9758 95.6149" stroke="#263238" stroke-miterlimit="10" stroke-linecap="round" stroke-linejoin="round"/>
<path d="M71.8092 115.954L66.2502 116.543" stroke="#263238" stroke-miterlimit="10" stroke-linecap="round" stroke-linejoin="round"/>
<path d="M108.826 94.83C105.032 91.2984 100.324 88.8132 95.0916 87.636" stroke="#263238" stroke-miterlimit="10" stroke-linecap="round" stroke-linejoin="round"/>
<path d="M100.258 143.88C110.918 139.367 118.374 128.838 118.374 116.608C118.374 109.218 115.693 102.482 111.18 97.3152" stroke="#263238" stroke-miterlimit="10" stroke-linecap="round" stroke-linejoin="round"/>
<path d="M69.4548 139.04C74.6214 143.488 81.3576 146.169 88.7478 146.169" stroke="#263238" stroke-miterlimit="10" stroke-linecap="round" stroke-linejoin="round"/>
<path d="M59.5793 122.036C60.5603 127.465 63.1109 132.37 66.6425 136.359" stroke="#263238" stroke-miterlimit="10" stroke-linecap="round" stroke-linejoin="round"/>
<path d="M88.7478 86.9166C72.3978 86.9166 59.1216 100.193 59.1216 116.543" stroke="#263238" stroke-miterlimit="10" stroke-linecap="round" stroke-linejoin="round"/>
<path d="M124.587 276.053C124.587 276.053 117.328 281.024 114.385 280.697C113.992 280.631 113.731 280.566 113.534 280.304C111.638 278.342 110.068 274.876 110.068 274.876C110.068 274.876 110.984 273.634 113.796 276.969L115.562 275.334L111.899 271.606C111.899 271.606 113.992 269.971 117.524 272.064C117.393 271.802 115.104 266.832 116.87 260.096L108.302 251.79L115.758 245.25L116.347 244.727C116.347 244.727 116.804 245.185 117.589 245.904C118.309 246.623 119.355 247.539 120.467 248.52C123.148 250.874 126.418 253.425 127.792 253.425C130.473 253.425 124.587 276.053 124.587 276.053Z" fill="white"/>
<mask id="mask0_3605_4141" style="mask-type:luminance" maskUnits="userSpaceOnUse" x="108" y="244" width="21" height="37">
<path d="M124.587 276.053C124.587 276.053 117.328 281.024 114.385 280.697C113.992 280.631 113.731 280.566 113.534 280.304C111.638 278.342 110.068 274.876 110.068 274.876C110.068 274.876 110.984 273.634 113.796 276.969L115.562 275.334L111.899 271.606C111.899 271.606 113.992 269.971 117.524 272.064C117.393 271.802 115.104 266.832 116.87 260.096L108.302 251.79L115.758 245.25L116.347 244.727C116.347 244.727 116.804 245.185 117.589 245.904C118.309 246.623 119.355 247.539 120.467 248.52C123.148 250.874 126.418 253.425 127.792 253.425C130.473 253.425 124.587 276.053 124.587 276.053Z" fill="white"/>
</mask>
<g mask="url(#mask0_3605_4141)">
<path opacity="0.4" d="M118.897 272.783C118.897 272.783 114.777 277.034 114.319 280.631C113.927 280.566 113.665 280.501 113.469 280.239C111.573 278.277 110.003 274.811 110.003 274.811C110.003 274.811 110.919 273.568 113.731 276.904L115.497 275.269L111.834 271.541C111.834 271.541 113.927 269.906 117.459 271.999C117.328 271.737 115.039 266.767 116.805 260.03L108.237 251.725L115.758 245.25L117.589 245.969C118.309 246.689 119.355 247.604 120.467 248.585C118.832 250.94 115.431 255.845 115.431 255.845L118.44 259.9C118.44 259.834 116.674 270.037 118.897 272.783Z" fill="#92E3A9"/>
</g>
<path d="M124.587 276.053C124.587 276.053 117.328 281.024 114.385 280.697C113.992 280.631 113.731 280.566 113.534 280.304C111.638 278.342 110.068 274.876 110.068 274.876C110.068 274.876 110.984 273.634 113.796 276.969L115.562 275.334L111.899 271.606C111.899 271.606 113.992 269.971 117.524 272.064C117.393 271.802 115.104 266.832 116.87 260.096L108.302 251.79L115.758 245.25L116.347 244.727C116.347 244.727 116.804 245.185 117.589 245.904C118.309 246.623 119.355 247.539 120.467 248.52C123.148 250.874 126.418 253.425 127.792 253.425C130.473 253.425 124.587 276.053 124.587 276.053Z" stroke="#263238" stroke-miterlimit="10" stroke-linecap="round" stroke-linejoin="round"/>
<path d="M115.562 275.334C115.562 275.334 116.216 273.372 117.458 272.064" stroke="#263238" stroke-miterlimit="10" stroke-linecap="round" stroke-linejoin="round"/>
<path d="M251.398 218.371C250.351 219.94 248.978 221.444 247.277 222.818C233.87 233.87 203.002 239.364 203.002 239.364C203.002 239.364 201.955 240.934 200.386 243.092C197.508 247.081 192.865 253.163 189.071 256.172C187.436 257.48 185.998 258.199 184.886 258.003L190.706 279.389L193.322 288.676C193.322 288.676 166.705 300.317 121.186 286.975C121.186 286.975 120.663 281.024 121.055 279.781C121.055 279.716 121.121 279.65 121.121 279.585C121.513 278.539 122.887 277.361 122.887 277.361C122.887 277.361 122.625 273.568 122.494 269.644C122.363 266.636 122.363 263.562 122.56 262.189C122.887 260.227 124.325 255.518 125.045 253.163C125.306 252.313 125.437 251.79 125.437 251.79L123.148 230.6L122.494 224.518C122.494 224.518 122.494 224.387 122.429 224.191C122.429 224.126 122.429 224.126 122.429 224.06L122.102 220.79L110.395 224.387C110.395 224.387 111.049 225.761 111.834 227.657C113.404 231.189 115.627 236.552 116.15 238.645C116.216 238.841 116.216 238.972 116.281 239.168C117.393 242.242 121.513 245.054 121.513 245.054L110.395 258.003L107.125 255.714C107.125 255.714 106.667 256.106 105.817 256.564C103.659 257.741 99.1463 259.442 94.1759 256.826C92.3447 255.845 90.5135 254.341 88.6823 251.986C79.9187 240.672 76.1909 231.451 77.4335 220.594C78.6761 209.738 127.334 176.384 137.013 176.711L151.401 179.915C151.728 179.654 152.578 179 153.167 179C155.783 179.131 155.848 182.139 155.848 182.139L188.09 187.371C188.09 187.371 191.426 185.671 192.014 185.736C193.453 185.801 194.042 187.044 194.042 187.044C194.042 187.044 202.413 182.074 205.094 183.185C213.989 187.109 257.872 208.495 251.398 218.371Z" fill="#DED3FF" stroke="#263238" stroke-miterlimit="10" stroke-linecap="round" stroke-linejoin="round"/>
<path opacity="0.2" d="M139.498 271.344C139.498 271.344 134.528 277.492 125.568 278.931C123.867 279.193 122.363 279.454 121.055 279.716C121.448 278.669 122.821 277.492 122.821 277.492C122.821 277.492 122.559 273.699 122.429 269.775C126.222 272.195 132.827 275.072 139.498 271.344Z" fill="black"/>
<path opacity="0.2" d="M125.045 253.294C125.306 252.444 125.437 251.921 125.437 251.921L123.148 230.731C126.549 235.571 138.582 252.117 146.954 253.948C155.652 255.779 132.369 259.049 125.045 253.294Z" fill="black"/>
<path opacity="0.2" d="M190.641 279.454C181.55 278.408 168.667 276.119 167.424 271.345C165.397 263.889 175.141 259.442 189.006 256.172C187.371 257.48 185.932 258.199 184.82 258.003L190.641 279.454Z" fill="black"/>
<path opacity="0.2" d="M247.277 222.818C233.87 233.87 203.001 239.364 203.001 239.364C203.001 239.364 201.955 240.934 200.385 243.092C197.769 237.01 194.042 224.387 198.423 208.888C198.423 208.888 200.778 221.771 210.653 224.845C210.653 224.845 203.067 219.221 205.748 205.683C205.748 205.683 208.299 221.641 225.107 226.022C233.216 228.181 241.195 225.826 247.277 222.818Z" fill="black"/>
<path opacity="0.2" d="M122.494 224.256L122.102 220.856L110.395 224.453C110.395 224.453 111.049 225.826 111.834 227.723C107.387 227.265 98.8847 231.45 97.3805 226.872C95.6147 221.379 106.602 223.275 106.602 223.275L117 217.259C115.038 208.887 120.009 202.544 120.009 202.544L120.99 208.364C121.448 197.246 125.764 191.164 125.764 191.164C122.167 199.993 122.232 221.64 122.494 224.256Z" fill="black"/>
<path opacity="0.2" d="M121.513 245.119L110.395 258.068L107.125 255.779C107.125 255.779 106.667 256.172 105.817 256.629C103.659 257.807 99.1463 259.507 94.1759 256.891C97.7729 251.921 105.163 244.596 113.992 241.784C113.992 241.784 110.33 247.081 108.106 251.855L110.395 254.079C110.461 254.079 116.15 247.604 121.513 245.119Z" fill="black"/>
<path opacity="0.2" d="M148.458 188.09C148.458 189.202 147.738 202.217 157.156 205.618C166.574 209.018 174.945 203.263 174.945 203.263C174.945 203.263 160.491 217.193 151.662 209.738C142.899 202.217 148.458 188.09 148.458 188.09Z" fill="black"/>
<path d="M121.121 287.106C121.121 287.106 120.598 281.154 120.99 279.912C121.317 278.865 122.821 277.492 122.821 277.492C122.821 277.492 122.036 265.459 122.56 262.319C123.017 259.638 125.437 251.921 125.437 251.921L122.102 220.856L110.395 224.453C110.395 224.453 115.366 235.44 116.15 238.775C116.935 242.045 121.513 245.184 121.513 245.184L110.395 258.134L107.125 255.845C107.125 255.845 97.4459 263.431 88.6823 252.117C79.9187 240.803 76.1909 231.581 77.4335 220.725C78.6761 209.868 127.399 176.514 137.013 176.841L151.401 180.046C151.728 179.784 152.578 179.13 153.167 179.13C155.783 179.261 155.848 182.27 155.848 182.27L188.025 187.502C188.025 187.502 191.36 185.801 191.949 185.867C193.388 185.932 193.976 187.175 193.976 187.175C193.976 187.175 202.348 182.204 205.029 183.316C213.858 187.109 257.807 208.495 251.267 218.37C241.98 232.431 202.871 239.364 202.871 239.364C202.871 239.364 189.856 258.984 184.755 258.068L193.126 288.741" stroke="#263238" stroke-miterlimit="10" stroke-linecap="round" stroke-linejoin="round"/>
<path d="M217.324 220.529C232.105 230.273 244.007 228.508 253.36 215.951C253.36 215.951 261.142 205.945 260.554 195.154C260.03 184.363 257.414 149.112 223.799 158.137C218.24 159.641 205.356 176.907 204.244 181.681C203.721 183.839 198.554 194.892 193.519 206.402" fill="#DED3FF"/>
<path d="M217.324 220.529C232.105 230.273 244.007 228.508 253.36 215.951C253.36 215.951 261.142 205.945 260.554 195.154C260.03 184.363 257.414 149.112 223.799 158.137C218.24 159.641 205.356 176.907 204.244 181.681C203.721 183.839 198.554 194.892 193.519 206.402" stroke="#263238" stroke-miterlimit="10" stroke-linecap="round" stroke-linejoin="round"/>
<path d="M177.365 117.066C177.365 117.066 186.782 115.627 193.322 121.513C201.563 128.903 210.849 148.85 197.639 181.943C197.639 181.943 178.084 168.994 144.73 177.626C144.73 177.626 147.608 169.844 142.572 145.45C140.283 134.397 146.038 108.956 177.365 117.066Z" fill="#263238"/>
<path d="M163.042 200.059C176.972 202.348 191.818 186.913 191.818 186.913C191.818 186.913 184.232 185.998 183.578 182.401C181.42 171.152 190.118 157.287 190.118 157.287C190.118 157.287 156.306 158.268 162.192 165.92C163.435 167.555 164.285 169.059 164.873 170.498C166.901 175.534 165.527 179.327 164.416 180.242C164.35 180.308 164.219 180.373 164.154 180.439C162.127 181.354 153.69 179.981 153.69 179.981C153.69 179.981 150.355 198.031 163.042 200.059Z" fill="white" stroke="#263238" stroke-miterlimit="10" stroke-linecap="round" stroke-linejoin="round"/>
<path d="M187.044 191.164C187.044 191.164 180.635 193.715 171.217 192.995L166.966 195.088" stroke="#263238" stroke-miterlimit="10" stroke-linecap="round" stroke-linejoin="round"/>
<path d="M162.715 194.761L162.388 191.949C162.388 191.949 155.456 189.791 153.298 185.671" stroke="#263238" stroke-miterlimit="10" stroke-linecap="round" stroke-linejoin="round"/>
<path d="M164.416 180.308C174.749 182.989 179.654 169.713 179.654 169.713C179.654 169.713 171.348 167.228 164.873 170.498C166.966 175.599 165.527 179.392 164.416 180.308Z" fill="#263238"/>
<path d="M190.706 150.355C193.257 136.228 190.445 119.224 168.863 120.598C153.494 121.579 153.625 138.452 154.606 143.488C156.306 151.99 153.886 155.325 156.502 162.388C158.399 167.489 162.781 173.245 168.013 175.337C171.217 176.645 184.101 167.62 185.082 163.435" fill="white"/>
<path d="M190.706 150.355C193.257 136.228 190.445 119.224 168.863 120.598C153.494 121.579 153.625 138.452 154.606 143.488C156.306 151.99 153.886 155.325 156.502 162.388C158.399 167.489 162.781 173.245 168.013 175.337C171.217 176.645 184.101 167.62 185.082 163.435" stroke="#263238" stroke-miterlimit="10" stroke-linecap="round" stroke-linejoin="round"/>
<path d="M163.631 146.169C163.5 147.739 163.304 151.663 159.968 154.606C157.81 156.502 162.781 158.399 162.781 158.399" stroke="#263238" stroke-miterlimit="10" stroke-linecap="round" stroke-linejoin="round"/>
<path d="M160.099 140.545C160.099 140.545 155.325 138.256 152.12 142.049" stroke="#263238" stroke-miterlimit="10" stroke-linecap="round" stroke-linejoin="round"/>
<path d="M168.078 140.283C168.078 140.283 172.656 138.648 178.215 140.675" stroke="#263238" stroke-miterlimit="10" stroke-linecap="round" stroke-linejoin="round"/>
<path d="M172.983 146.954C173.114 148.327 174.029 149.308 175.01 149.243C175.991 149.112 176.645 147.935 176.515 146.561C176.384 145.188 175.468 144.207 174.487 144.272C173.506 144.403 172.852 145.58 172.983 146.954Z" fill="#263238"/>
<path d="M163.042 162.846C168.994 162.127 173.702 158.987 173.702 158.987C173.702 158.987 174.16 164.939 169.19 166.181C165.397 167.097 163.892 162.78 163.892 162.78" stroke="#263238" stroke-miterlimit="10" stroke-linecap="round" stroke-linejoin="round"/>
<path d="M177.038 126.026C177.038 126.026 175.664 142.768 190.51 148.916L197.443 132.827L186.979 121.186L171.152 116.608C147.542 118.112 137.34 132.762 150.485 171.871C150.42 171.806 146.758 125.241 177.038 126.026Z" fill="#263238"/>
<path d="M187.24 149.57C187.044 147.673 191.818 142.899 193.388 145.973C196.134 151.205 194.107 155.783 191.295 157.614C190.052 158.399 188.417 159.903 187.24 158.53" fill="white"/>
<path d="M187.24 149.57C187.044 147.673 191.818 142.899 193.388 145.973C196.134 151.205 194.107 155.783 191.295 157.614C190.052 158.399 188.417 159.903 187.24 158.53" stroke="#263238" stroke-miterlimit="10" stroke-linecap="round" stroke-linejoin="round"/>
<path d="M158.595 147.542C158.726 148.916 159.641 149.897 160.622 149.831C161.603 149.701 162.257 148.523 162.127 147.15C161.996 145.777 161.08 144.796 160.099 144.861C159.118 144.992 158.464 146.234 158.595 147.542Z" fill="#263238"/>
<g opacity="0.2">
<path d="M148.327 144.796C148.131 145.907 148 147.085 147.935 148.262" stroke="white" stroke-miterlimit="10" stroke-linecap="round" stroke-linejoin="round"/>
<path d="M174.553 122.952C162.584 122.625 151.466 130.277 148.85 142.245" stroke="white" stroke-miterlimit="10" stroke-linecap="round" stroke-linejoin="round"/>
<path d="M172.394 119.551C172.394 119.551 155.129 115.496 148.654 126.941" stroke="white" stroke-miterlimit="10" stroke-linecap="round" stroke-linejoin="round"/>
<path d="M186.455 139.498C187.502 140.937 188.744 142.31 190.183 143.422" stroke="white" stroke-miterlimit="10" stroke-linecap="round" stroke-linejoin="round"/>
<path d="M179.588 121.775C180.504 127.138 182.27 132.631 185.082 137.34" stroke="white" stroke-miterlimit="10" stroke-linecap="round" stroke-linejoin="round"/>
<path d="M196.919 173.702C196.592 175.076 196.265 176.449 195.873 177.757" stroke="white" stroke-miterlimit="10" stroke-linecap="round" stroke-linejoin="round"/>
<path d="M195.938 150.878C198.751 157.091 198.554 164.808 197.377 171.348" stroke="white" stroke-miterlimit="10" stroke-linecap="round" stroke-linejoin="round"/>
<path d="M193.846 161.734C193.846 161.734 194.696 168.667 189.006 174.553" stroke="white" stroke-miterlimit="10" stroke-linecap="round" stroke-linejoin="round"/>
<path d="M185.932 123.802C188.875 127.792 191.033 132.043 194.434 135.64C198.031 139.433 201.628 143.815 202.282 149.177" stroke="white" stroke-miterlimit="10" stroke-linecap="round" stroke-linejoin="round"/>
<path d="M181.747 119.682C182.597 120.205 183.382 120.859 184.036 121.644" stroke="white" stroke-miterlimit="10" stroke-linecap="round" stroke-linejoin="round"/>
</g>
<path d="M240.803 211.765C240.476 211.83 240.083 211.896 239.756 211.961C230.47 213.269 220.136 205.617 216.605 196.396C213.858 189.137 216.278 180.831 217.586 177.299C217.978 176.188 218.305 175.533 218.305 175.533C223.864 167.555 256.368 183.185 256.76 191.753C257.087 200.32 250.286 209.672 240.803 211.765Z" fill="#263238" stroke="#263238" stroke-miterlimit="10" stroke-linecap="round" stroke-linejoin="round"/>
<path d="M250.94 192.93C250.94 192.93 249.109 206.599 239.756 211.961C230.47 213.269 220.136 205.618 216.605 196.396C213.858 189.137 216.278 180.831 217.586 177.299C228.508 171.021 250.94 192.93 250.94 192.93Z" fill="white"/>
<mask id="mask1_3605_4141" style="mask-type:luminance" maskUnits="userSpaceOnUse" x="215" y="176" width="36" height="37">
<path d="M250.94 192.93C250.94 192.93 249.109 206.599 239.756 211.961C230.47 213.269 220.136 205.618 216.605 196.396C213.858 189.137 216.278 180.831 217.586 177.299C228.508 171.021 250.94 192.93 250.94 192.93Z" fill="white"/>
</mask>
<g mask="url(#mask1_3605_4141)">
<path opacity="0.4" d="M250.94 192.93C250.94 192.93 249.109 206.599 239.756 211.961C230.47 213.269 220.136 205.618 216.605 196.396C213.858 189.137 216.278 180.831 217.586 177.299C228.508 171.021 250.94 192.93 250.94 192.93Z" fill="#92E3A9"/>
</g>
<path d="M250.94 192.93C250.94 192.93 249.109 206.599 239.756 211.961C230.47 213.269 220.136 205.618 216.605 196.396C213.858 189.137 216.278 180.831 217.586 177.299C228.508 171.021 250.94 192.93 250.94 192.93Z" stroke="#263238" stroke-miterlimit="10" stroke-linecap="round" stroke-linejoin="round"/>
<path d="M212.681 200.124C212.681 200.124 223.21 215.231 235.505 216.539C247.8 217.782 255.714 207.449 256.172 199.601" stroke="#263238" stroke-miterlimit="10" stroke-linecap="round" stroke-linejoin="round"/>
<path d="M206.729 131.781C207.645 129.165 214.316 130.081 216.408 138.125C218.501 146.234 226.807 165.854 226.807 165.854C226.807 165.854 259.834 117.197 265.785 115.366C271.737 113.469 269.382 121.906 261.469 133.612C261.469 133.612 268.859 132.304 270.821 133.612C272.783 134.92 271.802 142.768 272.849 145.515C274.614 150.158 270.756 151.074 270.756 151.074C270.756 151.074 273.764 151.074 275.922 153.036C278.015 154.998 276.969 163.238 277.557 165.593C278.146 167.947 274.091 169.909 274.091 169.909C274.091 169.909 283.836 175.207 281.612 176.58C277.884 178.804 275.792 176.515 275.792 176.515C275.792 176.515 260.815 195.35 249.501 199.535C238.187 203.721 216.212 187.109 213.858 178.019C211.503 168.928 214.316 169.517 212.55 154.409C210.849 139.302 206.729 131.781 206.729 131.781Z" fill="white" stroke="#263238" stroke-miterlimit="10" stroke-linecap="round" stroke-linejoin="round"/>
<path d="M254.929 101.959L211.373 113.273C209.803 113.665 208.887 115.235 209.28 116.804L229.881 195.742C230.273 197.312 231.843 198.227 233.412 197.835L276.969 186.521C278.538 186.128 279.454 184.559 279.062 182.989L258.461 103.986C258.068 102.482 256.499 101.566 254.929 101.959Z" fill="white" stroke="#263238" stroke-miterlimit="10" stroke-linecap="round" stroke-linejoin="round"/>
<path d="M230.012 110.984C230.142 111.376 229.881 111.769 229.488 111.834C229.096 111.965 228.704 111.703 228.638 111.311C228.507 110.918 228.769 110.526 229.161 110.461C229.488 110.395 229.881 110.591 230.012 110.984Z" fill="#92E3A9" stroke="#263238" stroke-miterlimit="10" stroke-linecap="round" stroke-linejoin="round"/>
<path d="M238.971 108.629C239.037 108.891 238.906 109.087 238.644 109.153C238.383 109.218 238.187 109.087 238.121 108.826C238.056 108.564 238.187 108.368 238.448 108.302C238.644 108.302 238.906 108.433 238.971 108.629Z" fill="#92E3A9" stroke="#263238" stroke-miterlimit="10" stroke-linecap="round" stroke-linejoin="round"/>
<path d="M236.617 109.545L231.385 110.918C231.254 110.918 231.189 110.853 231.124 110.788V110.722C231.124 110.591 231.189 110.526 231.254 110.461L236.486 109.087C236.617 109.087 236.683 109.153 236.748 109.218V109.283C236.813 109.414 236.748 109.48 236.617 109.545Z" fill="#92E3A9" stroke="#263238" stroke-miterlimit="10" stroke-linecap="round" stroke-linejoin="round"/>
<path d="M257.153 104.836L277.558 183.12C277.819 184.036 277.231 184.951 276.315 185.213L233.347 196.396C232.432 196.658 231.516 196.069 231.254 195.154L210.85 116.87C210.588 115.954 211.177 115.039 212.092 114.777L220.921 112.488C221.51 112.357 222.098 112.553 222.491 113.077L223.145 113.992C223.472 114.515 224.126 114.712 224.714 114.581L244.073 109.545C244.661 109.414 245.054 108.891 245.119 108.302L245.25 107.191C245.315 106.602 245.708 106.079 246.296 105.948L255.125 103.659C255.976 103.332 256.957 103.921 257.153 104.836Z" fill="#808080" stroke="#263238" stroke-miterlimit="10" stroke-linecap="round" stroke-linejoin="round"/>
<path d="M258.681 148.755C262.68 139.546 258.457 128.838 249.247 124.838C240.037 120.839 229.329 125.063 225.329 134.272C221.33 143.482 225.554 154.19 234.764 158.19C243.973 162.189 254.682 157.965 258.681 148.755Z" fill="white" stroke="#263238" stroke-miterlimit="10" stroke-linecap="round" stroke-linejoin="round"/>
<path d="M234.524 151.924C234.851 152.709 235.701 153.036 236.486 152.84L242.438 151.139C242.438 151.27 242.503 151.401 242.503 151.532C242.895 152.84 244.269 153.625 245.577 153.232C246.885 152.84 247.67 151.466 247.277 150.158C247.212 150.028 247.212 149.897 247.146 149.766L253.098 148.066C253.883 147.869 254.406 147.085 254.275 146.234C254.079 145.319 253.163 144.796 252.313 144.992L251.79 144.665C250.678 144.011 249.893 142.964 249.566 141.787L248.454 137.863C247.473 134.462 244.138 132.435 240.737 132.893C241.195 132.435 241.391 131.716 241.195 131.062C240.933 130.081 239.887 129.492 238.841 129.754C237.86 130.015 237.271 131.062 237.533 132.108C237.729 132.762 238.252 133.22 238.906 133.416C235.767 134.789 234.066 138.321 235.047 141.722L236.225 145.711C236.617 147.085 236.421 148.654 235.636 149.831C234.655 150.093 234.197 151.074 234.524 151.924ZM240.41 131.323C240.606 131.912 240.214 132.5 239.625 132.697C239.037 132.893 238.448 132.5 238.252 131.912C238.056 131.323 238.448 130.735 239.037 130.538C239.625 130.408 240.214 130.735 240.41 131.323Z" fill="#DED3FF" stroke="#263238" stroke-miterlimit="10" stroke-linecap="round" stroke-linejoin="round"/>
<path d="M246.034 149.897L243.418 150.616" stroke="#263238" stroke-miterlimit="10" stroke-linecap="round" stroke-linejoin="round"/>
<path d="M249.893 145.646L237.86 149.177" stroke="#263238" stroke-miterlimit="10" stroke-linecap="round" stroke-linejoin="round"/>
<path d="M262.516 170.04L237.991 176.449C235.048 177.234 232.039 175.468 231.254 172.525C230.47 169.582 232.235 166.574 235.178 165.789L259.703 159.38C262.646 158.595 265.655 160.361 266.44 163.304C267.224 166.247 265.459 169.255 262.516 170.04Z" fill="#263238"/>
<path d="M203.001 239.364C203.001 239.364 195.546 222.033 199.339 201.105" stroke="#263238" stroke-miterlimit="10" stroke-linecap="round" stroke-linejoin="round"/>
<path d="M184.886 258.068C184.886 258.068 169.844 262.646 168.339 266.113C166.835 269.579 175.076 266.636 175.076 266.636" stroke="#263238" stroke-miterlimit="10" stroke-linecap="round" stroke-linejoin="round"/>
<path d="M194.107 187.109C194.107 187.109 180.242 200.843 171.021 204.506" stroke="#263238" stroke-miterlimit="10" stroke-linecap="round" stroke-linejoin="round"/>
<path d="M148.785 183.447C148.785 183.447 146.234 201.955 155.652 205.487" stroke="#263238" stroke-miterlimit="10" stroke-linecap="round" stroke-linejoin="round"/>
<path d="M122.102 220.856C122.102 220.856 122.036 196.592 126.876 189.071" stroke="#263238" stroke-miterlimit="10" stroke-linecap="round" stroke-linejoin="round"/>
<path d="M120.336 196.135C120.336 196.135 118.962 211.242 122.036 216.147" stroke="#263238" stroke-miterlimit="10" stroke-linecap="round" stroke-linejoin="round"/>
<path d="M110.395 224.453C110.395 224.453 99.8657 220.856 97.7075 225.303C95.5493 229.75 103.986 225.826 103.986 225.826" stroke="#263238" stroke-miterlimit="10" stroke-linecap="round" stroke-linejoin="round"/>
<path d="M116.739 240.149C116.739 240.149 106.406 245.969 105.883 249.305" stroke="#263238" stroke-miterlimit="10" stroke-linecap="round" stroke-linejoin="round"/>
<path d="M133.612 224.06C133.612 224.06 153.363 253.948 164.285 251.201" stroke="#263238" stroke-miterlimit="10" stroke-linecap="round" stroke-linejoin="round"/>
<path d="M147.15 265.982C147.15 265.982 131.65 277.361 129.361 276.38" stroke="#263238" stroke-miterlimit="10" stroke-linecap="round" stroke-linejoin="round"/>
<path opacity="0.2" d="M255.779 217.455C256.826 216.605 257.545 216.016 257.741 215.82C257.545 216.082 256.826 216.67 255.779 217.455Z" fill="black"/>
<path d="M239.102 171.675L238.448 171.871L237.075 170.432L237.533 172.133L236.879 172.329L236.159 169.648L236.813 169.451L238.187 170.89L237.729 169.19L238.383 168.994L239.102 171.675Z" fill="white"/>
<path d="M241.457 169.713C241.522 169.975 241.522 170.236 241.522 170.432C241.457 170.629 241.391 170.825 241.195 171.021C241.064 171.152 240.868 171.283 240.607 171.348C240.345 171.413 240.149 171.413 239.953 171.348C239.756 171.283 239.56 171.152 239.429 171.021C239.299 170.825 239.168 170.629 239.102 170.367L239.037 170.236C238.972 169.975 238.972 169.713 238.972 169.517C239.037 169.321 239.102 169.124 239.299 168.928C239.429 168.797 239.626 168.667 239.887 168.601C240.149 168.536 240.345 168.536 240.541 168.601C240.737 168.667 240.934 168.797 241.064 168.928C241.195 169.059 241.326 169.321 241.391 169.582L241.457 169.713ZM240.737 169.713C240.672 169.451 240.541 169.255 240.476 169.124C240.345 168.994 240.214 168.994 240.018 168.994C239.691 169.059 239.56 169.386 239.691 169.844L239.756 170.04C239.822 170.302 239.953 170.498 240.018 170.629C240.149 170.759 240.28 170.759 240.476 170.759C240.672 170.694 240.737 170.629 240.803 170.432C240.868 170.302 240.868 170.04 240.803 169.778L240.737 169.713Z" fill="white"/>
<path d="M243.484 168.209L242.699 168.405L243.288 170.629L242.634 170.825L242.045 168.601L241.261 168.797L241.13 168.274L243.419 167.686L243.484 168.209Z" fill="white"/>
<path d="M245.054 170.171L244.4 170.367L243.68 167.686L244.334 167.489L245.054 170.171Z" fill="white"/>
<path d="M246.95 168.536L245.904 168.797L246.166 169.844L245.512 170.04L244.792 167.359L246.623 166.901L246.754 167.424L245.577 167.751L245.708 168.405L246.754 168.143L246.95 168.536Z" fill="white"/>
<path d="M248.258 169.321L247.604 169.517L246.885 166.835L247.539 166.639L248.258 169.321Z" fill="white"/>
<path d="M250.678 167.751C250.744 167.947 250.678 168.143 250.678 168.274C250.613 168.47 250.548 168.601 250.351 168.732C250.221 168.863 250.024 168.928 249.828 168.994C249.501 169.059 249.174 169.059 248.913 168.863C248.651 168.667 248.455 168.405 248.324 167.947L248.259 167.816C248.193 167.555 248.193 167.293 248.193 167.097C248.259 166.901 248.324 166.705 248.455 166.508C248.586 166.378 248.782 166.247 249.043 166.181C249.37 166.116 249.632 166.116 249.894 166.247C250.155 166.378 250.286 166.574 250.417 166.901L249.763 167.097C249.697 166.966 249.632 166.835 249.567 166.77C249.501 166.705 249.37 166.705 249.174 166.77C249.043 166.835 248.913 166.901 248.847 167.032C248.782 167.162 248.782 167.359 248.847 167.62L248.913 167.816C248.978 168.078 249.043 168.274 249.174 168.405C249.305 168.536 249.436 168.536 249.567 168.47C249.697 168.405 249.828 168.34 249.894 168.274C249.959 168.209 249.959 168.078 249.959 167.882L250.678 167.751Z" fill="white"/>
<path d="M252.64 167.686L251.725 167.947V168.47L251.005 168.667L251.332 165.724L251.921 165.593L253.621 168.013L252.902 168.209L252.64 167.686ZM251.725 167.359L252.313 167.228L251.79 166.378L251.725 167.359Z" fill="white"/>
<path d="M255.779 166.443C255.845 166.639 255.779 166.835 255.779 166.966C255.714 167.162 255.649 167.293 255.452 167.424C255.322 167.555 255.125 167.62 254.929 167.685C254.602 167.751 254.275 167.751 254.014 167.555C253.752 167.358 253.556 167.097 253.425 166.639L253.36 166.508C253.294 166.247 253.294 165.985 253.294 165.789C253.36 165.593 253.425 165.396 253.556 165.2C253.687 165.069 253.883 164.939 254.144 164.873C254.471 164.808 254.733 164.808 254.995 164.939C255.256 165.069 255.387 165.266 255.518 165.593L254.864 165.789C254.798 165.658 254.733 165.527 254.668 165.462C254.602 165.396 254.471 165.396 254.275 165.462C254.144 165.527 254.014 165.593 253.948 165.723C253.883 165.854 253.883 166.05 253.948 166.312L254.014 166.508C254.079 166.77 254.144 166.966 254.275 167.097C254.406 167.228 254.537 167.228 254.668 167.162C254.798 167.097 254.929 167.031 254.995 166.966C255.06 166.901 255.06 166.77 255.06 166.574L255.779 166.443ZM255.125 167.555V167.685C255.322 167.685 255.452 167.751 255.518 167.947C255.583 168.078 255.518 168.209 255.452 168.339C255.322 168.47 255.191 168.536 254.995 168.601L254.864 168.274C254.995 168.274 254.995 168.209 254.995 168.078C254.995 168.012 254.929 168.012 254.929 168.012C254.864 168.012 254.798 168.012 254.733 168.012V167.751L255.125 167.555Z" fill="white"/>
<path d="M257.676 166.378L256.76 166.639V167.162L256.041 167.359L256.368 164.416L256.957 164.285L258.657 166.705L257.938 166.901L257.676 166.378ZM257.218 163.369C257.284 163.5 257.218 163.631 257.218 163.762C257.153 163.892 257.087 163.958 256.957 163.958C256.891 163.958 256.76 163.958 256.695 163.958C256.564 163.958 256.499 163.958 256.433 163.958C256.368 163.958 256.368 163.958 256.368 164.023C256.368 164.089 256.368 164.089 256.368 164.154L256.041 164.219C255.976 164.089 256.041 163.958 256.041 163.827C256.106 163.696 256.172 163.631 256.303 163.631C256.368 163.631 256.433 163.631 256.564 163.631C256.695 163.631 256.76 163.631 256.76 163.631H256.826C256.891 163.631 256.891 163.631 256.891 163.565C256.891 163.5 256.891 163.5 256.891 163.435L257.218 163.369ZM256.826 166.051L257.414 165.92L256.891 165.07L256.826 166.051Z" fill="white"/>
<path d="M260.815 164.677C260.881 164.939 260.881 165.2 260.881 165.396C260.815 165.593 260.75 165.789 260.554 165.985C260.423 166.116 260.227 166.247 259.965 166.312C259.703 166.377 259.507 166.377 259.311 166.312C259.115 166.247 258.919 166.116 258.788 165.985C258.657 165.789 258.526 165.593 258.461 165.331L258.395 165.2C258.33 164.939 258.33 164.677 258.33 164.481C258.395 164.285 258.461 164.088 258.657 163.892C258.788 163.761 258.984 163.631 259.246 163.565C259.442 163.5 259.703 163.5 259.9 163.565C260.096 163.631 260.292 163.761 260.423 163.892C260.554 164.023 260.684 164.285 260.75 164.546L260.815 164.677ZM260.161 164.742C260.096 164.481 259.965 164.285 259.9 164.154C259.769 164.023 259.638 164.023 259.442 164.023C259.115 164.088 258.984 164.415 259.115 164.873L259.18 165.069C259.246 165.331 259.376 165.527 259.442 165.658C259.573 165.789 259.703 165.789 259.9 165.789C260.096 165.723 260.161 165.658 260.227 165.462C260.292 165.266 260.292 165.069 260.227 164.808L260.161 164.742Z" fill="white"/>
</svg>
