<svg width="327" height="283" viewBox="0 0 327 283" fill="none" xmlns="http://www.w3.org/2000/svg">
<path d="M77.3869 37.1055C77.3869 37.1055 40.9335 70.9197 30.1339 109.283C19.3344 147.645 34.955 187.916 71.692 210.204C108.429 232.493 157.445 213.139 206.192 219.507C254.94 225.875 300.146 207.725 306.179 160.961C312.211 114.198 276.945 108.138 255.683 62.6514C234.422 17.1647 165.156 -37.8595 77.3869 37.1055Z" fill="#DAD2FF"/>
<path opacity="0.7" d="M77.3869 37.1055C77.3869 37.1055 40.9335 70.9197 30.1339 109.283C19.3344 147.645 34.955 187.916 71.692 210.204C108.429 232.493 157.445 213.139 206.192 219.507C254.94 225.875 300.146 207.725 306.179 160.961C312.211 114.198 276.945 108.138 255.683 62.6514C234.422 17.1647 165.156 -37.8595 77.3869 37.1055Z" fill="#1EE0CC"/>
<path d="M312.763 126.854C312.763 126.854 312.763 123.772 308.256 119.451C303.749 115.13 300.844 112.672 300.844 112.672C300.844 112.672 298.59 119.759 302.775 124.08C305.85 127.113 309.183 129.896 312.74 132.4L312.763 126.854Z" fill="#DAD2FF"/>
<path d="M306.217 146.105C306.217 146.105 306.217 143.023 301.71 138.709C297.203 134.396 294.306 131.923 294.306 131.923C294.306 131.923 292.006 139.018 296.237 143.331C299.311 146.366 302.644 149.149 306.202 151.651L306.217 146.105Z" fill="#DAD2FF"/>
<path d="M312.479 132.107C312.479 132.107 312.816 129.04 317.783 125.203C322.75 121.366 325.892 119.209 325.892 119.209C325.892 119.209 327.356 126.487 322.711 130.353C319.313 133.059 315.686 135.488 311.866 137.616L312.479 132.107Z" fill="#DAD2FF"/>
<path d="M304.577 154.843C304.577 154.843 305.251 151.827 310.601 148.511C315.951 145.195 319.331 143.375 319.331 143.375C319.331 143.375 319.983 150.763 314.947 154.146C311.268 156.494 307.392 158.545 303.358 160.279L304.577 154.843Z" fill="#DAD2FF"/>
<path d="M306.064 179.633C306.064 179.633 306.064 176.544 310.571 172.23C315.077 167.916 317.975 165.451 317.975 165.451C317.975 165.451 320.228 172.538 316.043 176.852C312.971 179.89 309.638 182.675 306.079 185.179L306.064 179.633Z" fill="#DAD2FF"/>
<path d="M305.987 185.678C305.987 185.678 306.439 182.626 302.622 177.74C298.805 172.854 296.299 170.022 296.299 170.022C296.299 170.022 293.011 176.735 296.513 181.577C299.11 185.001 302.002 188.211 305.159 191.173L305.987 185.678Z" fill="#DAD2FF"/>
<path d="M301.542 203.645C301.542 203.645 301.542 200.564 306.048 196.25C310.555 191.936 313.452 189.471 313.452 189.471C313.452 189.471 315.714 196.558 311.521 200.872C308.449 203.91 305.116 206.695 301.557 209.199L301.542 203.645Z" fill="#DAD2FF"/>
<path d="M304.531 219.874C304.531 219.874 303.711 216.888 306.93 211.62C310.149 206.353 312.295 203.264 312.295 203.264C312.295 203.264 316.35 209.573 313.445 214.768C311.266 218.449 308.772 221.951 305.987 225.237L304.531 219.874Z" fill="#DAD2FF"/>
<path d="M313.169 126.061C312.943 129.272 312.531 132.468 311.935 135.635C310.157 144.439 305.696 150.133 303.917 158.1C302.139 166.068 307.252 176.317 305.88 186.544C304.508 196.771 300.353 202.457 301.541 209.287C302.729 216.118 309.106 235.259 309.106 235.259" stroke="#263238" stroke-width="0.75" stroke-linecap="round" stroke-linejoin="round"/>
<path d="M312.433 134.153L317.293 130.581" stroke="#263238" stroke-width="0.75" stroke-linecap="round" stroke-linejoin="round"/>
<path d="M312.663 130.045L310.624 126.582" stroke="#263238" stroke-width="0.75" stroke-linecap="round" stroke-linejoin="round"/>
<path d="M304.186 157.733C304.186 157.733 308.256 154.799 312.433 151.864" stroke="#263238" stroke-width="0.75" stroke-linecap="round" stroke-linejoin="round"/>
<path d="M306.002 151.108C304.02 147.547 301.671 144.185 298.989 141.072" stroke="#263238" stroke-width="0.75" stroke-linecap="round" stroke-linejoin="round"/>
<path d="M306.217 184.013C308.54 179.916 311.473 176.164 314.924 172.876" stroke="#263238" stroke-width="0.75" stroke-linecap="round" stroke-linejoin="round"/>
<path d="M305.427 188.341C304.194 185.56 302.72 182.883 301.02 180.337C298.652 176.984 298.307 176.551 298.307 176.551" stroke="#263238" stroke-width="0.75" stroke-linecap="round" stroke-linejoin="round"/>
<path d="M301.542 209.28C302.57 206.828 303.795 204.456 305.205 202.185C306.614 200.081 308.2 198.091 309.95 196.235" stroke="#263238" stroke-width="0.75" stroke-linecap="round" stroke-linejoin="round"/>
<path d="M306.018 225.237C305.783 222.899 306.204 220.544 307.236 218.414C308.93 215.274 310.854 211.165 311.644 209.544" stroke="#263238" stroke-width="0.75" stroke-linecap="round" stroke-linejoin="round"/>
<path d="M283.238 168.034C283.238 168.034 282.886 166.104 285.223 162.898C287.561 159.692 289.102 157.873 289.102 157.873C289.102 157.873 291.317 162.091 289.186 165.209C287.597 167.433 285.818 169.526 283.867 171.467L283.238 168.034Z" fill="#DAD2FF"/>
<path d="M289.523 179.435C289.523 179.435 289.178 177.505 291.516 174.299C293.854 171.093 295.387 169.274 295.387 169.274C295.387 169.274 297.61 173.485 295.471 176.61C293.883 178.832 292.104 180.923 290.152 182.861L289.523 179.435Z" fill="#DAD2FF"/>
<path d="M284.012 171.298C284.012 171.298 283.453 169.413 279.904 167.52C276.355 165.627 274.133 164.585 274.133 164.585C274.133 164.585 274.048 169.303 277.398 171.24C279.835 172.587 282.386 173.735 285.024 174.673L284.012 171.298Z" fill="#DAD2FF"/>
<path d="M291.547 184.732C291.547 184.732 290.78 182.912 287.048 181.394C283.315 179.875 280.992 179.075 280.992 179.075C280.992 179.075 281.422 183.771 284.963 185.37C287.536 186.461 290.2 187.344 292.926 188.011L291.547 184.732Z" fill="#DAD2FF"/>
<path d="M293.424 200.432C293.424 200.432 293.08 198.502 289.761 196.265C286.442 194.027 284.342 192.78 284.342 192.78C284.342 192.78 283.736 197.461 286.848 199.735C289.126 201.316 291.535 202.715 294.053 203.917L293.424 200.432Z" fill="#DAD2FF"/>
<path d="M294.16 204.218C294.16 204.218 293.524 202.354 295.371 198.891C297.218 195.428 298.437 193.396 298.437 193.396C298.437 193.396 301.258 197.262 299.61 200.659C298.371 203.077 296.922 205.391 295.279 207.578L294.16 204.218Z" fill="#DAD2FF"/>
<path d="M299.817 219.786C299.817 219.786 300.054 217.834 303.228 215.384C306.401 212.933 308.424 211.613 308.424 211.613C308.424 211.613 309.313 216.25 306.339 218.685C304.163 220.393 301.84 221.922 299.395 223.256L299.817 219.786Z" fill="#DAD2FF"/>
<path d="M298.982 215.002C298.982 215.002 298.629 213.073 295.318 210.835C292.007 208.598 289.899 207.35 289.899 207.35C289.899 207.35 289.293 212.031 292.405 214.298C294.68 215.885 297.09 217.286 299.61 218.487L298.982 215.002Z" fill="#DAD2FF"/>
<path d="M298.936 225.516C298.936 225.516 299.112 223.557 296.49 220.585C293.869 217.614 292.175 215.905 292.175 215.905C292.175 215.905 290.351 220.307 292.765 223.241C294.546 225.325 296.508 227.262 298.629 229.03L298.936 225.516Z" fill="#DAD2FF"/>
<path d="M282.893 167.586C283.402 169.573 284.021 171.532 284.748 173.455C286.871 178.796 290.305 181.9 292.329 186.713C294.352 191.525 292.329 198.451 294.321 204.753C296.314 211.055 299.595 214.151 299.625 218.553C299.656 222.955 297.839 235.193 297.839 235.193" stroke="#263238" stroke-width="0.75" stroke-linecap="round" stroke-linejoin="round"/>
<path d="M284.273 172.582L280.816 170.844" stroke="#263238" stroke-width="0.75" stroke-linecap="round" stroke-linejoin="round"/>
<path d="M283.66 170.022L284.549 167.645" stroke="#263238" stroke-width="0.75" stroke-linecap="round" stroke-linejoin="round"/>
<path d="M292.122 186.507C292.122 186.507 289.232 185.099 286.281 183.705" stroke="#263238" stroke-width="0.75" stroke-linecap="round" stroke-linejoin="round"/>
<path d="M290.129 182.303C291.048 179.958 292.171 177.69 293.486 175.524" stroke="#263238" stroke-width="0.75" stroke-linecap="round" stroke-linejoin="round"/>
<path d="M293.8 203.198C291.877 200.871 289.613 198.823 287.078 197.116" stroke="#263238" stroke-width="0.75" stroke-linecap="round" stroke-linejoin="round"/>
<path d="M294.812 205.846C295.269 203.973 295.889 202.14 296.667 200.366C297.77 198.018 297.939 197.717 297.939 197.717" stroke="#263238" stroke-width="0.75" stroke-linecap="round" stroke-linejoin="round"/>
<path d="M299.464 221.899C300.588 220.574 301.832 219.346 303.182 218.23C304.039 217.623 304.843 216.951 305.588 216.22" stroke="#263238" stroke-width="0.75" stroke-linecap="round" stroke-linejoin="round"/>
<path d="M299.625 218.553C298.701 217.124 297.663 215.766 296.521 214.489C295.399 213.317 294.179 212.235 292.873 211.253" stroke="#263238" stroke-width="0.75" stroke-linecap="round" stroke-linejoin="round"/>
<path d="M298.629 229.03C298.512 227.54 297.983 226.107 297.096 224.877C295.678 223.087 294.03 220.71 293.325 219.742" stroke="#263238" stroke-width="0.75" stroke-linecap="round" stroke-linejoin="round"/>
<path d="M292.145 233.608H314.135V244.488C314.135 244.973 313.934 245.437 313.576 245.78C313.218 246.122 312.732 246.315 312.226 246.315H294.053C293.547 246.315 293.061 246.122 292.704 245.78C292.346 245.437 292.145 244.973 292.145 244.488V233.608Z" fill="#263238" stroke="#263238" stroke-linecap="round" stroke-linejoin="round"/>
<path d="M33.3838 141.402C33.3838 141.402 33.3838 138.776 29.5514 135.107C25.7191 131.439 23.2357 129.341 23.2357 129.341C23.2357 129.341 21.3195 135.371 24.876 139.04C27.497 141.621 30.3376 143.989 33.3685 146.119L33.3838 141.402Z" fill="#DAD2FF"/>
<path d="M27.8345 157.77C27.8345 157.77 27.8345 155.151 24.0021 151.482C20.1698 147.814 17.6864 145.687 17.6864 145.687C17.6864 145.687 15.7702 151.71 19.3266 155.385C21.9503 157.976 24.7962 160.352 27.8345 162.487V157.77Z" fill="#DAD2FF"/>
<path d="M33.1462 145.863C33.1462 145.863 33.4297 143.258 37.653 139.993C41.8763 136.729 44.5513 134.902 44.5513 134.902C44.5513 134.902 45.7929 141.086 41.8456 144.381C38.9638 146.68 35.8873 148.746 32.6479 150.558L33.1462 145.863Z" fill="#DAD2FF"/>
<path d="M26.4241 165.202C26.4241 165.202 26.999 162.634 31.5442 159.817C36.0893 156.999 38.9713 155.415 38.9713 155.415C38.9713 155.415 39.5231 161.688 35.2386 164.563C32.1131 166.564 28.8186 168.311 25.3894 169.787L26.4241 165.202Z" fill="#DAD2FF"/>
<path d="M27.689 186.28C27.689 186.28 27.689 183.661 31.5214 179.985C35.3537 176.309 37.7988 174.218 37.7988 174.218C37.7988 174.218 39.7149 180.249 36.1509 183.917C33.5358 186.502 30.6975 188.87 27.666 190.997L27.689 186.28Z" fill="#DAD2FF"/>
<path d="M27.62 191.423C27.62 191.423 28.0109 188.833 24.761 184.673C21.5112 180.513 19.3957 178.107 19.3957 178.107C19.3957 178.107 16.6058 183.815 19.5797 187.938C21.7903 190.849 24.2516 193.578 26.9378 196.096L27.62 191.423Z" fill="#DAD2FF"/>
<path d="M23.8412 206.675C23.8412 206.675 23.8412 204.056 27.6735 200.381C31.5059 196.705 33.9662 194.614 33.9662 194.614C33.9662 194.614 35.8824 200.645 32.326 204.313C29.705 206.894 26.8644 209.262 23.8335 211.393L23.8412 206.675Z" fill="#DAD2FF"/>
<path d="M26.4013 220.519C26.4013 220.519 25.7038 217.988 28.4477 213.506C31.1917 209.023 33.0466 206.397 33.0466 206.397C33.0466 206.397 36.465 211.716 33.9663 216.162C32.115 219.291 29.9948 222.268 27.6276 225.061L26.4013 220.519Z" fill="#DAD2FF"/>
<path d="M33.7287 140.727C33.5378 143.458 33.1872 146.177 32.6786 148.871C31.1457 156.361 27.3746 161.196 25.8647 167.946C24.3547 174.695 28.7006 183.441 27.5356 192.156C26.3706 200.872 22.8295 205.685 23.8412 211.488C24.853 217.291 30.2796 233.579 30.2796 233.579" stroke="#263238" stroke-width="0.75" stroke-linecap="round" stroke-linejoin="round"/>
<path d="M33.1079 147.609L37.2392 144.571" stroke="#263238" stroke-width="0.75" stroke-linecap="round" stroke-linejoin="round"/>
<path d="M33.2994 144.109L31.5671 141.167" stroke="#263238" stroke-width="0.75" stroke-linecap="round" stroke-linejoin="round"/>
<path d="M26.0947 167.696C26.0947 167.696 29.5515 165.209 33.1079 162.729" stroke="#263238" stroke-width="0.75" stroke-linecap="round" stroke-linejoin="round"/>
<path d="M27.6354 162.025C25.9594 158.999 23.972 156.141 21.7029 153.493" stroke="#263238" stroke-width="0.75" stroke-linecap="round" stroke-linejoin="round"/>
<path d="M27.8345 190.007C29.8106 186.523 32.3047 183.333 35.2386 180.535" stroke="#263238" stroke-width="0.75" stroke-linecap="round" stroke-linejoin="round"/>
<path d="M27.1448 193.69C26.0976 191.325 24.8464 189.047 23.4044 186.881C21.3809 184.027 21.105 183.661 21.105 183.661" stroke="#263238" stroke-width="0.75" stroke-linecap="round" stroke-linejoin="round"/>
<path d="M23.8413 211.488C24.7186 209.406 25.7589 207.39 26.9532 205.457C28.1531 203.67 29.504 201.979 30.9925 200.403" stroke="#263238" stroke-width="0.75" stroke-linecap="round" stroke-linejoin="round"/>
<path d="M27.6505 225.061C27.4499 223.073 27.8071 221.069 28.6853 219.258C30.1262 216.587 31.7511 213.095 32.4333 211.716" stroke="#263238" stroke-width="0.75" stroke-linecap="round" stroke-linejoin="round"/>
<path d="M8.27427 176.419C8.27427 176.419 7.98301 174.776 9.96817 172.076C11.9533 169.376 13.264 167.806 13.264 167.806C13.264 167.806 15.1495 171.387 13.333 174.057C11.9834 175.948 10.4707 177.727 8.8108 179.376L8.27427 176.419Z" fill="#DAD2FF"/>
<path d="M13.6241 186.111C13.6241 186.111 13.3251 184.468 15.318 181.768C17.3108 179.068 18.6138 177.49 18.6138 177.49C18.6138 177.49 20.4993 181.078 18.6828 183.749C17.3332 185.639 15.8205 187.419 14.1606 189.068L13.6241 186.111Z" fill="#DAD2FF"/>
<path d="M8.93335 179.193C8.93335 179.193 8.45813 177.593 5.4459 175.986C2.43367 174.38 0.540484 173.507 0.540484 173.507C0.540484 173.507 0.463837 177.512 3.30745 179.171C5.37989 180.32 7.54886 181.301 9.79179 182.105L8.93335 179.193Z" fill="#DAD2FF"/>
<path d="M15.341 190.623C15.341 190.623 14.6895 189.075 11.5086 187.776C8.32779 186.478 6.37329 185.803 6.37329 185.803C6.37329 185.803 6.7412 189.801 9.75343 191.159C11.9402 192.088 14.204 192.841 16.5214 193.411L15.341 190.623Z" fill="#DAD2FF"/>
<path d="M16.9429 203.968C16.9429 203.968 16.644 202.325 13.8234 200.425C11.0028 198.524 9.22457 197.49 9.22457 197.49C9.22457 197.49 8.67271 201.444 11.3477 203.374C13.2853 204.72 15.3363 205.91 17.4795 206.932L16.9429 203.968Z" fill="#DAD2FF"/>
<path d="M17.5637 207.189C17.5637 207.189 17.0272 205.604 18.5908 202.662C20.1544 199.72 21.2198 197.989 21.2198 197.989C21.2198 197.989 23.6188 201.276 22.2162 204.166C21.1637 206.218 19.9331 208.181 18.5371 210.035L17.5637 207.189Z" fill="#DAD2FF"/>
<path d="M22.3773 220.453C22.3773 220.453 22.5766 218.795 25.2823 216.741C27.9879 214.687 29.6971 213.535 29.6971 213.535C29.6971 213.535 30.4636 217.475 27.9266 219.551C26.0739 221.007 24.0972 222.313 22.0171 223.454L22.3773 220.453Z" fill="#DAD2FF"/>
<path d="M21.7027 216.36C21.7027 216.36 21.4038 214.716 18.5832 212.816C15.7626 210.916 13.9844 209.881 13.9844 209.881C13.9844 209.881 13.4632 213.865 16.1152 215.795C18.052 217.142 20.103 218.332 22.2469 219.353L21.7027 216.36Z" fill="#DAD2FF"/>
<path d="M21.6262 225.296C21.6262 225.296 21.7718 223.638 19.549 221.106C17.3263 218.575 15.8776 217.13 15.8776 217.13C15.8776 217.13 14.3447 220.85 16.3758 223.366C17.8931 225.137 19.5621 226.784 21.3656 228.289L21.6262 225.296Z" fill="#DAD2FF"/>
<path d="M7.98291 176.038C8.41649 177.729 8.94354 179.397 9.56184 181.034C11.363 185.575 14.291 188.209 16.0079 192.303C17.7248 196.397 16.0079 202.31 17.7018 207.644C19.3957 212.977 22.1856 215.641 22.2086 219.382C22.2316 223.124 20.6757 233.534 20.6757 233.534" stroke="#263238" stroke-width="0.75" stroke-linecap="round" stroke-linejoin="round"/>
<path d="M9.15556 180.286L6.21997 178.811" stroke="#263238" stroke-width="0.75" stroke-linecap="round" stroke-linejoin="round"/>
<path d="M8.64209 178.114L9.39323 176.089" stroke="#263238" stroke-width="0.75" stroke-linecap="round" stroke-linejoin="round"/>
<path d="M15.8315 192.127C15.8315 192.127 13.3788 190.931 10.8647 189.743" stroke="#263238" stroke-width="0.75" stroke-linecap="round" stroke-linejoin="round"/>
<path d="M14.1377 188.554C14.9228 186.56 15.8791 184.631 16.9966 182.787" stroke="#263238" stroke-width="0.75" stroke-linecap="round" stroke-linejoin="round"/>
<path d="M17.2801 206.323C15.6425 204.357 13.7166 202.627 11.5623 201.188" stroke="#263238" stroke-width="0.75" stroke-linecap="round" stroke-linejoin="round"/>
<path d="M18.1157 208.561C18.5067 206.969 19.0348 205.411 19.6947 203.902C20.6374 201.907 20.7754 201.642 20.7754 201.642" stroke="#263238" stroke-width="0.75" stroke-linecap="round" stroke-linejoin="round"/>
<path d="M22.0784 222.222C23.0317 221.09 24.0885 220.041 25.2362 219.089C25.9652 218.572 26.6495 218.001 27.2827 217.379" stroke="#263238" stroke-width="0.75" stroke-linecap="round" stroke-linejoin="round"/>
<path d="M22.2087 219.382C21.4242 218.167 20.5426 217.012 19.572 215.927C18.6307 214.928 17.6053 214.006 16.5061 213.168" stroke="#263238" stroke-width="0.75" stroke-linecap="round" stroke-linejoin="round"/>
<path d="M21.3656 228.289C21.2623 227.02 20.8101 225.8 20.0549 224.753C18.8516 223.234 17.4259 221.209 16.8511 220.417" stroke="#263238" stroke-width="0.75" stroke-linecap="round" stroke-linejoin="round"/>
<path d="M14.6819 233.608H36.672V244.488C36.672 244.73 36.6216 244.97 36.5238 245.194C36.426 245.418 36.2826 245.62 36.1022 245.79C35.9217 245.96 35.7077 246.094 35.4726 246.184C35.2375 246.274 34.986 246.319 34.7328 246.315H16.5904C16.0842 246.315 15.5988 246.122 15.2409 245.78C14.883 245.437 14.6819 244.973 14.6819 244.488V233.608Z" fill="#263238" stroke="#263238" stroke-linecap="round" stroke-linejoin="round"/>
<path d="M224.159 97.2653C221.476 100.462 219.654 104.241 218.855 108.27C217.444 115.115 213.972 127.976 214.409 132.437C214.846 136.897 215.942 139.384 220.15 140.111C224.358 140.837 226.757 137.308 227.631 134.3C228.185 132.321 228.617 130.312 228.926 128.284L229.792 111.938C229.792 111.938 228.259 102.115 227.531 100.046C226.803 97.9769 224.159 97.2653 224.159 97.2653Z" fill="#DAD2FF" stroke="#263238" stroke-linecap="round" stroke-linejoin="round"/>
<path d="M280.525 93.9931C280.525 93.9931 282.058 93.6703 283.514 98.7619C284.97 103.853 286.726 111.161 289.6 120.17C292.474 129.179 293.034 132.151 292.811 134.161C292.589 136.171 290.934 138.401 285.147 138.401C279.36 138.401 276.716 136.281 275.183 131.512C273.65 126.744 273.872 112.012 273.765 110.104C273.657 108.197 278.747 93.0393 280.525 93.9931Z" fill="#DAD2FF" stroke="#263238" stroke-linecap="round" stroke-linejoin="round"/>
<path d="M240.99 252.243C240.99 252.243 237.227 256.058 235.012 258.501C232.797 260.944 232.023 262.419 235.671 263.901C239.319 265.383 244.976 263.167 246.639 260.724C248.302 258.281 251.844 255.53 251.844 255.53C251.844 255.53 253.721 253.519 251.284 250.658C248.847 247.797 242.094 251.076 240.99 252.243Z" fill="white" stroke="#263238" stroke-linecap="round" stroke-linejoin="round"/>
<path d="M263.578 255.427C263.578 255.427 267.342 255.955 269.334 257.628C271.327 259.301 278.31 263.035 282.955 261.23C287.599 259.425 284.618 256.461 282.073 254.341C280.644 253.128 279.084 252.063 277.421 251.164C277.421 251.164 270.001 250.636 266.69 252.221C263.379 253.806 263.578 255.427 263.578 255.427Z" fill="white" stroke="#263238" stroke-linecap="round" stroke-linejoin="round"/>
<path d="M236.667 206.132C236.667 206.132 238.446 218.854 237.556 222.669C236.667 226.484 234.123 228.714 236.024 232.427C237.431 235.297 238.46 238.323 239.089 241.436C239.312 242.705 238.093 243.021 239.089 244.371C239.816 245.241 240.412 246.204 240.86 247.232C240.86 247.555 239.534 249.352 239.534 249.778C239.534 250.203 240.201 252.852 240.201 252.852C240.201 252.852 243.742 252.118 246.287 253.064C248.13 253.824 249.876 254.784 251.491 255.926C251.491 255.926 253.79 255.075 254.595 253.805C255.029 253.14 255.292 252.386 255.362 251.604C255.469 251.179 256.58 248.949 256.473 247.254C256.366 245.559 255.139 241.957 255.139 239.837C255.139 237.716 256.803 235.383 256.803 231.994C256.803 228.604 255.139 206.873 255.139 206.873L256.672 206.338C256.672 206.338 259.11 219.272 259.11 225.318C259.11 231.363 257.232 238.883 258.451 240.365C259.669 241.847 261.102 243.123 261.102 243.439C261.102 243.754 259.662 246.087 259.999 247.254C260.525 248.786 260.967 250.344 261.325 251.92C261.325 252.558 262.543 254.994 263.54 255.419C264.536 255.845 265.073 254.884 270.959 253.725C276.846 252.565 280.157 252.874 279.597 251.179C279.038 249.484 278.494 247.254 277.827 246.828C277.16 246.403 278.049 246.095 277.827 244.503C277.605 242.911 276.386 241.216 275.282 238.67C274.178 236.124 275.719 233.373 276.164 230.717C276.608 228.061 275.941 224.114 274.838 219.8C273.734 215.486 274.723 204.856 274.723 204.856L275.282 200.725C275.282 200.725 258.336 202.193 247.927 202.097L236.744 201.995C236.744 201.995 236.008 202.743 236.667 206.132Z" fill="#263238" stroke="#263238" stroke-linecap="round" stroke-linejoin="round"/>
<path d="M279.636 161.827C279.636 161.827 281.169 181.122 283.177 191.173C284.332 196.846 285.065 202.59 285.369 208.363H277.313C276.976 208.363 277.865 172.641 278.08 169.479C278.372 166.891 278.892 164.331 279.636 161.827Z" fill="#DAD2FF" stroke="#263238" stroke-linecap="round" stroke-linejoin="round"/>
<path d="M246.279 83.3258C246.279 83.3258 236.867 89.3638 231.999 91.4841C227.132 93.6044 224.465 96.3629 224.135 97.3533C223.806 98.3438 229.447 113.567 229.447 113.567C229.447 113.567 229.118 163.918 229.118 172.399C229.118 180.88 226.351 206.419 226.68 206.419C227.01 206.419 235.878 211.936 248.049 212.251C260.221 212.567 264.145 210.872 267.978 210.872C271.81 210.872 279.475 210.872 279.605 209.815C279.735 208.759 279.827 185.326 279.935 174.409C280.042 163.492 280.157 155.752 279.935 153.955C279.712 152.157 276.616 113.354 276.616 113.354C276.616 113.354 278.915 106.891 280.272 101.697C281.629 96.5023 281.598 95.864 279.935 93.5383C278.271 91.2126 265.793 84.8738 263.578 84.0595C260.856 83.1475 258.022 82.5779 255.147 82.3647C253.062 82.2254 246.279 83.3258 246.279 83.3258Z" fill="#DAD2FF" stroke="#263238" stroke-linecap="round" stroke-linejoin="round"/>
<path d="M225.485 126.428C225.485 126.428 226.926 129.605 228.696 130.984C230.467 132.363 234.567 133.002 235.449 135.122C236.33 137.242 235.449 138.827 234.452 141.373C233.456 143.918 234.015 148.159 230.359 148.709C226.703 149.259 225.6 147.976 222.603 145.951C219.606 143.926 217.736 143.618 215.965 140.544C214.195 137.47 213.666 133.207 215.199 130.903" fill="#DAD2FF"/>
<path d="M225.485 126.428C225.485 126.428 226.926 129.605 228.696 130.984C230.467 132.363 234.567 133.002 235.449 135.122C236.33 137.242 235.449 138.827 234.452 141.373C233.456 143.918 234.015 148.159 230.359 148.709C226.703 149.259 225.6 147.976 222.603 145.951C219.606 143.926 217.736 143.618 215.965 140.544C214.195 137.47 213.666 133.207 215.199 130.903" stroke="#263238" stroke-linecap="round" stroke-linejoin="round"/>
<path d="M245.865 79.1512L245.512 88.0578C245.512 88.0578 244.631 89.327 249.943 89.6425C253.357 89.8139 256.78 89.5673 260.129 88.9089L259.248 79.2686C259.248 79.2686 253.706 81.4696 250.495 80.4351C248.989 79.8928 247.441 79.4635 245.865 79.1512Z" fill="white" stroke="#263238" stroke-linecap="round" stroke-linejoin="round"/>
<path d="M243.757 76.9283C243.757 76.9283 242.991 87.1995 242.431 90.2809C241.872 93.3622 241.987 95.2624 243.198 96.0034C244.409 96.7444 251.499 99.4002 255.155 99.1875C258.811 98.9747 264.352 95.7906 264.789 94.8369C265.226 93.8831 261.478 78.9239 261.478 78.9239L260.919 79.5622C260.919 79.5622 261.915 87.4049 261.585 87.6324C261.256 87.8598 248.41 86.9941 246.08 86.8987C243.75 86.8034 244.424 86.686 244.424 86.686L244.309 77.6767L243.757 76.9283Z" fill="white" stroke="#263238" stroke-linecap="round" stroke-linejoin="round"/>
<path d="M243.405 89.151C243.405 89.151 255.507 90.8604 262.766 89.5178" stroke="#263238" stroke-width="0.5" stroke-miterlimit="10"/>
<path d="M242.899 91.8362C242.899 91.8362 251.33 95.2477 262.766 92.1957" stroke="#263238" stroke-width="0.5" stroke-miterlimit="10"/>
<path d="M243.788 95.0055C243.788 95.0055 251.813 99.1507 262.766 94.7561" stroke="#263238" stroke-width="0.5" stroke-miterlimit="10"/>
<path d="M263.364 66.1142C263.64 62.8568 263.87 59.5113 263.026 57.8459C261.7 55.1974 257.707 52.1234 251.951 52.3361C246.195 52.5489 241.32 54.6692 241.435 61.4481C241.435 61.4481 241.68 63.4657 241.964 65.9381C241.436 67.0178 241.253 68.222 241.435 69.401C241.614 70.5322 242.028 71.6175 242.654 72.5924C242.707 73.2233 242.746 73.7662 242.761 74.1698C242.868 77.031 244.861 80.4205 246.639 81.587C248.417 82.7535 251.729 84.5583 253.836 84.5583C255.944 84.5583 259.7 82.6508 261.501 79.8923C262.896 77.6913 263.034 76.224 263.034 73.6342H263.141C263.459 72.274 263.646 70.889 263.701 69.4964C263.746 68.3596 263.633 67.2222 263.364 66.1142Z" fill="white" stroke="#263238" stroke-linecap="round" stroke-linejoin="round"/>
<path d="M242.447 66.7524C242.447 66.7524 242.776 69.4009 243.328 69.2909C243.88 69.1808 244.547 65.3732 244.547 65.3732L242.447 66.7524Z" fill="#263238" stroke="#263238" stroke-linecap="round" stroke-linejoin="round"/>
<path d="M261.256 66.4517C261.256 66.4517 261.256 69.423 262.022 69.8485C262.789 70.274 263.348 67.3027 263.348 67.3027C262.72 66.8825 262.008 66.5926 261.256 66.4517Z" fill="#263238" stroke="#263238" stroke-linecap="round" stroke-linejoin="round"/>
<path d="M263.026 57.8459C261.7 55.1974 257.707 52.1234 251.951 52.3361C246.195 52.5489 241.32 54.6692 241.435 61.4482C241.435 61.4482 241.68 63.4657 241.964 65.9381C241.615 66.655 241.414 67.4299 241.374 68.2198C243.527 66.5691 247.559 64.2067 252.618 64.6322C256.554 65.0616 260.338 66.3383 263.686 68.3665C263.65 67.6079 263.543 66.854 263.364 66.1142C263.64 62.8568 263.908 59.5333 263.026 57.8459Z" fill="#DAD2FF" stroke="#263238" stroke-linecap="round" stroke-linejoin="round"/>
<path d="M251.177 68.6526L250.51 72.4677C250.51 72.4677 249.291 72.5704 249.743 73.3114C250.196 74.0524 252.51 74.9034 253.622 74.5879C254.733 74.2725 255.837 73.2087 255.722 72.7831C255.688 72.6559 255.619 72.5397 255.522 72.4467C255.424 72.3538 255.303 72.2876 255.17 72.2549L253.729 68.3298" stroke="#263238" stroke-linecap="round" stroke-linejoin="round"/>
<path d="M249.958 76.5028C252.084 76.942 254.291 76.8689 256.381 76.29" stroke="#263238" stroke-linecap="round" stroke-linejoin="round"/>
<path d="M248.739 68.4986C248.739 69.0562 248.44 69.5038 248.072 69.5038C247.705 69.5038 247.413 69.0562 247.413 68.4986C247.413 67.9411 247.712 67.4935 248.072 67.4935C248.433 67.4935 248.739 67.919 248.739 68.4986Z" fill="#263238"/>
<path d="M257.155 68.4472C257.155 69.0048 256.856 69.4524 256.496 69.4524C256.136 69.4524 255.829 69.0048 255.829 68.4472C255.829 67.8897 256.128 67.4421 256.496 67.4421C256.864 67.4421 257.155 67.919 257.155 68.4472Z" fill="#263238"/>
<path d="M246.195 66.9653C246.195 66.9653 246.961 65.1605 249.406 65.7988" stroke="#263238" stroke-linecap="round" stroke-linejoin="round"/>
<path d="M254.388 65.9014C254.388 65.9014 256.688 64.3093 258.374 67.0679" stroke="#263238" stroke-linecap="round" stroke-linejoin="round"/>
<path d="M233.456 139.678C233.456 139.678 240.216 141.145 241.764 140.844C243.794 140.482 245.652 139.517 247.076 138.086C249.077 136.178 250.732 134.586 250.732 136.178C250.739 136.807 250.615 137.43 250.368 138.012C250.12 138.594 249.754 139.123 249.291 139.568C248.525 140.419 247.076 141.373 246.746 142.752C246.417 144.131 246.861 145.188 248.632 145.826C250.403 146.464 255.936 147.411 255.936 148.761C255.936 150.11 255.492 153.324 253.499 154.38C251.506 155.437 246.639 154.696 246.639 154.696C246.639 154.696 250.625 156.816 249.851 157.352C249.077 157.887 246.746 157.139 245.643 156.185C244.539 155.231 244.11 155.121 240.875 152.898C237.641 150.675 234.897 148.02 233.349 147.176C232.51 146.8 231.734 146.305 231.049 145.709C230.16 144.975 229.83 143.508 230.49 141.791C230.714 141.282 231.047 140.824 231.467 140.445C231.886 140.066 232.384 139.775 232.927 139.59L233.456 139.678Z" fill="white" stroke="#263238" stroke-linecap="round" stroke-linejoin="round"/>
<path d="M286.059 127.595C286.059 127.595 278.087 129.062 277.313 129.605C276.539 130.148 277.313 132.363 277.313 132.363C277.313 132.363 270.553 135.437 268.008 137.132C265.464 138.827 267.786 142.224 267.901 142.642C267.901 142.642 269.894 148.9 273.213 151.02C276.532 153.14 279.965 152.392 283.292 149.003C286.618 145.613 288.718 140.932 290.267 139.355C291.815 137.778 293.478 136.281 292.926 132.752C292.374 129.223 289.493 128.827 289.493 128.827" fill="#DAD2FF"/>
<path d="M286.059 127.595C286.059 127.595 278.087 129.062 277.313 129.605C276.539 130.148 277.313 132.363 277.313 132.363C277.313 132.363 270.553 135.437 268.008 137.132C265.464 138.827 267.786 142.224 267.901 142.642C267.901 142.642 269.894 148.9 273.213 151.02C276.532 153.14 279.965 152.392 283.292 149.003C286.618 145.613 288.718 140.932 290.267 139.355C291.815 137.778 293.478 136.281 292.926 132.752C292.374 129.223 289.493 128.827 289.493 128.827" stroke="#263238" stroke-linecap="round" stroke-linejoin="round"/>
<path d="M269.779 141.585C269.779 141.585 264.69 142.855 263.249 142.965C261.808 143.075 261.585 143.28 260.704 142.642C259.822 142.004 255.714 139.707 253.806 137.558C251.897 135.408 250.479 135.012 250.701 136.178C250.924 137.345 250.479 138.189 251.813 139.04C253.147 139.891 254.465 142.224 254.465 143.177C254.465 144.131 254.358 144.447 251.591 145.378C248.824 146.31 242.508 147.499 243.159 148.24C243.811 148.981 245.152 149.193 246.593 149.091C248.034 148.988 254.013 148.137 254.45 148.452C254.594 148.594 254.702 148.765 254.765 148.954C254.827 149.142 254.844 149.341 254.812 149.537C254.779 149.732 254.7 149.917 254.58 150.078C254.46 150.239 254.303 150.371 254.12 150.463C253.124 151.101 249.582 151.101 247.475 151.314C245.367 151.526 245.26 152.047 246.149 152.48C247.576 152.99 249.094 153.227 250.617 153.177C252.388 153.177 254.45 153.008 253.568 153.537C252.687 154.065 251.46 154.175 249.245 154.49C247.03 154.806 246.256 153.86 246.593 154.703C246.93 155.547 249.582 155.554 252.901 155.437C255.922 155.289 258.856 154.416 261.432 152.898C263.647 151.622 271.726 149.714 272.285 149.296C272.845 148.878 273.719 146.428 273.167 143.464C272.615 140.5 269.779 141.585 269.779 141.585Z" fill="white" stroke="#263238" stroke-linecap="round" stroke-linejoin="round"/>
<path d="M278.532 129.179C280.69 127.47 283.027 125.98 285.507 124.733" stroke="#263238" stroke-linecap="round" stroke-linejoin="round"/>
<path d="M247.965 149.149C247.965 149.149 254.266 148.46 254.902 148.372C255.538 148.284 256.703 148.973 256.159 149.751C255.615 150.529 255.346 150.353 253.093 150.785C250.856 151.111 248.595 151.256 246.333 151.218" fill="white"/>
<path d="M247.965 149.149C247.965 149.149 254.266 148.46 254.902 148.372C255.538 148.284 256.703 148.973 256.159 149.751C255.615 150.529 255.346 150.353 253.093 150.785C250.856 151.111 248.595 151.256 246.333 151.218" stroke="#263238" stroke-linecap="round" stroke-linejoin="round"/>
<path d="M248.686 153.287C248.686 153.287 255.707 152.854 255.53 153.375C255.354 153.896 254.902 154.578 252.38 154.755C249.858 154.931 247.015 155.099 244.631 153.977" fill="white"/>
<path d="M248.686 153.287C248.686 153.287 255.707 152.854 255.53 153.375C255.354 153.896 254.902 154.578 252.38 154.755C249.858 154.931 247.015 155.099 244.631 153.977" stroke="#263238" stroke-linecap="round" stroke-linejoin="round"/>
<path d="M178.461 247.019C178.461 247.019 179.657 248.156 174.89 250.944C170.122 253.732 166.144 255.001 166.144 256.652C166.144 258.303 171.441 259.946 176.875 258.677C182.309 257.408 184.54 257.034 187.606 256.527C190.671 256.021 191.584 253.483 191.584 249.924C191.584 246.366 183.505 245.522 182.577 245.361C181.65 245.2 179.128 245.625 178.461 247.019Z" fill="white" stroke="#263238" stroke-linecap="round" stroke-linejoin="round"/>
<path d="M190.38 249.932C188.374 252.809 185.918 255.375 183.099 257.54C178.99 260.474 178.461 261.846 180.585 262.609C182.708 263.372 188.793 263.622 192.902 262.103C197.01 260.584 198.995 258.303 200.183 257.283C201.371 256.263 202.038 256.901 202.038 252.844C202.038 248.787 197.531 247.393 193.829 247.65C190.127 247.907 190.38 249.932 190.38 249.932Z" fill="white" stroke="#263238" stroke-linecap="round" stroke-linejoin="round"/>
<path d="M174.231 167.278C174.231 167.278 175.426 190.352 175.825 197.072C176.224 203.792 179.136 229.015 179.657 234.973C180.179 240.93 180.186 242.705 180.186 242.705C180.186 242.705 177.802 244.356 177.802 244.738C177.802 245.119 177.534 248.663 177.534 248.663C179.293 249.59 181.161 250.314 183.099 250.82C185.227 251.279 187.419 251.408 189.591 251.201C189.591 251.201 193.96 252.595 197.669 253.607C201.379 254.62 202.835 254.114 202.835 254.114C202.835 254.114 203.893 249.044 204.154 247.393C204.414 245.743 208.921 228.252 208.921 220.248C208.921 212.244 207.863 208.583 206.277 203.895C204.69 199.207 208.392 182.465 209.718 176.383C210.479 172.99 211.054 169.562 211.443 166.112C211.443 166.112 200.053 171.717 174.231 167.278Z" fill="#263238" stroke="#263238" stroke-linecap="round" stroke-linejoin="round"/>
<path d="M189.062 175.033C189.062 175.033 188.395 191.907 188.395 198.356C188.395 204.805 190.12 212.684 190.909 220.292C191.698 227.9 191.177 240.321 190.25 242.478C189.322 244.635 188.663 245.412 188.794 247.041C188.924 248.67 189.062 250.966 189.062 250.966" stroke="white" stroke-linecap="round" stroke-linejoin="round"/>
<path d="M186.939 76.8843C186.939 76.8843 186.172 74.6026 184.946 75.4904C183.719 76.3781 184.555 78.0288 185.613 79.6795C186.67 81.3302 187.858 81.7044 187.996 80.8167C188.134 79.929 186.939 76.8843 186.939 76.8843Z" fill="white" stroke="#263238" stroke-linecap="round" stroke-linejoin="round"/>
<path d="M186.939 77.9041L185.613 74.2358C185.613 74.2358 180.056 72.0789 181.78 66.7525C183.505 61.4262 196.75 56.6134 200.321 56.6134C203.893 56.6134 210.784 61.1767 211.979 66.5031C213.175 71.8294 209.197 76.6422 209.197 76.6422C209.197 76.6422 207.473 81.3303 206.131 81.0808C204.79 80.8314 205.595 77.1484 203.878 74.2358C202.161 71.3232 201.095 69.8339 199.241 70.5675C197.386 71.3012 189.706 73.5022 189.047 74.4926C188.387 75.483 187.207 78.535 186.939 77.9041Z" fill="#263238" stroke="#263238" stroke-linecap="round" stroke-linejoin="round"/>
<path d="M213.827 130.133L214.486 133.427L206.277 145.599L208.132 148.386C212.026 145.901 215.584 142.964 218.724 139.641C224.021 134.066 224.55 133.303 224.55 131.021C224.55 128.739 222.702 124.807 222.702 124.807C222.702 124.807 218.993 130.133 213.827 130.133Z" fill="white" stroke="#263238" stroke-linecap="round" stroke-linejoin="round"/>
<path d="M168.927 122.782C168.927 122.782 166.275 128.864 166.811 130.764C167.348 132.664 176.476 143.823 176.476 143.823L178.063 139.641C178.063 139.641 174.622 132.796 174.622 130.515C174.622 128.233 175.817 123.794 175.817 123.794L168.927 122.782Z" stroke="#263238" stroke-linecap="round" stroke-linejoin="round"/>
<path d="M192.373 92.6066C192.373 92.6066 180.983 96.7884 178.86 97.4267C176.737 98.065 175.281 98.4391 175.15 99.0701C175.02 99.701 168.666 115.299 167.486 117.456C166.305 119.612 164.703 122.019 164.703 122.019C166.246 122.942 167.837 123.79 169.471 124.557C171.137 125.254 172.866 125.804 174.637 126.201L175.403 134.953L167.585 167.909C167.585 167.909 183.214 172.091 193.645 171.717C200.287 171.5 206.854 170.302 213.114 168.166C215.107 167.528 218.149 166.39 218.149 166.39L208.185 130.515L208.952 125.188L209.481 130.39C209.481 130.39 214.777 131.527 217.82 130.764C220.863 130.001 224.718 127.096 224.718 127.096L214.915 97.8155L196.642 92.9954L192.373 92.6066Z" fill="#DAD2FF" stroke="#263238" stroke-linecap="round" stroke-linejoin="round"/>
<path d="M205.242 95.2257L196.742 92.9881L192.373 92.6066L188.441 94.0739C188.364 96.0694 188.265 99.4663 188.265 103.538C188.265 110.141 189.031 115.966 191.047 114.822C193.063 113.677 202.544 101.388 204.154 97.9476C204.589 97.0683 204.953 96.1583 205.242 95.2257Z" fill="#DAD2FF" stroke="#263238" stroke-linecap="round" stroke-linejoin="round"/>
<path d="M209.059 125.188C208.791 124.939 207.603 114.029 207.603 114.029" stroke="#263238" stroke-linecap="round" stroke-linejoin="round"/>
<path d="M174.621 126.201C174.621 126.201 173.694 121.894 173.962 120.243C174.231 118.593 176.078 108.835 176.078 108.835" stroke="#263238" stroke-linecap="round" stroke-linejoin="round"/>
<path d="M179.128 144.461C179.128 144.461 173.035 146.362 173.035 146.743C173.035 147.125 172.897 148.893 172.897 148.893L179.128 146.105V144.461Z" stroke="#263238" stroke-linecap="round" stroke-linejoin="round"/>
<path d="M195.286 145.349L195.017 146.993L208.262 150.287L208.921 149.025L195.286 145.349Z" stroke="#263238" stroke-linecap="round" stroke-linejoin="round"/>
<path d="M199.654 120.141C199.474 120.141 199.3 120.072 199.172 119.949C199.044 119.827 198.972 119.661 198.972 119.488C198.972 117.287 200.114 111.975 201.226 106.839C202.107 102.753 202.943 98.8867 202.943 97.6761C202.977 97.009 202.862 96.3426 202.605 95.7214C202.349 95.1002 201.957 94.5385 201.456 94.0739C199.869 92.6652 197.048 92.093 193.078 92.3718C184.793 92.9587 184.187 110.713 184.179 110.882C184.175 111.053 184.102 111.215 183.974 111.334C183.847 111.453 183.675 111.52 183.497 111.52C183.408 111.517 183.319 111.498 183.238 111.462C183.156 111.427 183.083 111.376 183.021 111.314C182.96 111.251 182.913 111.177 182.881 111.097C182.85 111.017 182.835 110.931 182.838 110.845C182.838 110.068 183.49 91.7702 193.001 91.0365C197.37 90.7357 200.536 91.418 202.406 93.0908C203.043 93.6781 203.544 94.3874 203.875 95.1724C204.207 95.9575 204.362 96.8006 204.33 97.6468C204.33 98.9894 203.525 102.738 202.59 107.074C201.54 111.909 200.36 117.389 200.36 119.458C200.364 119.548 200.349 119.638 200.315 119.723C200.281 119.807 200.229 119.883 200.163 119.947C200.097 120.011 200.017 120.062 199.93 120.095C199.842 120.128 199.749 120.144 199.654 120.141Z" fill="#263238" stroke="#263238" stroke-linecap="round" stroke-linejoin="round"/>
<path d="M190.909 88.6815C190.909 88.6815 190.909 92.3497 190.779 93.0834C190.648 93.817 190.779 97.0158 190.779 101.33C190.779 105.644 191.545 108.549 192.634 107.536C193.722 106.524 200.712 97.522 201.111 95.7466C201.345 94.7486 201.478 93.7315 201.509 92.7092L202.038 87.6323C202.038 87.6323 193.829 89.914 190.38 88.9016" fill="white"/>
<path d="M190.909 88.6815C190.909 88.6815 190.909 92.3497 190.779 93.0834C190.648 93.817 190.779 97.0158 190.779 101.33C190.779 105.644 191.545 108.549 192.634 107.536C193.722 106.524 200.712 97.522 201.111 95.7466C201.345 94.7486 201.478 93.7315 201.509 92.7092L202.038 87.6323C202.038 87.6323 193.829 89.914 190.38 88.9016" stroke="#263238" stroke-linecap="round" stroke-linejoin="round"/>
<path d="M204.552 81.0734C205.242 85.4772 205.419 89.9407 205.081 94.382C204.552 102.115 203.594 105.739 201.249 106.854C198.903 107.969 201.931 109.231 205.503 109.356C209.074 109.481 214.378 108.974 215.306 98.8352C216.233 88.6961 208.553 82.1006 207.886 80.8313C207.716 80.5366 207.46 80.2949 207.15 80.1349C206.841 79.975 206.489 79.9035 206.138 79.929C205.787 79.9545 205.451 80.0759 205.17 80.2787C204.889 80.4816 204.674 80.7574 204.552 81.0734Z" fill="#263238" stroke="#263238" stroke-linecap="round" stroke-linejoin="round"/>
<path d="M178.73 119.759H178.676C178.583 119.754 178.492 119.73 178.409 119.69C178.327 119.649 178.253 119.593 178.194 119.524C178.135 119.455 178.092 119.375 178.066 119.289C178.041 119.204 178.035 119.114 178.048 119.026C178.048 118.666 178.814 110.178 183.497 110.178C188.18 110.178 188.288 118.343 188.288 118.695C188.288 118.869 188.216 119.035 188.088 119.157C187.96 119.28 187.787 119.348 187.606 119.348C187.425 119.348 187.251 119.28 187.123 119.157C186.995 119.035 186.923 118.869 186.923 118.695C186.923 118.622 186.824 111.491 183.505 111.491C180.654 111.491 179.588 117.001 179.42 119.128C179.412 119.298 179.336 119.459 179.207 119.576C179.079 119.694 178.908 119.759 178.73 119.759Z" fill="#263238"/>
<path d="M178.73 118.6C178.73 118.6 178.73 124.939 178.99 126.201C179.251 127.463 182.57 130.133 186.54 131.784" stroke="#263238" stroke-width="2" stroke-linecap="round" stroke-linejoin="round"/>
<path d="M187.337 117.808C187.337 117.808 187.598 124.146 186.279 126.934C184.961 129.722 180.983 130.867 179.259 131.498" stroke="#263238" stroke-width="2" stroke-linecap="round" stroke-linejoin="round"/>
<path d="M188.395 132.033C188.371 131.747 188.235 131.479 188.014 131.284C187.793 131.089 187.504 130.98 187.203 130.98C186.903 130.98 186.613 131.089 186.392 131.284C186.171 131.479 186.035 131.747 186.011 132.033C185.998 132.191 186.019 132.349 186.073 132.499C186.127 132.648 186.213 132.785 186.325 132.901C186.437 133.017 186.572 133.11 186.724 133.173C186.875 133.237 187.038 133.269 187.203 133.269C187.368 133.269 187.532 133.237 187.683 133.173C187.834 133.11 187.97 133.017 188.082 132.901C188.194 132.785 188.279 132.648 188.333 132.499C188.387 132.349 188.408 132.191 188.395 132.033Z" fill="white" stroke="#263238" stroke-linecap="round" stroke-linejoin="round"/>
<path d="M180.186 131.784C180.188 131.557 180.119 131.335 179.988 131.146C179.858 130.957 179.672 130.809 179.453 130.721C179.235 130.633 178.994 130.61 178.762 130.653C178.529 130.696 178.316 130.805 178.148 130.965C177.98 131.124 177.865 131.328 177.818 131.55C177.771 131.773 177.795 132.003 177.885 132.213C177.975 132.422 178.128 132.601 178.325 132.728C178.522 132.854 178.754 132.921 178.99 132.921C179.306 132.921 179.609 132.801 179.833 132.588C180.057 132.375 180.184 132.086 180.186 131.784Z" fill="white" stroke="#263238" stroke-linecap="round" stroke-linejoin="round"/>
<path d="M203.625 121.894C203.626 121.116 203.386 120.354 202.936 119.707C202.485 119.059 201.843 118.554 201.092 118.255C200.341 117.957 199.515 117.878 198.717 118.03C197.919 118.181 197.187 118.556 196.612 119.106C196.036 119.657 195.645 120.358 195.487 121.121C195.328 121.885 195.41 122.676 195.722 123.395C196.034 124.114 196.562 124.728 197.239 125.159C197.916 125.591 198.711 125.821 199.524 125.819C200.611 125.817 201.653 125.403 202.422 124.667C203.19 123.932 203.623 122.934 203.625 121.894Z" fill="white" stroke="#263238" stroke-linecap="round" stroke-linejoin="round"/>
<path d="M201.77 121.894C201.77 121.467 201.638 121.05 201.39 120.695C201.142 120.34 200.789 120.064 200.377 119.901C199.965 119.738 199.512 119.695 199.074 119.779C198.637 119.863 198.235 120.069 197.92 120.372C197.606 120.674 197.392 121.059 197.306 121.478C197.219 121.897 197.265 122.331 197.437 122.725C197.609 123.119 197.899 123.455 198.27 123.691C198.642 123.927 199.078 124.053 199.524 124.051C200.121 124.049 200.692 123.821 201.113 123.417C201.534 123.012 201.77 122.465 201.77 121.894Z" fill="white" stroke="#263238" stroke-linecap="round" stroke-linejoin="round"/>
<path d="M201.77 68.0144C201.77 68.0144 190.25 72.321 188.794 73.0546C188.167 73.4172 187.501 73.7148 186.808 73.9423C186.808 73.9423 187.468 83.5752 187.736 86.1137C188.004 88.6521 192.235 91.0585 195.945 90.9338C199.654 90.8091 202.697 88.9016 203.364 87.7644C204.031 86.6273 205.878 83.2011 205.878 83.2011C205.878 83.2011 210.247 82.4674 210.477 78.7625C210.707 75.0575 209.419 75.8278 207.963 76.6055C206.507 77.3832 205.71 77.8747 205.71 77.8747C205.993 76.5299 205.756 75.1324 205.043 73.9423C203.893 72.0715 202.038 69.7899 201.77 68.0144Z" fill="white" stroke="#263238" stroke-linecap="round" stroke-linejoin="round"/>
<path d="M192.373 79.8043C192.373 79.8043 193.431 81.323 194.358 81.1983" stroke="#263238" stroke-linecap="round" stroke-linejoin="round"/>
<path d="M191.974 82.0859C191.974 82.0859 194.22 84.1182 198.106 82.4674" stroke="#263238" stroke-linecap="round" stroke-linejoin="round"/>
<path d="M197.669 76.7597C197.669 76.7597 200.382 75.6225 201.908 77.6474" stroke="#263238" stroke-width="1.5" stroke-linecap="round" stroke-linejoin="round"/>
<path d="M192.373 76.5101C192.373 76.5101 190.25 75.2408 188.663 76.2533" stroke="#263238" stroke-width="1.5" stroke-linecap="round" stroke-linejoin="round"/>
<path d="M193.929 76.0332C193.931 76.742 193.712 77.4352 193.302 78.0251C192.891 78.615 192.307 79.075 191.624 79.3469C190.94 79.6188 190.187 79.6903 189.461 79.5524C188.735 79.4145 188.067 79.0733 187.544 78.5722C187.02 78.071 186.664 77.4324 186.52 76.7372C186.376 76.0421 186.45 75.3216 186.734 74.6671C187.018 74.0126 187.499 73.4535 188.115 73.0607C188.732 72.6678 189.456 72.4589 190.196 72.4603C191.186 72.4623 192.134 72.8393 192.833 73.509C193.533 74.1786 193.927 75.0862 193.929 76.0332Z" stroke="#263238" stroke-linecap="round" stroke-linejoin="round"/>
<path d="M203.242 77.0384C203.243 77.7468 203.025 78.4397 202.615 79.0294C202.205 79.6192 201.621 80.0792 200.938 80.3513C200.254 80.6234 199.502 80.6954 198.776 80.558C198.05 80.4207 197.383 80.0803 196.859 79.5799C196.335 79.0795 195.978 78.4416 195.833 77.7469C195.688 77.0522 195.762 76.3319 196.045 75.6773C196.328 75.0227 196.807 74.4631 197.422 74.0694C198.038 73.6756 198.761 73.4655 199.501 73.4655C200.491 73.4674 201.44 73.8442 202.141 74.5136C202.842 75.183 203.237 76.0907 203.242 77.0384V77.0384Z" stroke="#263238" stroke-linecap="round" stroke-linejoin="round"/>
<path d="M193.929 76.0332C194.196 75.9465 194.483 75.9301 194.76 75.9856C195.036 76.041 195.292 76.1665 195.5 76.3487" stroke="#263238" stroke-linecap="round" stroke-linejoin="round"/>
<path d="M203.372 77.6032L207.043 77.1044" stroke="#263238" stroke-linecap="round" stroke-linejoin="round"/>
<path d="M47.6556 247.944C46.6403 250.008 45.3911 251.959 43.9305 253.761C41.7154 256.366 41.1559 258.222 43.5626 259.836C45.9693 261.45 50.3536 261.201 52.561 258.596C54.7684 255.992 58.3249 248.809 58.3249 248.809C58.3249 248.809 50.5682 246.579 47.6556 247.944Z" fill="white" stroke="#263238" stroke-linecap="round" stroke-linejoin="round"/>
<path d="M74.6505 249.55C74.6505 249.55 78.4829 254.385 80.7823 256.887C83.0817 259.389 87.4276 260.599 89.75 260.474C92.0724 260.35 95.4066 259.609 93.1531 255.647C90.8997 251.685 86.1936 247.841 86.1936 247.841C86.1936 247.841 81.2728 247.841 77.8927 247.467C74.5125 247.092 74.4819 248.809 74.6505 249.55Z" fill="white" stroke="#263238" stroke-linecap="round" stroke-linejoin="round"/>
<path d="M49.7708 158.489C49.7708 158.489 48.2379 175.363 48.7591 187.234C49.2803 199.104 46.9962 222.794 46.2297 228.59C45.4633 234.386 46.9272 243.953 46.9962 246.058C47.0652 248.164 47.1418 249.286 47.1418 249.286C47.1418 249.286 48.2762 248.553 52.4535 249.286C54.3393 249.672 56.2536 249.917 58.179 250.02C59.9024 247.229 61.3275 244.28 62.4329 241.216C63.6823 237.254 62.9771 233.146 62.8775 231.055C62.7778 228.964 62.4176 226.719 62.6629 226.345C62.9081 225.971 68.0282 190.542 68.3041 182.736C68.6177 177.444 69.4387 172.191 70.7568 167.043C70.7568 167.043 73.2018 177.945 73.3935 182.157C73.5851 186.368 72.9566 220.688 73.2708 227.643C73.5851 234.598 73.0256 236.447 72.1978 238.179C71.37 239.91 71.6689 240.776 72.2514 242.14C72.8339 243.505 74.6658 249.572 74.6658 249.572C74.6658 249.572 84.0091 250.071 85.2738 249.448C86.5385 248.824 87.029 248.215 87.006 247.841C86.983 247.467 91.5052 238.546 91.076 234.833C90.6467 231.121 90.1562 231.737 89.7193 225.046C89.2824 218.355 92.1414 161.952 92.1337 159.017C92.126 156.083 91.6125 161.739 72.558 158.284C53.5035 154.828 50.315 156.134 49.7708 158.489Z" fill="#DAD2FF" stroke="#263238" stroke-linecap="round" stroke-linejoin="round"/>
<path d="M75.2024 244.73C75.2024 244.73 81.1885 239.771 86.1783 238.531L75.2024 244.73Z" fill="white"/>
<path d="M75.2024 244.73C75.2024 244.73 81.1885 239.771 86.1783 238.531" stroke="#263238" stroke-linecap="round" stroke-linejoin="round"/>
<path d="M50.7598 242.368C50.7598 242.368 58.2405 238.898 60.402 238.032L50.7598 242.368Z" fill="white"/>
<path d="M50.7598 242.368C50.7598 242.368 58.2405 238.898 60.402 238.032" stroke="#263238" stroke-linecap="round" stroke-linejoin="round"/>
<path d="M63.3144 66.8112C63.3144 66.8112 61.3062 62.4753 59.8193 63.9646C58.3323 65.454 59.459 67.4275 61.5055 69.7825C63.552 72.1376 65.1693 70.6482 64.74 69.6578C64.3108 68.6674 63.3144 66.8112 63.3144 66.8112Z" fill="white" stroke="#263238" stroke-linecap="round" stroke-linejoin="round"/>
<path d="M82.7522 64.4562C82.7522 64.4562 84.7604 60.245 86.4007 62.2552C88.0409 64.2655 84.5151 69.1956 83.649 70.0613C82.7829 70.9271 82.2234 64.3608 82.2234 64.3608L82.7522 64.4562Z" fill="white" stroke="#263238" stroke-linecap="round" stroke-linejoin="round"/>
<path d="M39.1553 118.725C39.1553 118.725 38.5958 126.406 37.9136 128.387C36.521 133.056 35.8699 137.898 35.9821 142.752C36.2504 148.57 38.6341 161.211 38.6801 165.048C38.7261 168.885 37.4767 169.758 38.8181 170.748C40.1594 171.739 43.0106 174.717 44.0454 174.717C45.0801 174.717 46.6591 175.209 46.6207 174.468C46.5824 173.727 46.0765 173.844 45.6396 172.854C45.0819 171.41 44.6261 169.932 44.2753 168.43C44.5901 167.336 44.9715 166.261 45.4174 165.209C45.4174 165.209 46.3371 168.305 46.5134 169.303C46.6897 170.301 48.1307 170.66 48.0464 168.804C47.9621 166.948 47.9237 166.2 47.8317 164.219C47.7398 162.238 46.1072 160.506 45.4174 159.509C44.7275 158.511 44.1833 157.902 44.1604 157.528C44.1374 157.154 46.3908 144.029 46.4598 139.443C46.5288 134.858 46.5977 131.138 46.9426 130.272C47.2876 129.407 49.0045 121.601 49.0045 121.601L39.1553 118.725Z" fill="white" stroke="#263238" stroke-linecap="round" stroke-linejoin="round"/>
<path d="M103.171 119.092C103.171 119.092 103.723 126.817 104.413 128.857C105.789 133.586 106.437 138.482 106.337 143.39C106.068 149.193 103.669 161.629 103.623 165.466C103.577 169.303 104.834 170.271 103.493 171.152C102.152 172.032 99.2926 174.761 98.2579 174.681C97.2232 174.6 95.6519 174.952 95.6826 174.211C95.7132 173.47 96.2267 173.639 96.6636 172.685C97.2299 171.271 97.6884 169.819 98.0356 168.342C97.7183 167.214 97.3344 166.105 96.8859 165.018C96.8859 165.018 95.9661 168.041 95.7899 169.017C95.6136 169.993 94.1803 170.242 94.2569 168.393C94.3336 166.544 94.3719 165.803 94.4639 163.83C94.5558 161.856 96.1884 160.257 96.8859 159.325C97.5834 158.394 98.1199 157.814 98.1429 157.447C98.1659 157.08 95.9125 143.757 95.8435 139.164C95.7745 134.572 95.7132 130.852 95.3606 129.957C95.0081 129.062 93.2988 121.109 93.2988 121.109L103.171 119.092Z" fill="white" stroke="#263238" stroke-linecap="round" stroke-linejoin="round"/>
<path d="M67.4612 81.0588C67.4612 81.0588 60.1031 84.4042 55.6575 86.2604C51.212 88.1165 45.6244 90.3468 45.6934 91.2199C45.7624 92.0929 40.9566 109.429 39.439 113.024C37.9214 116.619 36.5034 119.466 36.5034 119.466C36.5034 119.466 41.9377 122.943 45.4635 123.677C47.7357 124.137 50.0422 124.427 52.3617 124.543L48.1691 160.228C48.1691 160.228 56.6003 163.448 69.8066 163.573C78.0009 163.631 86.1914 163.217 94.3337 162.333C94.3337 162.333 95.5754 132.987 95.4451 130.118C95.3551 128.546 95.4141 126.97 95.6214 125.408C97.633 125.828 99.7237 125.745 101.692 125.166C103.423 124.55 105.119 123.847 106.774 123.061C106.774 123.061 100.343 98.5271 99.2851 95.1816C98.2274 91.8362 98.7179 91.3446 97.7981 90.9704C96.8784 90.5963 86.715 86.3851 83.3961 84.5289C80.0773 82.6728 78.7973 82.6655 75.8924 81.7997C72.9875 80.934 68.9558 79.8189 67.4612 81.0588Z" fill="#DAD2FF" stroke="#263238" stroke-linecap="round" stroke-linejoin="round"/>
<path d="M95.6366 125.408L93.9963 103.406" stroke="#263238" stroke-linecap="round" stroke-linejoin="round"/>
<path d="M52.6683 136.934L67.0243 136.56C67.0243 136.56 66.3881 153.786 65.9512 155.635C65.5144 157.484 62.6018 158.731 58.8384 158.606C55.075 158.481 52.7986 156.75 52.3694 155.884" stroke="#263238" stroke-linecap="round" stroke-linejoin="round"/>
<path d="M51.8633 139.164L67.0011 139.04" stroke="#263238" stroke-linecap="round" stroke-linejoin="round"/>
<path d="M91.72 158.614C90.3096 158.988 86.9448 158.988 86.209 157.007C85.4732 155.026 85.9561 137.308 85.9561 137.308L93.3449 137.55" stroke="#263238" stroke-linecap="round" stroke-linejoin="round"/>
<path d="M85.8948 138.79L92.9233 139.781" stroke="#263238" stroke-linecap="round" stroke-linejoin="round"/>
<path d="M52.3616 124.543C52.3616 124.543 52.8828 107.573 52.6758 103.113" stroke="#263238" stroke-linecap="round" stroke-linejoin="round"/>
<path d="M65.269 72.7538C65.269 72.7538 66.3881 83.025 66.4341 84.1548C66.4801 85.2846 67.7907 88.366 69.0324 89.98C70.2741 91.5941 73.7462 96.7957 75.1259 95.7979C76.5055 94.8001 80.3915 89.2317 80.7671 86.1357C81.1427 83.0396 81.3266 75.7324 81.3266 75.7324C81.3266 75.7324 76.2909 75.9819 72.4739 74.742C68.6569 73.5021 65.269 72.7538 65.269 72.7538Z" fill="white" stroke="#263238" stroke-linecap="round" stroke-linejoin="round"/>
<path d="M59.9036 57.3911L62.7625 66.0702C62.7625 66.0702 63.8356 72.5117 65.7671 75.1089C67.6986 77.706 74.4665 81.433 77.5401 80.6846C80.6136 79.9363 84.239 77.2144 84.1011 74.2431C83.9631 71.2718 83.3346 62.6 83.4189 59.2545C83.5032 55.9091 82.6524 49.0934 80.537 47.2373C78.4215 45.3811 71.3393 44.2586 66.2576 46.2468C61.1759 48.235 57.7268 51.94 59.9036 57.3911Z" fill="#263238" stroke="#263238" stroke-linecap="round" stroke-linejoin="round"/>
<path d="M62.9235 66.8112C62.9235 66.8112 62.6706 66.9359 63.3374 64.4561C64.0043 61.9764 66.0124 60.7365 66.2117 59.5039C66.411 58.2714 63.6823 57.8899 63.9813 56.0337C64.2802 54.1776 66.9475 52.813 72.6117 52.1894C78.2759 51.5658 82.047 54.7939 81.863 56.4006C81.6791 58.0073 81.1732 58.2641 82.001 59.3792C82.8288 60.4944 83.1814 62.6 83.2427 63.8398C83.304 65.0797 84.0092 69.533 82.7828 70.8976C81.5564 72.2622 80.6367 72.0128 79.418 70.8976C78.1993 69.7825 77.7471 68.3005 75.0338 68.3005C72.3205 68.3005 71.4544 69.2909 70.9791 70.2813C70.5039 71.2718 70.0441 72.4823 68.4958 72.4823C66.9475 72.4823 65.8438 71.1177 64.7401 69.6284C64.0675 68.7305 63.4605 67.7892 62.9235 66.8112Z" fill="white" stroke="#263238" stroke-linecap="round" stroke-linejoin="round"/>
<path d="M74.5892 60.7366C74.5892 60.7366 77.0956 67.4275 76.9883 67.9264C76.881 68.4253 75.6546 69.9073 74.2213 69.7825C72.788 69.6578 72.0752 68.0511 72.0752 68.0511" stroke="#263238" stroke-linecap="round" stroke-linejoin="round"/>
<path d="M75.2945 59.8487C75.2259 59.6248 75.2112 59.3889 75.2513 59.1588C75.2914 58.9286 75.3854 58.7101 75.5262 58.5196C75.667 58.3291 75.851 58.1715 76.0643 58.0587C76.2777 57.9458 76.515 57.8806 76.7584 57.8679C77.5593 57.8307 78.3595 57.9552 79.1069 58.2333C79.8543 58.5113 80.5322 58.9368 81.0966 59.4819" stroke="#263238" stroke-width="2" stroke-linecap="round" stroke-linejoin="round"/>
<path d="M71.5235 59.1152C71.1536 58.8519 70.7273 58.6706 70.2753 58.5844C69.8233 58.4981 69.3569 58.509 68.9098 58.6163C67.3769 58.9905 65.5297 61.2208 65.5527 61.5949" stroke="#263238" stroke-width="2" stroke-linecap="round" stroke-linejoin="round"/>
<path d="M71.0251 62.7248C71.0251 63.341 70.7568 63.8399 70.3583 63.8399C69.9597 63.8399 69.5918 63.341 69.5918 62.7248C69.5918 62.1085 69.8601 61.6096 70.251 61.6096C70.6419 61.6096 70.9944 62.1085 71.0251 62.7248Z" fill="#263238"/>
<path d="M78.5135 62.3505C78.5135 62.9668 78.2453 63.4657 77.8544 63.4657C77.4635 63.4657 77.0879 62.9668 77.0879 62.3505C77.0879 61.7342 77.3562 61.2354 77.7471 61.2354C78.138 61.2354 78.4829 61.7342 78.5135 62.3505Z" fill="#263238"/>
<path d="M71.8606 72.5117C71.8606 72.5117 74.3669 73.6269 78.1763 72.0128" stroke="white" stroke-width="2" stroke-linecap="round" stroke-linejoin="round"/>
<path d="M62.6399 83.3258C62.6399 83.3258 66.4722 95.9594 70.5882 104.264C74.7041 112.569 77.9693 118.387 77.9693 118.387C77.9693 118.387 84.1701 98.4391 84.1394 91.9756C84.1088 85.5121 84.0704 84.7931 84.0704 84.7931" stroke="#263238" stroke-linecap="round" stroke-linejoin="round"/>
<path d="M82.5607 130.984H74.6583L74.0835 118.35H81.9782L82.5607 130.984Z" fill="white" stroke="#263238" stroke-linecap="round" stroke-linejoin="round"/>
<path d="M140.613 253.395C140.613 253.395 144.752 256.615 147.726 257.481C150.7 258.347 152.256 258.846 151.612 260.21C150.968 261.575 148.891 262.066 142.813 262.191C136.735 262.316 135.562 261.076 133.232 260.452C130.902 259.829 127.667 260.452 126.633 259.22C125.598 257.987 125.981 256.116 125.981 254.136C125.981 252.155 134.918 251.289 137.248 252.03C138.418 252.368 139.546 252.825 140.613 253.395Z" fill="white" stroke="#263238" stroke-linecap="round" stroke-linejoin="round"/>
<path d="M128.833 255.874C128.833 255.874 132.719 259.836 135.953 261.568C139.188 263.299 140.996 264.546 140.222 265.412C139.448 266.278 136.988 267.393 130.511 266.777C124.034 266.16 122.747 264.788 119.643 262.683C116.538 260.577 115.113 260.827 114.078 259.711C113.043 258.596 113.043 256.116 113.043 256.116L128.833 255.874Z" fill="white" stroke="#263238" stroke-linecap="round" stroke-linejoin="round"/>
<path d="M148.247 164.189C148.247 164.189 145.948 193.675 145.013 199.001C144.078 204.328 143.196 207.306 143.326 211.019C143.457 214.731 144.622 225.391 142.292 231.715C139.962 238.039 139.992 245.713 140.222 247.943C140.452 250.174 141.257 253.145 141.127 253.644C140.996 254.143 137.248 256.116 134.527 256.615C132.817 256.916 131.084 257.08 129.346 257.107C126.713 257.997 123.977 258.581 121.198 258.846C117.312 259.095 112.001 257.98 112.001 257.98C112.001 257.98 112.001 248.809 111.48 242.859C110.958 236.909 109.18 227.379 111.349 220.189C113.518 212.999 113.036 209.184 112.882 206.807C112.729 204.43 112.882 193.8 112.752 193.426C112.622 193.051 111.848 162.084 111.848 162.084C111.848 162.084 125.951 164.065 135.401 163.199C144.852 162.333 147.312 162.333 147.312 162.333C147.312 162.333 149.412 160.103 148.247 164.189Z" fill="#263238" stroke="#263238" stroke-linecap="round" stroke-linejoin="round"/>
<path d="M129.997 255.375C129.99 253.37 129.733 251.373 129.231 249.425C128.464 246.953 128.319 238.157 128.71 234.562C129.101 230.967 131.009 221.928 131.009 216.844C131.009 211.76 131.53 203.961 131.53 203.961" stroke="white" stroke-linecap="round" stroke-linejoin="round"/>
<path d="M156.786 201.232L142.039 201.107C141.395 201.107 141.395 191.694 141.395 191.694L156.786 201.232Z" fill="white" stroke="#263238" stroke-linecap="round" stroke-linejoin="round"/>
<path d="M125.598 165.928C125.598 165.928 140.353 166.794 148.638 165.429L145.787 98.7766C145.787 98.7766 143.848 95.6805 138.666 93.9418C133.485 92.203 127.277 94.6754 125.077 97.0378C122.877 99.4002 124.433 165.679 124.433 165.679L125.598 165.928Z" fill="#DAD2FF" stroke="#263238" stroke-linecap="round" stroke-linejoin="round"/>
<path d="M126.242 93.9418C126.242 93.9418 111.618 101.007 109.418 102.247C107.218 103.487 107.118 107.94 107.118 110.053C107.118 112.166 107.762 205.942 107.762 205.942C113.298 206.288 118.855 205.745 124.203 204.335C129.478 203.014 134.441 200.743 138.827 197.644L136.367 147.22L133.608 102.988C133.608 102.988 131.937 90.721 126.242 93.9418Z" fill="white" stroke="#263238" stroke-linecap="round" stroke-linejoin="round"/>
<path d="M130.641 89.3564C130.641 89.3564 127.276 89.7306 125.851 91.5574C125.015 92.6352 124.402 93.8552 124.042 95.1523L122.747 106.304L127.146 105.313L124.946 110.266C124.946 110.266 127.146 116.465 129.606 121.667C132.067 126.868 135.692 137.521 135.692 137.521L134.006 104.198C134.006 104.198 134.006 94.5361 133.24 92.4598C132.473 90.3836 131.676 89.3564 130.641 89.3564Z" fill="white" stroke="#263238" stroke-linecap="round" stroke-linejoin="round"/>
<path d="M139.057 96.1721L141.648 197.145L156.786 201.232L154.586 124.3C154.586 124.3 154.977 104.492 153.681 101.748C152.386 99.004 140.743 93.4502 139.578 93.597C138.413 93.7437 139.057 96.1721 139.057 96.1721Z" fill="white" stroke="#263238" stroke-linecap="round" stroke-linejoin="round"/>
<path d="M139.057 91.0952C140 91.3151 140.881 91.7281 141.641 92.3057C142.4 92.8833 143.02 93.6117 143.457 94.4407C144.752 97.1625 148.117 105.592 148.117 105.592L143.848 106.084L148.378 109.18L140.353 138.049L139.448 106.803L138.682 93.9198C138.682 93.9198 137.762 91.8362 139.057 91.0952Z" fill="white" stroke="#263238" stroke-linecap="round" stroke-linejoin="round"/>
<path d="M129.607 85.1453C129.607 85.1453 130.128 88.7402 129.346 90.721C128.564 92.7019 131.806 98.9013 133.102 102.738C134.397 106.575 135.692 109.679 136.466 109.305C137.241 108.93 139.962 94.4407 139.831 92.5772C139.701 90.7137 140.996 85.1453 140.996 85.1453C140.996 85.1453 133.876 87.1261 129.607 85.1453Z" fill="white" stroke="#263238" stroke-linecap="round" stroke-linejoin="round"/>
<path d="M120.516 81.367C124.593 81.367 127.897 78.0626 127.897 73.9864C127.897 69.9102 124.593 66.6058 120.516 66.6058C116.44 66.6058 113.135 69.9102 113.135 73.9864C113.135 78.0626 116.44 81.367 120.516 81.367Z" fill="#263238" stroke="#263238" stroke-linecap="round" stroke-linejoin="round"/>
<path d="M124.303 77.4566C124.303 77.4566 123.007 74.2358 121.451 75.4757C119.895 76.7156 121.451 79.4374 122.616 81.0515C123.781 82.6655 125.981 81.9172 125.728 80.3178C125.519 79.2622 125.028 78.2765 124.303 77.4566Z" fill="white" stroke="#263238" stroke-linecap="round" stroke-linejoin="round"/>
<path d="M144.338 75.4537C144.338 75.4537 144.99 72.3577 145.871 74.4633C146.261 75.2881 146.441 76.1898 146.396 77.0942C146.35 77.9985 146.081 78.8796 145.61 79.6649C144.844 80.9048 144.967 80.7801 144.706 79.6649C144.502 78.2687 144.38 76.8629 144.338 75.4537Z" fill="white" stroke="#263238" stroke-linecap="round" stroke-linejoin="round"/>
<path d="M122.486 71.4919C122.486 71.4919 124.946 82.8856 126.502 85.6148C128.058 88.344 133.232 92.9514 137.892 91.0659C142.552 89.1804 145.143 85.7395 145.143 81.5284C145.143 77.3172 145.787 71.9908 145.013 67.3981C144.622 65.3069 143.497 63.4059 141.825 62.0092C140.153 60.6125 138.033 59.8038 135.815 59.7168C131.668 59.592 125.199 61.8224 123.904 65.7914C123.233 67.6412 122.757 69.551 122.486 71.4919Z" fill="white" stroke="#263238" stroke-linecap="round" stroke-linejoin="round"/>
<path d="M122.616 75.7031C122.616 75.7031 129.867 72.9739 134.527 69.6284C139.187 66.283 140.613 63.8106 140.613 63.8106C140.613 63.8106 142.813 69.5037 143.717 71.3672C144.622 73.2307 145.396 75.329 145.396 75.329C145.396 75.329 146.821 72.9739 146.821 67.9924C146.821 63.0109 145.396 59.0711 139.923 56.4667C134.451 53.8622 125.56 55.4762 121.528 59.1959C117.496 62.9155 118.293 68.9828 119.328 71.3379C120.138 72.9721 121.252 74.4513 122.616 75.7031Z" fill="#263238" stroke="#263238" stroke-linecap="round" stroke-linejoin="round"/>
<path d="M138.666 71.1178C138.666 71.1178 137.9 71.2425 137.9 73.4728C137.9 75.7032 138.666 79.4155 138.544 79.9143C138.421 80.4132 137.011 81.8952 136.091 81.0295" stroke="#263238" stroke-linecap="round" stroke-linejoin="round"/>
<path d="M132.841 83.2598C132.841 83.2598 136.206 84.6244 140.506 82.1447" stroke="#263238" stroke-linecap="round" stroke-linejoin="round"/>
<path d="M139.188 70.8536C139.188 70.8536 141.916 69.8559 143.717 71.3525" stroke="#263238" stroke-linecap="round" stroke-linejoin="round"/>
<path d="M134.658 71.3672C133.473 71.0304 132.222 70.9671 131.007 71.1826C129.792 71.3982 128.647 71.8863 127.667 72.6071" stroke="#263238" stroke-linecap="round" stroke-linejoin="round"/>
<path d="M132.841 74.9548C132.841 75.6885 132.527 76.3194 132.136 76.3194C131.745 76.3194 131.423 75.7105 131.423 74.9548C131.423 74.1991 131.737 73.5975 132.136 73.5975C132.534 73.5975 132.841 74.2065 132.841 74.9548Z" fill="#263238"/>
<path d="M141.272 74.4632C141.272 75.1969 140.95 75.8278 140.56 75.8278C140.169 75.8278 139.847 75.2189 139.847 74.4632C139.847 73.7076 140.169 73.0986 140.56 73.0986C140.95 73.0986 141.272 73.7076 141.272 74.4632Z" fill="#263238"/>
<path d="M149.543 124.667L147.243 121.072C146.592 120.082 143.618 120.456 142.192 120.456C141.451 120.53 140.738 120.767 140.109 121.149C139.48 121.531 138.952 122.047 138.567 122.657C138.053 123.648 135.723 125.262 136.628 126.252C137.532 127.242 139.992 126.619 140.383 126.868C140.774 127.118 144.009 129.223 145.174 129.598C145.793 129.815 146.456 129.898 147.113 129.84L149.543 124.667Z" stroke="#263238" stroke-linecap="round" stroke-linejoin="round"/>
<path d="M153.038 101.007C154.34 101.582 155.505 102.406 156.462 103.428C157.418 104.45 158.147 105.648 158.602 106.95C160.028 111.285 164.811 140.155 163.776 142.899C162.741 145.643 160.158 147.726 155.628 146.244C151.099 144.762 144.131 137.69 144.131 137.69L149.566 124.682L153.835 126.788L152.93 115.144" fill="white"/>
<path d="M153.038 101.007C154.34 101.582 155.505 102.406 156.462 103.428C157.419 104.45 158.147 105.648 158.602 106.95C160.028 111.285 164.811 140.155 163.776 142.899C162.741 145.643 160.158 147.726 155.628 146.244C151.099 144.762 144.131 137.69 144.131 137.69L149.566 124.682L153.835 126.788L152.93 115.144" stroke="#263238" stroke-linecap="round" stroke-linejoin="round"/>
<path d="M153.812 126.773C153.812 126.773 160.672 130.617 161.323 131.982" stroke="#263238" stroke-linecap="round" stroke-linejoin="round"/>
<path d="M145.135 109.429H120.156V142.884H145.135V109.429Z" fill="#263238" stroke="#263238" stroke-linecap="round" stroke-linejoin="round"/>
<path d="M131.423 132.723C131.423 132.723 136.206 130.243 137.631 128.878C139.057 127.514 139.318 127.411 140.092 127.411C141.997 127.411 143.9 127.286 145.787 127.037C146.553 126.788 146.178 128.504 145.787 128.893C145.396 129.282 142.943 129.766 142.943 129.766C142.943 129.766 147.082 129.392 147.212 130.632C147.305 130.987 147.293 131.361 147.178 131.71C147.063 132.06 146.85 132.372 146.561 132.613L146.178 132.987C146.178 132.987 146.561 135.584 146.178 136.824C145.794 138.064 145.013 138.438 143.326 138.68C141.076 138.818 138.816 138.695 136.597 138.313C135.301 138.064 130.902 138.93 130.902 138.93L131.423 132.723Z" fill="white" stroke="#263238" stroke-linecap="round" stroke-linejoin="round"/>
<path d="M114.208 100.016C114.208 100.016 106.543 101.623 105.271 102.364C103.999 103.105 99.7065 132.598 98.8021 137.58C97.8976 142.561 106.827 143.53 109.533 144.52C112.238 145.51 132.075 146.97 132.075 146.97L132.335 131.608L118.615 128.262L118.485 107.074" fill="white"/>
<path d="M114.208 100.016C114.208 100.016 106.543 101.623 105.271 102.364C103.999 103.105 99.7065 132.598 98.8021 137.58C97.8976 142.561 106.827 143.53 109.533 144.52C112.238 145.51 132.075 146.97 132.075 146.97L132.335 131.608L118.615 128.262L118.485 107.074" stroke="#263238" stroke-linecap="round" stroke-linejoin="round"/>
<path d="M118.608 128.262C118.608 128.262 113.817 126.157 110.713 127.272C107.609 128.387 105.018 134.087 105.018 134.087" stroke="#263238" stroke-linecap="round" stroke-linejoin="round"/>
<path d="M113.296 126.773C113.296 126.773 108.766 126.524 106.566 127.397C105.213 127.944 104.016 128.792 103.071 129.869" stroke="#263238" stroke-linecap="round" stroke-linejoin="round"/>
<path d="M137.892 108.314H129.093V111.043H137.892V108.314Z" fill="white" stroke="#263238" stroke-linecap="round" stroke-linejoin="round"/>
</svg>
