<svg width="313" height="313" viewBox="0 0 313 313" fill="none" xmlns="http://www.w3.org/2000/svg">
<path d="M287.71 243.577C293.218 233.874 296.912 223.044 298.852 211.838C310.496 146.046 287.397 68.0462 221.354 40.3144C198.567 30.7366 172.463 29.2968 148.863 36.6836C122.07 45.072 104.792 65.9178 83.2579 82.5694C68.0462 94.2756 48.8279 100.035 34.8681 113.369C20.0945 127.454 10.6419 147.736 10.5793 168.269C10.5793 182.729 16.3385 196.689 28.1073 205.516C39.6257 214.155 54.2115 216.408 66.6689 223.169C80.5661 230.681 88.892 243.827 99.9722 254.532C125.576 279.196 163.949 286.833 198.379 285.706C232.183 284.454 269.806 274.939 287.71 243.577Z" fill="#DED3FF"/>
<path d="M287.71 243.577C293.218 233.874 296.912 223.044 298.852 211.838C310.496 146.046 287.397 68.0462 221.354 40.3144C198.567 30.7366 172.463 29.2968 148.863 36.6836C122.07 45.072 104.792 65.9178 83.2579 82.5694C68.0462 94.2756 48.8279 100.035 34.8681 113.369C20.0945 127.454 10.6419 147.736 10.5793 168.269C10.5793 182.729 16.3385 196.689 28.1073 205.516C39.6257 214.155 54.2115 216.408 66.6689 223.169C80.5661 230.681 88.892 243.827 99.9722 254.532C125.576 279.196 163.949 286.833 198.379 285.706C232.183 284.454 269.806 274.939 287.71 243.577Z" fill="#00DDDD"/>
<path d="M243.013 235.376C244.703 236.127 248.898 236.002 248.898 236.002C248.96 236.002 248.021 233.248 247.896 233.122C246.957 231.182 244.077 228.052 241.761 228.365C240.071 228.615 239.132 230.305 239.508 231.87C239.883 233.561 241.573 234.75 243.013 235.376Z" fill="#DED3FF" stroke="#263238" stroke-miterlimit="10"/>
<path d="M244.453 247.458C246.206 247.708 249.962 246.644 250.212 246.581C250.776 248.647 251.589 250.776 252.466 252.841C252.967 254.031 253.53 255.22 254.093 256.347C253.78 255.846 253.467 255.408 253.405 255.345C252.028 253.718 248.397 251.464 246.206 252.403C244.641 253.092 244.203 254.97 244.954 256.41C245.768 257.849 247.708 258.601 249.273 258.851C250.838 259.101 254.031 258.225 254.907 257.975C255.158 258.413 255.345 258.851 255.596 259.289C256.66 261.418 257.724 263.546 258.726 265.674C259.101 266.426 259.414 267.177 259.727 267.928C259.414 267.49 259.164 267.114 259.101 267.052C257.724 265.424 254.093 263.17 251.902 264.109C250.337 264.798 249.899 266.676 250.65 268.116C251.464 269.556 253.405 270.307 254.97 270.557C256.472 270.808 259.414 269.994 260.416 269.743C260.729 270.495 261.042 271.308 261.292 272.06C261.48 272.56 261.668 273.061 261.793 273.625C261.918 274.125 262.106 274.689 262.231 275.19C262.482 276.191 262.732 277.255 262.92 278.257C263.045 278.946 263.233 279.634 263.358 280.26C263.045 279.509 262.294 278.069 262.231 277.944C261.105 276.129 257.849 273.374 255.596 273.938C253.968 274.376 253.217 276.129 253.78 277.694C254.344 279.259 256.159 280.26 257.662 280.761C259.352 281.262 263.045 280.824 263.483 280.761C263.734 281.888 263.922 282.952 264.109 283.954C264.485 286.207 264.798 288.21 265.048 289.901H266.613C266.363 288.148 265.987 286.019 265.549 283.703C265.299 282.576 265.048 281.387 264.798 280.198C265.048 280.072 266.676 279.446 268.053 278.695C269.243 280.01 272.373 281.575 272.811 281.763C272.373 282.827 271.934 283.828 271.559 284.767C270.682 286.771 269.869 288.523 269.18 290.026H270.87C271.496 288.649 272.185 287.084 272.873 285.331C273.312 284.267 273.75 283.14 274.188 281.95C274.626 282.013 278.257 282.764 280.01 282.389C281.575 282.013 283.453 281.137 284.141 279.634C284.83 278.132 284.204 276.316 282.576 275.753C280.323 275.002 276.88 277.568 275.628 279.259C275.565 279.384 274.877 280.511 274.438 281.262C274.626 280.761 274.814 280.323 275.002 279.822C275.377 278.82 275.69 277.881 276.066 276.817C276.191 276.316 276.379 275.753 276.567 275.252C276.755 274.751 276.817 274.188 277.005 273.625C277.318 272.31 277.568 270.995 277.756 269.681C278.633 269.994 281.7 271.058 283.265 270.933C284.83 270.808 286.833 270.244 287.71 268.867C288.586 267.49 288.273 265.549 286.771 264.798C284.642 263.734 280.886 265.737 279.384 267.239C279.321 267.302 278.32 268.554 277.819 269.18C277.944 268.366 278.069 267.552 278.194 266.739C278.507 264.36 278.695 261.981 278.946 259.602C279.008 258.851 279.071 258.162 279.196 257.411C279.509 257.536 283.14 258.851 284.893 258.726C286.458 258.601 288.461 258.037 289.337 256.66C290.214 255.283 289.901 253.342 288.398 252.591C286.27 251.527 282.514 253.53 281.011 255.032C280.886 255.158 279.509 256.848 279.196 257.349C279.384 255.721 279.572 254.156 279.822 252.591C280.135 250.4 280.636 248.334 281.199 246.331C281.324 246.394 285.08 247.833 286.896 247.708C288.461 247.583 290.464 247.02 291.34 245.642C292.217 244.265 291.904 242.325 290.401 241.573C288.273 240.509 284.517 242.512 283.015 244.015C282.889 244.14 281.45 245.955 281.199 246.331C281.262 246.206 281.262 246.081 281.324 245.955C281.95 243.827 282.889 241.824 283.828 240.008C284.392 238.944 284.955 237.943 285.519 237.004C286.207 237.317 289.275 238.819 290.965 238.882C292.53 238.944 294.596 238.569 295.66 237.317C296.724 236.065 296.599 234.124 295.159 233.185C293.156 231.87 289.212 233.435 287.522 234.75C287.459 234.813 286.583 235.626 286.019 236.252C286.27 235.814 286.583 235.376 286.833 235C287.835 233.498 288.836 232.183 289.713 231.057C290.214 230.431 290.714 229.805 291.153 229.304C291.966 229.304 295.347 229.179 296.787 228.49C298.226 227.801 299.854 226.549 300.23 224.922C300.543 223.294 299.604 221.667 297.851 221.479C295.472 221.228 292.718 224.484 291.841 226.424C291.779 226.612 290.902 229.366 290.965 229.366H291.027C290.589 229.867 290.088 230.431 289.588 231.057C288.649 232.183 287.647 233.498 286.583 234.938C285.581 236.44 284.454 238.068 283.515 239.883C282.514 241.699 281.575 243.702 280.886 245.83V245.893C280.886 245.204 280.886 243.264 280.824 243.076C280.573 240.947 278.82 237.066 276.442 236.628C274.751 236.315 273.312 237.63 273.186 239.257C273.061 240.947 274.251 242.575 275.44 243.639C276.755 244.829 280.448 245.955 280.761 246.081C280.072 248.146 279.572 250.275 279.196 252.528C278.946 253.78 278.758 255.095 278.633 256.347C278.633 255.721 278.633 255.22 278.633 255.158C278.382 253.029 276.629 249.148 274.251 248.71C272.56 248.397 271.121 249.711 270.995 251.339C270.87 253.029 272.06 254.657 273.249 255.721C274.438 256.785 277.568 257.849 278.382 258.1C278.32 258.601 278.257 259.101 278.194 259.602C277.881 261.981 277.631 264.36 277.318 266.676C277.193 267.49 277.068 268.304 276.88 269.117C276.88 268.554 276.88 268.116 276.88 268.053C276.629 265.925 274.877 262.044 272.498 261.605C270.808 261.292 269.368 262.607 269.243 264.235C269.117 265.925 270.307 267.552 271.496 268.617C272.623 269.618 275.503 270.62 276.504 270.933C276.316 271.747 276.129 272.56 275.941 273.374C275.816 273.938 275.69 274.438 275.503 274.939C275.315 275.44 275.19 276.003 275.002 276.504C274.626 277.506 274.313 278.507 273.938 279.446C273.687 280.135 273.437 280.761 273.186 281.387C273.312 280.573 273.562 278.946 273.562 278.82C273.625 277.443 273.124 275.127 272.122 273.499C272.122 273.312 272.122 273.061 272.06 272.873C271.809 271.246 270.307 270.056 268.617 270.495C266.3 271.121 264.861 275.127 264.735 277.255C264.735 277.381 264.798 278.758 264.861 279.572C264.735 279.071 264.61 278.57 264.485 278.069C264.235 277.068 263.984 276.066 263.671 274.939C263.546 274.438 263.358 273.875 263.17 273.374C263.045 272.873 262.795 272.31 262.607 271.747C262.169 270.495 261.605 269.243 261.105 268.053C261.981 267.865 265.111 267.052 266.426 266.05C267.678 265.111 268.992 263.483 268.992 261.856C268.992 260.228 267.678 258.788 265.987 258.976C263.609 259.227 261.605 262.983 261.167 265.048C261.167 265.174 260.979 266.676 260.917 267.552C260.604 266.801 260.228 266.05 259.853 265.361C258.788 263.233 257.662 261.105 256.535 258.976C256.222 258.35 255.846 257.662 255.533 257.036C255.846 256.973 259.602 256.097 261.042 255.032C262.294 254.093 263.609 252.466 263.609 250.838C263.609 249.211 262.294 247.771 260.604 247.959C258.225 248.209 256.222 251.965 255.784 254.031C255.721 254.156 255.533 256.41 255.533 256.91C254.782 255.471 254.093 254.031 253.405 252.591C252.466 250.588 251.715 248.585 251.089 246.581C251.214 246.519 255.158 245.642 256.597 244.516C257.849 243.577 259.164 241.949 259.164 240.321C259.164 238.694 257.849 237.254 256.159 237.442C253.78 237.692 251.777 241.448 251.339 243.514C251.276 243.702 251.089 246.018 251.089 246.456C251.026 246.331 251.026 246.206 250.963 246.081C250.337 243.952 249.962 241.824 249.774 239.758C249.649 238.569 249.586 237.442 249.524 236.315C250.275 236.252 253.655 235.752 255.095 234.938C256.472 234.124 257.975 232.684 258.1 231.057C258.288 229.429 257.098 227.864 255.408 227.864C253.029 227.864 250.588 231.37 249.962 233.373C249.899 233.498 249.711 234.625 249.524 235.501C249.524 235 249.524 234.5 249.524 233.999C249.524 232.183 249.649 230.556 249.774 229.116C249.837 228.302 249.899 227.551 250.024 226.862C250.713 226.362 253.467 224.484 254.281 223.044C255.095 221.667 255.784 219.726 255.158 218.161C254.532 216.659 252.841 215.782 251.276 216.596C249.148 217.66 248.585 221.917 248.96 224.045C248.96 224.233 249.774 226.988 249.837 226.988H249.899C249.837 227.676 249.711 228.365 249.649 229.179C249.524 230.618 249.336 232.309 249.336 234.061C249.273 235.877 249.273 237.817 249.461 239.883C249.649 241.949 249.962 244.14 250.525 246.331V246.394C250.15 245.83 249.023 244.203 248.96 244.077C247.583 242.45 243.952 240.196 241.761 241.135C240.196 241.824 239.695 243.702 240.509 245.142C240.947 246.519 242.888 247.207 244.453 247.458Z" fill="#DED3FF"/>
<path d="M281.199 246.331C280.636 248.334 280.135 250.4 279.822 252.591C279.572 254.156 279.384 255.721 279.196 257.349C279.509 256.848 280.886 255.158 281.011 255.032C282.514 253.53 286.27 251.527 288.398 252.591C289.901 253.342 290.214 255.283 289.337 256.66C288.461 258.037 286.458 258.601 284.893 258.726C283.14 258.851 279.509 257.536 279.196 257.411C279.071 258.162 279.008 258.851 278.946 259.602C278.695 261.981 278.507 264.36 278.194 266.739C278.069 267.552 277.944 268.366 277.819 269.18C278.32 268.554 279.321 267.302 279.384 267.239C280.886 265.737 284.642 263.734 286.771 264.798C288.273 265.549 288.586 267.49 287.71 268.867C286.833 270.244 284.83 270.808 283.265 270.933C281.7 271.058 278.633 269.994 277.756 269.681C277.568 270.995 277.318 272.31 277.005 273.625C276.817 274.188 276.755 274.751 276.567 275.252C276.379 275.753 276.191 276.316 276.066 276.817C275.69 277.881 275.377 278.82 275.002 279.822C274.814 280.323 274.626 280.761 274.438 281.262C274.877 280.511 275.565 279.384 275.628 279.259C276.88 277.568 280.323 275.002 282.576 275.753C284.204 276.316 284.83 278.132 284.141 279.634C283.453 281.137 281.575 282.013 280.01 282.389C278.257 282.764 274.626 282.013 274.188 281.95C273.75 283.14 273.312 284.267 272.873 285.331C272.185 287.084 271.496 288.649 270.87 290.026H269.18C269.869 288.523 270.682 286.771 271.559 284.767C271.934 283.828 272.373 282.827 272.811 281.763C272.373 281.575 269.243 280.01 268.053 278.695C266.676 279.446 265.048 280.072 264.798 280.198C265.048 281.387 265.299 282.576 265.549 283.703C265.987 286.019 266.363 288.148 266.613 289.901H265.048C264.798 288.21 264.485 286.207 264.109 283.954C263.922 282.952 263.734 281.888 263.483 280.761C263.045 280.824 259.352 281.262 257.662 280.761C256.159 280.26 254.344 279.259 253.78 277.694C253.217 276.129 253.968 274.376 255.596 273.938C257.849 273.374 261.105 276.129 262.231 277.944C262.294 278.069 263.045 279.509 263.358 280.26C263.233 279.634 263.045 278.946 262.92 278.257C262.732 277.255 262.482 276.191 262.231 275.19C262.106 274.689 261.918 274.125 261.793 273.625C261.668 273.061 261.48 272.56 261.292 272.06C261.042 271.308 260.729 270.495 260.416 269.743C259.414 269.994 256.472 270.808 254.97 270.557C253.405 270.307 251.464 269.556 250.65 268.116C249.899 266.676 250.337 264.798 251.902 264.109C254.093 263.17 257.724 265.424 259.101 267.052C259.164 267.114 259.414 267.49 259.727 267.928C259.414 267.177 259.101 266.426 258.726 265.674C257.724 263.546 256.66 261.418 255.596 259.289C255.345 258.851 255.158 258.413 254.907 257.975C254.031 258.225 250.838 259.101 249.273 258.851C247.708 258.601 245.768 257.849 244.954 256.41C244.203 254.97 244.641 253.092 246.206 252.403C248.397 251.464 252.028 253.718 253.405 255.345C253.467 255.408 253.78 255.846 254.093 256.347C253.53 255.22 252.967 254.031 252.466 252.841C251.589 250.776 250.776 248.647 250.212 246.581C249.962 246.644 246.206 247.708 244.453 247.458C242.888 247.207 240.947 246.519 240.509 245.142C239.695 243.702 240.196 241.824 241.761 241.135C243.952 240.196 247.583 242.45 248.96 244.077C249.023 244.203 250.15 245.83 250.525 246.394V246.331C249.962 244.14 249.649 241.949 249.461 239.883C249.273 237.817 249.273 235.877 249.336 234.061C249.336 232.309 249.524 230.618 249.649 229.179C249.711 228.365 249.837 227.676 249.899 226.988H249.837C249.774 226.988 248.96 224.233 248.96 224.045C248.585 221.917 249.148 217.66 251.276 216.596C252.841 215.782 254.532 216.659 255.158 218.161C255.784 219.726 255.095 221.667 254.281 223.044C253.467 224.484 250.713 226.362 250.024 226.862C249.899 227.551 249.837 228.302 249.774 229.116C249.649 230.556 249.524 232.183 249.524 233.999C249.524 234.5 249.524 235 249.524 235.501C249.711 234.625 249.899 233.498 249.962 233.373C250.588 231.37 253.029 227.864 255.408 227.864C257.098 227.864 258.288 229.429 258.1 231.057C257.975 232.684 256.472 234.124 255.095 234.938C253.655 235.752 250.275 236.252 249.524 236.315C249.586 237.442 249.649 238.569 249.774 239.758C249.962 241.824 250.337 243.952 250.963 246.081C251.026 246.206 251.026 246.331 251.089 246.456C251.089 246.018 251.276 243.702 251.339 243.514C251.777 241.448 253.78 237.692 256.159 237.442C257.849 237.254 259.164 238.694 259.164 240.321C259.164 241.949 257.849 243.577 256.597 244.516C255.158 245.642 251.214 246.519 251.089 246.581C251.715 248.585 252.466 250.588 253.405 252.591C254.093 254.031 254.782 255.471 255.533 256.91C255.533 256.41 255.721 254.156 255.784 254.031C256.222 251.965 258.225 248.209 260.604 247.959C262.294 247.771 263.609 249.211 263.609 250.838C263.609 252.466 262.294 254.093 261.042 255.032C259.602 256.097 255.846 256.973 255.533 257.036C255.846 257.662 256.222 258.35 256.535 258.976C257.662 261.105 258.788 263.233 259.853 265.361C260.228 266.05 260.604 266.801 260.917 267.552C260.979 266.676 261.167 265.174 261.167 265.048C261.605 262.983 263.609 259.227 265.987 258.976C267.678 258.788 268.992 260.228 268.992 261.856C268.992 263.483 267.678 265.111 266.426 266.05C265.111 267.052 261.981 267.865 261.105 268.053C261.605 269.243 262.169 270.495 262.607 271.747C262.795 272.31 263.045 272.873 263.17 273.374C263.358 273.875 263.546 274.438 263.671 274.939C263.984 276.066 264.235 277.068 264.485 278.069C264.61 278.57 264.735 279.071 264.861 279.572C264.798 278.758 264.735 277.381 264.735 277.255C264.861 275.127 266.3 271.121 268.617 270.495C270.307 270.056 271.809 271.246 272.06 272.873C272.122 273.061 272.122 273.312 272.122 273.499C273.124 275.127 273.625 277.443 273.562 278.82C273.562 278.946 273.312 280.573 273.186 281.387C273.437 280.761 273.687 280.135 273.938 279.446C274.313 278.507 274.626 277.506 275.002 276.504C275.19 276.003 275.315 275.44 275.503 274.939C275.69 274.438 275.816 273.938 275.941 273.374C276.129 272.56 276.316 271.747 276.504 270.933C275.503 270.62 272.623 269.618 271.496 268.617C270.307 267.552 269.117 265.925 269.243 264.235C269.368 262.607 270.808 261.292 272.498 261.605C274.877 262.044 276.629 265.925 276.88 268.053C276.88 268.116 276.88 268.554 276.88 269.117C277.068 268.304 277.193 267.49 277.318 266.676C277.631 264.36 277.881 261.981 278.194 259.602C278.257 259.101 278.32 258.601 278.382 258.1C277.568 257.849 274.438 256.785 273.249 255.721C272.06 254.657 270.87 253.029 270.995 251.339C271.121 249.711 272.56 248.397 274.251 248.71C276.629 249.148 278.382 253.029 278.633 255.158C278.633 255.22 278.633 255.721 278.633 256.347C278.758 255.095 278.946 253.78 279.196 252.528C279.572 250.275 280.072 248.146 280.761 246.081C280.448 245.955 276.755 244.829 275.44 243.639C274.251 242.575 273.061 240.947 273.186 239.257C273.312 237.63 274.751 236.315 276.442 236.628C278.82 237.066 280.573 240.947 280.824 243.076C280.886 243.264 280.886 245.204 280.886 245.893V245.83C281.575 243.702 282.514 241.699 283.515 239.883C284.454 238.068 285.581 236.44 286.583 234.938C287.647 233.498 288.649 232.183 289.588 231.057C290.088 230.431 290.589 229.867 291.027 229.366H290.965C290.902 229.366 291.779 226.612 291.841 226.424C292.718 224.484 295.472 221.228 297.851 221.479C299.604 221.667 300.543 223.294 300.23 224.922C299.854 226.549 298.226 227.801 296.787 228.49C295.347 229.179 291.966 229.304 291.153 229.304C290.714 229.805 290.214 230.431 289.713 231.057C288.836 232.183 287.835 233.498 286.833 235C286.583 235.376 286.27 235.814 286.019 236.252C286.583 235.626 287.459 234.813 287.522 234.75C289.212 233.435 293.156 231.87 295.159 233.185C296.599 234.124 296.724 236.065 295.66 237.317C294.596 238.569 292.53 238.944 290.965 238.882C289.275 238.819 286.207 237.317 285.519 237.004C284.955 237.943 284.392 238.944 283.828 240.008C282.889 241.824 281.95 243.827 281.324 245.955C281.262 246.081 281.262 246.206 281.199 246.331ZM281.199 246.331C281.324 246.394 285.08 247.833 286.896 247.708C288.461 247.583 290.464 247.02 291.34 245.642C292.217 244.265 291.904 242.325 290.401 241.573C288.273 240.509 284.517 242.512 283.015 244.015C282.889 244.14 281.45 245.955 281.199 246.331Z" stroke="#263238" stroke-miterlimit="10"/>
<path d="M285.143 236.315C285.206 236.315 285.894 233.561 285.957 233.373C286.27 231.244 285.581 227.05 283.453 225.986C281.888 225.235 280.198 226.111 279.634 227.676C279.071 229.241 279.759 231.182 280.636 232.496C281.637 234.061 285.143 236.315 285.143 236.315Z" fill="#DED3FF" stroke="#263238" stroke-miterlimit="10"/>
<path d="M17.7784 235.376C19.4686 236.127 23.6628 236.002 23.6628 236.002C23.7254 236.002 22.7864 233.248 22.6612 233.122C21.7222 231.182 18.8426 228.052 16.5264 228.365C14.8362 228.615 13.8972 230.305 14.2728 231.87C14.6484 233.561 16.3386 234.75 17.7784 235.376Z" fill="#DED3FF" stroke="#263238" stroke-miterlimit="10"/>
<path d="M19.2182 247.458C20.971 247.708 24.727 246.644 24.9774 246.581C25.5408 248.647 26.3546 250.776 27.231 252.841C27.7318 254.031 28.2952 255.22 28.8586 256.347C28.5456 255.846 28.2326 255.408 28.17 255.345C26.7928 253.718 23.162 251.464 20.971 252.403C19.406 253.092 18.9678 254.97 19.719 256.41C20.5328 257.849 22.4734 258.601 24.0384 258.851C25.6034 259.101 28.796 258.225 29.6724 257.975C29.9228 258.413 30.1106 258.851 30.361 259.289C31.4252 261.418 32.552 263.546 33.491 265.674C33.8666 266.426 34.1796 267.177 34.4926 267.928C34.1796 267.49 33.9292 267.114 33.8666 267.052C32.4894 265.424 28.8586 263.17 26.6676 264.109C25.1026 264.798 24.6644 266.676 25.4156 268.116C26.2294 269.556 28.17 270.307 29.735 270.557C31.2374 270.808 34.1796 269.994 35.1812 269.743C35.4942 270.495 35.8072 271.308 36.0576 272.06C36.2454 272.56 36.4332 273.061 36.5584 273.625C36.6836 274.125 36.8714 274.689 36.9966 275.19C37.247 276.191 37.4974 277.255 37.6852 278.257C37.8104 278.946 37.9982 279.634 38.1234 280.26C37.8104 279.509 37.0592 278.069 36.9966 277.944C35.8698 276.129 32.6146 273.374 30.361 273.938C28.7334 274.376 27.9822 276.129 28.5456 277.694C29.109 279.259 30.9244 280.26 32.4268 280.761C34.117 281.262 37.8104 280.824 38.2486 280.761C38.499 281.888 38.6868 282.952 38.8746 283.954C39.2502 286.207 39.5632 288.21 39.8136 289.901H41.3786C41.1282 288.148 40.7526 286.019 40.3144 283.703C40.064 282.576 39.8136 281.387 39.5632 280.198C39.8136 280.072 41.4412 279.446 42.8184 278.695C44.0078 280.01 47.1378 281.575 47.576 281.763C47.1378 282.827 46.6996 283.828 46.324 284.767C45.4476 286.771 44.6338 288.523 43.9452 290.026H45.6354C46.2614 288.649 46.95 287.084 47.6386 285.331C48.0768 284.267 48.515 283.14 48.9532 281.95C49.3914 282.013 53.0222 282.764 54.775 282.389C56.34 282.013 58.218 281.137 58.9066 279.634C59.5952 278.132 58.9692 276.316 57.3416 275.753C55.088 275.002 51.645 277.568 50.393 279.259C50.3304 279.384 49.6418 280.511 49.2036 281.262C49.3914 280.761 49.5792 280.323 49.767 279.822C50.1426 278.82 50.4556 277.881 50.8312 276.817C50.9564 276.316 51.1442 275.753 51.332 275.252C51.5198 274.751 51.5824 274.188 51.7702 273.625C52.0832 272.31 52.3336 270.995 52.5214 269.681C53.3978 269.994 56.4652 271.058 58.0302 270.933C59.5952 270.808 61.5984 270.244 62.4748 268.867C63.3512 267.49 63.0382 265.549 61.5358 264.798C59.4074 263.734 55.6514 265.737 54.149 267.239C54.0864 267.302 53.0848 268.554 52.584 269.18C52.7092 268.366 52.8344 267.552 52.9596 266.739C53.2726 264.36 53.4604 261.981 53.7108 259.602C53.7734 258.851 53.836 258.162 53.9612 257.411C54.2742 257.536 57.905 258.851 59.6578 258.726C61.2228 258.601 63.226 258.037 64.1024 256.66C64.9788 255.283 64.6658 253.342 63.1634 252.591C61.035 251.527 57.279 253.53 55.7766 255.032C55.6514 255.158 54.2742 256.848 53.9612 257.349C54.149 255.721 54.3368 254.156 54.5872 252.591C54.9002 250.4 55.401 248.334 55.9644 246.331C56.0896 246.394 59.8456 247.833 61.661 247.708C63.226 247.583 65.2292 247.02 66.1056 245.642C66.982 244.265 66.669 242.325 65.1666 241.573C63.0382 240.509 59.2822 242.512 57.7798 244.015C57.6546 244.14 56.2148 245.955 55.9644 246.331C56.027 246.206 56.027 246.081 56.0896 245.955C56.7156 243.827 57.6546 241.824 58.5936 240.008C59.157 238.944 59.7204 237.943 60.2838 237.004C60.9724 237.317 64.0398 238.819 65.73 238.882C67.295 238.944 69.3608 238.569 70.425 237.317C71.4892 236.065 71.364 234.124 69.9242 233.185C67.921 231.87 63.9772 233.435 62.287 234.75C62.2244 234.813 61.348 235.626 60.7846 236.252C61.035 235.814 61.348 235.376 61.5984 235C62.6 233.498 63.6016 232.183 64.478 231.057C64.9788 230.431 65.4796 229.805 65.9178 229.304C66.7316 229.304 70.112 229.179 71.5518 228.49C72.9916 227.801 74.6192 226.549 74.9948 224.922C75.3078 223.294 74.3688 221.667 72.616 221.479C70.2372 221.228 67.4828 224.484 66.6064 226.424C66.5438 226.612 65.6674 229.366 65.73 229.366H65.7926C65.3544 229.867 64.8536 230.431 64.3528 231.057C63.4138 232.183 62.4122 233.498 61.348 234.938C60.3464 236.44 59.2196 238.068 58.2806 239.883C57.279 241.699 56.34 243.702 55.6514 245.83V245.893C55.6514 245.204 55.6514 243.264 55.5888 243.076C55.3384 240.947 53.5856 237.066 51.2068 236.628C49.5166 236.315 48.0768 237.63 47.9516 239.257C47.8264 240.947 49.0158 242.575 50.2052 243.639C51.5198 244.829 55.2132 245.955 55.5262 246.081C54.8376 248.146 54.3368 250.275 53.9612 252.528C53.7108 253.78 53.523 255.095 53.3978 256.347C53.3978 255.721 53.3978 255.22 53.3978 255.158C53.1474 253.029 51.3946 249.148 49.0158 248.71C47.3256 248.397 45.8858 249.711 45.7606 251.339C45.6354 253.029 46.8248 254.657 48.0142 255.721C49.2036 256.785 52.3336 257.849 53.1474 258.1C53.0848 258.601 53.0222 259.101 52.9596 259.602C52.6466 261.981 52.3962 264.36 52.0832 266.676C51.958 267.49 51.8328 268.304 51.645 269.117C51.645 268.554 51.645 268.116 51.645 268.053C51.3946 265.925 49.6418 262.044 47.263 261.605C45.5728 261.292 44.133 262.607 44.0078 264.235C43.8826 265.925 45.072 267.552 46.2614 268.617C47.3882 269.618 50.2678 270.62 51.2694 270.933C51.0816 271.747 50.8938 272.56 50.706 273.374C50.5808 273.938 50.4556 274.438 50.2678 274.939C50.08 275.44 49.9548 276.003 49.767 276.504C49.3914 277.506 49.0784 278.507 48.7028 279.446C48.4524 280.135 48.202 280.761 47.9516 281.387C48.0768 280.573 48.3272 278.946 48.3272 278.82C48.3898 277.443 47.889 275.127 46.8874 273.499C46.8874 273.312 46.8874 273.061 46.8248 272.873C46.5744 271.246 45.072 270.056 43.3818 270.495C41.0656 271.121 39.6258 275.127 39.5006 277.255C39.5006 277.381 39.5632 278.758 39.6258 279.572C39.5006 279.071 39.3754 278.57 39.2502 278.069C38.9998 277.068 38.7494 276.066 38.4364 274.939C38.3112 274.438 38.1234 273.875 37.9356 273.374C37.8104 272.873 37.56 272.31 37.3722 271.747C36.934 270.495 36.3706 269.243 35.8698 268.053C36.7462 267.865 39.8762 267.052 41.1908 266.05C42.4428 265.111 43.7574 263.483 43.7574 261.856C43.7574 260.228 42.4428 258.788 40.7526 258.976C38.3738 259.227 36.3706 262.983 35.9324 265.048C35.9324 265.174 35.7446 266.676 35.682 267.552C35.369 266.801 34.9934 266.05 34.6178 265.361C33.5536 263.233 32.4268 261.105 31.3 258.976C30.987 258.35 30.6114 257.662 30.2984 257.036C30.6114 256.973 34.3674 256.097 35.8072 255.032C37.0592 254.093 38.3738 252.466 38.3738 250.838C38.3738 249.211 37.0592 247.771 35.369 247.959C32.9902 248.209 30.987 251.965 30.5488 254.031C30.4862 254.156 30.2984 256.41 30.2984 256.91C29.5472 255.471 28.8586 254.031 28.17 252.591C27.231 250.588 26.4798 248.585 25.8538 246.581C25.979 246.519 29.9228 245.642 31.3626 244.516C32.6146 243.577 33.9292 241.949 33.9292 240.321C33.9292 238.694 32.6146 237.254 30.9244 237.442C28.5456 237.692 26.5424 241.448 26.1042 243.514C26.0416 243.702 25.8538 246.018 25.8538 246.456C25.7912 246.331 25.7912 246.206 25.7286 246.081C25.1026 243.952 24.727 241.824 24.5392 239.758C24.414 238.569 24.3514 237.442 24.2888 236.315C25.04 236.252 28.4204 235.752 29.8602 234.938C31.2374 234.124 32.7398 232.684 32.865 231.057C33.0528 229.429 31.8634 227.864 30.1732 227.864C27.7944 227.864 25.353 231.37 24.727 233.373C24.6644 233.498 24.4766 234.625 24.2888 235.501C24.2888 235 24.2888 234.5 24.2888 233.999C24.2888 232.183 24.414 230.556 24.5392 229.116C24.6018 228.302 24.6644 227.551 24.7896 226.862C25.4782 226.362 28.2326 224.484 29.0464 223.044C29.8602 221.667 30.5488 219.726 29.9228 218.161C29.2968 216.659 27.6066 215.782 26.0416 216.596C23.9132 217.66 23.3498 221.917 23.7254 224.045C23.7254 224.233 24.5392 226.988 24.6018 226.988H24.6644C24.6018 227.676 24.4766 228.365 24.414 229.179C24.2888 230.618 24.101 232.309 24.101 234.061C24.0384 235.877 24.0384 237.817 24.2262 239.883C24.414 241.949 24.727 244.14 25.2904 246.331V246.394C24.9148 245.83 23.788 244.203 23.7254 244.077C22.3482 242.45 18.7174 240.196 16.5264 241.135C14.9614 241.824 14.4606 243.702 15.2744 245.142C15.7126 246.519 17.6532 247.207 19.2182 247.458Z" fill="#DED3FF"/>
<path d="M55.9644 246.331C55.401 248.334 54.9002 250.4 54.5872 252.591C54.3368 254.156 54.149 255.721 53.9612 257.349C54.2742 256.848 55.6514 255.158 55.7766 255.032C57.279 253.53 61.035 251.527 63.1634 252.591C64.6658 253.342 64.9788 255.283 64.1024 256.66C63.226 258.037 61.2228 258.601 59.6578 258.726C57.905 258.851 54.2742 257.536 53.9612 257.411C53.836 258.162 53.7734 258.851 53.7108 259.602C53.4604 261.981 53.2726 264.36 52.9596 266.739C52.8344 267.552 52.7092 268.366 52.584 269.18C53.0848 268.554 54.0864 267.302 54.149 267.239C55.6514 265.737 59.4074 263.734 61.5358 264.798C63.0382 265.549 63.3512 267.49 62.4748 268.867C61.5984 270.244 59.5952 270.808 58.0302 270.933C56.4652 271.058 53.3978 269.994 52.5214 269.681C52.3336 270.995 52.0832 272.31 51.7702 273.625C51.5824 274.188 51.5198 274.751 51.332 275.252C51.1442 275.753 50.9564 276.316 50.8312 276.817C50.4556 277.881 50.1426 278.82 49.767 279.822C49.5792 280.323 49.3914 280.761 49.2036 281.262C49.6418 280.511 50.3304 279.384 50.393 279.259C51.645 277.568 55.088 275.002 57.3416 275.753C58.9692 276.316 59.5952 278.132 58.9066 279.634C58.218 281.137 56.34 282.013 54.775 282.389C53.0222 282.764 49.3914 282.013 48.9532 281.95C48.515 283.14 48.0768 284.267 47.6386 285.331C46.95 287.084 46.2614 288.649 45.6354 290.026H43.9452C44.6338 288.523 45.4476 286.771 46.324 284.767C46.6996 283.828 47.1378 282.827 47.576 281.763C47.1378 281.575 44.0078 280.01 42.8184 278.695C41.4412 279.446 39.8136 280.072 39.5632 280.198C39.8136 281.387 40.064 282.576 40.3144 283.703C40.7526 286.019 41.1282 288.148 41.3786 289.901H39.8136C39.5632 288.21 39.2502 286.207 38.8746 283.954C38.6868 282.952 38.499 281.888 38.2486 280.761C37.8104 280.824 34.117 281.262 32.4268 280.761C30.9244 280.26 29.109 279.259 28.5456 277.694C27.9822 276.129 28.7334 274.376 30.361 273.938C32.6146 273.374 35.8698 276.129 36.9966 277.944C37.0592 278.069 37.8104 279.509 38.1234 280.26C37.9982 279.634 37.8104 278.946 37.6852 278.257C37.4974 277.255 37.247 276.191 36.9966 275.19C36.8714 274.689 36.6836 274.125 36.5584 273.625C36.4332 273.061 36.2454 272.56 36.0576 272.06C35.8072 271.308 35.4942 270.495 35.1812 269.743C34.1796 269.994 31.2374 270.808 29.735 270.557C28.17 270.307 26.2294 269.556 25.4156 268.116C24.6644 266.676 25.1026 264.798 26.6676 264.109C28.8586 263.17 32.4894 265.424 33.8666 267.052C33.9292 267.114 34.1796 267.49 34.4926 267.928C34.1796 267.177 33.8666 266.426 33.491 265.674C32.552 263.546 31.4252 261.418 30.361 259.289C30.1106 258.851 29.9228 258.413 29.6724 257.975C28.796 258.225 25.6034 259.101 24.0384 258.851C22.4734 258.601 20.5328 257.849 19.719 256.41C18.9678 254.97 19.406 253.092 20.971 252.403C23.162 251.464 26.7928 253.718 28.17 255.345C28.2326 255.408 28.5456 255.846 28.8586 256.347C28.2952 255.22 27.7318 254.031 27.231 252.841C26.3546 250.776 25.5408 248.647 24.9774 246.581C24.727 246.644 20.971 247.708 19.2182 247.458C17.6532 247.207 15.7126 246.519 15.2744 245.142C14.4606 243.702 14.9614 241.824 16.5264 241.135C18.7174 240.196 22.3482 242.45 23.7254 244.077C23.788 244.203 24.9148 245.83 25.2904 246.394V246.331C24.727 244.14 24.414 241.949 24.2262 239.883C24.0384 237.817 24.0384 235.877 24.101 234.061C24.101 232.309 24.2888 230.618 24.414 229.179C24.4766 228.365 24.6018 227.676 24.6644 226.988H24.6018C24.5392 226.988 23.7254 224.233 23.7254 224.045C23.3498 221.917 23.9132 217.66 26.0416 216.596C27.6066 215.782 29.2968 216.659 29.9228 218.161C30.5488 219.726 29.8602 221.667 29.0464 223.044C28.2326 224.484 25.4782 226.362 24.7896 226.862C24.6644 227.551 24.6018 228.302 24.5392 229.116C24.414 230.556 24.2888 232.183 24.2888 233.999C24.2888 234.5 24.2888 235 24.2888 235.501C24.4766 234.625 24.6644 233.498 24.727 233.373C25.353 231.37 27.7944 227.864 30.1732 227.864C31.8634 227.864 33.0528 229.429 32.865 231.057C32.7398 232.684 31.2374 234.124 29.8602 234.938C28.4204 235.752 25.04 236.252 24.2888 236.315C24.3514 237.442 24.414 238.569 24.5392 239.758C24.727 241.824 25.1026 243.952 25.7286 246.081C25.7912 246.206 25.7912 246.331 25.8538 246.456C25.8538 246.018 26.0416 243.702 26.1042 243.514C26.5424 241.448 28.5456 237.692 30.9244 237.442C32.6146 237.254 33.9292 238.694 33.9292 240.321C33.9292 241.949 32.6146 243.577 31.3626 244.516C29.9228 245.642 25.979 246.519 25.8538 246.581C26.4798 248.585 27.231 250.588 28.17 252.591C28.8586 254.031 29.5472 255.471 30.2984 256.91C30.2984 256.41 30.4862 254.156 30.5488 254.031C30.987 251.965 32.9902 248.209 35.369 247.959C37.0592 247.771 38.3738 249.211 38.3738 250.838C38.3738 252.466 37.0592 254.093 35.8072 255.032C34.3674 256.097 30.6114 256.973 30.2984 257.036C30.6114 257.662 30.987 258.35 31.3 258.976C32.4268 261.105 33.5536 263.233 34.6178 265.361C34.9934 266.05 35.369 266.801 35.682 267.552C35.7446 266.676 35.9324 265.174 35.9324 265.048C36.3706 262.983 38.3738 259.227 40.7526 258.976C42.4428 258.788 43.7574 260.228 43.7574 261.856C43.7574 263.483 42.4428 265.111 41.1908 266.05C39.8762 267.052 36.7462 267.865 35.8698 268.053C36.3706 269.243 36.934 270.495 37.3722 271.747C37.56 272.31 37.8104 272.873 37.9356 273.374C38.1234 273.875 38.3112 274.438 38.4364 274.939C38.7494 276.066 38.9998 277.068 39.2502 278.069C39.3754 278.57 39.5006 279.071 39.6258 279.572C39.5632 278.758 39.5006 277.381 39.5006 277.255C39.6258 275.127 41.0656 271.121 43.3818 270.495C45.072 270.056 46.5744 271.246 46.8248 272.873C46.8874 273.061 46.8874 273.312 46.8874 273.499C47.889 275.127 48.3898 277.443 48.3272 278.82C48.3272 278.946 48.0768 280.573 47.9516 281.387C48.202 280.761 48.4524 280.135 48.7028 279.446C49.0784 278.507 49.3914 277.506 49.767 276.504C49.9548 276.003 50.08 275.44 50.2678 274.939C50.4556 274.438 50.5808 273.938 50.706 273.374C50.8938 272.56 51.0816 271.747 51.2694 270.933C50.2678 270.62 47.3882 269.618 46.2614 268.617C45.072 267.552 43.8826 265.925 44.0078 264.235C44.133 262.607 45.5728 261.292 47.263 261.605C49.6418 262.044 51.3946 265.925 51.645 268.053C51.645 268.116 51.645 268.554 51.645 269.117C51.8328 268.304 51.958 267.49 52.0832 266.676C52.3962 264.36 52.6466 261.981 52.9596 259.602C53.0222 259.101 53.0848 258.601 53.1474 258.1C52.3336 257.849 49.2036 256.785 48.0142 255.721C46.8248 254.657 45.6354 253.029 45.7606 251.339C45.8858 249.711 47.3256 248.397 49.0158 248.71C51.3946 249.148 53.1474 253.029 53.3978 255.158C53.3978 255.22 53.3978 255.721 53.3978 256.347C53.523 255.095 53.7108 253.78 53.9612 252.528C54.3368 250.275 54.8376 248.146 55.5262 246.081C55.2132 245.955 51.5198 244.829 50.2052 243.639C49.0158 242.575 47.8264 240.947 47.9516 239.257C48.0768 237.63 49.5166 236.315 51.2068 236.628C53.5856 237.066 55.3384 240.947 55.5888 243.076C55.6514 243.264 55.6514 245.204 55.6514 245.893V245.83C56.34 243.702 57.279 241.699 58.2806 239.883C59.2196 238.068 60.3464 236.44 61.348 234.938C62.4122 233.498 63.4138 232.183 64.3528 231.057C64.8536 230.431 65.3544 229.867 65.7926 229.366H65.73C65.6674 229.366 66.5438 226.612 66.6064 226.424C67.4828 224.484 70.2372 221.228 72.616 221.479C74.3688 221.667 75.3078 223.294 74.9948 224.922C74.6192 226.549 72.9916 227.801 71.5518 228.49C70.112 229.179 66.7316 229.304 65.9178 229.304C65.4796 229.805 64.9788 230.431 64.478 231.057C63.6016 232.183 62.6 233.498 61.5984 235C61.348 235.376 61.035 235.814 60.7846 236.252C61.348 235.626 62.2244 234.813 62.287 234.75C63.9772 233.435 67.921 231.87 69.9242 233.185C71.364 234.124 71.4892 236.065 70.425 237.317C69.3608 238.569 67.295 238.944 65.73 238.882C64.0398 238.819 60.9724 237.317 60.2838 237.004C59.7204 237.943 59.157 238.944 58.5936 240.008C57.6546 241.824 56.7156 243.827 56.0896 245.955C56.027 246.081 56.027 246.206 55.9644 246.331ZM55.9644 246.331C56.0896 246.394 59.8456 247.833 61.661 247.708C63.226 247.583 65.2292 247.02 66.1056 245.642C66.982 244.265 66.669 242.325 65.1666 241.573C63.0382 240.509 59.2822 242.512 57.7798 244.015C57.6546 244.14 56.2148 245.955 55.9644 246.331Z" stroke="#263238" stroke-miterlimit="10"/>
<path d="M59.9082 236.315C59.9708 236.315 60.6594 233.561 60.722 233.373C61.035 231.244 60.3464 227.05 58.218 225.986C56.653 225.235 54.9628 226.111 54.3994 227.676C53.836 229.241 54.5246 231.182 55.401 232.496C56.4026 234.061 59.9082 236.315 59.9082 236.315Z" fill="#DED3FF" stroke="#263238" stroke-miterlimit="10"/>
<path d="M287.334 289.838H296.098" stroke="#263238" stroke-miterlimit="10" stroke-linecap="round" stroke-linejoin="round"/>
<path d="M124.574 289.838H278.57" stroke="#263238" stroke-miterlimit="10" stroke-linecap="round" stroke-linejoin="round"/>
<path d="M23.788 289.838H118.314" stroke="#263238" stroke-miterlimit="10" stroke-linecap="round" stroke-linejoin="round"/>
<path opacity="0.1" d="M79.5646 52.8344C79.5646 57.7798 70.6128 68.0462 70.6128 68.0462C70.6128 68.0462 61.7236 57.7798 61.7236 52.8344C61.7236 47.889 65.73 43.8826 70.6754 43.8826C75.5582 43.9452 79.5646 47.9516 79.5646 52.8344ZM165.139 222.981C160.193 222.981 156.187 226.988 156.187 231.933C156.187 236.878 165.139 247.145 165.139 247.145C165.139 247.145 174.091 236.816 174.091 231.933C174.091 226.988 170.084 222.981 165.139 222.981ZM239.758 18.7174C234.813 18.7174 230.806 22.7238 230.806 27.6692C230.806 32.6146 239.758 42.881 239.758 42.881C239.758 42.881 248.71 32.552 248.71 27.6692C248.647 22.7238 244.641 18.7174 239.758 18.7174ZM41.2534 136.343C36.308 136.343 32.3016 140.349 32.3016 145.295C32.3016 150.24 41.2534 160.506 41.2534 160.506C41.2534 160.506 50.2052 150.177 50.2052 145.295C50.1426 140.349 46.1988 136.343 41.2534 136.343ZM278.57 133.213C273.625 133.213 269.618 137.219 269.618 142.165C269.618 147.11 278.57 157.376 278.57 157.376C278.57 157.376 287.522 147.047 287.522 142.165C287.522 137.282 283.515 133.213 278.57 133.213ZM239.758 31.4252H236.002C235.626 31.4252 235.376 31.1748 235.376 30.7992C235.376 30.4236 235.626 30.1732 236.002 30.1732H239.758C240.134 30.1732 240.384 30.4236 240.384 30.7992C240.384 31.1122 240.071 31.4252 239.758 31.4252ZM201.384 235.063C201.384 234.687 201.134 234.437 200.758 234.437H193.309C192.933 234.437 192.683 234.687 192.683 235.063C192.683 235.439 192.933 235.689 193.309 235.689H200.758C201.134 235.689 201.384 235.439 201.384 235.063ZM186.423 235.063C186.423 234.687 186.172 234.437 185.797 234.437H178.347C177.972 234.437 177.721 234.687 177.721 235.063C177.721 235.439 177.972 235.689 178.347 235.689H185.797C186.172 235.689 186.423 235.439 186.423 235.063ZM208.333 235.626C211.025 235.313 213.466 234.061 215.219 232.058C215.469 231.808 215.407 231.432 215.156 231.182C214.906 230.931 214.53 230.994 214.28 231.244C212.715 233.06 210.586 234.187 208.208 234.437C207.895 234.5 207.644 234.813 207.644 235.126C207.707 235.439 207.957 235.689 208.27 235.689C208.27 235.626 208.27 235.626 208.333 235.626ZM171.524 234.625C171.649 234.312 171.524 233.936 171.211 233.811C169.02 232.872 167.392 231.057 166.704 228.803C166.579 228.49 166.266 228.302 165.89 228.365C165.577 228.49 165.389 228.803 165.452 229.179C166.266 231.745 168.144 233.874 170.648 234.938C170.71 235 170.835 235 170.898 235C171.211 235 171.399 234.875 171.524 234.625ZM217.785 224.734V217.285C217.785 216.909 217.535 216.659 217.159 216.659C216.784 216.659 216.533 216.909 216.533 217.285V224.734C216.533 225.11 216.784 225.36 217.159 225.36C217.472 225.36 217.785 225.11 217.785 224.734ZM166.328 221.541V216.408C166.328 215.594 166.266 214.781 166.14 213.967C166.078 213.654 165.765 213.403 165.452 213.466C165.139 213.529 164.888 213.842 164.951 214.155C165.076 214.906 165.139 215.657 165.139 216.408V221.541C165.139 221.917 165.389 222.167 165.765 222.167C166.14 222.167 166.328 221.917 166.328 221.541ZM217.785 209.773V202.323C217.785 201.948 217.535 201.697 217.159 201.697C216.784 201.697 216.533 201.948 216.533 202.323V209.773C216.533 210.148 216.784 210.399 217.159 210.399C217.472 210.399 217.785 210.148 217.785 209.773ZM163.073 207.769C163.323 207.582 163.386 207.143 163.198 206.893C161.633 204.827 159.63 203.074 157.314 201.948C157.001 201.822 156.625 201.948 156.5 202.261C156.375 202.574 156.5 202.949 156.813 203.074C158.941 204.139 160.819 205.704 162.259 207.644C162.384 207.832 162.572 207.895 162.76 207.895C162.823 207.895 162.948 207.832 163.073 207.769ZM150.428 200.946C150.428 200.57 150.177 200.32 149.802 200.32H142.352C141.977 200.32 141.726 200.57 141.726 200.946C141.726 201.322 141.977 201.572 142.352 201.572H149.802C150.115 201.572 150.428 201.259 150.428 200.946ZM135.466 200.946C135.466 200.57 135.216 200.32 134.84 200.32H127.391C127.015 200.32 126.765 200.57 126.765 200.946C126.765 201.322 127.015 201.572 127.391 201.572H134.84C135.153 201.572 135.466 201.259 135.466 200.946ZM120.505 200.946C120.505 200.57 120.255 200.32 119.879 200.32H112.43C112.054 200.32 111.804 200.57 111.804 200.946C111.804 201.322 112.054 201.572 112.43 201.572H119.879C120.192 201.572 120.505 201.259 120.505 200.946ZM105.544 200.946C105.544 200.57 105.293 200.32 104.918 200.32H97.4682C97.0926 200.32 96.8422 200.57 96.8422 200.946C96.8422 201.322 97.0926 201.572 97.4682 201.572H104.918C105.231 201.572 105.544 201.259 105.544 200.946ZM90.5822 200.946C90.5822 200.57 90.3318 200.32 89.9562 200.32H82.5068C82.1312 200.32 81.8808 200.57 81.8808 200.946C81.8808 201.322 82.1312 201.572 82.5068 201.572H89.9562C90.2692 201.572 90.5822 201.259 90.5822 200.946ZM75.6208 200.946C75.6208 200.57 75.3704 200.32 74.9948 200.32H67.5454C67.1698 200.32 66.9194 200.57 66.9194 200.946C66.9194 201.322 67.1698 201.572 67.5454 201.572H74.9948C75.3078 201.572 75.6208 201.259 75.6208 200.946ZM60.6594 200.946C60.6594 200.57 60.409 200.32 60.0334 200.32H52.584C52.2084 200.32 51.958 200.57 51.958 200.946C51.958 201.322 52.2084 201.572 52.584 201.572H60.0334C60.409 201.572 60.6594 201.259 60.6594 200.946ZM45.8232 199.944C45.9484 199.631 45.8232 199.256 45.5728 199.131C43.4444 198.066 41.6916 196.314 40.5648 194.248C40.377 193.935 40.0014 193.81 39.6884 193.997C39.3754 194.185 39.2502 194.561 39.438 194.874C40.69 197.19 42.6306 199.131 44.9468 200.257C45.0094 200.32 45.1346 200.32 45.1972 200.32C45.5102 200.257 45.698 200.132 45.8232 199.944ZM39.2502 187.237V179.787C39.2502 179.412 38.9998 179.161 38.6242 179.161C38.2486 179.161 37.9982 179.412 37.9982 179.787V187.237C37.9982 187.612 38.2486 187.863 38.6242 187.863C38.9372 187.863 39.2502 187.612 39.2502 187.237ZM39.2502 172.338V164.888C39.2502 164.513 38.9998 164.262 38.6242 164.262C38.2486 164.262 37.9982 164.513 37.9982 164.888V172.338C37.9982 172.713 38.2486 172.964 38.6242 172.964C38.9372 172.964 39.2502 172.651 39.2502 172.338ZM39.2502 157.376V154.246C39.2502 152.932 39.6258 151.617 40.377 150.49C40.5648 150.177 40.5022 149.802 40.1892 149.614C39.8762 149.426 39.5006 149.489 39.3128 149.802C38.4364 151.116 37.9982 152.619 37.9982 154.246V157.376C37.9982 157.752 38.2486 158.002 38.6242 158.002C38.9372 158.002 39.2502 157.689 39.2502 157.376ZM293.156 146.922C293.469 146.797 293.657 146.484 293.531 146.108C293.406 145.795 293.093 145.608 292.718 145.733C291.779 146.046 290.84 146.171 289.838 146.171H285.456C285.08 146.171 284.83 146.421 284.83 146.797C284.83 147.173 285.08 147.423 285.456 147.423H289.838C291.027 147.486 292.092 147.298 293.156 146.922ZM278.695 146.86C278.695 146.484 278.445 146.234 278.069 146.234H270.62C270.244 146.234 269.994 146.484 269.994 146.86C269.994 147.235 270.244 147.486 270.62 147.486H278.069C278.382 147.486 278.695 147.173 278.695 146.86ZM263.734 146.86C263.734 146.484 263.483 146.234 263.108 146.234H255.658C255.283 146.234 255.032 146.484 255.032 146.86C255.032 147.235 255.283 147.486 255.658 147.486H263.108C263.421 147.486 263.734 147.173 263.734 146.86ZM248.772 146.86C248.772 146.484 248.522 146.234 248.146 146.234H240.697C240.321 146.234 240.071 146.484 240.071 146.86C240.071 147.235 240.321 147.486 240.697 147.486H248.146C248.459 147.486 248.772 147.173 248.772 146.86ZM233.811 146.86C233.811 146.484 233.561 146.234 233.185 146.234H225.736C225.36 146.234 225.11 146.484 225.11 146.86C225.11 147.235 225.36 147.486 225.736 147.486H233.185C233.498 147.486 233.811 147.173 233.811 146.86ZM218.85 146.86C218.85 146.484 218.599 146.234 218.224 146.234H210.774C210.399 146.234 210.148 146.484 210.148 146.86C210.148 147.235 210.399 147.486 210.774 147.486H218.224C218.537 147.486 218.85 147.173 218.85 146.86ZM203.888 146.86C203.888 146.484 203.638 146.234 203.262 146.234H195.813C195.437 146.234 195.187 146.484 195.187 146.86C195.187 147.235 195.437 147.486 195.813 147.486H203.262C203.575 147.486 203.888 147.173 203.888 146.86ZM188.927 146.86C188.927 146.484 188.676 146.234 188.301 146.234H180.851C180.476 146.234 180.225 146.484 180.225 146.86C180.225 147.235 180.476 147.486 180.851 147.486H188.301C188.676 147.486 188.927 147.173 188.927 146.86ZM173.965 146.86C173.965 146.484 173.715 146.234 173.339 146.234H165.89C165.514 146.234 165.264 146.484 165.264 146.86C165.264 147.235 165.514 147.486 165.89 147.486H173.339C173.715 147.486 173.965 147.173 173.965 146.86ZM159.004 146.86C159.004 146.484 158.754 146.234 158.378 146.234H150.929C150.553 146.234 150.303 146.484 150.303 146.86C150.303 147.235 150.553 147.486 150.929 147.486H158.378C158.754 147.486 159.004 147.173 159.004 146.86ZM144.043 146.86C144.043 146.484 143.792 146.234 143.417 146.234H135.967C135.592 146.234 135.341 146.484 135.341 146.86C135.341 147.235 135.592 147.486 135.967 147.486H143.417C143.792 147.486 144.043 147.173 144.043 146.86ZM129.081 146.86C129.081 146.484 128.831 146.234 128.455 146.234H121.006C120.63 146.234 120.38 146.484 120.38 146.86C120.38 147.235 120.63 147.486 121.006 147.486H128.455C128.831 147.486 129.081 147.173 129.081 146.86ZM114.12 146.86C114.12 146.484 113.869 146.234 113.494 146.234H106.044C105.669 146.234 105.418 146.484 105.418 146.86C105.418 147.235 105.669 147.486 106.044 147.486H113.494C113.869 147.486 114.12 147.173 114.12 146.86ZM99.221 146.86C99.221 146.484 98.9706 146.234 98.595 146.234H91.1456C90.77 146.234 90.5196 146.484 90.5196 146.86C90.5196 147.235 90.77 147.486 91.1456 147.486H98.595C98.908 147.486 99.221 147.173 99.221 146.86ZM84.2596 146.86C84.2596 146.484 84.0092 146.234 83.6336 146.234H76.1842C75.8086 146.234 75.5582 146.484 75.5582 146.86C75.5582 147.235 75.8086 147.486 76.1842 147.486H83.6336C83.9466 147.486 84.2596 147.173 84.2596 146.86ZM69.2982 146.86C69.2982 146.484 69.0478 146.234 68.6722 146.234H61.1602C60.7846 146.234 60.5342 146.484 60.5342 146.86C60.5342 147.235 60.7846 147.486 61.1602 147.486H68.6096C68.9852 147.486 69.2982 147.173 69.2982 146.86ZM54.3368 146.86C54.3368 146.484 54.0864 146.234 53.7108 146.234H46.1988C45.8232 146.234 45.5728 146.484 45.5728 146.86C45.5728 147.235 45.8232 147.486 46.1988 147.486H53.6482C54.0238 147.486 54.3368 147.173 54.3368 146.86ZM299.04 141.914C299.791 140.474 300.23 138.784 300.23 137.157V134.34C300.23 133.964 299.979 133.714 299.604 133.714C299.228 133.714 298.978 133.964 298.978 134.34V137.157C298.978 138.596 298.602 140.099 297.976 141.351C297.788 141.664 297.913 142.039 298.226 142.227C298.289 142.29 298.414 142.29 298.539 142.29C298.727 142.227 298.915 142.165 299.04 141.914ZM300.23 126.828V119.378C300.23 119.003 299.979 118.752 299.604 118.752C299.228 118.752 298.978 119.003 298.978 119.378V126.828C298.978 127.203 299.228 127.454 299.604 127.454C299.917 127.454 300.23 127.203 300.23 126.828ZM300.23 111.929V109.362C300.23 107.609 299.791 105.919 298.978 104.354C298.79 104.041 298.414 103.916 298.101 104.104C297.788 104.292 297.663 104.667 297.851 104.98C298.602 106.295 298.978 107.797 298.978 109.362V111.929C298.978 112.304 299.228 112.555 299.604 112.555C299.917 112.555 300.23 112.242 300.23 111.929ZM293.344 100.223C293.469 99.9096 293.281 99.534 292.905 99.4714C291.904 99.1584 290.902 99.0332 289.838 99.0332H285.268C284.893 99.0332 284.642 99.2836 284.642 99.6592C284.642 100.035 284.893 100.285 285.268 100.285H289.838C290.777 100.285 291.653 100.41 292.53 100.661C292.592 100.661 292.655 100.661 292.718 100.661C293.031 100.661 293.281 100.473 293.344 100.223ZM278.445 99.5966C278.445 99.221 278.194 98.9706 277.819 98.9706H270.369C269.994 98.9706 269.743 99.221 269.743 99.5966C269.743 99.9722 269.994 100.223 270.369 100.223H277.819C278.194 100.223 278.445 99.9096 278.445 99.5966ZM263.483 99.5966C263.483 99.221 263.233 98.9706 262.857 98.9706H255.408C255.032 98.9706 254.782 99.221 254.782 99.5966C254.782 99.9722 255.032 100.223 255.408 100.223H262.857C263.233 100.223 263.483 99.9096 263.483 99.5966ZM248.522 99.5966C248.522 99.221 248.272 98.9706 247.896 98.9706H240.447C240.071 98.9706 239.821 99.221 239.821 99.5966C239.821 99.9722 240.071 100.223 240.447 100.223H247.896C248.272 100.223 248.522 99.9096 248.522 99.5966ZM233.561 99.5966C233.561 99.221 233.31 98.9706 232.935 98.9706H225.485C225.11 98.9706 224.859 99.221 224.859 99.5966C224.859 99.9722 225.11 100.223 225.485 100.223H232.935C233.31 100.223 233.561 99.9096 233.561 99.5966ZM218.662 99.5966C218.662 99.221 218.411 98.9706 218.036 98.9706H210.586C210.211 98.9706 209.96 99.221 209.96 99.5966C209.96 99.9722 210.211 100.223 210.586 100.223H218.036C218.349 100.223 218.662 99.9096 218.662 99.5966ZM203.7 99.5966C203.7 99.221 203.45 98.9706 203.074 98.9706H195.625C195.249 98.9706 194.999 99.221 194.999 99.5966C194.999 99.9722 195.249 100.223 195.625 100.223H203.074C203.387 100.223 203.7 99.9096 203.7 99.5966ZM188.739 99.5966C188.739 99.221 188.489 98.9706 188.113 98.9706H180.664C180.288 98.9706 180.038 99.221 180.038 99.5966C180.038 99.9722 180.288 100.223 180.664 100.223H188.113C188.426 100.223 188.739 99.9096 188.739 99.5966ZM173.778 99.5966C173.778 99.221 173.527 98.9706 173.152 98.9706H165.702C165.327 98.9706 165.076 99.221 165.076 99.5966C165.076 99.9722 165.327 100.223 165.702 100.223H173.152C173.465 100.223 173.778 99.9096 173.778 99.5966ZM158.816 99.5966C158.816 99.221 158.566 98.9706 158.19 98.9706H150.741C150.365 98.9706 150.115 99.221 150.115 99.5966C150.115 99.9722 150.365 100.223 150.741 100.223H158.19C158.503 100.223 158.816 99.9096 158.816 99.5966ZM143.855 99.5966C143.855 99.221 143.604 98.9706 143.229 98.9706H135.779C135.404 98.9706 135.153 99.221 135.153 99.5966C135.153 99.9722 135.404 100.223 135.779 100.223H143.229C143.542 100.223 143.855 99.9096 143.855 99.5966ZM128.893 99.5966C128.893 99.221 128.643 98.9706 128.267 98.9706H120.818C120.442 98.9706 120.192 99.221 120.192 99.5966C120.192 99.9722 120.442 100.223 120.818 100.223H128.267C128.643 100.223 128.893 99.9096 128.893 99.5966ZM113.932 99.5966C113.932 99.221 113.682 98.9706 113.306 98.9706H105.857C105.481 98.9706 105.231 99.221 105.231 99.5966C105.231 99.9722 105.481 100.223 105.857 100.223H113.306C113.682 100.223 113.932 99.9096 113.932 99.5966ZM98.9706 99.5966C98.9706 99.221 98.7202 98.9706 98.3446 98.9706H90.8952C90.5196 98.9706 90.2692 99.221 90.2692 99.5966C90.2692 99.9722 90.5196 100.223 90.8952 100.223H98.3446C98.7202 100.223 98.9706 99.9096 98.9706 99.5966ZM84.0092 99.5966C84.0092 99.221 83.7588 98.9706 83.3832 98.9706H75.9338C75.5582 98.9706 75.3078 99.221 75.3078 99.5966C75.3078 99.9722 75.5582 100.223 75.9338 100.223H83.3832C83.7588 100.223 84.0092 99.9096 84.0092 99.5966ZM69.486 97.7186C69.7364 97.4682 69.7364 97.0926 69.486 96.8422C67.921 95.3398 67.1072 93.3366 67.1072 91.2082V90.5196C67.1072 90.144 66.8568 89.8936 66.4812 89.8936C66.1056 89.8936 65.8552 90.144 65.8552 90.5196V91.2082C65.8552 93.7122 66.8568 96.0284 68.6722 97.7186C68.7974 97.8438 68.9226 97.9064 69.1104 97.9064C69.2356 97.9064 69.3608 97.8438 69.486 97.7186ZM67.0446 83.0076V75.5582C67.0446 75.1826 66.7942 74.9322 66.4186 74.9322C66.043 74.9322 65.7926 75.1826 65.7926 75.5582V83.0076C65.7926 83.3832 66.043 83.6336 66.4186 83.6336C66.7942 83.6336 67.0446 83.3832 67.0446 83.0076ZM67.0446 68.0462V66.4812C67.0446 64.6032 67.608 62.7878 68.6096 61.2854C68.7974 60.9724 68.7348 60.5968 68.4218 60.409C68.1088 60.2212 67.7332 60.2838 67.5454 60.5968C66.356 62.3496 65.73 64.4154 65.73 66.5438V68.1088C65.73 68.4844 65.9804 68.7348 66.356 68.7348C66.7942 68.6722 67.0446 68.4218 67.0446 68.0462ZM74.3062 57.4042C74.9948 57.2164 75.746 57.1538 76.4346 57.1538H81.6304C82.006 57.1538 82.2564 56.9034 82.2564 56.5278C82.2564 56.1522 82.006 55.9018 81.6304 55.9018H76.4346C75.6208 55.9018 74.807 55.9644 73.9932 56.1522C73.6802 56.2148 73.4298 56.5904 73.555 56.9034C73.6176 57.2164 73.868 57.4042 74.181 57.4042C74.181 57.4042 74.2436 57.4042 74.3062 57.4042ZM89.205 57.0286C91.8342 56.5904 94.213 55.0254 95.778 52.8344C95.9658 52.5214 95.9032 52.1458 95.6528 51.958C95.3398 51.7702 94.9642 51.8328 94.7764 52.0832C93.4618 54.0238 91.3334 55.3384 89.0172 55.7766C88.7042 55.8392 88.4538 56.1522 88.5164 56.5278C88.579 56.8408 88.8294 57.0286 89.1424 57.0286C89.1424 57.0286 89.1424 57.0286 89.205 57.0286ZM97.5308 45.3224V40.2518C97.5308 39.5006 97.656 38.7494 97.7812 38.0608C97.8438 37.7478 97.656 37.3722 97.343 37.3096C97.03 37.247 96.6544 37.4348 96.5918 37.7478C96.404 38.5616 96.2788 39.438 96.2788 40.2518V45.3224C96.2788 45.698 96.5292 45.9484 96.9048 45.9484C97.2178 45.9484 97.5308 45.698 97.5308 45.3224ZM101.913 32.6146C103.227 31.8634 104.792 31.4252 106.357 31.4252H108.861C109.237 31.4252 109.487 31.1748 109.487 30.7992C109.487 30.4236 109.237 30.1732 108.861 30.1732H106.357C104.605 30.1732 102.852 30.674 101.287 31.5504C100.974 31.7382 100.911 32.1138 101.036 32.4268C101.162 32.6146 101.349 32.7398 101.6 32.7398C101.725 32.6772 101.788 32.6772 101.913 32.6146ZM229.116 30.7992C229.116 30.4236 228.866 30.1732 228.49 30.1732H221.041C220.665 30.1732 220.415 30.4236 220.415 30.7992C220.415 31.1748 220.665 31.4252 221.041 31.4252H228.49C228.866 31.4252 229.116 31.1122 229.116 30.7992ZM214.155 30.7992C214.155 30.4236 213.904 30.1732 213.529 30.1732H206.079C205.704 30.1732 205.453 30.4236 205.453 30.7992C205.453 31.1748 205.704 31.4252 206.079 31.4252H213.529C213.904 31.4252 214.155 31.1122 214.155 30.7992ZM199.193 30.7992C199.193 30.4236 198.943 30.1732 198.567 30.1732H191.118C190.742 30.1732 190.492 30.4236 190.492 30.7992C190.492 31.1748 190.742 31.4252 191.118 31.4252H198.567C198.943 31.4252 199.193 31.1122 199.193 30.7992ZM184.232 30.7992C184.232 30.4236 183.981 30.1732 183.606 30.1732H176.156C175.781 30.1732 175.53 30.4236 175.53 30.7992C175.53 31.1748 175.781 31.4252 176.156 31.4252H183.606C183.981 31.4252 184.232 31.1122 184.232 30.7992ZM169.333 30.7992C169.333 30.4236 169.083 30.1732 168.707 30.1732H161.258C160.882 30.1732 160.632 30.4236 160.632 30.7992C160.632 31.1748 160.882 31.4252 161.258 31.4252H168.707C169.02 31.4252 169.333 31.1122 169.333 30.7992ZM154.372 30.7992C154.372 30.4236 154.121 30.1732 153.746 30.1732H146.296C145.921 30.1732 145.67 30.4236 145.67 30.7992C145.67 31.1748 145.921 31.4252 146.296 31.4252H153.746C154.059 31.4252 154.372 31.1122 154.372 30.7992ZM139.41 30.7992C139.41 30.4236 139.16 30.1732 138.784 30.1732H131.335C130.959 30.1732 130.709 30.4236 130.709 30.7992C130.709 31.1748 130.959 31.4252 131.335 31.4252H138.784C139.097 31.4252 139.41 31.1122 139.41 30.7992ZM124.449 30.7992C124.449 30.4236 124.198 30.1732 123.823 30.1732H116.373C115.998 30.1732 115.747 30.4236 115.747 30.7992C115.747 31.1748 115.998 31.4252 116.373 31.4252H123.823C124.136 31.4252 124.449 31.1122 124.449 30.7992ZM217.785 194.686V190.93C217.785 190.554 217.535 190.304 217.159 190.304C216.784 190.304 216.533 190.554 216.533 190.93V194.686C216.533 195.062 216.784 195.312 217.159 195.312C217.472 195.312 217.785 195.062 217.785 194.686Z" fill="black"/>
<path opacity="0.1" d="M54.7125 98.0942V94.9016H52.6467V98.0942H47.4509V94.9016H45.3851V98.0942H40.1893V94.9016H38.1861V98.0942H35.9325V117.5H56.9661V98.0942H54.7125ZM42.5681 113.118H39.2503V109.8H42.5681V113.118ZM42.5681 107.86H39.2503V104.542H42.5681V107.86ZM48.0769 113.118H44.7591V109.8H48.0769V113.118ZM48.0769 107.86H44.7591V104.542H48.0769V107.86ZM53.5857 113.118H50.2679V109.8H53.5857V113.118ZM53.5857 107.86H50.2679V104.542H53.5857V107.86Z" fill="black"/>
<path opacity="0.1" d="M176.156 256.472V253.28H174.091V256.472H168.895V253.28H166.829V256.472H161.633V253.28H159.63V256.472H157.376V275.878H178.41V256.472H176.156ZM164.012 271.496H160.694V268.178H164.012V271.496ZM164.012 266.238H160.694V262.92H164.012V266.238ZM169.521 271.496H166.203V268.178H169.521V271.496ZM169.521 266.238H166.203V262.92H169.521V266.238ZM175.03 271.496H171.712V268.178H175.03V271.496ZM175.03 266.238H171.712V262.92H175.03V266.238Z" fill="black"/>
<path opacity="0.1" d="M273.938 23.4125V20.2198H271.872V23.4125H266.676V20.2198H264.61V23.4125H259.414V20.2198H257.349V23.4125H255.095V42.8185H276.129V23.4125H273.938ZM261.793 38.4365H258.475V35.1186H261.793V38.4365ZM261.793 33.1781H258.475V29.8603H261.793V33.1781ZM267.302 38.4365H263.984V35.1186H267.302V38.4365ZM267.302 33.1781H263.984V29.8603H267.302V33.1781ZM272.811 38.4365H269.493V35.1186H272.811V38.4365ZM272.811 33.1781H269.493V29.8603H272.811V33.1781Z" fill="black"/>
<path d="M278.57 213.216H110.677V51.3946C110.677 49.9548 111.804 48.828 113.243 48.828H276.003C277.443 48.828 278.57 49.9548 278.57 51.3946V213.216Z" fill="#D4D6D7"/>
<path d="M139.473 103.791C139.473 106.17 137.532 108.11 135.153 108.11C132.775 108.11 130.834 106.17 130.834 103.791C130.834 101.412 132.775 99.4713 135.153 99.4713C137.532 99.4087 139.473 101.349 139.473 103.791Z" fill="#A8ADAF"/>
<path d="M278.57 67.1698L256.848 88.0156C253.029 87.7026 249.398 87.8904 247.27 88.1408C247.02 88.1408 246.769 88.0782 246.456 87.8278C242.387 84.6352 238.569 61.348 236.941 48.7654H235.752C237.066 58.7814 240.885 84.9482 245.705 88.7668C246.268 89.205 246.832 89.3928 247.395 89.3302C249.711 89.0172 252.654 88.9546 255.658 89.1424L238.068 106.044L213.341 87.7026C210.774 85.8246 207.206 86.1376 205.015 88.3912C202.386 91.2082 200.32 93.4618 199.005 95.0894C197.253 97.2804 194.498 100.723 191.431 104.479L182.229 97.0926C187.675 89.8936 192.432 83.6962 195.187 80.441C200.883 73.9306 213.967 57.4668 220.853 48.828H219.35C212.339 57.6546 199.819 73.3672 194.31 79.6898C191.493 82.945 186.798 89.1424 181.29 96.3414L168.77 86.2628C168.895 86.0124 168.832 85.6994 168.644 85.5116C168.394 85.3238 168.144 85.3864 167.893 85.5116L155.624 75.6208C155.373 75.433 154.998 75.433 154.81 75.6834C154.622 75.9338 154.622 76.3094 154.872 76.4972L167.142 86.388C165.389 88.6416 160.444 95.0268 156.938 99.7844L124.011 74.3688C123.76 74.181 123.385 74.2436 123.197 74.494C123.009 74.7444 123.072 75.12 123.322 75.3078L156.312 100.723C155.561 101.725 154.935 102.601 154.434 103.353C150.553 108.987 145.295 114.37 136.155 111.428C126.765 108.423 125.513 101.537 125.513 101.224C125.513 101.099 125.45 100.974 125.325 100.849L116.812 93.5244C117.438 88.9546 118.189 82.5068 119.003 73.4924C119.879 63.9146 120.505 54.3368 120.881 48.7028H119.566C118.627 63.1008 117.125 81.1296 115.622 92.5854L111.115 88.7042V90.2692L115.434 93.9626C114.621 99.5966 113.869 103.353 113.118 103.853C112.492 104.104 111.804 104.542 111.115 104.98V106.42C111.991 105.794 112.868 105.293 113.556 104.918C114.057 104.667 115.059 104.229 116.436 94.839L124.261 101.537C124.574 102.852 126.389 109.487 135.717 112.43C137.595 113.056 139.348 113.306 140.975 113.306C147.799 113.306 152.181 108.486 155.311 103.916C155.811 103.165 156.437 102.288 157.126 101.349L169.834 111.115C163.01 119.879 156.312 128.017 151.617 132.399C146.046 137.595 138.972 143.667 133.275 148.55C125.263 143.291 117.688 137.595 117.625 137.532C117.625 137.532 117.625 137.532 117.563 137.532C117.563 137.532 117.563 137.532 117.5 137.47L111.052 133.964V135.341L115.622 137.845C114.558 138.096 112.93 138.534 111.052 138.909V140.099C113.932 139.535 116.311 138.909 117.125 138.659C118.439 139.661 125.137 144.669 132.336 149.364C126.953 153.933 122.884 157.251 122.821 157.314C122.571 157.502 122.508 157.877 122.759 158.128C122.884 158.253 123.072 158.315 123.197 158.315C123.322 158.315 123.447 158.253 123.572 158.19C123.635 158.128 127.829 154.685 133.401 149.99C135.028 151.054 136.718 152.118 138.346 153.057C139.473 153.746 140.725 154.497 142.039 155.248C145.295 157.126 149.176 159.505 153.12 161.946L141.789 174.278C141.664 174.466 141.601 174.717 141.664 174.904C141.726 175.092 141.914 175.28 142.165 175.28C142.29 175.28 152.681 176.156 161.07 188.05C168.394 198.379 175.405 207.081 187.675 212.965H190.554C176.97 207.206 169.709 198.192 162.009 187.362C154.81 177.221 146.421 174.779 143.354 174.216L154.059 162.572C161.821 167.518 169.145 172.901 170.022 176.407C171.274 181.477 177.471 187.737 180.413 190.742C181.164 191.493 181.853 192.182 181.978 192.37C182.792 193.622 188.238 196.689 189.302 197.315C189.365 197.315 189.365 197.378 189.428 197.378C190.492 197.691 197.002 199.444 202.198 199.444C204.89 199.444 207.269 198.943 208.27 197.503C209.898 195.249 214.53 191.556 218.286 188.614C220.915 186.548 223.232 184.733 224.045 183.731C224.296 183.481 225.36 182.479 227.05 180.914L231.495 185.359L197.753 212.965H199.631L232.309 186.172L238.13 191.994L214.53 212.965H216.283L239.32 192.495C239.445 192.37 239.508 192.245 239.508 192.057C239.508 191.869 239.445 191.744 239.32 191.619L233.122 185.421L261.48 162.197L271.121 169.959L235.501 201.635C233.874 203.074 233.686 205.578 235.126 207.269C235.939 208.208 237.066 208.708 238.193 208.708C239.069 208.708 240.008 208.395 240.76 207.769L277.944 175.405L278.445 175.843V173.402L277.881 173.903L272.936 169.959L278.445 165.076V163.511L271.997 169.208L262.419 161.508L278.445 148.425V146.922L261.48 160.819L255.471 155.999C263.421 149.051 271.621 141.914 278.445 136.03V134.465C273.687 138.596 264.235 146.797 254.532 155.248L242.638 145.67C253.092 135.341 267.177 121.381 269.43 118.69C273.186 114.12 274.689 100.723 271.058 94.3382C268.867 90.457 263.546 88.7668 258.225 88.1408L278.382 68.7348V67.1698H278.57ZM272.185 170.961L277.13 174.904L240.134 207.081C238.944 208.082 237.191 207.895 236.19 206.705C235.188 205.516 235.313 203.763 236.503 202.699L272.185 170.961ZM200.007 95.8406C201.322 94.213 203.325 91.9594 205.954 89.205C207.707 87.327 210.649 87.0766 212.715 88.6416L237.317 106.858L217.785 125.638L192.432 105.231C196.627 100.097 199.882 95.9658 200.007 95.8406ZM181.54 98.0316L190.68 105.418C187.237 109.675 183.418 114.182 180.288 117.876L171.524 111.115C174.967 106.733 178.347 102.226 181.54 98.0316ZM157.877 100.598C161.383 95.8406 166.328 89.518 168.081 87.2018L180.601 97.2804C177.408 101.475 173.965 105.982 170.585 110.364L157.877 100.598ZM152.494 133.463C157.251 129.081 163.949 120.818 170.835 112.054L179.537 118.752C176.595 122.133 174.341 124.574 173.59 125.012C171.524 126.202 155.123 134.34 147.486 138.096C149.176 136.531 150.929 134.966 152.494 133.463ZM153.933 161.32C150.052 158.879 146.108 156.5 142.665 154.497C141.288 153.683 140.036 152.932 138.972 152.306C137.47 151.429 135.905 150.428 134.402 149.426C137.407 146.86 140.787 143.98 144.105 141.1C145.232 140.537 171.399 127.641 174.153 126.076C175.03 125.576 177.471 122.946 180.538 119.441C180.538 119.441 180.538 119.441 180.601 119.441C180.789 119.441 180.977 119.378 181.102 119.19C181.227 119.065 181.227 118.877 181.227 118.69C184.482 114.934 188.363 110.301 191.744 106.17L216.972 126.452L204.013 138.909C204.013 138.909 204.013 138.909 203.951 138.909L183.794 163.762L165.702 149.489C165.452 149.301 165.139 149.301 164.888 149.551L153.933 161.32ZM207.331 197.127C205.265 200.07 194.123 197.691 189.866 196.501C187.487 195.124 183.543 192.745 183.042 191.994C182.855 191.681 182.354 191.18 181.352 190.179C178.473 187.237 172.463 181.164 171.274 176.407C170.335 172.588 162.948 167.079 154.998 162.009L165.264 150.866L183.418 165.139C183.668 165.327 184.044 165.327 184.232 165.076L203.888 140.85L210.023 194.248C208.834 195.312 207.957 196.251 207.331 197.127ZM226.675 179.975C224.734 181.728 223.482 182.917 223.169 183.23C222.418 184.169 220.039 185.985 217.535 187.988C215.344 189.741 212.965 191.556 211.025 193.309L204.827 139.598L217.723 127.203L240.947 145.858C235 151.742 230.431 156.187 230.305 156.312C230.243 156.375 230.18 156.5 230.118 156.625L226.675 179.975ZM254.657 156.876L260.666 161.696L232.434 184.795L227.989 180.351C233.373 175.53 243.764 166.453 254.657 156.876ZM253.718 156.124C243.827 164.763 233.811 173.527 228.052 178.723L231.307 157.001C232.246 156.062 236.503 151.93 241.886 146.609L253.718 156.124ZM241.824 145.044L218.662 126.389L238.256 107.609L261.918 125.137C256.284 130.771 248.334 138.596 241.824 145.044ZM270.119 94.9642C273.437 100.911 272.06 113.744 268.617 118.001C267.865 118.94 265.674 121.194 262.732 124.198L239.069 106.67L257.286 89.205C262.795 89.831 268.178 91.4586 270.119 94.9642Z" fill="white"/>
<path d="M272.748 194.248H178.473V210.524H272.748V194.248Z" fill="white"/>
<path d="M191.055 202.01H184.858V209.084H191.055V202.01Z" fill="#DED3FF"/>
<path d="M199.631 201.885H193.434V209.147H199.631V201.885Z" fill="#DED3FF"/>
<path d="M208.208 200.257H202.01V209.147H208.208V200.257Z" fill="#DED3FF"/>
<path d="M216.784 204.389H210.586V209.147H216.784V204.389Z" fill="#DED3FF"/>
<path d="M225.36 199.631H219.162V209.084H225.36V199.631Z" fill="#DED3FF"/>
<path d="M233.936 202.448H227.739V209.084H233.936V202.448Z" fill="#DED3FF"/>
<path d="M242.45 205.578H236.252V209.147H242.45V205.578Z" fill="#DED3FF"/>
<path d="M251.026 203.763H244.828V209.084H251.026V203.763Z" fill="#DED3FF"/>
<path d="M259.602 205.266H253.405V209.084H259.602V205.266Z" fill="#DED3FF"/>
<path d="M268.178 199.631H261.981V209.084H268.178V199.631Z" fill="#DED3FF"/>
<path d="M111.115 213.216H153.057C150.177 211.838 145.858 209.647 145.357 208.896C144.543 207.707 140.224 200.195 137.845 199.819C135.466 199.444 134.653 202.198 134.653 202.198L139.786 210.524L137.783 209.334C137.783 209.334 133.025 204.201 131.836 203.387C130.646 202.574 131.836 199.444 132.211 197.065C132.587 194.686 135.404 193.121 136.155 191.118C136.969 189.115 136.155 183.23 136.155 181.227C136.155 179.224 132.587 173.339 130.208 168.582C127.829 163.824 119.942 154.747 115.56 152.744C114.308 152.181 112.743 151.805 110.99 151.555V213.216H111.115Z" fill="#A8ADAF"/>
<path d="M209.773 95.9032L203.45 103.791L211.4 114.057L225.986 106.545L209.773 95.9032Z" fill="#A8ADAF"/>
<path d="M217.723 131.46L208.583 140.161L212.151 159.505L222.042 162.259L225.235 153.996L234.687 144.856L217.723 131.46Z" fill="#A8ADAF"/>
<path d="M278.57 213.216H110.677V51.3946C110.677 49.9548 111.804 48.828 113.243 48.828H276.003C277.443 48.828 278.57 49.9548 278.57 51.3946V213.216Z" stroke="#263238" stroke-miterlimit="10" stroke-linecap="round" stroke-linejoin="round"/>
<path d="M278.57 80.441H110.677V51.3946C110.677 49.9548 111.804 48.828 113.243 48.828H276.003C277.443 48.828 278.57 49.9548 278.57 51.3946V80.441Z" fill="#DED3FF" stroke="#263238" stroke-miterlimit="10"/>
<path d="M254.093 68.6096H121.694V74.1184H254.093V68.6096Z" fill="white" stroke="#263238" stroke-miterlimit="10" stroke-linecap="round" stroke-linejoin="round"/>
<path d="M276.128 48.828H121.569V63.0382H278.57V51.2694C278.57 49.8922 277.443 48.828 276.128 48.828Z" fill="#808080" stroke="#263238" stroke-miterlimit="10" stroke-linecap="round" stroke-linejoin="round"/>
<path d="M278.57 58.0928H110.677V51.3946C110.677 49.9548 111.804 48.828 113.243 48.828H276.003C277.443 48.828 278.57 49.9548 278.57 51.3946V58.0928Z" fill="#263238" stroke="#263238" stroke-miterlimit="10" stroke-linecap="round" stroke-linejoin="round"/>
<path d="M271.684 54.9001C272.375 54.9001 272.936 54.3396 272.936 53.6481C272.936 52.9567 272.375 52.3961 271.684 52.3961C270.993 52.3961 270.432 52.9567 270.432 53.6481C270.432 54.3396 270.993 54.9001 271.684 54.9001Z" fill="white"/>
<path d="M266.426 54.9001C267.117 54.9001 267.678 54.3396 267.678 53.6481C267.678 52.9567 267.117 52.3961 266.426 52.3961C265.734 52.3961 265.174 52.9567 265.174 53.6481C265.174 54.3396 265.734 54.9001 266.426 54.9001Z" fill="white"/>
<path d="M261.23 54.9001C261.921 54.9001 262.482 54.3396 262.482 53.6481C262.482 52.9567 261.921 52.3961 261.23 52.3961C260.538 52.3961 259.978 52.9567 259.978 53.6481C259.978 54.3396 260.538 54.9001 261.23 54.9001Z" fill="white"/>
<path d="M234.687 105.168H213.842C212.214 105.168 210.899 106.483 210.899 108.11V127.704C210.899 129.332 212.214 130.646 213.842 130.646H220.039L224.546 139.535L228.678 130.646H234.687C236.315 130.646 237.63 129.332 237.63 127.704V108.11C237.63 106.483 236.315 105.168 234.687 105.168Z" fill="#263238" stroke="#263238" stroke-miterlimit="10" stroke-linecap="round" stroke-linejoin="round"/>
<path d="M220.289 114.683L221.041 109.863H222.543V116.624H221.541V111.804L220.79 116.624H219.789L218.975 111.866V116.624H218.036V109.863H219.538L220.289 114.683Z" fill="#DED3FF"/>
<path d="M223.232 111.491C223.232 110.426 223.795 109.8 224.859 109.8C225.923 109.8 226.487 110.426 226.487 111.491V114.996C226.487 116.06 225.923 116.686 224.859 116.686C223.795 116.686 223.232 116.06 223.232 114.996V111.491ZM224.233 115.059C224.233 115.56 224.421 115.747 224.797 115.747C225.11 115.747 225.36 115.56 225.36 115.059V111.428C225.36 110.927 225.172 110.739 224.797 110.739C224.484 110.739 224.233 110.927 224.233 111.428V115.059Z" fill="#DED3FF"/>
<path d="M228.052 111.741V116.624H227.113V109.863H228.427L229.492 113.869V109.863H230.431V116.624H229.366L228.052 111.741Z" fill="#DED3FF"/>
<path d="M222.355 120.004C222.042 120.004 221.792 120.192 221.792 120.693V121.444H220.79V120.818C220.79 119.754 221.354 119.128 222.355 119.128C223.419 119.128 223.92 119.754 223.92 120.818C223.92 122.946 221.792 123.698 221.792 124.824C221.792 124.887 221.792 124.95 221.792 124.95H223.795V125.889H220.728V125.075C220.728 123.072 222.856 122.759 222.856 120.818C222.919 120.192 222.731 120.004 222.355 120.004Z" fill="#DED3FF"/>
<path d="M226.174 120.004C225.861 120.004 225.61 120.192 225.61 120.693V121.444H224.609V120.818C224.609 119.754 225.172 119.128 226.174 119.128C227.238 119.128 227.739 119.754 227.739 120.818C227.739 122.946 225.61 123.698 225.61 124.824C225.61 124.887 225.61 124.95 225.61 124.95H227.614V125.889H224.546V125.075C224.546 123.072 226.675 122.759 226.675 120.818C226.737 120.192 226.549 120.004 226.174 120.004Z" fill="#DED3FF"/>
<path d="M224.296 146.171C225.575 146.171 226.612 145.134 226.612 143.855C226.612 142.576 225.575 141.539 224.296 141.539C223.017 141.539 221.98 142.576 221.98 143.855C221.98 145.134 223.017 146.171 224.296 146.171Z" fill="#DED3FF" stroke="#263238" stroke-miterlimit="10" stroke-linecap="round" stroke-linejoin="round"/>
<path d="M152.994 88.3912C154.274 88.3912 155.311 87.3542 155.311 86.075C155.311 84.7958 154.274 83.7588 152.994 83.7588C151.715 83.7588 150.678 84.7958 150.678 86.075C150.678 87.3542 151.715 88.3912 152.994 88.3912Z" fill="#DED3FF" stroke="#263238" stroke-miterlimit="10" stroke-linecap="round" stroke-linejoin="round"/>
<path d="M185.734 143.104C185.734 144.356 184.67 145.42 183.418 145.42C182.166 145.42 181.102 144.356 181.102 143.104C181.102 141.852 182.166 140.787 183.418 140.787C184.67 140.787 185.734 141.852 185.734 143.104Z" fill="#DED3FF" stroke="#263238" stroke-miterlimit="10" stroke-linecap="round" stroke-linejoin="round"/>
<path d="M134.34 128.017C135.619 128.017 136.656 126.98 136.656 125.701C136.656 124.422 135.619 123.385 134.34 123.385C133.06 123.385 132.023 124.422 132.023 125.701C132.023 126.98 133.06 128.017 134.34 128.017Z" fill="#DED3FF" stroke="#263238" stroke-miterlimit="10" stroke-linecap="round" stroke-linejoin="round"/>
<path d="M143.917 183.856C143.917 185.108 142.853 186.172 141.601 186.172C140.349 186.172 139.285 185.108 139.285 183.856C139.285 182.604 140.349 181.54 141.601 181.54C142.916 181.54 143.917 182.542 143.917 183.856Z" fill="#DED3FF" stroke="#263238" stroke-miterlimit="10" stroke-linecap="round" stroke-linejoin="round"/>
<path d="M251.026 182.354C252.305 182.354 253.342 181.317 253.342 180.038C253.342 178.758 252.305 177.721 251.026 177.721C249.747 177.721 248.71 178.758 248.71 180.038C248.71 181.317 249.747 182.354 251.026 182.354Z" fill="#DED3FF" stroke="#263238" stroke-miterlimit="10" stroke-linecap="round" stroke-linejoin="round"/>
<path d="M262.857 111.178C264.137 111.178 265.174 110.141 265.174 108.861C265.174 107.582 264.137 106.545 262.857 106.545C261.578 106.545 260.541 107.582 260.541 108.861C260.541 110.141 261.578 111.178 262.857 111.178Z" fill="#DED3FF" stroke="#263238" stroke-miterlimit="10" stroke-linecap="round" stroke-linejoin="round"/>
<path d="M250.463 88.7668C251.742 88.7668 252.779 87.7298 252.779 86.4506C252.779 85.1714 251.742 84.1344 250.463 84.1344C249.183 84.1344 248.146 85.1714 248.146 86.4506C248.146 87.7298 249.183 88.7668 250.463 88.7668Z" fill="#DED3FF" stroke="#263238" stroke-miterlimit="10" stroke-linecap="round" stroke-linejoin="round"/>
<path d="M256.785 146.359C256.785 147.611 255.721 148.675 254.469 148.675C253.217 148.675 252.153 147.611 252.153 146.359C252.153 145.107 253.217 144.043 254.469 144.043C255.721 144.043 256.785 145.044 256.785 146.359Z" fill="#DED3FF" stroke="#263238" stroke-miterlimit="10" stroke-linecap="round" stroke-linejoin="round"/>
<path d="M193.058 124.637C194.338 124.637 195.375 123.6 195.375 122.32C195.375 121.041 194.338 120.004 193.058 120.004C191.779 120.004 190.742 121.041 190.742 122.32C190.742 123.6 191.779 124.637 193.058 124.637Z" fill="#DED3FF" stroke="#263238" stroke-miterlimit="10" stroke-linecap="round" stroke-linejoin="round"/>
<path d="M59.783 223.482C59.783 223.482 61.1602 239.132 61.661 242.387C62.1618 245.642 60.096 247.708 58.0302 249.899C55.9644 252.09 55.2132 256.66 55.2132 260.04C55.2132 263.421 54.7124 280.698 54.7124 281.825C54.7124 282.952 54.3994 285.581 54.3994 285.581C54.3994 285.581 59.4074 285.456 60.0334 285.456C60.6594 285.456 63.0382 276.567 63.6642 274.063C64.2902 271.559 69.173 255.784 71.051 251.402C72.929 247.02 72.929 243.764 73.6802 242.012C74.4314 240.259 75.433 226.236 75.433 226.236C75.433 226.236 83.884 241.135 84.197 243.138C84.51 245.142 84.6978 245.642 83.884 247.395C83.0702 249.148 81.38 252.278 81.5052 258.976C81.6304 265.674 85.3238 277.631 85.3238 277.631L85.8246 285.018C85.8246 285.018 88.6416 286.145 90.0814 286.771C91.5212 287.397 93.7122 284.141 93.7122 284.141C93.7122 284.141 93.6496 278.633 93.4618 274.564C93.274 270.495 94.4008 255.784 95.0268 253.28C95.6528 250.776 96.5918 245.267 95.9658 241.886C95.3398 238.506 93.3366 222.606 93.3366 222.606C93.3366 222.606 69.5486 223.983 66.5438 223.545C63.539 223.106 59.6578 222.919 59.6578 222.919L59.783 223.482Z" fill="#263238" stroke="#263238" stroke-miterlimit="10" stroke-linecap="round" stroke-linejoin="round"/>
<path d="M62.9131 280.323L63.8521 285.206C63.8521 285.206 67.7333 288.461 69.3609 289.713C70.9885 290.965 71.8649 290.652 71.8649 291.716C71.8649 292.78 70.7381 294.533 68.1089 294.971C65.4797 295.409 61.8489 294.846 58.8441 293.844C55.8393 292.843 54.5247 291.027 54.5247 291.027C54.5247 291.027 52.8971 291.403 52.8971 289.525C52.8971 287.647 54.2743 283.39 54.2743 283.39C54.2743 283.39 53.6483 281.074 54.2743 280.761C54.9003 280.448 57.0287 282.702 57.0287 282.702C57.0287 282.702 57.2791 277.318 62.9131 280.323Z" fill="white" stroke="#263238" stroke-miterlimit="10" stroke-linecap="round" stroke-linejoin="round"/>
<path d="M71.7397 292.279C71.3641 292.217 70.9885 292.217 70.7381 292.342C69.6739 292.905 65.2293 295.347 59.4701 292.592C55.7767 290.84 53.8987 289.087 53.0223 288.023C52.8971 288.649 52.8345 289.212 52.8345 289.65C52.8345 291.528 54.4621 291.153 54.4621 291.153C54.4621 291.153 55.8393 293.031 58.7815 293.97C61.7237 294.909 65.3545 295.535 68.0463 295.096C70.3625 294.596 71.4893 293.281 71.7397 292.279Z" fill="#F1EDFF" stroke="#263238" stroke-miterlimit="10" stroke-linecap="round" stroke-linejoin="round"/>
<path d="M95.0269 280.135C95.0269 280.135 93.4619 279.822 92.7733 281.262C92.0847 282.764 91.3961 284.705 91.3961 284.705C91.3961 284.705 88.5791 284.392 87.8905 284.079C87.2019 283.766 86.5133 282.952 86.5133 282.952C86.5133 282.952 85.1361 280.198 84.2597 281.137C83.3833 282.138 85.1361 285.393 85.1361 285.393C85.1361 285.393 83.7589 288.023 83.7589 289.65C83.7589 291.278 84.4475 292.905 84.4475 292.905C84.4475 292.905 87.2645 293.531 89.5181 293.531C91.7717 293.531 91.9595 292.905 94.4009 292.905C96.8423 292.905 103.165 294.408 105.293 293.907C107.422 293.406 109.3 291.966 109.175 290.965C108.987 289.963 101.788 287.522 99.5341 286.082C97.2805 284.58 96.9049 284.767 96.5293 284.141C96.0911 283.39 95.0269 280.135 95.0269 280.135Z" fill="white" stroke="#263238" stroke-miterlimit="10" stroke-linecap="round" stroke-linejoin="round"/>
<path d="M109.049 291.09C106.608 293.531 103.415 293.156 100.661 292.592C97.7187 292.029 95.0269 291.528 90.3945 291.716C86.8889 291.841 84.6979 291.653 83.8215 291.466C84.0093 292.279 84.2597 292.843 84.2597 292.843C84.2597 292.843 87.0767 293.469 89.3303 293.469C91.5839 293.469 91.7717 292.843 94.2131 292.843C96.6545 292.843 102.977 294.345 105.106 293.844C107.234 293.406 109.049 292.092 109.049 291.09Z" fill="#DED3FF" stroke="#263238" stroke-miterlimit="10" stroke-linecap="round" stroke-linejoin="round"/>
<path d="M56.2148 217.848L55.714 224.859C55.714 224.859 67.4828 227.551 77.1232 227.238C86.7636 226.925 97.1552 222.919 97.1552 222.919L95.152 215.657C95.152 215.657 73.7428 215.532 69.486 215.219C65.2292 214.968 62.6 212.026 61.035 212.402C59.47 212.84 57.592 217.723 57.592 217.723L56.2148 217.848Z" fill="white" stroke="#263238" stroke-miterlimit="10" stroke-linecap="round" stroke-linejoin="round"/>
<path d="M95.152 210.461L96.5292 217.66C96.5292 217.66 93.5244 219.413 84.51 220.164C75.4956 220.915 63.852 219.851 63.852 219.851L61.661 215.156L60.9098 220.665C60.9098 220.665 57.1538 220.665 56.4026 220.665C55.6514 220.665 55.1506 220.352 55.1506 220.352L56.5278 214.593C56.5278 214.593 57.1538 208.834 60.1586 207.394C63.1634 205.954 65.6674 207.519 67.6706 209.397C69.6738 211.275 72.0526 210.962 75.3078 210.962C78.563 210.962 92.5228 209.585 92.5228 209.585C92.5228 209.585 94.839 208.771 95.152 210.461Z" fill="#4B555A" stroke="#263238" stroke-miterlimit="10" stroke-linecap="round" stroke-linejoin="round"/>
<path d="M90.457 157.251C90.457 157.251 96.091 171.649 98.4698 176.782C100.849 181.916 102.977 187.925 102.727 191.18C102.476 194.436 98.4698 203.074 98.4698 203.074C98.4698 203.074 94.7138 178.347 93.9626 175.843C93.2114 173.339 89.5806 159.442 89.5806 159.442C89.5806 159.442 87.953 156.5 90.457 157.251Z" fill="#DED3FF" stroke="#263238" stroke-miterlimit="10" stroke-linecap="round" stroke-linejoin="round"/>
<path d="M59.7204 151.805C59.7204 151.805 56.4652 155.185 55.401 159.38C54.3994 163.574 53.6482 215.594 53.6482 216.471C53.6482 217.347 57.4668 215.344 58.218 214.968C58.9692 214.593 62.1618 208.646 62.1618 208.646L63.6642 214.718C63.6642 214.718 70.6128 213.967 76.4346 213.967C82.2564 213.967 97.5308 212.59 97.5308 212.59C97.5308 212.59 98.908 204.139 98.7828 199.569C98.6576 194.999 97.656 187.8 97.656 186.673C97.656 185.546 92.8358 161.508 91.083 158.002C89.3302 154.434 87.014 151.304 86.6384 151.054C86.2628 150.803 81.693 148.174 77.4362 147.924C73.1168 147.673 70.2372 146.547 66.4186 148.299C62.6 150.052 59.7204 151.805 59.7204 151.805Z" fill="#DED3FF" stroke="#263238" stroke-miterlimit="10" stroke-linecap="round" stroke-linejoin="round"/>
<path d="M84.3848 167.392C84.3848 167.392 86.5132 179.787 87.1392 183.919C87.7652 188.113 89.1424 204.389 89.1424 206.768C89.1424 209.147 89.1424 212.464 89.1424 212.464" stroke="#263238" stroke-miterlimit="10" stroke-linecap="round" stroke-linejoin="round"/>
<path d="M80.5662 172.651C80.5662 172.651 82.945 185.046 84.2596 192.495C85.5116 199.944 85.136 210.586 85.136 210.586" stroke="#263238" stroke-miterlimit="10" stroke-linecap="round" stroke-linejoin="round"/>
<path d="M66.9194 173.652L77.8118 172.651L78.1874 175.092L67.6706 175.969" stroke="#263238" stroke-miterlimit="10" stroke-linecap="round" stroke-linejoin="round"/>
<path d="M94.0877 171.148L87.7651 171.649L88.2659 173.778L93.8373 173.277" stroke="#263238" stroke-miterlimit="10" stroke-linecap="round" stroke-linejoin="round"/>
<path d="M75.8713 140.474C75.8713 140.474 70.0495 139.348 68.2967 140.099C66.5439 140.85 64.9163 143.917 64.3529 144.919C63.8521 145.921 58.5311 148.049 58.1555 149.614C57.7799 151.179 58.0303 153.683 58.6563 154.309C59.2823 154.935 62.9757 154.685 63.8521 154.935C64.7285 155.185 76.6225 163.01 78.6257 164.262C80.6289 165.514 84.1971 167.267 84.6979 166.766C85.1987 166.266 88.3913 158.441 88.8921 154.747C89.3929 151.054 88.7669 150.177 87.1393 147.173C85.5117 144.105 78.9387 140.85 75.8713 140.474Z" fill="#263238" stroke="#263238" stroke-miterlimit="10" stroke-linecap="round" stroke-linejoin="round"/>
<path d="M74.1185 130.458C74.1185 130.458 74.9949 136.03 74.9949 137.532C74.9949 139.035 72.6161 146.234 72.6161 146.234C72.6161 146.234 77.4363 156.563 80.0655 159.505C82.6947 162.384 84.0093 163.073 84.0093 163.073C84.0093 163.073 84.3849 157.126 84.7605 154.372C85.1361 151.617 89.1425 143.479 89.1425 143.479C89.1425 143.479 83.1329 144.418 82.3817 140.474C81.6305 136.531 81.8809 133.15 81.1297 131.147C80.3159 129.081 75.6209 129.582 74.1185 130.458Z" fill="white" stroke="#263238" stroke-miterlimit="10" stroke-linecap="round" stroke-linejoin="round"/>
<path d="M82.6947 141.601L79.8151 141.038L80.0655 143.542C80.0655 143.542 81.8183 148.174 85.1361 150.553C85.3239 150.678 85.5117 150.803 85.6995 150.866C86.3881 148.863 89.1425 143.417 89.1425 143.417C89.1425 143.417 83.8841 144.919 82.6947 141.601Z" fill="#263238" stroke="#263238" stroke-miterlimit="10" stroke-linecap="round" stroke-linejoin="round"/>
<path d="M92.8359 128.893L92.6481 132.336C92.6481 132.336 95.7781 134.59 96.0911 135.717C96.4041 136.781 94.5887 138.221 94.5887 138.221C94.5887 138.221 94.3383 144.23 93.7749 145.169C93.2741 146.108 90.6449 146.171 89.2051 146.171C87.7653 146.171 80.6289 144.105 79.3769 143.041C78.1249 141.914 76.6225 138.033 76.6225 138.033C76.6225 138.033 75.0575 132.462 74.8071 131.585C74.5567 130.709 75.4331 129.582 79.1265 128.393C82.8825 127.266 93.0237 127.266 92.8359 128.893Z" fill="white" stroke="#263238" stroke-miterlimit="10" stroke-linecap="round" stroke-linejoin="round"/>
<path d="M75.9339 133.025C75.9339 133.025 76.8103 134.966 78.4379 133.714C80.0655 132.524 80.3785 130.208 80.3785 130.208L70.8007 132.775C70.8007 132.775 70.0495 136.656 71.5519 138.534C73.0543 140.412 75.2453 139.348 75.1201 137.72C74.9949 136.218 75.9339 133.025 75.9339 133.025Z" fill="#263238" stroke="#263238" stroke-miterlimit="10" stroke-linecap="round" stroke-linejoin="round"/>
<path d="M91.9595 140.224C91.9595 140.224 89.8937 140.287 88.6417 139.16" stroke="#263238" stroke-miterlimit="10" stroke-linecap="round" stroke-linejoin="round"/>
<path d="M89.7059 132.649C89.8937 133.213 89.7685 133.714 89.5181 133.839C89.2677 133.901 88.8921 133.526 88.7669 132.962C88.6417 132.399 88.7043 131.898 88.9547 131.773C89.1425 131.648 89.5181 132.086 89.7059 132.649Z" fill="#263238"/>
<path d="M70.6755 133.213C70.6755 133.213 76.3095 132.274 83.1329 130.333C89.9563 128.393 92.8985 127.328 92.8985 127.328L89.8311 117.751C89.4555 116.874 88.8295 116.248 87.9531 115.873C86.0125 114.996 81.9435 115.184 79.0639 115.622C74.9323 116.248 71.6771 117.438 70.0495 120.38C68.4219 123.322 68.6723 126.702 69.1105 128.267C69.6113 129.832 70.6755 133.213 70.6755 133.213Z" fill="#263238" stroke="#263238" stroke-miterlimit="10" stroke-linecap="round" stroke-linejoin="round"/>
<path d="M80.8167 131.022C80.8167 131.022 91.1456 130.458 95.152 129.582C99.0958 128.706 102.351 124.011 102.351 124.011L92.8984 125.263C92.8358 125.263 86.4507 125.763 80.8167 131.022Z" fill="#263238" stroke="#263238" stroke-miterlimit="10" stroke-linecap="round" stroke-linejoin="round"/>
<path d="M76.8729 133.839C76.8729 133.839 75.9965 131.21 73.7429 132.086C71.4893 132.962 72.7413 137.344 74.4315 139.097C76.1217 140.85 78.1875 138.409 78.1875 138.409" fill="white"/>
<path d="M76.8729 133.839C76.8729 133.839 75.9965 131.21 73.7429 132.086C71.4893 132.962 72.7413 137.344 74.4315 139.097C76.1217 140.85 78.1875 138.409 78.1875 138.409" stroke="#263238" stroke-miterlimit="10" stroke-linecap="round" stroke-linejoin="round"/>
<path d="M87.8904 187.174L98.908 178.911C98.9706 178.848 99.0958 178.848 99.1584 178.848L106.858 179.599C107.296 179.662 107.422 180.225 107.046 180.413L97.2178 186.298L87.8904 187.174Z" fill="#263238" stroke="#263238" stroke-miterlimit="10" stroke-linecap="round" stroke-linejoin="round"/>
<path d="M81.067 187.675C81.067 187.675 82.8198 187.55 83.9466 186.423C85.0734 185.296 87.0766 181.853 88.0156 181.603C88.892 181.352 93.4618 180.601 94.3382 180.601C95.2146 180.601 95.7154 181.227 94.9642 181.978C94.213 182.729 90.6448 184.357 90.6448 184.357L90.2692 185.609C90.2692 185.609 99.847 184.482 100.598 184.482C101.349 184.482 101.85 185.233 101.85 185.734C101.85 186.235 99.847 187.737 99.221 188.363C98.595 188.989 95.152 191.493 94.2756 192.057C93.3992 192.558 84.3222 191.806 83.9466 191.806C83.571 191.806 80.9418 192.432 80.9418 192.432L81.067 187.675Z" fill="white" stroke="#263238" stroke-miterlimit="10" stroke-linecap="round" stroke-linejoin="round"/>
<path d="M100.786 186.924C100.786 186.924 96.7169 187.8 95.8405 188.301C94.9641 188.802 91.8967 188.301 91.8967 188.301" stroke="#263238" stroke-miterlimit="10" stroke-linecap="round" stroke-linejoin="round"/>
<path d="M97.9063 189.49L95.0893 190.367L92.2097 190.492" stroke="#263238" stroke-miterlimit="10" stroke-linecap="round" stroke-linejoin="round"/>
<path d="M66.669 163.699C66.7942 165.953 64.0398 179.725 64.0398 179.725L64.6658 181.728V182.229L82.2564 187.049C82.2564 187.049 82.2564 191.869 81.5052 193.997C80.754 196.126 80.128 199.944 80.128 199.944C80.128 199.944 72.4282 198.066 66.1056 195.875C59.783 193.747 49.9548 190.554 48.0142 188.426C46.1362 186.298 47.263 180.851 47.5134 179.975C47.7638 179.099 54.8376 160.506 56.2148 158.002C57.592 155.498 59.5952 153.057 62.287 153.808C64.9162 154.559 66.982 158.002 67.2324 159.505" fill="#DED3FF"/>
<path d="M66.669 163.699C66.7942 165.953 64.0398 179.725 64.0398 179.725L64.6658 181.728V182.229L82.2564 187.049C82.2564 187.049 82.2564 191.869 81.5052 193.997C80.754 196.126 80.128 199.944 80.128 199.944C80.128 199.944 72.4282 198.066 66.1056 195.875C59.783 193.747 49.9548 190.554 48.0142 188.426C46.1362 186.298 47.263 180.851 47.5134 179.975C47.7638 179.099 54.8376 160.506 56.2148 158.002C57.592 155.498 59.5952 153.057 62.287 153.808C64.9162 154.559 66.982 158.002 67.2324 159.505" stroke="#263238" stroke-miterlimit="10" stroke-linecap="round" stroke-linejoin="round"/>
<path d="M55.2133 182.729C56.5279 182.041 57.7799 181.415 58.2181 181.29C59.3449 181.039 63.7895 182.041 63.7895 182.041" stroke="#263238" stroke-miterlimit="10" stroke-linecap="round" stroke-linejoin="round"/>
<path d="M51.5198 184.795C51.5198 184.795 52.584 184.169 53.8986 183.418" stroke="#263238" stroke-miterlimit="10" stroke-linecap="round" stroke-linejoin="round"/>
<path d="M59.4074 178.473C58.531 178.097 57.7798 177.847 57.4668 177.847C56.5904 177.847 52.6466 179.725 52.6466 179.725" stroke="#263238" stroke-miterlimit="10" stroke-linecap="round" stroke-linejoin="round"/>
<path d="M62.7253 179.975C62.7253 179.975 61.9741 179.599 61.0977 179.224" stroke="#263238" stroke-miterlimit="10" stroke-linecap="round" stroke-linejoin="round"/>
</svg>
