<svg width="49" height="49" viewBox="0 0 49 49" fill="none" xmlns="http://www.w3.org/2000/svg">
<g id="Group">
<path id="Vector" d="M31.653 12.7964H17.3468C15.0634 12.7964 13.2056 14.6542 13.2056 16.9377V31.2439C13.2056 33.5274 15.0634 35.3857 17.3468 35.3857H31.653C33.9365 35.3857 35.7948 33.5279 35.7948 31.2439V16.9377C35.7948 14.6542 33.937 12.7964 31.653 12.7964ZM24.4999 31.5273C20.3998 31.5273 17.0639 28.1914 17.0639 24.0908C17.0639 19.9907 20.3998 16.6548 24.4999 16.6548C28.6006 16.6548 31.9365 19.9907 31.9365 24.0908C31.9365 28.1909 28.6 31.5273 24.4999 31.5273ZM32.1755 18.1923C31.2049 18.1923 30.4156 17.403 30.4156 16.4329C30.4156 15.4628 31.2049 14.6735 32.1755 14.6735C33.1456 14.6735 33.9349 15.4628 33.9349 16.4329C33.9349 17.403 33.1456 18.1923 32.1755 18.1923Z" fill="#DD2A7B"/>
<path id="Vector_2" d="M24.4998 19.7971C22.1329 19.7971 20.2056 21.7234 20.2056 24.0903C20.2056 26.4582 22.1329 28.385 24.4998 28.385C26.8677 28.385 28.7935 26.4582 28.7935 24.0903C28.7935 21.7239 26.8672 19.7971 24.4998 19.7971Z" fill="#DD2A7B"/>
<path id="Vector_3" d="M24.5 0.026123C11.2457 0.026123 0.5 10.7718 0.5 24.0261C0.5 37.2804 11.2457 48.0261 24.5 48.0261C37.7543 48.0261 48.5 37.2804 48.5 24.0261C48.5 10.7718 37.7543 0.026123 24.5 0.026123ZM38.9367 31.2439C38.9367 35.2606 35.6698 38.5275 31.6531 38.5275H17.3469C13.3308 38.5275 10.0633 35.2606 10.0633 31.2439V16.9377C10.0633 12.9216 13.3308 9.65414 17.3469 9.65414H31.6531C35.6698 9.65414 38.9367 12.9216 38.9367 16.9377V31.2439Z" fill="#DD2A7B"/>
</g>
</svg>
