<svg width="32" height="29" viewBox="0 0 32 29" fill="none" xmlns="http://www.w3.org/2000/svg">
<g id="Icon/Map_Pin">
<path id="icon" fill-rule="evenodd" clip-rule="evenodd" d="M16 25.6186L16.6577 25.0443C22.1887 20.2147 25 15.9978 25 12.291C25 7.04168 20.9029 3.29102 16 3.29102C11.0971 3.29102 7 7.04168 7 12.291C7 15.9978 9.81131 20.2147 15.3423 25.0443L16 25.6186ZM16 22.9544C11.3066 18.7246 9 15.1402 9 12.291C9 8.18762 12.1641 5.29102 16 5.29102C19.8359 5.29102 23 8.18762 23 12.291C23 15.1402 20.6934 18.7246 16 22.9544ZM16 7.29102C18.7614 7.29102 21 9.52959 21 12.291C21 15.0524 18.7614 17.291 16 17.291C13.2386 17.291 11 15.0524 11 12.291C11 9.52959 13.2386 7.29102 16 7.29102ZM13 12.291C13 10.6342 14.3431 9.29102 16 9.29102C17.6569 9.29102 19 10.6342 19 12.291C19 13.9479 17.6569 15.291 16 15.291C14.3431 15.291 13 13.9479 13 12.291Z" fill="#6B48FF"/>
</g>
</svg>
