<svg width="18" height="18" viewBox="0 0 18 18" fill="none" xmlns="http://www.w3.org/2000/svg">
<g id="Icon /Star">
<path id="Path" fill-rule="evenodd" clip-rule="evenodd" d="M5.82299 15.7051C5.08936 16.0908 4.23192 15.4678 4.37204 14.6509L4.88994 11.6313C4.94558 11.3069 4.83803 10.9759 4.60234 10.7462L2.40847 8.6077C1.81495 8.02917 2.14246 7.02119 2.96268 6.90201L5.99454 6.46145C6.32025 6.41412 6.60182 6.20956 6.74748 5.91441L8.10336 3.16708C8.47018 2.42384 9.53002 2.42384 9.89684 3.16708L11.2527 5.91441C11.3984 6.20956 11.68 6.41412 12.0057 6.46145L15.0375 6.90201C15.8577 7.02119 16.1853 8.02916 15.5917 8.6077L13.3979 10.7462C13.1622 10.9759 13.0546 11.3069 13.1103 11.6313L13.6282 14.6509C13.7683 15.4678 12.9108 16.0908 12.1772 15.7051L9.46544 14.2794C9.17412 14.1263 8.82608 14.1263 8.53476 14.2794L5.82299 15.7051Z" fill="#1EE0CC"/>
</g>
</svg>
